<mxfile host="app.diagrams.net" agent="Mozilla/5.0 (Windows NT 10.0; Win64; x64) AppleWebKit/537.36 (KHTML, like Gecko) Chrome/137.0.0.0 Safari/537.36" version="27.0.9" pages="2">
  <diagram name="Halaman-1" id="vJAsfVWypoUsnBPifvDN">
    <mxGraphModel dx="3007" dy="1547" grid="1" gridSize="10" guides="1" tooltips="1" connect="1" arrows="1" fold="1" page="1" pageScale="1" pageWidth="1654" pageHeight="1169" math="0" shadow="0">
      <root>
        <mxCell id="0" />
        <mxCell id="1" parent="0" />
        <mxCell id="9Ncm2iLSKqmqP2JbWU8S-1" value="" style="shape=image;verticalLabelPosition=bottom;labelBackgroundColor=default;verticalAlign=top;aspect=fixed;imageAspect=0;editableCssRules=.*;image=data:image/svg+xml,PHN2ZyB4bWxucz0iaHR0cDovL3d3dy53My5vcmcvMjAwMC9zdmciIGFyaWEtcm9sZWRlc2NyaXB0aW9uPSJmbG93Y2hhcnQtdjIiIHJvbGU9ImdyYXBoaWNzLWRvY3VtZW50IGRvY3VtZW50IiB2aWV3Qm94PSI4LjAwMDAwNzYyOTM5NDUzMSA4IDEzNTAuMTEyNDI2NzU3ODEyNSA2MDg2LjE0OTkwMjM0Mzc1IiBzdHlsZT0ibWF4LXdpZHRoOiAxMzY2LjExMjU0ODgyODEyNXB4OyIgY2xhc3M9ImZsb3djaGFydCIgd2lkdGg9IjEzNTAuMTEyNDI2NzU3ODEyNSIgaWQ9ImV4cG9ydC1zdmciIGhlaWdodD0iNjA4Ni4xNDk5MDIzNDM3NSI+PHN0eWxlPkBpbXBvcnQgdXJsKCJodHRwczovL2NkbmpzLmNsb3VkZmxhcmUuY29tL2FqYXgvbGlicy9mb250LWF3ZXNvbWUvNi4yLjAvY3NzL2FsbC5taW4uY3NzIik7IHAge21hcmdpbjogMDt9PC9zdHlsZT48c3R5bGU+I2V4cG9ydC1zdmd7Zm9udC1mYW1pbHk6YXJpYWwsc2Fucy1zZXJpZjtmb250LXNpemU6MTRweDtmaWxsOiMzMzM7fUBrZXlmcmFtZXMgZWRnZS1hbmltYXRpb24tZnJhbWV7ZnJvbXtzdHJva2UtZGFzaG9mZnNldDowO319QGtleWZyYW1lcyBkYXNoe3Rve3N0cm9rZS1kYXNob2Zmc2V0OjA7fX0jZXhwb3J0LXN2ZyAuZWRnZS1hbmltYXRpb24tc2xvd3tzdHJva2UtZGFzaGFycmF5OjksNSFpbXBvcnRhbnQ7c3Ryb2tlLWRhc2hvZmZzZXQ6OTAwO2FuaW1hdGlvbjpkYXNoIDUwcyBsaW5lYXIgaW5maW5pdGU7c3Ryb2tlLWxpbmVjYXA6cm91bmQ7fSNleHBvcnQtc3ZnIC5lZGdlLWFuaW1hdGlvbi1mYXN0e3N0cm9rZS1kYXNoYXJyYXk6OSw1IWltcG9ydGFudDtzdHJva2UtZGFzaG9mZnNldDo5MDA7YW5pbWF0aW9uOmRhc2ggMjBzIGxpbmVhciBpbmZpbml0ZTtzdHJva2UtbGluZWNhcDpyb3VuZDt9I2V4cG9ydC1zdmcgLmVycm9yLWljb257ZmlsbDojZmZmZmZmO30jZXhwb3J0LXN2ZyAuZXJyb3ItdGV4dHtmaWxsOiMwMDAwMDA7c3Ryb2tlOiMwMDAwMDA7fSNleHBvcnQtc3ZnIC5lZGdlLXRoaWNrbmVzcy1ub3JtYWx7c3Ryb2tlLXdpZHRoOjJweDt9I2V4cG9ydC1zdmcgLmVkZ2UtdGhpY2tuZXNzLXRoaWNre3N0cm9rZS13aWR0aDozLjVweDt9I2V4cG9ydC1zdmcgLmVkZ2UtcGF0dGVybi1zb2xpZHtzdHJva2UtZGFzaGFycmF5OjA7fSNleHBvcnQtc3ZnIC5lZGdlLXRoaWNrbmVzcy1pbnZpc2libGV7c3Ryb2tlLXdpZHRoOjA7ZmlsbDpub25lO30jZXhwb3J0LXN2ZyAuZWRnZS1wYXR0ZXJuLWRhc2hlZHtzdHJva2UtZGFzaGFycmF5OjM7fSNleHBvcnQtc3ZnIC5lZGdlLXBhdHRlcm4tZG90dGVke3N0cm9rZS1kYXNoYXJyYXk6Mjt9I2V4cG9ydC1zdmcgLm1hcmtlcntmaWxsOiMwMDAwMDA7c3Ryb2tlOiMwMDAwMDA7fSNleHBvcnQtc3ZnIC5tYXJrZXIuY3Jvc3N7c3Ryb2tlOiMwMDAwMDA7fSNleHBvcnQtc3ZnIHN2Z3tmb250LWZhbWlseTphcmlhbCxzYW5zLXNlcmlmO2ZvbnQtc2l6ZToxNHB4O30jZXhwb3J0LXN2ZyBwe21hcmdpbjowO30jZXhwb3J0LXN2ZyAubGFiZWx7Zm9udC1mYW1pbHk6YXJpYWwsc2Fucy1zZXJpZjtjb2xvcjojMzMzO30jZXhwb3J0LXN2ZyAuY2x1c3Rlci1sYWJlbCB0ZXh0e2ZpbGw6IzAwMDAwMDt9I2V4cG9ydC1zdmcgLmNsdXN0ZXItbGFiZWwgc3Bhbntjb2xvcjojMDAwMDAwO30jZXhwb3J0LXN2ZyAuY2x1c3Rlci1sYWJlbCBzcGFuIHB7YmFja2dyb3VuZC1jb2xvcjp0cmFuc3BhcmVudDt9I2V4cG9ydC1zdmcgLmxhYmVsIHRleHQsI2V4cG9ydC1zdmcgc3BhbntmaWxsOiMzMzM7Y29sb3I6IzMzMzt9I2V4cG9ydC1zdmcgLm5vZGUgcmVjdCwjZXhwb3J0LXN2ZyAubm9kZSBjaXJjbGUsI2V4cG9ydC1zdmcgLm5vZGUgZWxsaXBzZSwjZXhwb3J0LXN2ZyAubm9kZSBwb2x5Z29uLCNleHBvcnQtc3ZnIC5ub2RlIHBhdGh7ZmlsbDojZmZmZmZmO3N0cm9rZTojMDAwMDAwO3N0cm9rZS13aWR0aDoycHg7fSNleHBvcnQtc3ZnIC5yb3VnaC1ub2RlIC5sYWJlbCB0ZXh0LCNleHBvcnQtc3ZnIC5ub2RlIC5sYWJlbCB0ZXh0LCNleHBvcnQtc3ZnIC5pbWFnZS1zaGFwZSAubGFiZWwsI2V4cG9ydC1zdmcgLmljb24tc2hhcGUgLmxhYmVse3RleHQtYW5jaG9yOm1pZGRsZTt9I2V4cG9ydC1zdmcgLm5vZGUgLmthdGV4IHBhdGh7ZmlsbDojMDAwO3N0cm9rZTojMDAwO3N0cm9rZS13aWR0aDoxcHg7fSNleHBvcnQtc3ZnIC5yb3VnaC1ub2RlIC5sYWJlbCwjZXhwb3J0LXN2ZyAubm9kZSAubGFiZWwsI2V4cG9ydC1zdmcgLmltYWdlLXNoYXBlIC5sYWJlbCwjZXhwb3J0LXN2ZyAuaWNvbi1zaGFwZSAubGFiZWx7dGV4dC1hbGlnbjpjZW50ZXI7fSNleHBvcnQtc3ZnIC5ub2RlLmNsaWNrYWJsZXtjdXJzb3I6cG9pbnRlcjt9I2V4cG9ydC1zdmcgLnJvb3QgLmFuY2hvciBwYXRoe2ZpbGw6IzAwMDAwMCFpbXBvcnRhbnQ7c3Ryb2tlLXdpZHRoOjA7c3Ryb2tlOiMwMDAwMDA7fSNleHBvcnQtc3ZnIC5hcnJvd2hlYWRQYXRoe2ZpbGw6IzAwMDAwMDt9I2V4cG9ydC1zdmcgLmVkZ2VQYXRoIC5wYXRoe3N0cm9rZTojMDAwMDAwO3N0cm9rZS13aWR0aDoycHg7fSNleHBvcnQtc3ZnIC5mbG93Y2hhcnQtbGlua3tzdHJva2U6IzAwMDAwMDtmaWxsOm5vbmU7fSNleHBvcnQtc3ZnIC5lZGdlTGFiZWx7YmFja2dyb3VuZC1jb2xvcjpoc2woLTEyMCwgMCUsIDgwJSk7dGV4dC1hbGlnbjpjZW50ZXI7fSNleHBvcnQtc3ZnIC5lZGdlTGFiZWwgcHtiYWNrZ3JvdW5kLWNvbG9yOmhzbCgtMTIwLCAwJSwgODAlKTt9I2V4cG9ydC1zdmcgLmVkZ2VMYWJlbCByZWN0e29wYWNpdHk6MC41O2JhY2tncm91bmQtY29sb3I6aHNsKC0xMjAsIDAlLCA4MCUpO2ZpbGw6aHNsKC0xMjAsIDAlLCA4MCUpO30jZXhwb3J0LXN2ZyAubGFiZWxCa2d7YmFja2dyb3VuZC1jb2xvcjpyZ2JhKDIwNCwgMjA0LCAyMDQsIDAuNSk7fSNleHBvcnQtc3ZnIC5jbHVzdGVyIHJlY3R7ZmlsbDojZmZmZmZmO3N0cm9rZTpoc2woMCwgMCUsIDkwJSk7c3Ryb2tlLXdpZHRoOjJweDt9I2V4cG9ydC1zdmcgLmNsdXN0ZXIgdGV4dHtmaWxsOiMwMDAwMDA7fSNleHBvcnQtc3ZnIC5jbHVzdGVyIHNwYW57Y29sb3I6IzAwMDAwMDt9I2V4cG9ydC1zdmcgZGl2Lm1lcm1haWRUb29sdGlwe3Bvc2l0aW9uOmFic29sdXRlO3RleHQtYWxpZ246Y2VudGVyO21heC13aWR0aDoyMDBweDtwYWRkaW5nOjJweDtmb250LWZhbWlseTphcmlhbCxzYW5zLXNlcmlmO2ZvbnQtc2l6ZToxMnB4O2JhY2tncm91bmQ6I2ZmZmZmZjtib3JkZXI6MXB4IHNvbGlkIGhzbCgwLCAwJSwgOTAlKTtib3JkZXItcmFkaXVzOjJweDtwb2ludGVyLWV2ZW50czpub25lO3otaW5kZXg6MTAwO30jZXhwb3J0LXN2ZyAuZmxvd2NoYXJ0VGl0bGVUZXh0e3RleHQtYW5jaG9yOm1pZGRsZTtmb250LXNpemU6MThweDtmaWxsOiMzMzM7fSNleHBvcnQtc3ZnIHJlY3QudGV4dHtmaWxsOm5vbmU7c3Ryb2tlLXdpZHRoOjA7fSNleHBvcnQtc3ZnIC5pY29uLXNoYXBlLCNleHBvcnQtc3ZnIC5pbWFnZS1zaGFwZXtiYWNrZ3JvdW5kLWNvbG9yOmhzbCgtMTIwLCAwJSwgODAlKTt0ZXh0LWFsaWduOmNlbnRlcjt9I2V4cG9ydC1zdmcgLmljb24tc2hhcGUgcCwjZXhwb3J0LXN2ZyAuaW1hZ2Utc2hhcGUgcHtiYWNrZ3JvdW5kLWNvbG9yOmhzbCgtMTIwLCAwJSwgODAlKTtwYWRkaW5nOjJweDt9I2V4cG9ydC1zdmcgLmljb24tc2hhcGUgcmVjdCwjZXhwb3J0LXN2ZyAuaW1hZ2Utc2hhcGUgcmVjdHtvcGFjaXR5OjAuNTtiYWNrZ3JvdW5kLWNvbG9yOmhzbCgtMTIwLCAwJSwgODAlKTtmaWxsOmhzbCgtMTIwLCAwJSwgODAlKTt9I2V4cG9ydC1zdmcgLm5vZGUgLm5lby1ub2Rle3N0cm9rZTojMDAwMDAwO30jZXhwb3J0LXN2ZyBbZGF0YS1sb29rPSJuZW8iXS5ub2RlIHJlY3QsI2V4cG9ydC1zdmcgW2RhdGEtbG9vaz0ibmVvIl0uY2x1c3RlciByZWN0LCNleHBvcnQtc3ZnIFtkYXRhLWxvb2s9Im5lbyJdLm5vZGUgcG9seWdvbntzdHJva2U6dXJsKCNleHBvcnQtc3ZnLWdyYWRpZW50KTtmaWx0ZXI6ZHJvcC1zaGFkb3coIDBweCAxcHggMnB4IHJnYmEoMCwgMCwgMCwgMC4yNSkpO30jZXhwb3J0LXN2ZyBbZGF0YS1sb29rPSJuZW8iXS5ub2RlIHBhdGh7c3Ryb2tlOnVybCgjZXhwb3J0LXN2Zy1ncmFkaWVudCk7c3Ryb2tlLXdpZHRoOjI7fSNleHBvcnQtc3ZnIFtkYXRhLWxvb2s9Im5lbyJdLm5vZGUgLm91dGVyLXBhdGh7ZmlsdGVyOmRyb3Atc2hhZG93KCAwcHggMXB4IDJweCByZ2JhKDAsIDAsIDAsIDAuMjUpKTt9I2V4cG9ydC1zdmcgW2RhdGEtbG9vaz0ibmVvIl0ubm9kZSAubmVvLWxpbmUgcGF0aHtzdHJva2U6IzAwMDAwMDtmaWx0ZXI6bm9uZTt9I2V4cG9ydC1zdmcgW2RhdGEtbG9vaz0ibmVvIl0ubm9kZSBjaXJjbGV7c3Ryb2tlOnVybCgjZXhwb3J0LXN2Zy1ncmFkaWVudCk7ZmlsdGVyOmRyb3Atc2hhZG93KCAwcHggMXB4IDJweCByZ2JhKDAsIDAsIDAsIDAuMjUpKTt9I2V4cG9ydC1zdmcgW2RhdGEtbG9vaz0ibmVvIl0ubm9kZSBjaXJjbGUgLnN0YXRlLXN0YXJ0e2ZpbGw6IzAwMDAwMDt9I2V4cG9ydC1zdmcgW2RhdGEtbG9vaz0ibmVvIl0uc3RhdGVkaWFncmFtLWNsdXN0ZXIgcmVjdHtmaWxsOiNmZmZmZmY7c3Ryb2tlOnVybCgjZXhwb3J0LXN2Zy1ncmFkaWVudCk7c3Ryb2tlLXdpZHRoOjI7fSNleHBvcnQtc3ZnIFtkYXRhLWxvb2s9Im5lbyJdLmljb24tc2hhcGUgLmljb257ZmlsbDp1cmwoI2V4cG9ydC1zdmctZ3JhZGllbnQpO2ZpbHRlcjpkcm9wLXNoYWRvdyggMHB4IDFweCAycHggcmdiYSgwLCAwLCAwLCAwLjI1KSk7fSNleHBvcnQtc3ZnIFtkYXRhLWxvb2s9Im5lbyJdLmljb24tc2hhcGUgLmljb24tbmVvIHBhdGh7c3Ryb2tlOnVybCgjZXhwb3J0LXN2Zy1ncmFkaWVudCk7ZmlsdGVyOmRyb3Atc2hhZG93KCAwcHggMXB4IDJweCByZ2JhKDAsIDAsIDAsIDAuMjUpKTt9I2V4cG9ydC1zdmcgOnJvb3R7LS1tZXJtYWlkLWZvbnQtZmFtaWx5OiJ0cmVidWNoZXQgbXMiLHZlcmRhbmEsYXJpYWwsc2Fucy1zZXJpZjt9PC9zdHlsZT48Zz48bWFya2VyIG9yaWVudD0iYXV0byIgbWFya2VySGVpZ2h0PSIxNCIgbWFya2VyV2lkdGg9IjEwLjUiIG1hcmtlclVuaXRzPSJ1c2VyU3BhY2VPblVzZSIgcmVmWT0iNyIgcmVmWD0iNy43NSIgdmlld0JveD0iMCAwIDExLjUgMTQiIGNsYXNzPSJtYXJrZXIgZmxvd2NoYXJ0LXYyIiBpZD0iZXhwb3J0LXN2Z19mbG93Y2hhcnQtdjItcG9pbnRFbmQiPjxwYXRoIHN0eWxlPSJzdHJva2Utd2lkdGg6IDA7IHN0cm9rZS1kYXNoYXJyYXk6IDEsIDA7IiBjbGFzcz0iYXJyb3dNYXJrZXJQYXRoIiBkPSJNIDAgMCBMIDExLjUgNyBMIDAgMTQgeiIvPjwvbWFya2VyPjxtYXJrZXIgb3JpZW50PSJhdXRvIiBtYXJrZXJIZWlnaHQ9IjE0IiBtYXJrZXJXaWR0aD0iMTEuNSIgbWFya2VyVW5pdHM9InVzZXJTcGFjZU9uVXNlIiByZWZZPSI3IiByZWZYPSI0IiB2aWV3Qm94PSIwIDAgMTEuNSAxNCIgY2xhc3M9Im1hcmtlciBmbG93Y2hhcnQtdjIiIGlkPSJleHBvcnQtc3ZnX2Zsb3djaGFydC12Mi1wb2ludFN0YXJ0Ij48cG9seWdvbiBzdHlsZT0ic3Ryb2tlLXdpZHRoOiAwOyBzdHJva2UtZGFzaGFycmF5OiAxLCAwOyIgY2xhc3M9ImFycm93TWFya2VyUGF0aCIgcG9pbnRzPSIwLDcgMTEuNSwxNCAxMS41LDAiLz48L21hcmtlcj48bWFya2VyIG9yaWVudD0iYXV0byIgbWFya2VySGVpZ2h0PSIxNCIgbWFya2VyV2lkdGg9IjEwLjUiIG1hcmtlclVuaXRzPSJ1c2VyU3BhY2VPblVzZSIgcmVmWT0iNyIgcmVmWD0iMTEuNSIgdmlld0JveD0iMCAwIDExLjUgMTQiIGNsYXNzPSJtYXJrZXIgZmxvd2NoYXJ0LXYyIiBpZD0iZXhwb3J0LXN2Z19mbG93Y2hhcnQtdjItcG9pbnRFbmQtbWFyZ2luIj48cGF0aCBzdHlsZT0ic3Ryb2tlLXdpZHRoOiAwOyBzdHJva2UtZGFzaGFycmF5OiAxLCAwOyIgY2xhc3M9ImFycm93TWFya2VyUGF0aCIgZD0iTSAwIDAgTCAxMS41IDcgTCAwIDE0IHoiLz48L21hcmtlcj48bWFya2VyIG9yaWVudD0iYXV0byIgbWFya2VySGVpZ2h0PSIxNCIgbWFya2VyV2lkdGg9IjExLjUiIG1hcmtlclVuaXRzPSJ1c2VyU3BhY2VPblVzZSIgcmVmWT0iNyIgcmVmWD0iMSIgdmlld0JveD0iMCAwIDExLjUgMTQiIGNsYXNzPSJtYXJrZXIgZmxvd2NoYXJ0LXYyIiBpZD0iZXhwb3J0LXN2Z19mbG93Y2hhcnQtdjItcG9pbnRTdGFydC1tYXJnaW4iPjxwb2x5Z29uIHN0eWxlPSJzdHJva2Utd2lkdGg6IDA7IHN0cm9rZS1kYXNoYXJyYXk6IDEsIDA7IiBjbGFzcz0iYXJyb3dNYXJrZXJQYXRoIiBwb2ludHM9IjAsNyAxMS41LDE0IDExLjUsMCIvPjwvbWFya2VyPjxtYXJrZXIgb3JpZW50PSJhdXRvIiBtYXJrZXJIZWlnaHQ9IjE0IiBtYXJrZXJXaWR0aD0iMTQiIG1hcmtlclVuaXRzPSJ1c2VyU3BhY2VPblVzZSIgcmVmWD0iMTAuNzUiIHJlZlk9IjUiIHZpZXdCb3g9IjAgMCAxMCAxMCIgY2xhc3M9Im1hcmtlciBmbG93Y2hhcnQtdjIiIGlkPSJleHBvcnQtc3ZnX2Zsb3djaGFydC12Mi1jaXJjbGVFbmQiPjxjaXJjbGUgc3R5bGU9InN0cm9rZS13aWR0aDogMDsgc3Ryb2tlLWRhc2hhcnJheTogMSwgMDsiIGNsYXNzPSJhcnJvd01hcmtlclBhdGgiIHI9IjUiIGN5PSI1IiBjeD0iNSIvPjwvbWFya2VyPjxtYXJrZXIgb3JpZW50PSJhdXRvIiBtYXJrZXJIZWlnaHQ9IjE0IiBtYXJrZXJXaWR0aD0iMTQiIG1hcmtlclVuaXRzPSJ1c2VyU3BhY2VPblVzZSIgcmVmWT0iNSIgcmVmWD0iMCIgdmlld0JveD0iMCAwIDEwIDEwIiBjbGFzcz0ibWFya2VyIGZsb3djaGFydC12MiIgaWQ9ImV4cG9ydC1zdmdfZmxvd2NoYXJ0LXYyLWNpcmNsZVN0YXJ0Ij48Y2lyY2xlIHN0eWxlPSJzdHJva2Utd2lkdGg6IDA7IHN0cm9rZS1kYXNoYXJyYXk6IDEsIDA7IiBjbGFzcz0iYXJyb3dNYXJrZXJQYXRoIiByPSI1IiBjeT0iNSIgY3g9IjUiLz48L21hcmtlcj48bWFya2VyIG9yaWVudD0iYXV0byIgbWFya2VySGVpZ2h0PSIxNCIgbWFya2VyV2lkdGg9IjE0IiBtYXJrZXJVbml0cz0idXNlclNwYWNlT25Vc2UiIHJlZlg9IjEyLjI1IiByZWZZPSI1IiB2aWV3Qm94PSIwIDAgMTAgMTAiIGNsYXNzPSJtYXJrZXIgZmxvd2NoYXJ0LXYyIiBpZD0iZXhwb3J0LXN2Z19mbG93Y2hhcnQtdjItY2lyY2xlRW5kLW1hcmdpbiI+PGNpcmNsZSBzdHlsZT0ic3Ryb2tlLXdpZHRoOiAwOyBzdHJva2UtZGFzaGFycmF5OiAxLCAwOyIgY2xhc3M9ImFycm93TWFya2VyUGF0aCIgcj0iNSIgY3k9IjUiIGN4PSI1Ii8+PC9tYXJrZXI+PG1hcmtlciBvcmllbnQ9ImF1dG8iIG1hcmtlckhlaWdodD0iMTQiIG1hcmtlcldpZHRoPSIxNCIgbWFya2VyVW5pdHM9InVzZXJTcGFjZU9uVXNlIiByZWZZPSI1IiByZWZYPSItMiIgdmlld0JveD0iMCAwIDEwIDEwIiBjbGFzcz0ibWFya2VyIGZsb3djaGFydC12MiIgaWQ9ImV4cG9ydC1zdmdfZmxvd2NoYXJ0LXYyLWNpcmNsZVN0YXJ0LW1hcmdpbiI+PGNpcmNsZSBzdHlsZT0ic3Ryb2tlLXdpZHRoOiAwOyBzdHJva2UtZGFzaGFycmF5OiAxLCAwOyIgY2xhc3M9ImFycm93TWFya2VyUGF0aCIgcj0iNSIgY3k9IjUiIGN4PSI1Ii8+PC9tYXJrZXI+PG1hcmtlciBvcmllbnQ9ImF1dG8iIG1hcmtlckhlaWdodD0iMTIiIG1hcmtlcldpZHRoPSIxMiIgbWFya2VyVW5pdHM9InVzZXJTcGFjZU9uVXNlIiByZWZZPSI3LjUiIHJlZlg9IjE3LjciIHZpZXdCb3g9IjAgMCAxNSAxNSIgY2xhc3M9Im1hcmtlciBjcm9zcyBmbG93Y2hhcnQtdjIiIGlkPSJleHBvcnQtc3ZnX2Zsb3djaGFydC12Mi1jcm9zc0VuZCI+PHBhdGggc3R5bGU9InN0cm9rZS13aWR0aDogMi41OyIgY2xhc3M9ImFycm93TWFya2VyUGF0aCIgZD0iTSAxLDEgTCAxNCwxNCBNIDEsMTQgTCAxNCwxIi8+PC9tYXJrZXI+PG1hcmtlciBvcmllbnQ9ImF1dG8iIG1hcmtlckhlaWdodD0iMTIiIG1hcmtlcldpZHRoPSIxMiIgbWFya2VyVW5pdHM9InVzZXJTcGFjZU9uVXNlIiByZWZZPSI3LjUiIHJlZlg9Ii0zLjUiIHZpZXdCb3g9IjAgMCAxNSAxNSIgY2xhc3M9Im1hcmtlciBjcm9zcyBmbG93Y2hhcnQtdjIiIGlkPSJleHBvcnQtc3ZnX2Zsb3djaGFydC12Mi1jcm9zc1N0YXJ0Ij48cGF0aCBzdHlsZT0ic3Ryb2tlLXdpZHRoOiAyLjU7IHN0cm9rZS1kYXNoYXJyYXk6IDEsIDA7IiBjbGFzcz0iYXJyb3dNYXJrZXJQYXRoIiBkPSJNIDEsMSBMIDE0LDE0IE0gMSwxNCBMIDE0LDEiLz48L21hcmtlcj48bWFya2VyIG9yaWVudD0iYXV0byIgbWFya2VySGVpZ2h0PSIxMiIgbWFya2VyV2lkdGg9IjEyIiBtYXJrZXJVbml0cz0idXNlclNwYWNlT25Vc2UiIHJlZlk9IjcuNSIgcmVmWD0iMTcuNyIgdmlld0JveD0iMCAwIDE1IDE1IiBjbGFzcz0ibWFya2VyIGNyb3NzIGZsb3djaGFydC12MiIgaWQ9ImV4cG9ydC1zdmdfZmxvd2NoYXJ0LXYyLWNyb3NzRW5kLW1hcmdpbiI+PHBhdGggc3R5bGU9InN0cm9rZS13aWR0aDogMi41OyIgY2xhc3M9ImFycm93TWFya2VyUGF0aCIgZD0iTSAxLDEgTCAxNCwxNCBNIDEsMTQgTCAxNCwxIi8+PC9tYXJrZXI+PG1hcmtlciBvcmllbnQ9ImF1dG8iIG1hcmtlckhlaWdodD0iMTIiIG1hcmtlcldpZHRoPSIxMiIgbWFya2VyVW5pdHM9InVzZXJTcGFjZU9uVXNlIiByZWZZPSI3LjUiIHJlZlg9Ii0zLjUiIHZpZXdCb3g9IjAgMCAxNSAxNSIgY2xhc3M9Im1hcmtlciBjcm9zcyBmbG93Y2hhcnQtdjIiIGlkPSJleHBvcnQtc3ZnX2Zsb3djaGFydC12Mi1jcm9zc1N0YXJ0LW1hcmdpbiI+PHBhdGggc3R5bGU9InN0cm9rZS13aWR0aDogMi41OyBzdHJva2UtZGFzaGFycmF5OiAxLCAwOyIgY2xhc3M9ImFycm93TWFya2VyUGF0aCIgZD0iTSAxLDEgTCAxNCwxNCBNIDEsMTQgTCAxNCwxIi8+PC9tYXJrZXI+PGcgY2xhc3M9InJvb3QiPjxnIGNsYXNzPSJjbHVzdGVycyIvPjxnIGNsYXNzPSJlZGdlUGF0aHMiPjxwYXRoIG1hcmtlci1lbmQ9InVybCgjZXhwb3J0LXN2Z19mbG93Y2hhcnQtdjItcG9pbnRFbmQtbWFyZ2luKSIgZGF0YS1wb2ludHM9Ilczc2llQ0k2TWpZNUxqWTBNRFl5T1RjMk9ETTNNVFlzSW5raU9qVXpmU3g3SW5naU9qSTJPUzQyTkRBMk1qazNOamd6TnpFMkxDSjVJam8zT0gwc2V5SjRJam95TmprdU5qUXdOakk1TnpZNE16Y3hOaXdpZVNJNk1UQXpmVjA9IiBkYXRhLWlkPSJMX0FfQl8wIiBkYXRhLWV0PSJlZGdlIiBkYXRhLWVkZ2U9InRydWUiIHN0eWxlPSJzdHJva2UtZGFzaGFycmF5OiAwIDAgMzcgOTsgc3Ryb2tlLWRhc2hvZmZzZXQ6IDA7OyIgY2xhc3M9ImVkZ2UtdGhpY2tuZXNzLW5vcm1hbCBlZGdlLXBhdHRlcm4tc29saWQgZWRnZS10aGlja25lc3Mtbm9ybWFsIGVkZ2UtcGF0dGVybi1zb2xpZCBmbG93Y2hhcnQtbGluayIgaWQ9IkxfQV9CXzAiIGQ9Ik0yNjkuNjQwNjI5NzY4MzcxNiw1M0wyNjkuNjQwNjI5NzY4MzcxNiw3OEwyNjkuNjQwNjI5NzY4MzcxNiw5OSIvPjxwYXRoIG1hcmtlci1lbmQ9InVybCgjZXhwb3J0LXN2Z19mbG93Y2hhcnQtdjItcG9pbnRFbmQtbWFyZ2luKSIgZGF0YS1wb2ludHM9Ilczc2llQ0k2TWpZNUxqWTBNRFl5T1RjMk9ETTNNVFlzSW5raU9qRTBPSDBzZXlKNElqb3lOamt1TmpRd05qSTVOelk0TXpjeE5pd2llU0k2TVRjemZTeDdJbmdpT2pJM01DNHhOREEyTWprM05qZ3pOekUyTENKNUlqb3hPVGd1TlgxZCIgZGF0YS1pZD0iTF9CX0NfMCIgZGF0YS1ldD0iZWRnZSIgZGF0YS1lZGdlPSJ0cnVlIiBzdHlsZT0ic3Ryb2tlLWRhc2hhcnJheTogMCAwIDM3LjUwNDIxMTQyNTc4MTI1IDk7IHN0cm9rZS1kYXNob2Zmc2V0OiAwOzsiIGNsYXNzPSJlZGdlLXRoaWNrbmVzcy1ub3JtYWwgZWRnZS1wYXR0ZXJuLXNvbGlkIGVkZ2UtdGhpY2tuZXNzLW5vcm1hbCBlZGdlLXBhdHRlcm4tc29saWQgZmxvd2NoYXJ0LWxpbmsiIGlkPSJMX0JfQ18wIiBkPSJNMjY5LjY0MDYyOTc2ODM3MTYsMTQ4TDI2OS42NDA2Mjk3NjgzNzE2LDE2Mi4yNDc1NDkyNTUxNDMxNlEyNjkuNjQwNjI5NzY4MzcxNiwxNzMgMjY5Ljg1MTQyMTYxODUwMjcsMTgzLjc1MDM4NDM1NjY4NjU0TDI3MC4wNjIyMTM0Njg2MzM4LDE5NC41MDA3Njg3MTMzNzMxIi8+PHBhdGggbWFya2VyLWVuZD0idXJsKCNleHBvcnQtc3ZnX2Zsb3djaGFydC12Mi1wb2ludEVuZC1tYXJnaW4pIiBkYXRhLXBvaW50cz0iVzNzaWVDSTZNamMzTGpJNU1EWTRNemcyT1RZMU56ZzNMQ0o1SWpveU5ETXVOWDBzZXlKNElqb3lPRGd1TURjeE9EZ3dNelF3TlRjMk1pd2llU0k2TWpjNExqVjlMSHNpZUNJNk1qZ3pMakUyTnpVM05qTTBNVGM1TWpRc0lua2lPak15Tnk0MU1qWTVORFkxTnpNME1qQTVmVjA9IiBkYXRhLWlkPSJMX0NfRF8wIiBkYXRhLWV0PSJlZGdlIiBkYXRhLWVkZ2U9InRydWUiIHN0eWxlPSJzdHJva2UtZGFzaGFycmF5OiAwIDAgNzIuNDEyNDQ1MDY4MzU5MzggOTsgc3Ryb2tlLWRhc2hvZmZzZXQ6IDA7OyIgY2xhc3M9ImVkZ2UtdGhpY2tuZXNzLW5vcm1hbCBlZGdlLXBhdHRlcm4tc29saWQgZWRnZS10aGlja25lc3Mtbm9ybWFsIGVkZ2UtcGF0dGVybi1zb2xpZCBmbG93Y2hhcnQtbGluayIgaWQ9IkxfQ19EXzAiIGQ9Ik0yNzcuMjkwNjgzODY5NjU3ODcsMjQzLjVMMjgyLjY4MTI4MjEwNTExNywyNjFRMjg4LjA3MTg4MDM0MDU3NjIsMjc4LjUgMjg2LjI0OTIzMjU1ODgxNjg2LDI5Ni43MjA0OTY4MjA4ODIzTDI4My41NjU3MjA1NzQ2NDYyLDMyMy41NDY4MTA3NTAzODEwNCIvPjxwYXRoIG1hcmtlci1lbmQ9InVybCgjZXhwb3J0LXN2Z19mbG93Y2hhcnQtdjItcG9pbnRFbmQtbWFyZ2luKSIgZGF0YS1wb2ludHM9Ilczc2llQ0k2TWpVM0xqRXhNelk0TXpFNU5EazFNRGNzSW5raU9qTXlOeTQxTWpZNU5EWTFOek0wTWpBNWZTeDdJbmdpT2pJMU1TNHlNRGt6TnpreE9UWXhOamNzSW5raU9qSTNPQzQxZlN4N0luZ2lPakkyTWk0NU9UQTFOelUyTmpjd09EVXpMQ0o1SWpveU5ETXVOWDFkIiBkYXRhLWlkPSJMX0RfQ18wIiBkYXRhLWV0PSJlZGdlIiBkYXRhLWVkZ2U9InRydWUiIHN0eWxlPSJzdHJva2UtZGFzaGFycmF5OiAwIDAgNzIuNzcyMDk0NzI2NTYyNSA5OyBzdHJva2UtZGFzaG9mZnNldDogMDs7IiBjbGFzcz0iZWRnZS10aGlja25lc3Mtbm9ybWFsIGVkZ2UtcGF0dGVybi1zb2xpZCBlZGdlLXRoaWNrbmVzcy1ub3JtYWwgZWRnZS1wYXR0ZXJuLXNvbGlkIGZsb3djaGFydC1saW5rIiBpZD0iTF9EX0NfMCIgZD0iTTI1Ny4xMTM2ODMxOTQ5NTA3LDMyNy41MjY5NDY1NzM0MjA5TDI1My4xNzgwMDc4NjY4Nzg2NiwyOTQuODQ2Njk0MzIzNjI3MDVRMjUxLjIwOTM3OTE5NjE2NywyNzguNSAyNTYuNDYxOTQyMjk3NzI4MiwyNjIuODk1NDk3NjA0MzAxM0wyNjEuNzE0NTA1Mzk5Mjg5NCwyNDcuMjkwOTk1MjA4NjAyNTQiLz48cGF0aCBtYXJrZXItZW5kPSJ1cmwoI2V4cG9ydC1zdmdfZmxvd2NoYXJ0LXYyLXBvaW50RW5kLW1hcmdpbikiIGRhdGEtcG9pbnRzPSJXM3NpZUNJNk1qY3dMakUwTURZeU9UYzJPRE0zTVRZc0lua2lPalUzTkM0MWZTeDdJbmdpT2pJMk9TNDJOREEyTWprM05qZ3pOekUyTENKNUlqbzJNRGt1Tlgwc2V5SjRJam95TnpBdU1UUXdOakk1TnpZNE16Y3hOaXdpZVNJNk5qUTFMalY5WFE9PSIgZGF0YS1pZD0iTF9EX0VfMCIgZGF0YS1ldD0iZWRnZSIgZGF0YS1lZGdlPSJ0cnVlIiBzdHlsZT0ic3Ryb2tlLWRhc2hhcnJheTogMCAwIDU4LjAwNDkxMzMzMDA3ODEyNSA5OyBzdHJva2UtZGFzaG9mZnNldDogMDs7IiBjbGFzcz0iZWRnZS10aGlja25lc3Mtbm9ybWFsIGVkZ2UtcGF0dGVybi1zb2xpZCBlZGdlLXRoaWNrbmVzcy1ub3JtYWwgZWRnZS1wYXR0ZXJuLXNvbGlkIGZsb3djaGFydC1saW5rIiBpZD0iTF9EX0VfMCIgZD0iTTI3MC4xNDA2Mjk3NjgzNzE2LDU3NC41TDI2OS44NjkyMDI2NzQ3NTgzLDU5My40OTk4OTY1NTI5MzE3UTI2OS42NDA2Mjk3NjgzNzE2LDYwOS41IDI2OS44NjI4NTQ2NjkzOTAwNiw2MjUuNTAwMTkyODczMzMwOUwyNzAuMDg1MDc5NTcwNDA4NTQsNjQxLjUwMDM4NTc0NjY2MTgiLz48cGF0aCBtYXJrZXItZW5kPSJ1cmwoI2V4cG9ydC1zdmdfZmxvd2NoYXJ0LXYyLXBvaW50RW5kLW1hcmdpbikiIGRhdGEtcG9pbnRzPSJXM3NpZUNJNk16SXpMamMzTXpVNE56UTRPREkxT1RVc0lua2lPamd5Tnk0ME9USXdOREl5T0RBeE1USXhmU3g3SW5naU9qTTVOeTQzTlRrek9ERXlPVFF5TlRBMUxDSjVJam81TVRZdU1USTFmU3g3SW5naU9qTTVPQzR5TlRrek9ERXlPVFF5TlRBMUxDSjVJam81TlRJdU1USTFmVjA9IiBkYXRhLWlkPSJMX0VfRl8wIiBkYXRhLWV0PSJlZGdlIiBkYXRhLWVkZ2U9InRydWUiIHN0eWxlPSJzdHJva2UtZGFzaGFycmF5OiAwIDAgMTM3LjMxNzQ3NDM2NTIzNDM4IDk7IHN0cm9rZS1kYXNob2Zmc2V0OiAwOzsiIGNsYXNzPSJlZGdlLXRoaWNrbmVzcy1ub3JtYWwgZWRnZS1wYXR0ZXJuLXNvbGlkIGVkZ2UtdGhpY2tuZXNzLW5vcm1hbCBlZGdlLXBhdHRlcm4tc29saWQgZmxvd2NoYXJ0LWxpbmsiIGlkPSJMX0VfRl8wIiBkPSJNMzIzLjc3MzU4NzQ4ODI1OTUsODI3LjQ5MjA0MjI4MDExMjFMMzg4LjE3NDI1MTMzMDg4OTcsOTA0LjY0MjI3NjQyNDU4MDRRMzk3Ljc1OTM4MTI5NDI1MDUsOTE2LjEyNSAzOTcuOTY3MTA0NzEwNzYyNDQsOTMxLjA4MTA4NTk4ODg2MjRMMzk4LjIwMzgzMTA5NjI4NzQ0LDk0OC4xMjUzODU3NDY2NjE4Ii8+PHBhdGggbWFya2VyLWVuZD0idXJsKCNleHBvcnQtc3ZnX2Zsb3djaGFydC12Mi1wb2ludEVuZC1tYXJnaW4pIiBkYXRhLXBvaW50cz0iVzNzaWVDSTZNakUyTGpVd056WTNNakEwT0RRNE16WXNJbmtpT2pneU55NDBPVEl3TkRJeU9EQXhNVEl4ZlN4N0luZ2lPakUwTVM0MU1qRTROemd5TkRJME9USTJPQ3dpZVNJNk9URTJMakV5Tlgwc2V5SjRJam94TkRFdU5USXhPRGM0TWpReU5Ea3lOamdzSW5raU9qazFNUzQyTWpWOVhRPT0iIGRhdGEtaWQ9IkxfRV9HXzAiIGRhdGEtZXQ9ImVkZ2UiIGRhdGEtZWRnZT0idHJ1ZSIgc3R5bGU9InN0cm9rZS1kYXNoYXJyYXk6IDAgMCAxMzcuNDIyNzkwNTI3MzQzNzUgOTsgc3Ryb2tlLWRhc2hvZmZzZXQ6IDA7OyIgY2xhc3M9ImVkZ2UtdGhpY2tuZXNzLW5vcm1hbCBlZGdlLXBhdHRlcm4tc29saWQgZWRnZS10aGlja25lc3Mtbm9ybWFsIGVkZ2UtcGF0dGVybi1zb2xpZCBmbG93Y2hhcnQtbGluayIgaWQ9IkxfRV9HXzAiIGQ9Ik0yMTYuNTA3NjcyMDQ4NDgzNiw4MjcuNDkyMDQyMjgwMTEyMUwxNTAuOTExODU3OTU3NTMwNzcsOTA1LjAyNjA3NTM1MjY2MTJRMTQxLjUyMTg3ODI0MjQ5MjY4LDkxNi4xMjUgMTQxLjUyMTg3ODI0MjQ5MjY4LDkzMC42NjMxNTE0NDI4ODA2TDE0MS41MjE4NzgyNDI0OTI2OCw5NDcuNjI1Ii8+PHBhdGggbWFya2VyLWVuZD0idXJsKCNleHBvcnQtc3ZnX2Zsb3djaGFydC12Mi1wb2ludEVuZC1tYXJnaW4pIiBkYXRhLXBvaW50cz0iVzNzaWVDSTZNems0TGpJMU9UTTRNVEk1TkRJMU1EVXNJbmtpT2pFd01UZ3VNVEkxZlN4N0luZ2lPak01Tnk0M05Ua3pPREV5T1RReU5UQTFMQ0o1SWpveE1EUXlMall5Tlgwc2V5SjRJam96TkRNdU1ETTFOemd4TkRrNE5qRXpNaXdpZVNJNk1UQTJPQzR4TWpWOVhRPT0iIGRhdGEtaWQ9IkxfRl9IXzAiIGRhdGEtZXQ9ImVkZ2UiIGRhdGEtZWRnZT0idHJ1ZSIgc3R5bGU9InN0cm9rZS1kYXNoYXJyYXk6IDAgMCA3MC4wMDMxNTA5Mzk5NDE0IDk7IHN0cm9rZS1kYXNob2Zmc2V0OiAwOzsiIGNsYXNzPSJlZGdlLXRoaWNrbmVzcy1ub3JtYWwgZWRnZS1wYXR0ZXJuLXNvbGlkIGVkZ2UtdGhpY2tuZXNzLW5vcm1hbCBlZGdlLXBhdHRlcm4tc29saWQgZmxvd2NoYXJ0LWxpbmsiIGlkPSJMX0ZfSF8wIiBkPSJNMzk4LjI1OTM4MTI5NDI1MDUsMTAxOC4xMjVMMzk3Ljk1MjMxNDQ5NDQ0NjksMTAzMy4xNzEyNzMxOTAzNzRRMzk3Ljc1OTM4MTI5NDI1MDUsMTA0Mi42MjUgMzg5LjE4ODUyOTQ5MDQ1NTU1LDEwNDYuNjE4ODI5Mzg2NDYxNEwzNDYuNjYxNDcwMTUzNzg4NSwxMDY2LjQzNTUwODQyNjg1MzQiLz48cGF0aCBtYXJrZXItZW5kPSJ1cmwoI2V4cG9ydC1zdmdfZmxvd2NoYXJ0LXYyLXBvaW50RW5kLW1hcmdpbikiIGRhdGEtcG9pbnRzPSJXM3NpZUNJNk1UUXhMalV5TVRnM09ESTBNalE1TWpZNExDSjVJam94TURFM0xqWXlOWDBzZXlKNElqb3hOREV1TlRJeE9EYzRNalF5TkRreU5qZ3NJbmtpT2pFd05ESXVOakkxZlN4N0luZ2lPakU1Tnk0eU5EVTBOemd3TXpneE16QXhNeXdpZVNJNk1UQTJPQzR4TWpWOVhRPT0iIGRhdGEtaWQ9IkxfR19IXzAiIGRhdGEtZXQ9ImVkZ2UiIGRhdGEtZWRnZT0idHJ1ZSIgc3R5bGU9InN0cm9rZS1kYXNoYXJyYXk6IDAgMCA3MS4zNTkxNjEzNzY5NTMxMiA5OyBzdHJva2UtZGFzaG9mZnNldDogMDs7IiBjbGFzcz0iZWRnZS10aGlja25lc3Mtbm9ybWFsIGVkZ2UtcGF0dGVybi1zb2xpZCBlZGdlLXRoaWNrbmVzcy1ub3JtYWwgZWRnZS1wYXR0ZXJuLXNvbGlkIGZsb3djaGFydC1saW5rIiBpZD0iTF9HX0hfMCIgZD0iTTE0MS41MjE4NzgyNDI0OTI2OCwxMDE3LjYyNUwxNDEuNTIxODc4MjQyNDkyNjgsMTAzMy4zNzExNzAxNTc0OTUzUTE0MS41MjE4NzgyNDI0OTI2OCwxMDQyLjYyNSAxNDkuOTM2NDk0ODM0NDkwNDUsMTA0Ni40NzU2NjE1NDg4Mzg4TDE5My42MDgyMzA4NzIyNzExOCwxMDY2LjQ2MDUzODIwODc3NCIvPjxwYXRoIG1hcmtlci1lbmQ9InVybCgjZXhwb3J0LXN2Z19mbG93Y2hhcnQtdjItcG9pbnRFbmQtbWFyZ2luKSIgZGF0YS1wb2ludHM9Ilczc2llQ0k2TXpNNUxqRTVPRGd4T1RReU16VTBOREVzSW5raU9qRXhNelF1TVRJMWZTeDdJbmdpT2pNNU1TNHdNVFUyTWprM05qZ3pOekUyTENKNUlqb3hNVFU0TGpZeU5YMHNleUo0SWpvek9URXVOVEUxTmpJNU56WTRNemN4Tml3aWVTSTZNVEU0TkM0eE1qVjlYUT09IiBkYXRhLWlkPSJMX0hfSV8wIiBkYXRhLWV0PSJlZGdlIiBkYXRhLWVkZ2U9InRydWUiIHN0eWxlPSJzdHJva2UtZGFzaGFycmF5OiAwIDAgNjcuOTU0OTMzMTY2NTAzOSA5OyBzdHJva2UtZGFzaG9mZnNldDogMDs7IiBjbGFzcz0iZWRnZS10aGlja25lc3Mtbm9ybWFsIGVkZ2UtcGF0dGVybi1zb2xpZCBlZGdlLXRoaWNrbmVzcy1ub3JtYWwgZWRnZS1wYXR0ZXJuLXNvbGlkIGZsb3djaGFydC1saW5rIiBpZD0iTF9IX0lfMCIgZD0iTTMzOS4xOTg4MTk0MjM1NDQxLDExMzQuMTI1TDM4Mi40MzQxNzcxNzAyNTUxLDExNTQuNTY3NTIxNjAxNDg5NVEzOTEuMDE1NjI5NzY4MzcxNiwxMTU4LjYyNSAzOTEuMjAxNzE4MjUyMDgxNSwxMTY4LjExNTUxMjY2OTIwNDVMMzkxLjQzNzIxMzQ2ODYzMzgsMTE4MC4xMjU3Njg3MTMzNzMyIi8+PHBhdGggbWFya2VyLWVuZD0idXJsKCNleHBvcnQtc3ZnX2Zsb3djaGFydC12Mi1wb2ludEVuZC1tYXJnaW4pIiBkYXRhLXBvaW50cz0iVzNzaWVDSTZOREF3TGpNNU5Ea3hPRE0yTlRJd01EQTJMQ0o1SWpveE1qVXdMakV5Tlgwc2V5SjRJam8wTURrdU5EUTJPRGd3TXpRd05UYzJNaXdpZVNJNk1USTROUzR4TWpWOUxIc2llQ0k2TkRBeExqUTVPRGd4TlRrd05EWTNORGNzSW5raU9qRXpNekV1TVRBNE1UZzJNVE0yTXpBek1uMWQiIGRhdGEtaWQ9IkxfSV9KXzAiIGRhdGEtZXQ9ImVkZ2UiIGRhdGEtZWRnZT0idHJ1ZSIgc3R5bGU9InN0cm9rZS1kYXNoYXJyYXk6IDAgMCA2OS4yNzc3MjUyMTk3MjY1NiA5OyBzdHJva2UtZGFzaG9mZnNldDogMDs7IiBjbGFzcz0iZWRnZS10aGlja25lc3Mtbm9ybWFsIGVkZ2UtcGF0dGVybi1zb2xpZCBlZGdlLXRoaWNrbmVzcy1ub3JtYWwgZWRnZS1wYXR0ZXJuLXNvbGlkIGZsb3djaGFydC1saW5rIiBpZD0iTF9JX0pfMCIgZD0iTTQwMC4zOTQ5MTgzNjUyMDAwNiwxMjUwLjEyNUw0MDQuOTIwODk5MzUyODg4MSwxMjY3LjYyNVE0MDkuNDQ2ODgwMzQwNTc2MiwxMjg1LjEyNSA0MDYuMzY4MTgwNzE2NzkyNSwxMzAyLjkzNjY4NDcxODk1NDJMNDAyLjE4MDEwMjQ0Njk5NzUsMTMyNy4xNjY2MzIwNDU5NDEiLz48cGF0aCBtYXJrZXItZW5kPSJ1cmwoI2V4cG9ydC1zdmdfZmxvd2NoYXJ0LXYyLXBvaW50RW5kLW1hcmdpbikiIGRhdGEtcG9pbnRzPSJXM3NpZUNJNk16UTRMamMwTXpJeE16RTJNamMwTVRNM0xDSjVJam94TXpZekxqZzVOelF4TmpZd05UWXpmU3g3SW5naU9qRTRPQzQxTURZeU5UVXhORGs0TkRFekxDSjVJam94TWpnMUxqRXlOWDBzZXlKNElqb3lPVE11T1RVMk16WTVNREF6TWpRd01pd2llU0k2TVRJMU1DNHhNalY5WFE9PSIgZGF0YS1pZD0iTF9KX0lfMCIgZGF0YS1ldD0iZWRnZSIgZGF0YS1lZGdlPSJ0cnVlIiBzdHlsZT0ic3Ryb2tlLWRhc2hhcnJheTogMCAwIDI3Mi42MTkzNTQyNDgwNDY5IDk7IHN0cm9rZS1kYXNob2Zmc2V0OiAwOzsiIGNsYXNzPSJlZGdlLXRoaWNrbmVzcy1ub3JtYWwgZWRnZS1wYXR0ZXJuLXNvbGlkIGVkZ2UtdGhpY2tuZXNzLW5vcm1hbCBlZGdlLXBhdHRlcm4tc29saWQgZmxvd2NoYXJ0LWxpbmsiIGlkPSJMX0pfSV8wIiBkPSJNMzQ4Ljc0MzIxMzE2Mjc0MTM3LDEzNjMuODk3NDE2NjA1NjNMMTkzLjM1NTA1MTEzNzYxMDU2LDEyODcuNTA4NjY1OTMwMjYyNlExODguNTA2MjU1MTQ5ODQxMywxMjg1LjEyNSAxOTMuNjM0MTk5OTY3MTE4ODMsMTI4My40MjI5ODEyNzI0MTI1TDI5MC4xNjAwMTg0NTI2MjQ5NywxMjUxLjM4NTA0ODYwODkyMSIvPjxwYXRoIG1hcmtlci1lbmQ9InVybCgjZXhwb3J0LXN2Z19mbG93Y2hhcnQtdjItcG9pbnRFbmQtbWFyZ2luKSIgZGF0YS1wb2ludHM9Ilczc2llQ0k2TXpreExqVXhOVFl5T1RjMk9ETTNNVFlzSW5raU9qRTBORGd1TlRnM05UQXhOVEkxT0RjNE5YMHNleUo0SWpvek9URXVNREUxTmpJNU56WTRNemN4Tml3aWVTSTZNVFE0TXk0MU9EYzFNREUxTWpVNE56bDlMSHNpZUNJNk16a3hMakF4TlRZeU9UYzJPRE0zTVRZc0lua2lPakUxTVRrdU1EZzNOVEF4TlRJMU9EYzVmVjA9IiBkYXRhLWlkPSJMX0pfS18wIiBkYXRhLWV0PSJlZGdlIiBkYXRhLWVkZ2U9InRydWUiIHN0eWxlPSJzdHJva2UtZGFzaGFycmF5OiAwIDAgNTcuNTAzMDM2NDk5MDIzNDQgOTsgc3Ryb2tlLWRhc2hvZmZzZXQ6IDA7OyIgY2xhc3M9ImVkZ2UtdGhpY2tuZXNzLW5vcm1hbCBlZGdlLXBhdHRlcm4tc29saWQgZWRnZS10aGlja25lc3Mtbm9ybWFsIGVkZ2UtcGF0dGVybi1zb2xpZCBmbG93Y2hhcnQtbGluayIgaWQ9IkxfSl9LXzAiIGQ9Ik0zOTEuNTE1NjI5NzY4MzcxNiwxNDQ4LjU4NzUwMTUyNTg3ODVMMzkxLjI0MDYwNjgxMjcwMTQ2LDE0NjcuODM5MTA4NDIyNzg2N1EzOTEuMDE1NjI5NzY4MzcxNiwxNDgzLjU4NzUwMTUyNTg3OSAzOTEuMDE1NjI5NzY4MzcxNiwxNDk5LjMzNzUwMTUyNTg3OUwzOTEuMDE1NjI5NzY4MzcxNiwxNTE1LjA4NzUwMTUyNTg3OSIvPjxwYXRoIG1hcmtlci1lbmQ9InVybCgjZXhwb3J0LXN2Z19mbG93Y2hhcnQtdjItcG9pbnRFbmQtbWFyZ2luKSIgZGF0YS1wb2ludHM9Ilczc2llQ0k2TXpreExqQXhOVFl5T1RjMk9ETTNNVFlzSW5raU9qRTJNRFl1TURnM05UQXhOVEkxT0RjNWZTeDdJbmdpT2pNNU1TNHdNVFUyTWprM05qZ3pOekUyTENKNUlqb3hOak14TGpBNE56VXdNVFV5TlRnM09YMHNleUo0SWpvek9URXVNREUxTmpJNU56WTRNemN4Tml3aWVTSTZNVFkxTmk0d09EYzFNREUxTWpVNE56bDlYUT09IiBkYXRhLWlkPSJMX0tfTF8wIiBkYXRhLWV0PSJlZGdlIiBkYXRhLWVkZ2U9InRydWUiIHN0eWxlPSJzdHJva2UtZGFzaGFycmF5OiAwIDAgMzcgOTsgc3Ryb2tlLWRhc2hvZmZzZXQ6IDA7OyIgY2xhc3M9ImVkZ2UtdGhpY2tuZXNzLW5vcm1hbCBlZGdlLXBhdHRlcm4tc29saWQgZWRnZS10aGlja25lc3Mtbm9ybWFsIGVkZ2UtcGF0dGVybi1zb2xpZCBmbG93Y2hhcnQtbGluayIgaWQ9IkxfS19MXzAiIGQ9Ik0zOTEuMDE1NjI5NzY4MzcxNiwxNjA2LjA4NzUwMTUyNTg3OUwzOTEuMDE1NjI5NzY4MzcxNiwxNjMxLjA4NzUwMTUyNTg3OUwzOTEuMDE1NjI5NzY4MzcxNiwxNjUyLjA4NzUwMTUyNTg3OSIvPjxwYXRoIG1hcmtlci1lbmQ9InVybCgjZXhwb3J0LXN2Z19mbG93Y2hhcnQtdjItcG9pbnRFbmQtbWFyZ2luKSIgZGF0YS1wb2ludHM9Ilczc2llQ0k2TXpreExqQXhOVFl5T1RjMk9ETTNNVFlzSW5raU9qRTNNakl1TURnM05UQXhOVEkxT0RjNWZTeDdJbmdpT2pNNU1TNHdNVFUyTWprM05qZ3pOekUyTENKNUlqb3hOelEzTGpBNE56VXdNVFV5TlRnM09YMHNleUo0SWpvek9URXVNREUxTmpJNU56WTRNemN4Tml3aWVTSTZNVGMzTWk0d09EYzFNREUxTWpVNE56bDlYUT09IiBkYXRhLWlkPSJMX0xfTV8wIiBkYXRhLWV0PSJlZGdlIiBkYXRhLWVkZ2U9InRydWUiIHN0eWxlPSJzdHJva2UtZGFzaGFycmF5OiAwIDAgMzcgOTsgc3Ryb2tlLWRhc2hvZmZzZXQ6IDA7OyIgY2xhc3M9ImVkZ2UtdGhpY2tuZXNzLW5vcm1hbCBlZGdlLXBhdHRlcm4tc29saWQgZWRnZS10aGlja25lc3Mtbm9ybWFsIGVkZ2UtcGF0dGVybi1zb2xpZCBmbG93Y2hhcnQtbGluayIgaWQ9IkxfTF9NXzAiIGQ9Ik0zOTEuMDE1NjI5NzY4MzcxNiwxNzIyLjA4NzUwMTUyNTg3OUwzOTEuMDE1NjI5NzY4MzcxNiwxNzQ3LjA4NzUwMTUyNTg3OUwzOTEuMDE1NjI5NzY4MzcxNiwxNzY4LjA4NzUwMTUyNTg3OSIvPjxwYXRoIG1hcmtlci1lbmQ9InVybCgjZXhwb3J0LXN2Z19mbG93Y2hhcnQtdjItcG9pbnRFbmQtbWFyZ2luKSIgZGF0YS1wb2ludHM9Ilczc2llQ0k2TXpreExqQXhOVFl5T1RjMk9ETTNNVFlzSW5raU9qRTRNemd1TURnM05UQXhOVEkxT0RjNWZTeDdJbmdpT2pNNU1TNHdNVFUyTWprM05qZ3pOekUyTENKNUlqb3hPRFl6TGpBNE56VXdNVFV5TlRnM09YMHNleUo0SWpvek9URXVOVEUxTmpJNU56WTRNemN4Tml3aWVTSTZNVGc0T0M0MU9EYzFNREUxTWpVNE56bDlYUT09IiBkYXRhLWlkPSJMX01fTl8wIiBkYXRhLWV0PSJlZGdlIiBkYXRhLWVkZ2U9InRydWUiIHN0eWxlPSJzdHJva2UtZGFzaGFycmF5OiAwIDAgMzcuNTA0MTgwOTA4MjAzMTI1IDk7IHN0cm9rZS1kYXNob2Zmc2V0OiAwOzsiIGNsYXNzPSJlZGdlLXRoaWNrbmVzcy1ub3JtYWwgZWRnZS1wYXR0ZXJuLXNvbGlkIGVkZ2UtdGhpY2tuZXNzLW5vcm1hbCBlZGdlLXBhdHRlcm4tc29saWQgZmxvd2NoYXJ0LWxpbmsiIGlkPSJMX01fTl8wIiBkPSJNMzkxLjAxNTYyOTc2ODM3MTYsMTgzOC4wODc1MDE1MjU4NzlMMzkxLjAxNTYyOTc2ODM3MTYsMTg1Mi4zMzUwNTA3ODEwMjIxUTM5MS4wMTU2Mjk3NjgzNzE2LDE4NjMuMDg3NTAxNTI1ODc5IDM5MS4yMjY0MjE2MTg1MDI3LDE4NzMuODM3ODg1ODgyNTY1NEwzOTEuNDM3MjEzNDY4NjMzOCwxODg0LjU4ODI3MDIzOTI1MiIvPjxwYXRoIG1hcmtlci1lbmQ9InVybCgjZXhwb3J0LXN2Z19mbG93Y2hhcnQtdjItcG9pbnRFbmQtbWFyZ2luKSIgZGF0YS1wb2ludHM9Ilczc2llQ0k2TkRneExqSTVOakkyT1RneU5UZ3pNalEwTENKNUlqb3hPVE13TGpjMk16Y3lORFEyTWpjeE5URjlMSHNpZUNJNk9UVTRMalE1TURZek1URXdNelV4TlRZc0lua2lPakU1TnprdU1EZzNOVEF4TlRJMU9EYzVmU3g3SW5naU9qazFPQzQ1T1RBMk16RXhNRE0xTVRVMUxDSjVJam95TURBMExqVTROelV3TVRVeU5UZzNPVFo5WFE9PSIgZGF0YS1pZD0iTF9OX09fMCIgZGF0YS1ldD0iZWRnZSIgZGF0YS1lZGdlPSJ0cnVlIiBzdHlsZT0ic3Ryb2tlLWRhc2hhcnJheTogMCAwIDQ4OS42ODU0NTUzMjIyNjU2IDk7IHN0cm9rZS1kYXNob2Zmc2V0OiAwOzsiIGNsYXNzPSJlZGdlLXRoaWNrbmVzcy1ub3JtYWwgZWRnZS1wYXR0ZXJuLXNvbGlkIGVkZ2UtdGhpY2tuZXNzLW5vcm1hbCBlZGdlLXBhdHRlcm4tc29saWQgZmxvd2NoYXJ0LWxpbmsiIGlkPSJMX05fT18wIiBkPSJNNDgxLjI5NjI2OTgyNTgzMjQ0LDE5MzAuNzYzNzI0NDYyNzE1MUw5NTAuOTkwMTk1OTc1Nzk4NCwxOTc4LjMyNzk1OTExNjMyODlROTU4LjQ5MDYzMTEwMzUxNTYsMTk3OS4wODc1MDE1MjU4NzkgOTU4LjYzODQyMjIwNzg1MzksMTk4Ni42MjQ4NDc4NDcxM0w5NTguOTEyMjE0ODAzNzc3NywyMDAwLjU4ODI3MDIzOTI1MjgiLz48cGF0aCBtYXJrZXItZW5kPSJ1cmwoI2V4cG9ydC1zdmdfZmxvd2NoYXJ0LXYyLXBvaW50RW5kLW1hcmdpbikiIGRhdGEtcG9pbnRzPSJXM3NpZUNJNk9UVTRMams1TURZek1URXdNelV4TlRVc0lua2lPakl3TnpBdU5UZzNOVEF4TlRJMU9EYzVOSDBzZXlKNElqbzVOVGd1TkRrd05qTXhNVEF6TlRFMU5pd2llU0k2TWpBNU5TNHdPRGMxTURFMU1qVTROemw5TEhzaWVDSTZPVFU0TGprNU1EWXpNVEV3TXpVeE5UWXNJbmtpT2pJeE1qQXVOVGczTlRBMU16UXdOVGMwZlYwPSIgZGF0YS1pZD0iTF9PX1BfMCIgZGF0YS1ldD0iZWRnZSIgZGF0YS1lZGdlPSJ0cnVlIiBzdHlsZT0ic3Ryb2tlLWRhc2hhcnJheTogMCAwIDM3LjAwNzM2MjM2NTcyMjY1NiA5OyBzdHJva2UtZGFzaG9mZnNldDogMDs7IiBjbGFzcz0iZWRnZS10aGlja25lc3Mtbm9ybWFsIGVkZ2UtcGF0dGVybi1zb2xpZCBlZGdlLXRoaWNrbmVzcy1ub3JtYWwgZWRnZS1wYXR0ZXJuLXNvbGlkIGZsb3djaGFydC1saW5rIiBpZD0iTF9PX1BfMCIgZD0iTTk1OC45OTA2MzExMDM1MTU1LDIwNzAuNTg3NTAxNTI1ODc5NEw5NTguNzEwMDIzMjI5ODM2NSwyMDg0LjMzNzI4NzMzNjE1NlE5NTguNDkwNjMxMTAzNTE1NiwyMDk1LjA4NzUwMTUyNTg3OSA5NTguNzAxNDIyOTU5NTA5OCwyMTA1LjgzNzg4Nzc4OTc5OEw5NTguOTEyMjE0ODE1NTA0MSwyMTE2LjU4ODI3NDA1MzcxNyIvPjxwYXRoIG1hcmtlci1lbmQ9InVybCgjZXhwb3J0LXN2Z19mbG93Y2hhcnQtdjItcG9pbnRFbmQtbWFyZ2luKSIgZGF0YS1wb2ludHM9Ilczc2llQ0k2T1RJd0xqZ3hNamt6TmpjMU1UUTNNeklzSW5raU9qSXlNVFV1TXpJeU16QTVORFl5TmpVMmZTeDdJbmdpT2pneU1DNDRORE0zTlRjMk1qa3pPVFExTENKNUlqb3lNamc0TGpVd01EQXdOell5T1RNNU5EVjlMSHNpZUNJNk9ESXdMamcwTXpjMU56WXlPVE01TkRVc0lua2lPakl6TkRZdU5UQXdNREEzTmpJNU16azBOWDBzZXlKNElqbzRNakF1T0RRek56VTNOakk1TXprME5Td2llU0k2TWpNNU5DNHdNREF3TURjMk1qa3pPVFExZlN4N0luZ2lPamd5TUM0NE5ETTNOVGMyTWprek9UUTFMQ0o1SWpveU5URXdMak0xTURBd05qRXdNelV4TlRaOUxIc2llQ0k2T0RJd0xqZzBNemMxTnpZeU9UTTVORFVzSW5raU9qSTJNemN1TWpBd01EQTBOVGMzTmpNMk4zMHNleUo0SWpvNE1qQXVPRFF6TnpVM05qSTVNemswTlN3aWVTSTZNalk1TlM0eU1EQXdNRFExTnpjMk16WTNmU3g3SW5naU9qZ3lNQzQ0TkRNM05UYzJNamt6T1RRMUxDSjVJam95TnpReUxqY3dNREF3TkRVM056WXpOamQ5TEhzaWVDSTZPREl3TGpnME16YzFOell5T1RNNU5EVXNJbmtpT2pJNE5UZ3VNREV5TlRBME5UYzNOak0yTjMwc2V5SjRJam80TWpBdU9EUXpOelUzTmpJNU16azBOU3dpZVNJNk1qazRNeTQ0TWpVd01EUTFOemMyTXpZM2ZTeDdJbmdpT2pneU1DNDRORE0zTlRjMk1qa3pPVFExTENKNUlqb3pNVEUxTGpBNU16YzFOell5T1RNNU5EVjlMSHNpZUNJNk9ESXdMamcwTXpjMU56WXlPVE01TkRVc0lua2lPak15TkRZdU16WXlOVEV3TmpneE1UVXlNMzBzZXlKNElqbzRNakF1T0RRek56VTNOakk1TXprME5Td2llU0k2TXpNeE5DNDROakkxTVRBMk9ERXhOVEl6ZlN4N0luZ2lPamd5TUM0NE5ETTNOVGMyTWprek9UUTFMQ0o1SWpvek16Z3pMak0yTWpVeE1EWTRNVEUxTWpOOUxIc2llQ0k2T0RJd0xqZzBNemMxTnpZeU9UTTVORFVzSW5raU9qTTFNVGd1TlRFNE56WXdOamd4TVRVeU0zMHNleUo0SWpvNE1qQXVPRFF6TnpVM05qSTVNemswTlN3aWVTSTZNelkxTXk0Mk56VXdNVEEyT0RFeE5USXpmU3g3SW5naU9qZ3lNQzQ0TkRNM05UYzJNamt6T1RRMUxDSjVJam96TnpJeUxqRTNOVEF4TURZNE1URTFNak45TEhzaWVDSTZPREl3TGpnME16YzFOell5T1RNNU5EVXNJbmtpT2pNM09EQXVNVGMxTURFd05qZ3hNVFV5TTMwc2V5SjRJam80TWpBdU9EUXpOelUzTmpJNU16azBOU3dpZVNJNk16Z3pPQzR4TnpVd01UQTJPREV4TlRJemZTeDdJbmdpT2pneU1DNDRORE0zTlRjMk1qa3pPVFExTENKNUlqb3pPRGsyTGpFM05UQXhNRFk0TVRFMU1qTjlMSHNpZUNJNk9ESXdMamcwTXpjMU56WXlPVE01TkRVc0lua2lPak01TlRRdU1UYzFNREV3TmpneE1UVXlNMzBzZXlKNElqbzRNakF1T0RRek56VTNOakk1TXprME5Td2llU0k2TkRBeU1pNDJOelV3TVRBMk9ERXhOVEl6ZlN4N0luZ2lPamd5TUM0NE5ETTNOVGMyTWprek9UUTFMQ0o1SWpvME1Ea3hMakUzTlRBeE1EWTRNVEUxTWpOOUxIc2llQ0k2T0RJd0xqZzBNemMxTnpZeU9UTTVORFVzSW5raU9qUXhORGt1TVRjMU1ERXdOamd4TVRVeWZTeDdJbmdpT2pneU1DNDRORE0zTlRjMk1qa3pPVFExTENKNUlqbzBNVGsyTGpZM05UQXhNRFk0TVRFMU1uMHNleUo0SWpvNE1qQXVPRFF6TnpVM05qSTVNemswTlN3aWVTSTZOREkwTkM0eE56VXdNVEEyT0RFeE5USjlMSHNpZUNJNk9ESXhMak0wTXpjMU56WXlPVE01TkRVc0lua2lPalF5TmprdU5qYzFNREV3TmpneE1UVXlmVjA9IiBkYXRhLWlkPSJMX1BfUV8wIiBkYXRhLWV0PSJlZGdlIiBkYXRhLWVkZ2U9InRydWUiIHN0eWxlPSJzdHJva2UtZGFzaGFycmF5OiAwIDAgMjA5MC40OTM4OTY0ODQzNzUgOTsgc3Ryb2tlLWRhc2hvZmZzZXQ6IDA7OyIgY2xhc3M9ImVkZ2UtdGhpY2tuZXNzLW5vcm1hbCBlZGdlLXBhdHRlcm4tc29saWQgZWRnZS10aGlja25lc3Mtbm9ybWFsIGVkZ2UtcGF0dGVybi1zb2xpZCBmbG93Y2hhcnQtbGluayIgaWQ9IkxfUF9RXzAiIGQ9Ik05MjAuODEyOTM2NzUxNDczMiwyMjE1LjMyMjMwOTQ2MjY1Nkw4MjkuNzYxODk5NzA4NDI0MiwyMjgxLjk3MTkwNDUxODAzMVE4MjAuODQzNzU3NjI5Mzk0NSwyMjg4LjUwMDAwNzYyOTM5NDUgODIwLjg0Mzc1NzYyOTM5NDUsMjI5OS41NTIxMjkwNzE2NDk3TDgyMC44NDM3NTc2MjkzOTQ1LDIzNDYuNTAwMDA3NjI5Mzk0NUw4MjAuODQzNzU3NjI5Mzk0NSwyMzk0LjAwMDAwNzYyOTM5NDVMODIwLjg0Mzc1NzYyOTM5NDUsMjUxMC4zNTAwMDYxMDM1MTU2TDgyMC44NDM3NTc2MjkzOTQ1LDI2MzcuMjAwMDA0NTc3NjM2N0w4MjAuODQzNzU3NjI5Mzk0NSwyNjk1LjIwMDAwNDU3NzYzNjdMODIwLjg0Mzc1NzYyOTM5NDUsMjc0Mi43MDAwMDQ1Nzc2MzY3TDgyMC44NDM3NTc2MjkzOTQ1LDI4NTguMDEyNTA0NTc3NjM2N0w4MjAuODQzNzU3NjI5Mzk0NSwyOTgzLjgyNTAwNDU3NzYzNjdMODIwLjg0Mzc1NzYyOTM5NDUsMzExNS4wOTM3NTc2MjkzOTQ1TDgyMC44NDM3NTc2MjkzOTQ1LDMyNDYuMzYyNTEwNjgxMTUyM0w4MjAuODQzNzU3NjI5Mzk0NSwzMzE0Ljg2MjUxMDY4MTE1MjNMODIwLjg0Mzc1NzYyOTM5NDUsMzM4My4zNjI1MTA2ODExNTIzTDgyMC44NDM3NTc2MjkzOTQ1LDM1MTguNTE4NzYwNjgxMTUyM0w4MjAuODQzNzU3NjI5Mzk0NSwzNjUzLjY3NTAxMDY4MTE1MjNMODIwLjg0Mzc1NzYyOTM5NDUsMzcyMi4xNzUwMTA2ODExNTIzTDgyMC44NDM3NTc2MjkzOTQ1LDM3ODAuMTc1MDEwNjgxMTUyM0w4MjAuODQzNzU3NjI5Mzk0NSwzODM4LjE3NTAxMDY4MTE1MjNMODIwLjg0Mzc1NzYyOTM5NDUsMzg5Ni4xNzUwMTA2ODExNTIzTDgyMC44NDM3NTc2MjkzOTQ1LDM5NTQuMTc1MDEwNjgxMTUyM0w4MjAuODQzNzU3NjI5Mzk0NSw0MDIyLjY3NTAxMDY4MTE1MjNMODIwLjg0Mzc1NzYyOTM5NDUsNDA5MS4xNzUwMTA2ODExNTIzTDgyMC44NDM3NTc2MjkzOTQ1LDQxNDkuMTc1MDEwNjgxMTUyTDgyMC44NDM3NTc2MjkzOTQ1LDQxOTYuNjc1MDEwNjgxMTUyTDgyMC44NDM3NTc2MjkzOTQ1LDQyMzMuNDIyNTU5OTM2Mjk1UTgyMC44NDM3NTc2MjkzOTQ1LDQyNDQuMTc1MDEwNjgxMTUyIDgyMS4wNTQ1NDk0Nzk1MjU2LDQyNTQuOTI1Mzk1MDM3ODM5TDgyMS4yNjUzNDEzMjk2NTY3LDQyNjUuNjc1Nzc5Mzk0NTI1Ii8+PHBhdGggbWFya2VyLWVuZD0idXJsKCNleHBvcnQtc3ZnX2Zsb3djaGFydC12Mi1wb2ludEVuZC1tYXJnaW4pIiBkYXRhLXBvaW50cz0iVzNzaWVDSTZPREl4TGpNME16YzFOell5T1RNNU5EVXNJbmtpT2pRek16VXVOamMxTURFd05qZ3hNVFV5ZlN4N0luZ2lPamd5TUM0NE5ETTNOVGMyTWprek9UUTFMQ0o1SWpvME16WXdMakUzTlRBeE1EWTRNVEUxTW4wc2V5SjRJam8xTXpZdU16SXdNakUzT1RVeE9UTXdPQ3dpZVNJNk5EUTBNaTQyTVRjd09UWTNOalkyTWpnMWZWMD0iIGRhdGEtaWQ9IkxfUV9SXzAiIGRhdGEtZXQ9ImVkZ2UiIGRhdGEtZWRnZT0idHJ1ZSIgc3R5bGU9InN0cm9rZS1kYXNoYXJyYXk6IDAgMCAzMDUuNTkyNTkwMzMyMDMxMjUgOTsgc3Ryb2tlLWRhc2hvZmZzZXQ6IDA7OyIgY2xhc3M9ImVkZ2UtdGhpY2tuZXNzLW5vcm1hbCBlZGdlLXBhdHRlcm4tc29saWQgZWRnZS10aGlja25lc3Mtbm9ybWFsIGVkZ2UtcGF0dGVybi1zb2xpZCBmbG93Y2hhcnQtbGluayIgaWQ9IkxfUV9SXzAiIGQ9Ik04MjEuMzQzNzU3NjI5Mzk0NSw0MzM1LjY3NTAxMDY4MTE1Mkw4MjEuMDE1OTM3NjE0Mjk4OCw0MzUxLjczODE5MTQyMDg0NlE4MjAuODQzNzU3NjI5Mzk0NSw0MzYwLjE3NTAxMDY4MTE1MiA4MTIuNzM4NTcyMDk2NDE0NCw0MzYyLjUyMzUyNzc5OTMwMUw1NDAuMTYyMTg2MzIwODA1NSw0NDQxLjUwMzg2NzY1NjA4MyIvPjxwYXRoIG1hcmtlci1lbmQ9InVybCgjZXhwb3J0LXN2Z19mbG93Y2hhcnQtdjItcG9pbnRFbmQtbWFyZ2luKSIgZGF0YS1wb2ludHM9Ilczc2llQ0k2TVRBd09DNHdOekE0TVRreE1URTJOemM1TENKNUlqb3lNakEwTGpReE9UZ3dPREUzTnpFek9YMHNleUo0SWpveE1qUTJMalEzTlRBeE16Y3pNamt4TURJc0lua2lPakl5T0RndU5UQXdNREEzTmpJNU16azBOWDBzZXlKNElqb3hNalEyTGpRM05UQXhNemN6TWpreE1ESXNJbmtpT2pJek5EWXVOVEF3TURBM05qSTVNemswTlgwc2V5SjRJam94TWpRMkxqUTNOVEF4TXpjek1qa3hNRElzSW5raU9qSXpPVFF1TURBd01EQTNOakk1TXprME5YMHNleUo0SWpveE1qUTJMalEzTlRBeE16Y3pNamt4TURJc0lua2lPakkxTVRBdU16VXdNREEyTVRBek5URTFObjBzZXlKNElqb3hNalEyTGpRM05UQXhNemN6TWpreE1ESXNJbmtpT2pJMk16Y3VNakF3TURBME5UYzNOak0yTjMwc2V5SjRJam94TWpRMkxqUTNOVEF4TXpjek1qa3hNRElzSW5raU9qSTJPVFV1TWpBd01EQTBOVGMzTmpNMk4zMHNleUo0SWpveE1qUTJMalEzTlRBeE16Y3pNamt4TURJc0lua2lPakkzTkRJdU56QXdNREEwTlRjM05qTTJOMzBzZXlKNElqb3hNalEyTGpRM05UQXhNemN6TWpreE1ESXNJbmtpT2pJNE5UZ3VNREV5TlRBME5UYzNOak0yTjMwc2V5SjRJam94TWpRMkxqUTNOVEF4TXpjek1qa3hNRElzSW5raU9qSTVPRE11T0RJMU1EQTBOVGMzTmpNMk4zMHNleUo0SWpveE1qUTJMalEzTlRBeE16Y3pNamt4TURJc0lua2lPak14TVRVdU1Ea3pOelUzTmpJNU16azBOWDBzZXlKNElqb3hNalEyTGpRM05UQXhNemN6TWpreE1ESXNJbmtpT2pNeU5EWXVNell5TlRFd05qZ3hNVFV5TTMwc2V5SjRJam94TWpRMkxqUTNOVEF4TXpjek1qa3hNRElzSW5raU9qTXpNVFF1T0RZeU5URXdOamd4TVRVeU0zMHNleUo0SWpveE1qUTJMalEzTlRBeE16Y3pNamt4TURJc0lua2lPak16T0RNdU16WXlOVEV3TmpneE1UVXlNMzBzZXlKNElqb3hNalEyTGpRM05UQXhNemN6TWpreE1ESXNJbmtpT2pNMU1UZ3VOVEU0TnpZd05qZ3hNVFV5TTMwc2V5SjRJam94TWpRMkxqUTNOVEF4TXpjek1qa3hNRElzSW5raU9qTTJOVE11TmpjMU1ERXdOamd4TVRVeU0zMHNleUo0SWpveE1qUTJMalEzTlRBeE16Y3pNamt4TURJc0lua2lPak0zTWpJdU1UYzFNREV3TmpneE1UVXlNMzBzZXlKNElqb3hNalEyTGpRM05UQXhNemN6TWpreE1ESXNJbmtpT2pNM09EQXVNVGMxTURFd05qZ3hNVFV5TTMwc2V5SjRJam94TWpRMkxqUTNOVEF4TXpjek1qa3hNRElzSW5raU9qTTRNemd1TVRjMU1ERXdOamd4TVRVeU0zMHNleUo0SWpveE1qUTJMalEzTlRBeE16Y3pNamt4TURJc0lua2lPak00T1RZdU1UYzFNREV3TmpneE1UVXlNMzBzZXlKNElqb3hNalEyTGpRM05UQXhNemN6TWpreE1ESXNJbmtpT2pNNU5UUXVNVGMxTURFd05qZ3hNVFV5TTMwc2V5SjRJam94TWpRMkxqUTNOVEF4TXpjek1qa3hNRElzSW5raU9qUXdNakl1TmpjMU1ERXdOamd4TVRVeU0zMHNleUo0SWpveE1qUTJMalEzTlRBeE16Y3pNamt4TURJc0lua2lPalF3T1RFdU1UYzFNREV3TmpneE1UVXlNMzBzZXlKNElqb3hNalEyTGpRM05UQXhNemN6TWpreE1ESXNJbmtpT2pReE5Ea3VNVGMxTURFd05qZ3hNVFV5ZlN4N0luZ2lPakV5TkRZdU5EYzFNREV6TnpNeU9URXdNaXdpZVNJNk5ERTVOaTQyTnpVd01UQTJPREV4TlRKOUxIc2llQ0k2TVRJME5pNDBOelV3TVRNM016STVNVEF5TENKNUlqbzBNalEwTGpFM05UQXhNRFk0TVRFMU1uMHNleUo0SWpveE1qUTJMalEzTlRBeE16Y3pNamt4TURJc0lua2lPalF6TURJdU1UYzFNREV3TmpneE1UVXlmU3g3SW5naU9qRXlORFl1TkRjMU1ERXpOek15T1RFd01pd2llU0k2TkRNMk1DNHhOelV3TVRBMk9ERXhOVEo5TEhzaWVDSTZNVEkwTmk0ME56VXdNVE0zTXpJNU1UQXlMQ0o1SWpvME5EVTRMalE0TnpVeE1EWTRNVEUxTW4wc2V5SjRJam94TWpRMkxqUTNOVEF4TXpjek1qa3hNRElzSW5raU9qUTFOamN1TXpBd01ERXdOamd4TVRVeWZTeDdJbmdpT2pFeU5EWXVORGMxTURFek56TXlPVEV3TWl3aWVTSTZORFk0TVM0ME5UQXdNVEl5TURjd016RjlMSHNpZUNJNk1USTBOaTQwTnpVd01UTTNNekk1TVRBeUxDSjVJam8wTnprMUxqWXdNREF4TXpjek1qa3hmU3g3SW5naU9qRXlORFl1T1RjMU1ERXpOek15T1RFd01pd2llU0k2TkRnek1TNDJNREF3TVRNM016STVNVE45WFE9PSIgZGF0YS1pZD0iTF9QX1NfMCIgZGF0YS1ldD0iZWRnZSIgZGF0YS1lZGdlPSJ0cnVlIiBzdHlsZT0ic3Ryb2tlLWRhc2hhcnJheTogMCAwIDI3ODAuODIyNzUzOTA2MjUgOTsgc3Ryb2tlLWRhc2hvZmZzZXQ6IDA7OyIgY2xhc3M9ImVkZ2UtdGhpY2tuZXNzLW5vcm1hbCBlZGdlLXBhdHRlcm4tc29saWQgZWRnZS10aGlja25lc3Mtbm9ybWFsIGVkZ2UtcGF0dGVybi1zb2xpZCBmbG93Y2hhcnQtbGluayIgaWQ9IkxfUF9TXzAiIGQ9Ik0xMDA4LjA3MDgxOTExMTY3NzksMjIwNC40MTk4MDgxNzcxMzlMMTIzOC4zMTIyOTIzNDMwMzM1LDIyODUuNjIxMTg1NjIwMzA4NlExMjQ2LjQ3NTAxMzczMjkxMDIsMjI4OC41MDAwMDc2MjkzOTQ1IDEyNDYuNDc1MDEzNzMyOTEwMiwyMjk3LjE1NTUwNTExMDY5MkwxMjQ2LjQ3NTAxMzczMjkxMDIsMjM0Ni41MDAwMDc2MjkzOTQ1TDEyNDYuNDc1MDEzNzMyOTEwMiwyMzk0LjAwMDAwNzYyOTM5NDVMMTI0Ni40NzUwMTM3MzI5MTAyLDI1MTAuMzUwMDA2MTAzNTE1NkwxMjQ2LjQ3NTAxMzczMjkxMDIsMjYzNy4yMDAwMDQ1Nzc2MzY3TDEyNDYuNDc1MDEzNzMyOTEwMiwyNjk1LjIwMDAwNDU3NzYzNjdMMTI0Ni40NzUwMTM3MzI5MTAyLDI3NDIuNzAwMDA0NTc3NjM2N0wxMjQ2LjQ3NTAxMzczMjkxMDIsMjg1OC4wMTI1MDQ1Nzc2MzY3TDEyNDYuNDc1MDEzNzMyOTEwMiwyOTgzLjgyNTAwNDU3NzYzNjdMMTI0Ni40NzUwMTM3MzI5MTAyLDMxMTUuMDkzNzU3NjI5Mzk0NUwxMjQ2LjQ3NTAxMzczMjkxMDIsMzI0Ni4zNjI1MTA2ODExNTIzTDEyNDYuNDc1MDEzNzMyOTEwMiwzMzE0Ljg2MjUxMDY4MTE1MjNMMTI0Ni40NzUwMTM3MzI5MTAyLDMzODMuMzYyNTEwNjgxMTUyM0wxMjQ2LjQ3NTAxMzczMjkxMDIsMzUxOC41MTg3NjA2ODExNTIzTDEyNDYuNDc1MDEzNzMyOTEwMiwzNjUzLjY3NTAxMDY4MTE1MjNMMTI0Ni40NzUwMTM3MzI5MTAyLDM3MjIuMTc1MDEwNjgxMTUyM0wxMjQ2LjQ3NTAxMzczMjkxMDIsMzc4MC4xNzUwMTA2ODExNTIzTDEyNDYuNDc1MDEzNzMyOTEwMiwzODM4LjE3NTAxMDY4MTE1MjNMMTI0Ni40NzUwMTM3MzI5MTAyLDM4OTYuMTc1MDEwNjgxMTUyM0wxMjQ2LjQ3NTAxMzczMjkxMDIsMzk1NC4xNzUwMTA2ODExNTIzTDEyNDYuNDc1MDEzNzMyOTEwMiw0MDIyLjY3NTAxMDY4MTE1MjNMMTI0Ni40NzUwMTM3MzI5MTAyLDQwOTEuMTc1MDEwNjgxMTUyM0wxMjQ2LjQ3NTAxMzczMjkxMDIsNDE0OS4xNzUwMTA2ODExNTJMMTI0Ni40NzUwMTM3MzI5MTAyLDQxOTYuNjc1MDEwNjgxMTUyTDEyNDYuNDc1MDEzNzMyOTEwMiw0MjQ0LjE3NTAxMDY4MTE1MkwxMjQ2LjQ3NTAxMzczMjkxMDIsNDMwMi4xNzUwMTA2ODExNTJMMTI0Ni40NzUwMTM3MzI5MTAyLDQzNjAuMTc1MDEwNjgxMTUyTDEyNDYuNDc1MDEzNzMyOTEwMiw0NDU4LjQ4NzUxMDY4MTE1MkwxMjQ2LjQ3NTAxMzczMjkxMDIsNDU2Ny4zMDAwMTA2ODExNTJMMTI0Ni40NzUwMTM3MzI5MTAyLDQ2ODEuNDUwMDEyMjA3MDMxTDEyNDYuNDc1MDEzNzMyOTEwMiw0Nzc5LjU5ODI3NzcwNTUxNFExMjQ2LjQ3NTAxMzczMjkxMDIsNDc5NS42MDAwMTM3MzI5MSAxMjQ2LjY5NzIzODYzMzkyODcsNDgxMS42MDAyMDY2MDYyNDNMMTI0Ni45MTk0NjM1MzQ5NDcyLDQ4MjcuNjAwMzk5NDc5NTc1Ii8+PHBhdGggbWFya2VyLWVuZD0idXJsKCNleHBvcnQtc3ZnX2Zsb3djaGFydC12Mi1wb2ludEVuZC1tYXJnaW4pIiBkYXRhLXBvaW50cz0iVzNzaWVDSTZPVFkxTGpBeE5UazBNek16TlRVME1Td2llU0k2TWpJME55NDBOelEyT0RNNU5UTXlOell6ZlN4N0luZ2lPamsyT0M0Mk5UWXlOVGMyTWprek9UUTFMQ0o1SWpveU1qZzRMalV3TURBd056WXlPVE01TkRWOUxIc2llQ0k2T1RZNExqWTFOakkxTnpZeU9UTTVORFVzSW5raU9qSXpNalF1TURBd01EQTNOakk1TXprME5YMWQiIGRhdGEtaWQ9IkxfUF9UXzAiIGRhdGEtZXQ9ImVkZ2UiIGRhdGEtZWRnZT0idHJ1ZSIgc3R5bGU9InN0cm9rZS1kYXNoYXJyYXk6IDAgMCA2My42NjYwNjkwMzA3NjE3MiA5OyBzdHJva2UtZGFzaG9mZnNldDogMDs7IiBjbGFzcz0iZWRnZS10aGlja25lc3Mtbm9ybWFsIGVkZ2UtcGF0dGVybi1zb2xpZCBlZGdlLXRoaWNrbmVzcy1ub3JtYWwgZWRnZS1wYXR0ZXJuLXNvbGlkIGZsb3djaGFydC1saW5rIiBpZD0iTF9QX1RfMCIgZD0iTTk2NS4wMTU5NDMzMzU1NDEsMjI0Ny40NzQ2ODM5NTMyNzYzTDk2Ny4yNjQxNzcwMTE5NDUzLDIyNzIuODExNjQ4NTE5NzA3UTk2OC42NTYyNTc2MjkzOTQ1LDIyODguNTAwMDA3NjI5Mzk0NSA5NjguNjU2MjU3NjI5Mzk0NSwyMzA0LjI1MDAwNzYyOTM5NDVMOTY4LjY1NjI1NzYyOTM5NDUsMjMyMC4wMDAwMDc2MjkzOTQ1Ii8+PHBhdGggbWFya2VyLWVuZD0idXJsKCNleHBvcnQtc3ZnX2Zsb3djaGFydC12Mi1wb2ludEVuZC1tYXJnaW4pIiBkYXRhLXBvaW50cz0iVzNzaWVDSTZPVFk0TGpZMU5qSTFOell5T1RNNU5EVXNJbmtpT2pJek5qa3VNREF3TURBM05qSTVNemswTlgwc2V5SjRJam81TmpndU5qVTJNalUzTmpJNU16azBOU3dpZVNJNk1qTTVOQzR3TURBd01EYzJNamt6T1RRMWZTeDdJbmdpT2prMk9TNHhOVFl5TlRjMk1qa3pPVE1zSW5raU9qSTBNVGt1TlRBd01ERXhORFEwTURreU0zMWQiIGRhdGEtaWQ9IkxfVF9VXzAiIGRhdGEtZXQ9ImVkZ2UiIGRhdGEtZWRnZT0idHJ1ZSIgc3R5bGU9InN0cm9rZS1kYXNoYXJyYXk6IDAgMCAzNy41MDQxOTYxNjY5OTIxOSA5OyBzdHJva2UtZGFzaG9mZnNldDogMDs7IiBjbGFzcz0iZWRnZS10aGlja25lc3Mtbm9ybWFsIGVkZ2UtcGF0dGVybi1zb2xpZCBlZGdlLXRoaWNrbmVzcy1ub3JtYWwgZWRnZS1wYXR0ZXJuLXNvbGlkIGZsb3djaGFydC1saW5rIiBpZD0iTF9UX1VfMCIgZD0iTTk2OC42NTYyNTc2MjkzOTQ1LDIzNjkuMDAwMDA3NjI5Mzk0NUw5NjguNjU2MjU3NjI5Mzk0NSwyMzgzLjI0NzU1NDk3NzU1NTRROTY4LjY1NjI1NzYyOTM5NDUsMjM5NC4wMDAwMDc2MjkzOTQ1IDk2OC44NjcwNDk0ODUzODgyLDI0MDQuNzUwMzkzODkzMzE1TDk2OS4wNzc4NDEzNDEzODE3LDI0MTUuNTAwNzgwMTU3MjM1NiIvPjxwYXRoIG1hcmtlci1lbmQ9InVybCgjZXhwb3J0LXN2Z19mbG93Y2hhcnQtdjItcG9pbnRFbmQtbWFyZ2luKSIgZGF0YS1wb2ludHM9Ilczc2llQ0k2T1RZNUxqRTFOakkxTnpZeU9UTTVOamtzSW5raU9qSTJNREl1TWpBd01EQTRNemt5TXpNM2ZTeDdJbmdpT2prMk9DNDJOVFl5TlRjMk1qa3pPVFExTENKNUlqb3lOak0zTGpJd01EQXdORFUzTnpZek5qZDlMSHNpZUNJNk9UWTRMalkxTmpJMU56WXlPVE01TkRVc0lua2lPakkyT1RVdU1qQXdNREEwTlRjM05qTTJOMzBzZXlKNElqbzVOamd1TmpVMk1qVTNOakk1TXprME5Td2llU0k2TWpjME1pNDNNREF3TURRMU56YzJNelkzZlN4N0luZ2lPamsyT0M0Mk5UWXlOVGMyTWprek9UUTFMQ0o1SWpveU9EVTRMakF4TWpVd05EVTNOell6TmpkOUxIc2llQ0k2T1RZNExqWTFOakkxTnpZeU9UTTVORFVzSW5raU9qSTVPRE11T0RJMU1EQTBOVGMzTmpNMk4zMHNleUo0SWpvNU5qZ3VOalUyTWpVM05qSTVNemswTlN3aWVTSTZNekV4TlM0d09UTTNOVGMyTWprek9UUTFmU3g3SW5naU9qazJPQzQyTlRZeU5UYzJNamt6T1RRMUxDSjVJam96TWpRMkxqTTJNalV4TURZNE1URTFNak45TEhzaWVDSTZPVFk0TGpZMU5qSTFOell5T1RNNU5EVXNJbmtpT2pNek1UUXVPRFl5TlRFd05qZ3hNVFV5TTMwc2V5SjRJam81TmpndU5qVTJNalUzTmpJNU16azBOU3dpZVNJNk16TTRNeTR6TmpJMU1UQTJPREV4TlRJemZTeDdJbmdpT2prMk9DNDJOVFl5TlRjMk1qa3pPVFExTENKNUlqb3pOVEU0TGpVeE9EYzJNRFk0TVRFMU1qTjlMSHNpZUNJNk9UWTRMalkxTmpJMU56WXlPVE01TkRVc0lua2lPak0yTlRNdU5qYzFNREV3TmpneE1UVXlNMzBzZXlKNElqbzVOamd1TmpVMk1qVTNOakk1TXprME5Td2llU0k2TXpjeU1pNHhOelV3TVRBMk9ERXhOVEl6ZlN4N0luZ2lPamsyT0M0Mk5UWXlOVGMyTWprek9UUTFMQ0o1SWpvek56Z3dMakUzTlRBeE1EWTRNVEUxTWpOOUxIc2llQ0k2T1RZNExqWTFOakkxTnpZeU9UTTVORFVzSW5raU9qTTRNemd1TVRjMU1ERXdOamd4TVRVeU0zMHNleUo0SWpvNU5qZ3VOalUyTWpVM05qSTVNemswTlN3aWVTSTZNemc1Tmk0eE56VXdNVEEyT0RFeE5USXpmU3g3SW5naU9qazJPQzQyTlRZeU5UYzJNamt6T1RRMUxDSjVJam96T1RVMExqRTNOVEF4TURZNE1URTFNak45TEhzaWVDSTZPVFk0TGpZMU5qSTFOell5T1RNNU5EVXNJbmtpT2pRd01qSXVOamMxTURFd05qZ3hNVFV5TTMwc2V5SjRJam81TmpndU5qVTJNalUzTmpJNU16azBOU3dpZVNJNk5EQTVNUzR4TnpVd01UQTJPREV4TlRJemZTeDdJbmdpT2prMk9DNDJOVFl5TlRjMk1qa3pPVFExTENKNUlqbzBNVFE1TGpFM05UQXhNRFk0TVRFMU1uMHNleUo0SWpvNU5qZ3VOalUyTWpVM05qSTVNemswTlN3aWVTSTZOREU1Tmk0Mk56VXdNVEEyT0RFeE5USjlMSHNpZUNJNk9UWTRMalkxTmpJMU56WXlPVE01TkRVc0lua2lPalF5TkRRdU1UYzFNREV3TmpneE1UVXlmU3g3SW5naU9qazJPQzQyTlRZeU5UYzJNamt6T1RRMUxDSjVJam8wTXpBeUxqRTNOVEF4TURZNE1URTFNbjBzZXlKNElqbzVOamd1TmpVMk1qVTNOakk1TXprME5Td2llU0k2TkRNMk1DNHhOelV3TVRBMk9ERXhOVEo5TEhzaWVDSTZPVFk0TGpZMU5qSTFOell5T1RNNU5EVXNJbmtpT2pRME5UZ3VORGczTlRFd05qZ3hNVFV5ZlN4N0luZ2lPamsyT0M0Mk5UWXlOVGMyTWprek9UUTFMQ0o1SWpvME5UWTNMak13TURBeE1EWTRNVEUxTW4wc2V5SjRJam81TmpndU5qVTJNalUzTmpJNU16azBOU3dpZVNJNk5EWTRNUzQwTlRBd01USXlNRGN3TXpGOUxIc2llQ0k2T1RZNExqWTFOakkxTnpZeU9UTTVORFVzSW5raU9qUTNPVFV1TmpBd01ERXpOek15T1RGOUxIc2llQ0k2T1RZNUxqRTFOakkxTnpZeU9UTTVORFVzSW5raU9qUTRNekV1TmpBd01ERXpOek15T1RBNWZWMD0iIGRhdGEtaWQ9IkxfVV9WXzAiIGRhdGEtZXQ9ImVkZ2UiIGRhdGEtZWRnZT0idHJ1ZSIgc3R5bGU9InN0cm9rZS1kYXNoYXJyYXk6IDAgMCAyMjE2LjQwNjAwNTg1OTM3NSA5OyBzdHJva2UtZGFzaG9mZnNldDogMDs7IiBjbGFzcz0iZWRnZS10aGlja25lc3Mtbm9ybWFsIGVkZ2UtcGF0dGVybi1zb2xpZCBlZGdlLXRoaWNrbmVzcy1ub3JtYWwgZWRnZS1wYXR0ZXJuLXNvbGlkIGZsb3djaGFydC1saW5rIiBpZD0iTF9VX1ZfMCIgZD0iTTk2OS4xNTYyNTc2MjkzOTY5LDI2MDIuMjAwMDA4MzkyMzM3TDk2OC45MDYyNTc2MjkzOTU3LDI2MTkuNzAwMDA2NDg0OTg3UTk2OC42NTYyNTc2MjkzOTQ1LDI2MzcuMjAwMDA0NTc3NjM2NyA5NjguNjU2MjU3NjI5Mzk0NSwyNjU0LjcwMTc4ODI5MzY2ODRMOTY4LjY1NjI1NzYyOTM5NDUsMjY5NS4yMDAwMDQ1Nzc2MzY3TDk2OC42NTYyNTc2MjkzOTQ1LDI3NDIuNzAwMDA0NTc3NjM2N0w5NjguNjU2MjU3NjI5Mzk0NSwyODU4LjAxMjUwNDU3NzYzNjdMOTY4LjY1NjI1NzYyOTM5NDUsMjk4My44MjUwMDQ1Nzc2MzY3TDk2OC42NTYyNTc2MjkzOTQ1LDMxMTUuMDkzNzU3NjI5Mzk0NUw5NjguNjU2MjU3NjI5Mzk0NSwzMjQ2LjM2MjUxMDY4MTE1MjNMOTY4LjY1NjI1NzYyOTM5NDUsMzMxNC44NjI1MTA2ODExNTIzTDk2OC42NTYyNTc2MjkzOTQ1LDMzODMuMzYyNTEwNjgxMTUyM0w5NjguNjU2MjU3NjI5Mzk0NSwzNTE4LjUxODc2MDY4MTE1MjNMOTY4LjY1NjI1NzYyOTM5NDUsMzY1My42NzUwMTA2ODExNTIzTDk2OC42NTYyNTc2MjkzOTQ1LDM3MjIuMTc1MDEwNjgxMTUyM0w5NjguNjU2MjU3NjI5Mzk0NSwzNzgwLjE3NTAxMDY4MTE1MjNMOTY4LjY1NjI1NzYyOTM5NDUsMzgzOC4xNzUwMTA2ODExNTIzTDk2OC42NTYyNTc2MjkzOTQ1LDM4OTYuMTc1MDEwNjgxMTUyM0w5NjguNjU2MjU3NjI5Mzk0NSwzOTU0LjE3NTAxMDY4MTE1MjNMOTY4LjY1NjI1NzYyOTM5NDUsNDAyMi42NzUwMTA2ODExNTIzTDk2OC42NTYyNTc2MjkzOTQ1LDQwOTEuMTc1MDEwNjgxMTUyM0w5NjguNjU2MjU3NjI5Mzk0NSw0MTQ5LjE3NTAxMDY4MTE1Mkw5NjguNjU2MjU3NjI5Mzk0NSw0MTk2LjY3NTAxMDY4MTE1Mkw5NjguNjU2MjU3NjI5Mzk0NSw0MjQ0LjE3NTAxMDY4MTE1Mkw5NjguNjU2MjU3NjI5Mzk0NSw0MzAyLjE3NTAxMDY4MTE1Mkw5NjguNjU2MjU3NjI5Mzk0NSw0MzYwLjE3NTAxMDY4MTE1Mkw5NjguNjU2MjU3NjI5Mzk0NSw0NDU4LjQ4NzUxMDY4MTE1Mkw5NjguNjU2MjU3NjI5Mzk0NSw0NTY3LjMwMDAxMDY4MTE1Mkw5NjguNjU2MjU3NjI5Mzk0NSw0NjgxLjQ1MDAxMjIwNzAzMUw5NjguNjU2MjU3NjI5Mzk0NSw0Nzc5LjU5ODI3NzcwNTUxNlE5NjguNjU2MjU3NjI5Mzk0NSw0Nzk1LjYwMDAxMzczMjkxIDk2OC44Nzg0ODI1MzA0MTMxLDQ4MTEuNjAwMjA2NjA2MjQxTDk2OS4xMDA3MDc0MzE0MzE1LDQ4MjcuNjAwMzk5NDc5NTcxIi8+PHBhdGggbWFya2VyLWVuZD0idXJsKCNleHBvcnQtc3ZnX2Zsb3djaGFydC12Mi1wb2ludEVuZC1tYXJnaW4pIiBkYXRhLXBvaW50cz0iVzNzaWVDSTZPRGs0TGpZd056WTJNRE15TVRrek1qa3NJbmtpT2pJMU16RXVOalV4TkRFeE1EZzBPRGN6ZlN4N0luZ2lPalV6T0M0ME5EQTJNekU0TmpZME5UVXhMQ0o1SWpveU5qTTNMakl3TURBd05EVTNOell6TmpkOUxIc2llQ0k2TlRNNExqUTBNRFl6TVRnMk5qUTFOVEVzSW5raU9qSTJOekl1TnpBd01EQTBOVGMzTmpNMk4zMWQiIGRhdGEtaWQ9IkxfVV9XXzAiIGRhdGEtZXQ9ImVkZ2UiIGRhdGEtZWRnZT0idHJ1ZSIgc3R5bGU9InN0cm9rZS1kYXNoYXJyYXk6IDAgMCAzOTUuNjQ0NjgzODM3ODkwNiA5OyBzdHJva2UtZGFzaG9mZnNldDogMDs7IiBjbGFzcz0iZWRnZS10aGlja25lc3Mtbm9ybWFsIGVkZ2UtcGF0dGVybi1zb2xpZCBlZGdlLXRoaWNrbmVzcy1ub3JtYWwgZWRnZS1wYXR0ZXJuLXNvbGlkIGZsb3djaGFydC1saW5rIiBpZD0iTF9VX1dfMCIgZD0iTTg5OC42MDc2NjAzMjE5MzI5LDI1MzEuNjUxNDExMDg0ODczTDU0Ni40NDQ0NjYwNzIxMzE1LDI2MzQuODU0NDQ0Mzg5Njg0UTUzOC40NDA2MzE4NjY0NTUxLDI2MzcuMjAwMDA0NTc3NjM2NyA1MzguNDQwNjMxODY2NDU1MSwyNjQ1LjU0MDQ0OTA4NTQxMUw1MzguNDQwNjMxODY2NDU1MSwyNjY4LjcwMDAwNDU3NzYzNjciLz48cGF0aCBtYXJrZXItZW5kPSJ1cmwoI2V4cG9ydC1zdmdfZmxvd2NoYXJ0LXYyLXBvaW50RW5kLW1hcmdpbikiIGRhdGEtcG9pbnRzPSJXM3NpZUNJNk5UTTRMalEwTURZek1UZzJOalExTlRFc0lua2lPakkzTVRjdU56QXdNREEwTlRjM05qTTJOMzBzZXlKNElqbzFNemd1TkRRd05qTXhPRFkyTkRVMU1Td2llU0k2TWpjME1pNDNNREF3TURRMU56YzJNelkzZlN4N0luZ2lPalV6T0M0NU5EQTJNekU0TmpZME5UVXhMQ0o1SWpveU56WTRMakl3TURBd05EVTNOell6TmpkOVhRPT0iIGRhdGEtaWQ9IkxfV19YXzAiIGRhdGEtZXQ9ImVkZ2UiIGRhdGEtZWRnZT0idHJ1ZSIgc3R5bGU9InN0cm9rZS1kYXNoYXJyYXk6IDAgMCAzNy41MDQxOTk5ODE2ODk0NSA5OyBzdHJva2UtZGFzaG9mZnNldDogMDs7IiBjbGFzcz0iZWRnZS10aGlja25lc3Mtbm9ybWFsIGVkZ2UtcGF0dGVybi1zb2xpZCBlZGdlLXRoaWNrbmVzcy1ub3JtYWwgZWRnZS1wYXR0ZXJuLXNvbGlkIGZsb3djaGFydC1saW5rIiBpZD0iTF9XX1hfMCIgZD0iTTUzOC40NDA2MzE4NjY0NTUxLDI3MTcuNzAwMDA0NTc3NjM2N0w1MzguNDQwNjMxODY2NDU1MSwyNzMxLjk0NzU1MzgzMjc4UTUzOC40NDA2MzE4NjY0NTUxLDI3NDIuNzAwMDA0NTc3NjM2NyA1MzguNjUxNDIzNzE2NTg2MSwyNzUzLjQ1MDM4ODkzNDMyM0w1MzguODYyMjE1NTY2NzE3MywyNzY0LjIwMDc3MzI5MTAwOTciLz48cGF0aCBtYXJrZXItZW5kPSJ1cmwoI2V4cG9ydC1zdmdfZmxvd2NoYXJ0LXYyLXBvaW50RW5kLW1hcmdpbikiIGRhdGEtcG9pbnRzPSJXM3NpZUNJNk5UZzNMak15TWpnNE5qSXpOREl4TVRRc0lua2lPakk1TURBdU5EUXlOelV3TWpBNU9EaDlMSHNpZUNJNk5qZ3pMall4TWpVd05qZzJOalExTlRFc0lua2lPakk1T0RNdU9ESTFNREEwTlRjM05qTTJOMzBzZXlKNElqbzJPRFF1TVRFeU5UQTJPRFkyTkRVME5pd2llU0k2TXpBeE9TNDRNalV3TURRMU56YzJNelo5WFE9PSIgZGF0YS1pZD0iTF9YX1lfMCIgZGF0YS1ldD0iZWRnZSIgZGF0YS1lZGdlPSJ0cnVlIiBzdHlsZT0ic3Ryb2tlLWRhc2hhcnJheTogMCAwIDE0OC45NjQ3MzY5Mzg0NzY1NiA5OyBzdHJva2UtZGFzaG9mZnNldDogMDs7IiBjbGFzcz0iZWRnZS10aGlja25lc3Mtbm9ybWFsIGVkZ2UtcGF0dGVybi1zb2xpZCBlZGdlLXRoaWNrbmVzcy1ub3JtYWwgZWRnZS1wYXR0ZXJuLXNvbGlkIGZsb3djaGFydC1saW5rIiBpZD0iTF9YX1lfMCIgZD0iTTU4Ny4zMjI4ODYyMzQyMTE0LDI5MDAuNDQyNzUwMjA5ODhMNjc0LjM3NjIzOTgyMTcyMTcsMjk3NS44MjY4MzQ0NDE3OTM0UTY4My42MTI1MDY4NjY0NTUxLDI5ODMuODI1MDA0NTc3NjM2NyA2ODMuNzgyMTg0ODQ5NzcwMSwyOTk2LjA0MTgxOTM3NjMyN0w2ODQuMDU2OTU2NjY4NDkxNywzMDE1LjgyNTM5MDMyNDI5NzYiLz48cGF0aCBtYXJrZXItZW5kPSJ1cmwoI2V4cG9ydC1zdmdfZmxvd2NoYXJ0LXYyLXBvaW50RW5kLW1hcmdpbikiIGRhdGEtcG9pbnRzPSJXM3NpZUNJNk5qRXlMalEwTVRZNU5qQTNPRGMyTmpVc0lua2lPak14TXprdU5qa3hOams1T0Rrek5EWXpmU3g3SW5naU9qSTVNeTR5TURBd01ETTJNak01TmpJMExDSjVJam96TWpRMkxqTTJNalV4TURZNE1URTFNak45TEhzaWVDSTZNamt6TGpJd01EQXdNell5TXprMk1qUXNJbmtpT2pNeU9ERXVPRFl5TlRFd05qZ3hNVFV5TTMxZCIgZGF0YS1pZD0iTF9ZX1pfMCIgZGF0YS1ldD0iZWRnZSIgZGF0YS1lZGdlPSJ0cnVlIiBzdHlsZT0ic3Ryb2tlLWRhc2hhcnJheTogMCAwIDM1Ni45ODY2MDI3ODMyMDMxIDk7IHN0cm9rZS1kYXNob2Zmc2V0OiAwOzsiIGNsYXNzPSJlZGdlLXRoaWNrbmVzcy1ub3JtYWwgZWRnZS1wYXR0ZXJuLXNvbGlkIGVkZ2UtdGhpY2tuZXNzLW5vcm1hbCBlZGdlLXBhdHRlcm4tc29saWQgZmxvd2NoYXJ0LWxpbmsiIGlkPSJMX1lfWl8wIiBkPSJNNjEyLjQ0MTY5NjA3ODc2NjUsMzEzOS42OTE2OTk4OTM0NjNMMzAxLjMxNDU0MTkxNjk3MzE2LDMyNDMuNjUxMTM0MzE4NTM3UTI5My4yMDAwMDM2MjM5NjI0LDMyNDYuMzYyNTEwNjgxMTUyMyAyOTMuMjAwMDAzNjIzOTYyNCwzMjU0LjkxODA1MjM2NDA5MDNMMjkzLjIwMDAwMzYyMzk2MjQsMzI3Ny44NjI1MTA2ODExNTIzIi8+PHBhdGggbWFya2VyLWVuZD0idXJsKCNleHBvcnQtc3ZnX2Zsb3djaGFydC12Mi1wb2ludEVuZC1tYXJnaW4pIiBkYXRhLXBvaW50cz0iVzNzaWVDSTZOamcwTGpFeE1qVXdOamcyTmpRMU5EWXNJbmtpT2pNeU1URXVNell5TlRFd05qZ3hNVFV4ZlN4N0luZ2lPalk0TXk0Mk1USTFNRFk0TmpZME5UVXhMQ0o1SWpvek1qUTJMak0yTWpVeE1EWTRNVEUxTWpOOUxIc2llQ0k2TmpnekxqWXhNalV3TmpnMk5qUTFOVEVzSW5raU9qTXpNVFF1T0RZeU5URXdOamd4TVRVeU0zMHNleUo0SWpvMk9ETXVOakV5TlRBMk9EWTJORFUxTVN3aWVTSTZNek00TXk0ek5qSTFNVEEyT0RFeE5USXpmU3g3SW5naU9qVXlOUzQzTVRnMU1qRXdOall4T1RNMUxDSjVJam96TkRneExqRXdPVEUxTXpZNU5UVTRPREo5WFE9PSIgZGF0YS1pZD0iTF9ZX0FBXzAiIGRhdGEtZXQ9ImVkZ2UiIGRhdGEtZWRnZT0idHJ1ZSIgc3R5bGU9InN0cm9rZS1kYXNoYXJyYXk6IDAgMCAzNDIuOTk2MzM3ODkwNjI1IDk7IHN0cm9rZS1kYXNob2Zmc2V0OiAwOzsiIGNsYXNzPSJlZGdlLXRoaWNrbmVzcy1ub3JtYWwgZWRnZS1wYXR0ZXJuLXNvbGlkIGVkZ2UtdGhpY2tuZXNzLW5vcm1hbCBlZGdlLXBhdHRlcm4tc29saWQgZmxvd2NoYXJ0LWxpbmsiIGlkPSJMX1lfQUFfMCIgZD0iTTY4NC4xMTI1MDY4NjY0NTQ2LDMyMTEuMzYyNTEwNjgxMTUxTDY4My44NjI1MDY4NjY0NTQ5LDMyMjguODYyNTEwNjgxMTUxNFE2ODMuNjEyNTA2ODY2NDU1MSwzMjQ2LjM2MjUxMDY4MTE1MjMgNjgzLjYxMjUwNjg2NjQ1NTEsMzI2My44NjQyOTYzMDQzNDAzTDY4My42MTI1MDY4NjY0NTUxLDMzMTQuODYyNTEwNjgxMTUyM0w2ODMuNjEyNTA2ODY2NDU1MSwzMzczLjA4Nzk1MDI3MDcxMDNRNjgzLjYxMjUwNjg2NjQ1NTEsMzM4My4zNjI1MTA2ODExNTIzIDY3NC44NzY0NzQyNzQyMTc1LDMzODguNzcwNjgyODQ2OTc2TDUyOS4xMTk1NTUxNzExMTExLDM0NzkuMDAzNjkyNDU5Mzc3NCIvPjxwYXRoIG1hcmtlci1lbmQ9InVybCgjZXhwb3J0LXN2Z19mbG93Y2hhcnQtdjItcG9pbnRFbmQtbWFyZ2luKSIgZGF0YS1wb2ludHM9Ilczc2llQ0k2TlRBNExqQTFOakE1TnpRNU16ZzNORElzSW5raU9qSTVNVGN1T1RRd05EY3dNakExTURVMU5uMHNleUo0SWpvME56TXVNRFUyTWpVMU16UXdOVGMyTWl3aWVTSTZNams0TXk0NE1qVXdNRFExTnpjMk16WTNmU3g3SW5naU9qUTNNeTR3TlRZeU5UVXpOREExTnpZeUxDSjVJam96TVRFMUxqQTVNemMxTnpZeU9UTTVORFY5TEhzaWVDSTZORGN6TGpBMU5qSTFOVE0wTURVM05qSXNJbmtpT2pNeU5EWXVNell5TlRFd05qZ3hNVFV5TTMwc2V5SjRJam8wTnpNdU1EVTJNalUxTXpRd05UYzJNaXdpZVNJNk16TXhOQzQ0TmpJMU1UQTJPREV4TlRJemZTeDdJbmdpT2pRM015NHdOVFl5TlRVek5EQTFOell5TENKNUlqb3pNemd6TGpNMk1qVXhNRFk0TVRFMU1qTjlMSHNpZUNJNk5EY3dMalUzTURnM05UazNOekEzT1RNM0xDSjVJam96TkRJMUxqazJNVFV3T0RZd05qUTNNemQ5WFE9PSIgZGF0YS1pZD0iTF9YX0FBXzAiIGRhdGEtZXQ9ImVkZ2UiIGRhdGEtZWRnZT0idHJ1ZSIgc3R5bGU9InN0cm9rZS1kYXNoYXJyYXk6IDAgMCA1MDIuOTg2Njk0MzM1OTM3NSA5OyBzdHJva2UtZGFzaG9mZnNldDogMDs7IiBjbGFzcz0iZWRnZS10aGlja25lc3Mtbm9ybWFsIGVkZ2UtcGF0dGVybi1zb2xpZCBlZGdlLXRoaWNrbmVzcy1ub3JtYWwgZWRnZS1wYXR0ZXJuLXNvbGlkIGZsb3djaGFydC1saW5rIiBpZD0iTF9YX0FBXzAiIGQ9Ik01MDguMDU2MDk3NDkzODc0MiwyOTE3Ljk0MDQ3MDIwNTA1NTZMNDgyLjc1OTY2NDYxNzQ5NjMsMjk2NS41NTkwNzY0Mjc1NTE2UTQ3My4wNTYyNTUzNDA1NzYyLDI5ODMuODI1MDA0NTc3NjM2NyA0NzMuMDU2MjU1MzQwNTc2MiwzMDA0LjUwODMzODAzMTg4Mkw0NzMuMDU2MjU1MzQwNTc2MiwzMTE1LjA5Mzc1NzYyOTM5NDVMNDczLjA1NjI1NTM0MDU3NjIsMzI0Ni4zNjI1MTA2ODExNTIzTDQ3My4wNTYyNTUzNDA1NzYyLDMzMTQuODYyNTEwNjgxMTUyM0w0NzMuMDU2MjU1MzQwNTc2MiwzMzY0LjAyNjc5MTAxNDIyOTdRNDczLjA1NjI1NTM0MDU3NjIsMzM4My4zNjI1MTA2ODExNTIzIDQ3MS45MzAwNTQ3ODYwODkzMywzNDAyLjY2NTQwNDk1NTA0MDJMNDcwLjgwMzg1NDIzMTYwMjUsMzQyMS45NjgyOTkyMjg5MjgiLz48cGF0aCBtYXJrZXItZW5kPSJ1cmwoI2V4cG9ydC1zdmdfZmxvd2NoYXJ0LXYyLXBvaW50RW5kLW1hcmdpbikiIGRhdGEtcG9pbnRzPSJXM3NpZUNJNk1qa3pMakl3TURBd016WXlNemsyTWpRc0lua2lPak16TkRjdU9EWXlOVEV3TmpneE1UVXlNMzBzZXlKNElqb3lPVE11TWpBd01EQXpOakl6T1RZeU5Dd2llU0k2TXpNNE15NHpOakkxTVRBMk9ERXhOVEl6ZlN4N0luZ2lPalF3T0M0ME1UUTVNak16TURreE9ERXlNeXdpZVNJNk16UTNOQzQ1TVRrME5qVTBNak0zTWpsOVhRPT0iIGRhdGEtaWQ9IkxfWl9BQV8wIiBkYXRhLWV0PSJlZGdlIiBkYXRhLWVkZ2U9InRydWUiIHN0eWxlPSJzdHJva2UtZGFzaGFycmF5OiAwIDAgMTY4LjE1NTMzNDQ3MjY1NjI1IDk7IHN0cm9rZS1kYXNob2Zmc2V0OiAwOzsiIGNsYXNzPSJlZGdlLXRoaWNrbmVzcy1ub3JtYWwgZWRnZS1wYXR0ZXJuLXNvbGlkIGVkZ2UtdGhpY2tuZXNzLW5vcm1hbCBlZGdlLXBhdHRlcm4tc29saWQgZmxvd2NoYXJ0LWxpbmsiIGlkPSJMX1pfQUFfMCIgZD0iTTI5My4yMDAwMDM2MjM5NjI0LDMzNDcuODYyNTEwNjgxMTUyM0wyOTMuMjAwMDAzNjIzOTYyNCwzMzcxLjg1OTIzMjUzNzMzOTdRMjkzLjIwMDAwMzYyMzk2MjQsMzM4My4zNjI1MTA2ODExNTIzIDMwMi4yMDU5NTYxNDg1NDQ5LDMzOTAuNTE5MjAxNzU4NjZMNDA1LjI4MzMxMDc2ODEzMjk0LDM0NzIuNDMwODkwOTUzNzI2MiIvPjxwYXRoIG1hcmtlci1lbmQ9InVybCgjZXhwb3J0LXN2Z19mbG93Y2hhcnQtdjItcG9pbnRFbmQtbWFyZ2luKSIgZGF0YS1wb2ludHM9Ilczc2llQ0k2TlRBeExqZzJNVFUyTVRrd05qVXhOekEzTENKNUlqb3pOVGd3TGpjNE5UTXlOamd5TmpNNU16UjlMSHNpZUNJNk5UUTJMak00TVRJMU5qRXdNelV4TlRZc0lua2lPak0yTlRNdU5qYzFNREV3TmpneE1UVXlNMzBzZXlKNElqbzFORFl1TXpneE1qVTJNVEF6TlRFMU5pd2llU0k2TXpZNE9TNHhOelV3TVRBMk9ERXhOVEl6ZlYwPSIgZGF0YS1pZD0iTF9BQV9CQl8wIiBkYXRhLWV0PSJlZGdlIiBkYXRhLWVkZ2U9InRydWUiIHN0eWxlPSJzdHJva2UtZGFzaGFycmF5OiAwIDAgMTA3LjEyOTAyODMyMDMxMjUgOTsgc3Ryb2tlLWRhc2hvZmZzZXQ6IDA7OyIgY2xhc3M9ImVkZ2UtdGhpY2tuZXNzLW5vcm1hbCBlZGdlLXBhdHRlcm4tc29saWQgZWRnZS10aGlja25lc3Mtbm9ybWFsIGVkZ2UtcGF0dGVybi1zb2xpZCBmbG93Y2hhcnQtbGluayIgaWQ9IkxfQUFfQkJfMCIgZD0iTTUwMS44NjE1NjE5MDY1MTcwNywzNTgwLjc4NTMyNjgyNjM5MzRMNTM4LjE3MTY0MTE5NzU5NDMsMzY0MC4yMzM4NTI4Nzc3MzFRNTQ2LjM4MTI1NjEwMzUxNTYsMzY1My42NzUwMTA2ODExNTIzIDU0Ni4zODEyNTYxMDM1MTU2LDM2NjkuNDI1MDEwNjgxMTUyM0w1NDYuMzgxMjU2MTAzNTE1NiwzNjg1LjE3NTAxMDY4MTE1MjMiLz48cGF0aCBtYXJrZXItZW5kPSJ1cmwoI2V4cG9ydC1zdmdfZmxvd2NoYXJ0LXYyLXBvaW50RW5kLW1hcmdpbikiIGRhdGEtcG9pbnRzPSJXM3NpZUNJNk5UUTJMak00TVRJMU5qRXdNelV4TlRZc0lua2lPak0zTlRVdU1UYzFNREV3TmpneE1UVXlNMzBzZXlKNElqbzFORFl1TXpneE1qVTJNVEF6TlRFMU5pd2llU0k2TXpjNE1DNHhOelV3TVRBMk9ERXhOVEl6ZlN4N0luZ2lPalUwTmk0ek9ERXlOVFl4TURNMU1UVTJMQ0o1SWpvek9EQTFMakUzTlRBeE1EWTRNVEUxTWpOOVhRPT0iIGRhdGEtaWQ9IkxfQkJfQ0NfMCIgZGF0YS1ldD0iZWRnZSIgZGF0YS1lZGdlPSJ0cnVlIiBzdHlsZT0ic3Ryb2tlLWRhc2hhcnJheTogMCAwIDM3IDk7IHN0cm9rZS1kYXNob2Zmc2V0OiAwOzsiIGNsYXNzPSJlZGdlLXRoaWNrbmVzcy1ub3JtYWwgZWRnZS1wYXR0ZXJuLXNvbGlkIGVkZ2UtdGhpY2tuZXNzLW5vcm1hbCBlZGdlLXBhdHRlcm4tc29saWQgZmxvd2NoYXJ0LWxpbmsiIGlkPSJMX0JCX0NDXzAiIGQ9Ik01NDYuMzgxMjU2MTAzNTE1NiwzNzU1LjE3NTAxMDY4MTE1MjNMNTQ2LjM4MTI1NjEwMzUxNTYsMzc4MC4xNzUwMTA2ODExNTIzTDU0Ni4zODEyNTYxMDM1MTU2LDM4MDEuMTc1MDEwNjgxMTUyMyIvPjxwYXRoIG1hcmtlci1lbmQ9InVybCgjZXhwb3J0LXN2Z19mbG93Y2hhcnQtdjItcG9pbnRFbmQtbWFyZ2luKSIgZGF0YS1wb2ludHM9Ilczc2llQ0k2TlRRMkxqTTRNVEkxTmpFd016VXhOVFlzSW5raU9qTTROekV1TVRjMU1ERXdOamd4TVRVeU0zMHNleUo0SWpvMU5EWXVNemd4TWpVMk1UQXpOVEUxTml3aWVTSTZNemc1Tmk0eE56VXdNVEEyT0RFeE5USXpmU3g3SW5naU9qVTBOaTR6T0RFeU5UWXhNRE0xTVRVMkxDSjVJam96T1RJeExqRTNOVEF4TURZNE1URTFNak45WFE9PSIgZGF0YS1pZD0iTF9DQ19ERF8wIiBkYXRhLWV0PSJlZGdlIiBkYXRhLWVkZ2U9InRydWUiIHN0eWxlPSJzdHJva2UtZGFzaGFycmF5OiAwIDAgMzcgOTsgc3Ryb2tlLWRhc2hvZmZzZXQ6IDA7OyIgY2xhc3M9ImVkZ2UtdGhpY2tuZXNzLW5vcm1hbCBlZGdlLXBhdHRlcm4tc29saWQgZWRnZS10aGlja25lc3Mtbm9ybWFsIGVkZ2UtcGF0dGVybi1zb2xpZCBmbG93Y2hhcnQtbGluayIgaWQ9IkxfQ0NfRERfMCIgZD0iTTU0Ni4zODEyNTYxMDM1MTU2LDM4NzEuMTc1MDEwNjgxMTUyM0w1NDYuMzgxMjU2MTAzNTE1NiwzODk2LjE3NTAxMDY4MTE1MjNMNTQ2LjM4MTI1NjEwMzUxNTYsMzkxNy4xNzUwMTA2ODExNTIzIi8+PHBhdGggbWFya2VyLWVuZD0idXJsKCNleHBvcnQtc3ZnX2Zsb3djaGFydC12Mi1wb2ludEVuZC1tYXJnaW4pIiBkYXRhLXBvaW50cz0iVzNzaWVDSTZOVFEyTGpNNE1USTFOakV3TXpVeE5UWXNJbmtpT2pNNU9EY3VNVGMxTURFd05qZ3hNVFV5TTMwc2V5SjRJam8xTkRZdU16Z3hNalUyTVRBek5URTFOaXdpZVNJNk5EQXlNaTQyTnpVd01UQTJPREV4TlRJemZTeDdJbmdpT2pVME5pNHpPREV5TlRZeE1ETTFNVFUyTENKNUlqbzBNRFU0TGpFM05UQXhNRFk0TVRFMU1qTjlYUT09IiBkYXRhLWlkPSJMX0REX0VFXzAiIGRhdGEtZXQ9ImVkZ2UiIGRhdGEtZWRnZT0idHJ1ZSIgc3R5bGU9InN0cm9rZS1kYXNoYXJyYXk6IDAgMCA1OCA5OyBzdHJva2UtZGFzaG9mZnNldDogMDs7IiBjbGFzcz0iZWRnZS10aGlja25lc3Mtbm9ybWFsIGVkZ2UtcGF0dGVybi1zb2xpZCBlZGdlLXRoaWNrbmVzcy1ub3JtYWwgZWRnZS1wYXR0ZXJuLXNvbGlkIGZsb3djaGFydC1saW5rIiBpZD0iTF9ERF9FRV8wIiBkPSJNNTQ2LjM4MTI1NjEwMzUxNTYsMzk4Ny4xNzUwMTA2ODExNTIzTDU0Ni4zODEyNTYxMDM1MTU2LDQwMjIuNjc1MDEwNjgxMTUyM0w1NDYuMzgxMjU2MTAzNTE1Niw0MDU0LjE3NTAxMDY4MTE1MjMiLz48cGF0aCBtYXJrZXItZW5kPSJ1cmwoI2V4cG9ydC1zdmdfZmxvd2NoYXJ0LXYyLXBvaW50RW5kLW1hcmdpbikiIGRhdGEtcG9pbnRzPSJXM3NpZUNJNk5UUTJMak00TVRJMU5qRXdNelV4TlRZc0lua2lPalF4TWpRdU1UYzFNREV3TmpneE1UVXlmU3g3SW5naU9qVTBOaTR6T0RFeU5UWXhNRE0xTVRVMkxDSjVJam8wTVRRNUxqRTNOVEF4TURZNE1URTFNbjBzZXlKNElqbzFORFl1TXpneE1qVTJNVEF6TlRFMU5pd2llU0k2TkRFM05DNHhOelV3TVRBMk9ERXhOVEo5WFE9PSIgZGF0YS1pZD0iTF9FRV9GRl8wIiBkYXRhLWV0PSJlZGdlIiBkYXRhLWVkZ2U9InRydWUiIHN0eWxlPSJzdHJva2UtZGFzaGFycmF5OiAwIDAgMzcgOTsgc3Ryb2tlLWRhc2hvZmZzZXQ6IDA7OyIgY2xhc3M9ImVkZ2UtdGhpY2tuZXNzLW5vcm1hbCBlZGdlLXBhdHRlcm4tc29saWQgZWRnZS10aGlja25lc3Mtbm9ybWFsIGVkZ2UtcGF0dGVybi1zb2xpZCBmbG93Y2hhcnQtbGluayIgaWQ9IkxfRUVfRkZfMCIgZD0iTTU0Ni4zODEyNTYxMDM1MTU2LDQxMjQuMTc1MDEwNjgxMTUyTDU0Ni4zODEyNTYxMDM1MTU2LDQxNDkuMTc1MDEwNjgxMTUyTDU0Ni4zODEyNTYxMDM1MTU2LDQxNzAuMTc1MDEwNjgxMTUyIi8+PHBhdGggbWFya2VyLWVuZD0idXJsKCNleHBvcnQtc3ZnX2Zsb3djaGFydC12Mi1wb2ludEVuZC1tYXJnaW4pIiBkYXRhLXBvaW50cz0iVzNzaWVDSTZOVFEyTGpNNE1USTFOakV3TXpVeE5UWXNJbmtpT2pReU1Ua3VNVGMxTURFd05qZ3hNVFV5ZlN4N0luZ2lPalUwTmk0ek9ERXlOVFl4TURNMU1UVTJMQ0o1SWpvME1qUTBMakUzTlRBeE1EWTRNVEUxTW4wc2V5SjRJam8xTkRZdU9EZ3hNalUyTVRBek5URTFOaXdpZVNJNk5ESTJPUzQyTnpVd01UQTJPREV4TlRGOVhRPT0iIGRhdGEtaWQ9IkxfRkZfR0dfMCIgZGF0YS1ldD0iZWRnZSIgZGF0YS1lZGdlPSJ0cnVlIiBzdHlsZT0ic3Ryb2tlLWRhc2hhcnJheTogMCAwIDM3LjUwNDQ0NDEyMjMxNDQ1IDk7IHN0cm9rZS1kYXNob2Zmc2V0OiAwOzsiIGNsYXNzPSJlZGdlLXRoaWNrbmVzcy1ub3JtYWwgZWRnZS1wYXR0ZXJuLXNvbGlkIGVkZ2UtdGhpY2tuZXNzLW5vcm1hbCBlZGdlLXBhdHRlcm4tc29saWQgZmxvd2NoYXJ0LWxpbmsiIGlkPSJMX0ZGX0dHXzAiIGQ9Ik01NDYuMzgxMjU2MTAzNTE1Niw0MjE5LjE3NTAxMDY4MTE1Mkw1NDYuMzgxMjU2MTAzNTE1Niw0MjMzLjQyMjU1OTkzNjI5NlE1NDYuMzgxMjU2MTAzNTE1Niw0MjQ0LjE3NTAxMDY4MTE1MiA1NDYuNTkyMDQ3OTUzNjQ2Nyw0MjU0LjkyNTM5NTAzNzgzOUw1NDYuODAyODM5ODAzNzc3OCw0MjY1LjY3NTc3OTM5NDUyNCIvPjxwYXRoIG1hcmtlci1lbmQ9InVybCgjZXhwb3J0LXN2Z19mbG93Y2hhcnQtdjItcG9pbnRFbmQtbWFyZ2luKSIgZGF0YS1wb2ludHM9Ilczc2llQ0k2TlRRMkxqZzRNVEkxTmpFd016VXhOVFlzSW5raU9qUXpNelV1TmpjMU1ERXdOamd4TVRVeGZTeDdJbmdpT2pVME5pNHpPREV5TlRZeE1ETTFNVFUyTENKNUlqbzBNell3TGpFM05UQXhNRFk0TVRFMU1uMHNleUo0SWpvMU1Ea3VNakl6TkRZMk5URTJPVEV6TVN3aWVTSTZORFF4TlM0MU1qQXpORFV6TXpFMk1URjlYUT09IiBkYXRhLWlkPSJMX0dHX1JfMCIgZGF0YS1ldD0iZWRnZSIgZGF0YS1lZGdlPSJ0cnVlIiBzdHlsZT0ic3Ryb2tlLWRhc2hhcnJheTogMCAwIDc3LjUwOTE0NzY0NDA0Mjk3IDk7IHN0cm9rZS1kYXNob2Zmc2V0OiAwOzsiIGNsYXNzPSJlZGdlLXRoaWNrbmVzcy1ub3JtYWwgZWRnZS1wYXR0ZXJuLXNvbGlkIGVkZ2UtdGhpY2tuZXNzLW5vcm1hbCBlZGdlLXBhdHRlcm4tc29saWQgZmxvd2NoYXJ0LWxpbmsiIGlkPSJMX0dHX1JfMCIgZD0iTTU0Ni44ODEyNTYxMDM1MTU2LDQzMzUuNjc1MDEwNjgxMTUxTDU0Ni42MzEyNTYxMDM1MTU2LDQzNDcuOTI1MDEwNjgxMTUyUTU0Ni4zODEyNTYxMDM1MTU2LDQzNjAuMTc1MDEwNjgxMTUyIDUzOS41NTE2MDEwNzQ3NTgzLDQzNzAuMzQ3NTYyNTgyNjI2TDUxMS40NTMwOTM2OTEwMTI0LDQ0MTIuMTk5Mzg3MjM3MjQ4Ii8+PHBhdGggbWFya2VyLWVuZD0idXJsKCNleHBvcnQtc3ZnX2Zsb3djaGFydC12Mi1wb2ludEVuZC1tYXJnaW4pIiBkYXRhLXBvaW50cz0iVzNzaWVDSTZOREV4TGpJME56QXlOemc0T1RNM05ESXNJbmtpT2pNMU5qVXVPVFV3TVRZd05URTROelk1ZlN4N0luZ2lPak14TVM0Mk16RXlOVFF4T1RZeE5qY3NJbmtpT2pNMk5UTXVOamMxTURFd05qZ3hNVFV5TTMwc2V5SjRJam96TVRFdU5qTXhNalUwTVRrMk1UWTNMQ0o1SWpvek56SXlMakUzTlRBeE1EWTRNVEUxTWpOOUxIc2llQ0k2TXpFeExqWXpNVEkxTkRFNU5qRTJOeXdpZVNJNk16YzRNQzR4TnpVd01UQTJPREV4TlRJemZTeDdJbmdpT2pNeE1TNDJNekV5TlRReE9UWXhOamNzSW5raU9qTTRNemd1TVRjMU1ERXdOamd4TVRVeU0zMHNleUo0SWpvek1URXVOak14TWpVME1UazJNVFkzTENKNUlqb3pPRGsyTGpFM05UQXhNRFk0TVRFMU1qTjlMSHNpZUNJNk16RXhMall6TVRJMU5ERTVOakUyTnl3aWVTSTZNemsxTkM0eE56VXdNVEEyT0RFeE5USXpmU3g3SW5naU9qTXhNUzQyTXpFeU5UUXhPVFl4Tmpjc0lua2lPalF3TWpJdU5qYzFNREV3TmpneE1UVXlNMzBzZXlKNElqb3pNVEV1TmpNeE1qVTBNVGsyTVRZM0xDSjVJam8wTURreExqRTNOVEF4TURZNE1URTFNak45TEhzaWVDSTZNekV4TGpZek1USTFOREU1TmpFMk55d2llU0k2TkRFME9TNHhOelV3TVRBMk9ERXhOVEo5TEhzaWVDSTZNekV4TGpZek1USTFOREU1TmpFMk55d2llU0k2TkRFNU5pNDJOelV3TVRBMk9ERXhOVEo5TEhzaWVDSTZNekV4TGpZek1USTFOREU1TmpFMk55d2llU0k2TkRJME5DNHhOelV3TVRBMk9ERXhOVEo5TEhzaWVDSTZNekV4TGpZek1USTFOREU1TmpFMk55d2llU0k2TkRNd01pNHhOelV3TVRBMk9ERXhOVEo5TEhzaWVDSTZNekV4TGpZek1USTFOREU1TmpFMk55d2llU0k2TkRNMk1DNHhOelV3TVRBMk9ERXhOVEo5TEhzaWVDSTZORE16TGpJd05qVTROekF3TmpBMU5URXNJbmtpT2pRME16RXVPRFEyTlRVMU5UUXhOVFY5WFE9PSIgZGF0YS1pZD0iTF9BQV9SXzAiIGRhdGEtZXQ9ImVkZ2UiIGRhdGEtZWRnZT0idHJ1ZSIgc3R5bGU9InN0cm9rZS1kYXNoYXJyYXk6IDAgMCA5NjQuMTk3OTk4MDQ2ODc1IDk7IHN0cm9rZS1kYXNob2Zmc2V0OiAwOzsiIGNsYXNzPSJlZGdlLXRoaWNrbmVzcy1ub3JtYWwgZWRnZS1wYXR0ZXJuLXNvbGlkIGVkZ2UtdGhpY2tuZXNzLW5vcm1hbCBlZGdlLXBhdHRlcm4tc29saWQgZmxvd2NoYXJ0LWxpbmsiIGlkPSJMX0FBX1JfMCIgZD0iTTQxMS4yNDcwMjc4ODkzNzQyLDM1NjUuOTUwMTYwNTE4NzY5TDMyMC43NDQxNDM5ODg3Mzc3MywzNjQ1LjY0OTkwNzIwNjQ1OTRRMzExLjYzMTI1NDE5NjE2NywzNjUzLjY3NTAxMDY4MTE1MjMgMzExLjYzMTI1NDE5NjE2NywzNjY1LjgxNzc4ODIxMTQ4MTVMMzExLjYzMTI1NDE5NjE2NywzNzIyLjE3NTAxMDY4MTE1MjNMMzExLjYzMTI1NDE5NjE2NywzNzgwLjE3NTAxMDY4MTE1MjNMMzExLjYzMTI1NDE5NjE2NywzODM4LjE3NTAxMDY4MTE1MjNMMzExLjYzMTI1NDE5NjE2NywzODk2LjE3NTAxMDY4MTE1MjNMMzExLjYzMTI1NDE5NjE2NywzOTU0LjE3NTAxMDY4MTE1MjNMMzExLjYzMTI1NDE5NjE2Nyw0MDIyLjY3NTAxMDY4MTE1MjNMMzExLjYzMTI1NDE5NjE2Nyw0MDkxLjE3NTAxMDY4MTE1MjNMMzExLjYzMTI1NDE5NjE2Nyw0MTQ5LjE3NTAxMDY4MTE1MkwzMTEuNjMxMjU0MTk2MTY3LDQxOTYuNjc1MDEwNjgxMTUyTDMxMS42MzEyNTQxOTYxNjcsNDI0NC4xNzUwMTA2ODExNTJMMzExLjYzMTI1NDE5NjE2Nyw0MzAyLjE3NTAxMDY4MTE1MkwzMTEuNjMxMjU0MTk2MTY3LDQzNTAuMDk1NjMwNDQ5MzMzUTMxMS42MzEyNTQxOTYxNjcsNDM2MC4xNzUwMTA2ODExNTIgMzIwLjMxNDEyMzgxMjMwMTk0LDQzNjUuMjkzNzY4NDQ5MDg2TDQyOS43NjA3OTE5NjA1NTI0LDQ0MjkuODE1MTc3NTU5ODg1Ii8+PHBhdGggbWFya2VyLWVuZD0idXJsKCNleHBvcnQtc3ZnX2Zsb3djaGFydC12Mi1wb2ludEVuZC1tYXJnaW4pIiBkYXRhLXBvaW50cz0iVzNzaWVDSTZOVEV4TGpjeU9ERTBORFEyTWprek1EZzJMQ0o1SWpvME5EazVMamswT1RrNU9EQTRORFkzTjMwc2V5SjRJam8xTmpRdU9ERXlOVEEyTmpjMU56SXdNaXdpZVNJNk5EVTJOeTR6TURBd01UQTJPREV4TlRKOUxIc2llQ0k2TlRZMExqZ3hNalV3TmpZM05UY3lNRElzSW5raU9qUTJPREV1TkRVd01ERXlNakEzTURNeGZTeDdJbmdpT2pVMk5DNDRNVEkxTURZMk56VTNNakF5TENKNUlqbzBOemsxTGpZd01EQXhNemN6TWpreGZTeDdJbmdpT2pVMk5TNHpNVEkxTURZMk56VTNNakF5TENKNUlqbzBPRE14TGpZd01EQXhNemN6TWpreE1YMWQiIGRhdGEtaWQ9IkxfUl9ISF8wIiBkYXRhLWV0PSJlZGdlIiBkYXRhLWVkZ2U9InRydWUiIHN0eWxlPSJzdHJva2UtZGFzaGFycmF5OiAwIDAgMzM1Ljk0MTk1NTU2NjQwNjI1IDk7IHN0cm9rZS1kYXNob2Zmc2V0OiAwOzsiIGNsYXNzPSJlZGdlLXRoaWNrbmVzcy1ub3JtYWwgZWRnZS1wYXR0ZXJuLXNvbGlkIGVkZ2UtdGhpY2tuZXNzLW5vcm1hbCBlZGdlLXBhdHRlcm4tc29saWQgZmxvd2NoYXJ0LWxpbmsiIGlkPSJMX1JfSEhfMCIgZD0iTTUxMS43MjgxNDQ0NjI5MzA4Niw0NDk5Ljk0OTk5ODA4NDY3N0w1NTUuMzY0Mjk0NjA2MTA5Myw0NTU1LjMxMjcyOTAxNTE5NFE1NjQuODEyNTA2Njc1NzIwMiw0NTY3LjMwMDAxMDY4MTE1MiA1NjQuODEyNTA2Njc1NzIwMiw0NTgyLjU2MzE1NjkxODEzTDU2NC44MTI1MDY2NzU3MjAyLDQ2ODEuNDUwMDEyMjA3MDMxTDU2NC44MTI1MDY2NzU3MjAyLDQ3NzkuNTk4Mjc3NzA1NTE1UTU2NC44MTI1MDY2NzU3MjAyLDQ3OTUuNjAwMDEzNzMyOTEgNTY1LjAzNDczMTU3NjczODcsNDgxMS42MDAyMDY2MDYyNDFMNTY1LjI1Njk1NjQ3Nzc1NzIsNDgyNy42MDAzOTk0Nzk1NzMiLz48cGF0aCBtYXJrZXItZW5kPSJ1cmwoI2V4cG9ydC1zdmdfZmxvd2NoYXJ0LXYyLXBvaW50RW5kLW1hcmdpbikiIGRhdGEtcG9pbnRzPSJXM3NpZUNJNk5ETTVMak0xTnpjMk9UTTBOekkyTmpZMExDSjVJam8wTkRreUxqSTNPVFkwT0RFMk1UazJNWDBzZXlKNElqb3pORGd1TURjMU1EQTBOVGMzTmpNMk55d2llU0k2TkRVMk55NHpNREF3TVRBMk9ERXhOVEo5TEhzaWVDSTZNamMyTGpjME9ESXlOalk0TkRjMU1ERXNJbmtpT2pRMk5ERXVPVGc0T0RVM056ZzRNalkxZlYwPSIgZGF0YS1pZD0iTF9SX0lJXzAiIGRhdGEtZXQ9ImVkZ2UiIGRhdGEtZWRnZT0idHJ1ZSIgc3R5bGU9InN0cm9rZS1kYXNoYXJyYXk6IDAgMCAyMDguMzEwOTQzNjAzNTE1NjIgOTsgc3Ryb2tlLWRhc2hvZmZzZXQ6IDA7OyIgY2xhc3M9ImVkZ2UtdGhpY2tuZXNzLW5vcm1hbCBlZGdlLXBhdHRlcm4tc29saWQgZWRnZS10aGlja25lc3Mtbm9ybWFsIGVkZ2UtcGF0dGVybi1zb2xpZCBmbG93Y2hhcnQtbGluayIgaWQ9IkxfUl9JSV8wIiBkPSJNNDM5LjM1Nzc2OTM0NzI2NjY0LDQ0OTIuMjc5NjQ4MTYxOTYxTDM4Ni40MjM3NDIwNDc3MDUzMyw0NTM1Ljc4MzI1OTQ2OTQ4MlEzNDguMDc1MDA0NTc3NjM2Nyw0NTY3LjMwMDAxMDY4MTE1MiAzMTMuNzkyOTAwMjQxNjMxODYsNDYwMy4xOTgwNDExOTUxMjFMMjc5LjUxMDc5NTkwNTYyNjk0LDQ2MzkuMDk2MDcxNzA5MDkiLz48cGF0aCBtYXJrZXItZW5kPSJ1cmwoI2V4cG9ydC1zdmdfZmxvd2NoYXJ0LXYyLXBvaW50RW5kLW1hcmdpbikiIGRhdGEtcG9pbnRzPSJXM3NpZUNJNk1qTTRMakExT1RNM09UVTNOell6TnpJekxDSjVJam8wTnpZd0xqWXdNREF4TXpjek1qa3dPWDBzZXlKNElqb3lNemN1TlRVNU16YzVOVGMzTmpNMk56SXNJbmtpT2pRM09UVXVOakF3TURFek56TXlPVEY5TEhzaWVDSTZNak00TGpBMU9UTTNPVFUzTnpZek5qY3lMQ0o1SWpvME9ETXhMall3TURBeE16Y3pNamt4ZlYwPSIgZGF0YS1pZD0iTF9JSV9KSl8wIiBkYXRhLWV0PSJlZGdlIiBkYXRhLWVkZ2U9InRydWUiIHN0eWxlPSJzdHJva2UtZGFzaGFycmF5OiAwIDAgNTguMDA1MDQzMDI5Nzg1MTU2IDk7IHN0cm9rZS1kYXNob2Zmc2V0OiAwOzsiIGNsYXNzPSJlZGdlLXRoaWNrbmVzcy1ub3JtYWwgZWRnZS1wYXR0ZXJuLXNvbGlkIGVkZ2UtdGhpY2tuZXNzLW5vcm1hbCBlZGdlLXBhdHRlcm4tc29saWQgZmxvd2NoYXJ0LWxpbmsiIGlkPSJMX0lJX0pKXzAiIGQ9Ik0yMzguMDU5Mzc5NTc3NjM3MjMsNDc2MC42MDAwMTM3MzI5MDlMMjM3Ljc4Nzk1MjQ4NDAyMzYzLDQ3NzkuNTk5OTEwMjg1ODQyUTIzNy41NTkzNzk1Nzc2MzY3Miw0Nzk1LjYwMDAxMzczMjkxIDIzNy43ODE2MDQ0Nzg2NTUyLDQ4MTEuNjAwMjA2NjA2MjQxTDIzOC4wMDM4MjkzNzk2NzM2OCw0ODI3LjYwMDM5OTQ3OTU3MiIvPjxwYXRoIG1hcmtlci1lbmQ9InVybCgjZXhwb3J0LXN2Z19mbG93Y2hhcnQtdjItcG9pbnRFbmQtbWFyZ2luKSIgZGF0YS1wb2ludHM9Ilczc2llQ0k2TWpFMExqUXhPVGsxTXpBeE16QXpOak1zSW5raU9qUTJNall1T1RNNU5ETTNNalExTnpVemZTeDdJbmdpT2pFNE9DNDFNRFl5TlRVeE5EazROREV6TENKNUlqbzBOVFkzTGpNd01EQXhNRFk0TVRFMU1uMHNleUo0SWpveE9EZ3VOVEEyTWpVMU1UUTVPRFF4TXl3aWVTSTZORFExT0M0ME9EYzFNVEEyT0RFeE5USjlMSHNpZUNJNk1UZzRMalV3TmpJMU5URTBPVGcwTVRNc0lua2lPalF6TmpBdU1UYzFNREV3TmpneE1UVXlmU3g3SW5naU9qRTRPQzQxTURZeU5UVXhORGs0TkRFekxDSjVJam8wTXpBeUxqRTNOVEF4TURZNE1URTFNbjBzZXlKNElqb3hPRGd1TlRBMk1qVTFNVFE1T0RReE15d2llU0k2TkRJME5DNHhOelV3TVRBMk9ERXhOVEo5TEhzaWVDSTZNVGc0TGpVd05qSTFOVEUwT1RnME1UTXNJbmtpT2pReE9UWXVOamMxTURFd05qZ3hNVFV5ZlN4N0luZ2lPakU0T0M0MU1EWXlOVFV4TkRrNE5ERXpMQ0o1SWpvME1UUTVMakUzTlRBeE1EWTRNVEUxTW4wc2V5SjRJam94T0RndU5UQTJNalUxTVRRNU9EUXhNeXdpZVNJNk5EQTVNUzR4TnpVd01UQTJPREV4TlRJemZTeDdJbmdpT2pFNE9DNDFNRFl5TlRVeE5EazROREV6TENKNUlqbzBNREl5TGpZM05UQXhNRFk0TVRFMU1qTjlMSHNpZUNJNk1UZzRMalV3TmpJMU5URTBPVGcwTVRNc0lua2lPak01TlRRdU1UYzFNREV3TmpneE1UVXlNMzBzZXlKNElqb3hPRGd1TlRBMk1qVTFNVFE1T0RReE15d2llU0k2TXpnNU5pNHhOelV3TVRBMk9ERXhOVEl6ZlN4N0luZ2lPakU0T0M0MU1EWXlOVFV4TkRrNE5ERXpMQ0o1SWpvek9ETTRMakUzTlRBeE1EWTRNVEUxTWpOOUxIc2llQ0k2TVRnNExqVXdOakkxTlRFME9UZzBNVE1zSW5raU9qTTNPREF1TVRjMU1ERXdOamd4TVRVeU0zMHNleUo0SWpveE9EZ3VOVEEyTWpVMU1UUTVPRFF4TXl3aWVTSTZNemN5TWk0eE56VXdNVEEyT0RFeE5USXpmU3g3SW5naU9qRTRPQzQxTURZeU5UVXhORGs0TkRFekxDSjVJam96TmpVekxqWTNOVEF4TURZNE1URTFNak45TEhzaWVDSTZNVGc0TGpVd05qSTFOVEUwT1RnME1UTXNJbmtpT2pNMU1UZ3VOVEU0TnpZd05qZ3hNVFV5TTMwc2V5SjRJam94T0RndU5UQTJNalUxTVRRNU9EUXhNeXdpZVNJNk16TTRNeTR6TmpJMU1UQTJPREV4TlRJemZTeDdJbmdpT2pFNE9DNDFNRFl5TlRVeE5EazROREV6TENKNUlqb3pNekUwTGpnMk1qVXhNRFk0TVRFMU1qTjlMSHNpZUNJNk1UZzRMalV3TmpJMU5URTBPVGcwTVRNc0lua2lPak15TkRZdU16WXlOVEV3TmpneE1UVXlNMzBzZXlKNElqb3hPRGd1TlRBMk1qVTFNVFE1T0RReE15d2llU0k2TXpFeE5TNHdPVE0zTlRjMk1qa3pPVFExZlN4N0luZ2lPakU0T0M0MU1EWXlOVFV4TkRrNE5ERXpMQ0o1SWpveU9UZ3pMamd5TlRBd05EVTNOell6TmpkOUxIc2llQ0k2TVRnNExqVXdOakkxTlRFME9UZzBNVE1zSW5raU9qSTROVGd1TURFeU5UQTBOVGMzTmpNMk4zMHNleUo0SWpveE9EZ3VOVEEyTWpVMU1UUTVPRFF4TXl3aWVTSTZNamMwTWk0M01EQXdNRFExTnpjMk16WTNmU3g3SW5naU9qRTRPQzQxTURZeU5UVXhORGs0TkRFekxDSjVJam95TmprMUxqSXdNREF3TkRVM056WXpOamQ5TEhzaWVDSTZNVGc0TGpVd05qSTFOVEUwT1RnME1UTXNJbmtpT2pJMk16Y3VNakF3TURBME5UYzNOak0yTjMwc2V5SjRJam94T0RndU5UQTJNalUxTVRRNU9EUXhNeXdpZVNJNk1qVXhNQzR6TlRBd01EWXhNRE0xTVRVMmZTeDdJbmdpT2pFNE9DNDFNRFl5TlRVeE5EazROREV6TENKNUlqb3lNemswTGpBd01EQXdOell5T1RNNU5EVjlMSHNpZUNJNk1UZzRMalV3TmpJMU5URTBPVGcwTVRNc0lua2lPakl6TkRZdU5UQXdNREEzTmpJNU16azBOWDBzZXlKNElqb3hPRGd1TlRBMk1qVTFNVFE1T0RReE15d2llU0k2TWpJNE9DNDFNREF3TURjMk1qa3pPVFExZlN4N0luZ2lPakU0T0M0MU1EWXlOVFV4TkRrNE5ERXpMQ0o1SWpveU1UZzJMalUwTXpjMU5EVTNOell6TmpkOUxIc2llQ0k2TVRnNExqVXdOakkxTlRFME9UZzBNVE1zSW5raU9qSXdPVFV1TURnM05UQXhOVEkxT0RjNWZTeDdJbmdpT2pFNE9DNDFNRFl5TlRVeE5EazROREV6TENKNUlqb3lNRE0zTGpBNE56VXdNVFV5TlRnM09YMHNleUo0SWpveE9EZ3VOVEEyTWpVMU1UUTVPRFF4TXl3aWVTSTZNVGszT1M0d09EYzFNREUxTWpVNE56bDlMSHNpZUNJNk1qZ3hMak0zTkRJM09USXdPVGt5TENKNUlqb3hPVFV6TGpFek1qWTVPVFU1TVRBeU5IMWQiIGRhdGEtaWQ9IkxfSUlfTl8wIiBkYXRhLWV0PSJlZGdlIiBkYXRhLWVkZ2U9InRydWUiIHN0eWxlPSJzdHJva2UtZGFzaGFycmF5OiAwIDAgMjczMy43OTAyODMyMDMxMjUgOTsgc3Ryb2tlLWRhc2hvZmZzZXQ6IDA7OyIgY2xhc3M9ImVkZ2UtdGhpY2tuZXNzLW5vcm1hbCBlZGdlLXBhdHRlcm4tc29saWQgZWRnZS10aGlja25lc3Mtbm9ybWFsIGVkZ2UtcGF0dGVybi1zb2xpZCBmbG93Y2hhcnQtbGluayIgaWQ9IkxfSUlfTl8wIiBkPSJNMjE0LjQxOTk1MzAxMzAzNjMsNDYyNi45Mzk0MzcyNDU3NTNMMTk4LjI5Njk3MjA0Mzc3MTYsNDU4OS44MzI5ODcwMzU3MDNRMTg4LjUwNjI1NTE0OTg0MTMsNDU2Ny4zMDAwMTA2ODExNTIgMTg4LjUwNjI1NTE0OTg0MTMsNDU0Mi43MzE4Nzc2NDg4NzJMMTg4LjUwNjI1NTE0OTg0MTMsNDQ1OC40ODc1MTA2ODExNTJMMTg4LjUwNjI1NTE0OTg0MTMsNDM2MC4xNzUwMTA2ODExNTJMMTg4LjUwNjI1NTE0OTg0MTMsNDMwMi4xNzUwMTA2ODExNTJMMTg4LjUwNjI1NTE0OTg0MTMsNDI0NC4xNzUwMTA2ODExNTJMMTg4LjUwNjI1NTE0OTg0MTMsNDE5Ni42NzUwMTA2ODExNTJMMTg4LjUwNjI1NTE0OTg0MTMsNDE0OS4xNzUwMTA2ODExNTJMMTg4LjUwNjI1NTE0OTg0MTMsNDA5MS4xNzUwMTA2ODExNTIzTDE4OC41MDYyNTUxNDk4NDEzLDQwMjIuNjc1MDEwNjgxMTUyM0wxODguNTA2MjU1MTQ5ODQxMywzOTU0LjE3NTAxMDY4MTE1MjNMMTg4LjUwNjI1NTE0OTg0MTMsMzg5Ni4xNzUwMTA2ODExNTIzTDE4OC41MDYyNTUxNDk4NDEzLDM4MzguMTc1MDEwNjgxMTUyM0wxODguNTA2MjU1MTQ5ODQxMywzNzgwLjE3NTAxMDY4MTE1MjNMMTg4LjUwNjI1NTE0OTg0MTMsMzcyMi4xNzUwMTA2ODExNTIzTDE4OC41MDYyNTUxNDk4NDEzLDM2NTMuNjc1MDEwNjgxMTUyM0wxODguNTA2MjU1MTQ5ODQxMywzNTE4LjUxODc2MDY4MTE1MjNMMTg4LjUwNjI1NTE0OTg0MTMsMzM4My4zNjI1MTA2ODExNTIzTDE4OC41MDYyNTUxNDk4NDEzLDMzMTQuODYyNTEwNjgxMTUyM0wxODguNTA2MjU1MTQ5ODQxMywzMjQ2LjM2MjUxMDY4MTE1MjNMMTg4LjUwNjI1NTE0OTg0MTMsMzExNS4wOTM3NTc2MjkzOTQ1TDE4OC41MDYyNTUxNDk4NDEzLDI5ODMuODI1MDA0NTc3NjM2N0wxODguNTA2MjU1MTQ5ODQxMywyODU4LjAxMjUwNDU3NzYzNjdMMTg4LjUwNjI1NTE0OTg0MTMsMjc0Mi43MDAwMDQ1Nzc2MzY3TDE4OC41MDYyNTUxNDk4NDEzLDI2OTUuMjAwMDA0NTc3NjM2N0wxODguNTA2MjU1MTQ5ODQxMywyNjM3LjIwMDAwNDU3NzYzNjdMMTg4LjUwNjI1NTE0OTg0MTMsMjUxMC4zNTAwMDYxMDM1MTU2TDE4OC41MDYyNTUxNDk4NDEzLDIzOTQuMDAwMDA3NjI5Mzk0NUwxODguNTA2MjU1MTQ5ODQxMywyMzQ2LjUwMDAwNzYyOTM5NDVMMTg4LjUwNjI1NTE0OTg0MTMsMjI4OC41MDAwMDc2MjkzOTQ1TDE4OC41MDYyNTUxNDk4NDEzLDIxODYuNTQzNzU0NTc3NjM2N0wxODguNTA2MjU1MTQ5ODQxMywyMDk1LjA4NzUwMTUyNTg3OUwxODguNTA2MjU1MTQ5ODQxMywyMDM3LjA4NzUwMTUyNTg3OUwxODguNTA2MjU1MTQ5ODQxMywxOTg3LjM1ODgzNjU3NTA3OFExODguNTA2MjU1MTQ5ODQxMywxOTc5LjA4NzUwMTUyNTg3OSAxOTYuNDcyMzI2NzczNDIzLDE5NzYuODYxMTM5ODMzNzczTDI3Ny41MjE5MDM5NTE5MDAyNCwxOTU0LjIwOTM2MzM1OTk4NjYiLz48cGF0aCBtYXJrZXItZW5kPSJ1cmwoI2V4cG9ydC1zdmdfZmxvd2NoYXJ0LXYyLXBvaW50RW5kLW1hcmdpbikiIGRhdGEtcG9pbnRzPSJXM3NpZUNJNk1USTBOaTQ1TnpVd01UTTNNekk1TVRBeUxDSjVJam8wT0RrM0xqWXdNREF4TXpjek1qa3hOSDBzZXlKNElqb3hNalEyTGpRM05UQXhNemN6TWpreE1ESXNJbmtpT2pRNU1qSXVNVEF3TURFek56TXlPVEY5TEhzaWVDSTZOemN3TGpnd01UWTBOVEkzTWpZNE9ERXNJbmtpT2pVd016UXVOekUwTVRVeE16YzJNakF6TlgxZCIgZGF0YS1pZD0iTF9TX0tLXzAiIGRhdGEtZXQ9ImVkZ2UiIGRhdGEtZWRnZT0idHJ1ZSIgc3R5bGU9InN0cm9rZS1kYXNoYXJyYXk6IDAgMCA0OTguMTAyMzU1OTU3MDMxMjUgOTsgc3Ryb2tlLWRhc2hvZmZzZXQ6IDA7OyIgY2xhc3M9ImVkZ2UtdGhpY2tuZXNzLW5vcm1hbCBlZGdlLXBhdHRlcm4tc29saWQgZWRnZS10aGlja25lc3Mtbm9ybWFsIGVkZ2UtcGF0dGVybi1zb2xpZCBmbG93Y2hhcnQtbGluayIgaWQ9IkxfU19LS18wIiBkPSJNMTI0Ni45NzUwMTM3MzI5MTAyLDQ4OTcuNjAwMDEzNzMyOTE0TDEyNDYuNjQxNjMxNjIyNDYzOCw0OTEzLjkzNTczNzE0NDc4UTEyNDYuNDc1MDEzNzMyOTEwMiw0OTIyLjEwMDAxMzczMjkxIDEyMzguNTI4NjkzMDM1OTk4Miw0OTIzLjk4MTI3OTU1OTUzNUw3NzQuNjk0MDQ5NjE5MzA3NCw1MDMzLjc5MjYzNzE4NjE3OCIvPjxwYXRoIG1hcmtlci1lbmQ9InVybCgjZXhwb3J0LXN2Z19mbG93Y2hhcnQtdjItcG9pbnRFbmQtbWFyZ2luKSIgZGF0YS1wb2ludHM9Ilczc2llQ0k2T1RZNUxqRTFOakkxTnpZeU9UTTVORFVzSW5raU9qUTRPVGN1TmpBd01ERXpOek15T1RGOUxIc2llQ0k2T1RZNExqWTFOakkxTnpZeU9UTTVORFVzSW5raU9qUTVNakl1TVRBd01ERXpOek15T1RGOUxIc2llQ0k2TnpVM0xqRTNNak01T1RrNU9EQXpNRFlzSW5raU9qVXdNakV1TURnME9UQTJNVEF4TlRRMmZWMD0iIGRhdGEtaWQ9IkxfVl9LS18wIiBkYXRhLWV0PSJlZGdlIiBkYXRhLWVkZ2U9InRydWUiIHN0eWxlPSJzdHJva2UtZGFzaGFycmF5OiAwIDAgMjQzLjEzNTYwNDg1ODM5ODQ0IDk7IHN0cm9rZS1kYXNob2Zmc2V0OiAwOzsiIGNsYXNzPSJlZGdlLXRoaWNrbmVzcy1ub3JtYWwgZWRnZS1wYXR0ZXJuLXNvbGlkIGVkZ2UtdGhpY2tuZXNzLW5vcm1hbCBlZGdlLXBhdHRlcm4tc29saWQgZmxvd2NoYXJ0LWxpbmsiIGlkPSJMX1ZfS0tfMCIgZD0iTTk2OS4xNTYyNTc2MjkzOTQ1LDQ4OTcuNjAwMDEzNzMyOTFMOTY4Ljg0OTQ1NDU1MjQ5MzYsNDkxMi42MzMzNjQ1MDEwNTQ1UTk2OC42NTYyNTc2MjkzOTQ1LDQ5MjIuMTAwMDEzNzMyOTEgOTYwLjA4MDUwMzA3OTg5ODQsNDkyNi4xMTM4OTA0OTE5NjRMNzYwLjc5NTIxMDU3MjYwNDYsNTAxOS4zODkyNTE3OTEwMzQiLz48cGF0aCBtYXJrZXItZW5kPSJ1cmwoI2V4cG9ydC1zdmdfZmxvd2NoYXJ0LXYyLXBvaW50RW5kLW1hcmdpbikiIGRhdGEtcG9pbnRzPSJXM3NpZUNJNk5UWTFMak14TWpVd05qWTNOVGN5TURJc0lua2lPalE0T1RjdU5qQXdNREV6TnpNeU9URXhmU3g3SW5naU9qVTJOQzQ0TVRJMU1EWTJOelUzTWpBeUxDSjVJam8wT1RJeUxqRXdNREF4TXpjek1qa3hmU3g3SW5naU9qWXpNaTQ1TXpBd09UazFORFEzT1RrMkxDSjVJam8wT1RrNExqTTFOelF5TVRneE56VXdORFY5WFE9PSIgZGF0YS1pZD0iTF9ISF9LS18wIiBkYXRhLWV0PSJlZGdlIiBkYXRhLWVkZ2U9InRydWUiIHN0eWxlPSJzdHJva2UtZGFzaGFycmF5OiAwIDAgMTEyLjYzMDE0OTg0MTMwODYgOTsgc3Ryb2tlLWRhc2hvZmZzZXQ6IDA7OyIgY2xhc3M9ImVkZ2UtdGhpY2tuZXNzLW5vcm1hbCBlZGdlLXBhdHRlcm4tc29saWQgZWRnZS10aGlja25lc3Mtbm9ybWFsIGVkZ2UtcGF0dGVybi1zb2xpZCBmbG93Y2hhcnQtbGluayIgaWQ9IkxfSEhfS0tfMCIgZD0iTTU2NS4zMTI1MDY2NzU3MjAyLDQ4OTcuNjAwMDEzNzMyOTExTDU2NS4wNjI1MDY2NzU3MjAyLDQ5MDkuODUwMDEzNzMyOTFRNTY0LjgxMjUwNjY3NTcyMDIsNDkyMi4xMDAwMTM3MzI5MSA1NzIuOTc0OTQwMTc5OTI1NCw0OTMxLjIzNzgyOTYyNTYzOUw2MzAuMjY1MzY5OTk4MjY2OSw0OTk1LjM3NDI2NjM2NjY3MiIvPjxwYXRoIG1hcmtlci1lbmQ9InVybCgjZXhwb3J0LXN2Z19mbG93Y2hhcnQtdjItcG9pbnRFbmQtbWFyZ2luKSIgZGF0YS1wb2ludHM9Ilczc2llQ0k2TWpNNExqQTFPVE0zT1RVM056WXpOamN5TENKNUlqbzBPRGszTGpZd01EQXhNemN6TWpreGZTeDdJbmdpT2pJek55NDFOVGt6TnprMU56YzJNelkzTWl3aWVTSTZORGt5TWk0eE1EQXdNVE0zTXpJNU1YMHNleUo0SWpvMk1EQXVOelEyTnprek5qZzBNelEyTWl3aWVTSTZOVEF6TUM0MU5EQTNNamMyTnpjNU5UbDlYUT09IiBkYXRhLWlkPSJMX0pKX0tLXzAiIGRhdGEtZXQ9ImVkZ2UiIGRhdGEtZWRnZT0idHJ1ZSIgc3R5bGU9InN0cm9rZS1kYXNoYXJyYXk6IDAgMCAzODguMzM5OTk2MzM3ODkwNiA5OyBzdHJva2UtZGFzaG9mZnNldDogMDs7IiBjbGFzcz0iZWRnZS10aGlja25lc3Mtbm9ybWFsIGVkZ2UtcGF0dGVybi1zb2xpZCBlZGdlLXRoaWNrbmVzcy1ub3JtYWwgZWRnZS1wYXR0ZXJuLXNvbGlkIGZsb3djaGFydC1saW5rIiBpZD0iTF9KSl9LS18wIiBkPSJNMjM4LjA1OTM3OTU3NzYzNjcyLDQ4OTcuNjAwMDEzNzMyOTFMMjM3LjcyNzgzODk4NDcyOTUsNDkxMy44NDU1MDI3ODUzNjRRMjM3LjU1OTM3OTU3NzYzNjcyLDQ5MjIuMTAwMDEzNzMyOTEgMjQ1LjQ3MDQ5NzMwNTI3NjksNDkyNC40NjIxMTk5NjU1NzlMNTk2LjkxMzk5NDQ2NDk4MjcsNTAyOS4zOTYzMjgyMDkyMjIiLz48cGF0aCBtYXJrZXItZW5kPSJ1cmwoI2V4cG9ydC1zdmdfZmxvd2NoYXJ0LXYyLXBvaW50RW5kLW1hcmdpbikiIGRhdGEtcG9pbnRzPSJXM3NpZUNJNk56TTFMamc0TlRZd09UQTNNakU1TVRRc0lua2lPalV4TVRBdU5qVXhPVEV5TWprd01URXpmU3g3SW5naU9qZ3hOeTQ1TnpVd01UQTROekU0T0RjeUxDSjVJam8xTVRrM0xqZzFNREF4TXpjek1qa3hmU3g3SW5naU9qZ3hOeTQ1TnpVd01UQTROekU0T0RjeUxDSjVJam8xTWpNekxqTTFNREF4TXpjek1qa3hmVjA9IiBkYXRhLWlkPSJMX0tLX0xMXzAiIGRhdGEtZXQ9ImVkZ2UiIGRhdGEtZWRnZT0idHJ1ZSIgc3R5bGU9InN0cm9rZS1kYXNoYXJyYXk6IDAgMCAxNDAuOTk0NTM3MzUzNTE1NjIgOTsgc3Ryb2tlLWRhc2hvZmZzZXQ6IDA7OyIgY2xhc3M9ImVkZ2UtdGhpY2tuZXNzLW5vcm1hbCBlZGdlLXBhdHRlcm4tc29saWQgZWRnZS10aGlja25lc3Mtbm9ybWFsIGVkZ2UtcGF0dGVybi1zb2xpZCBmbG93Y2hhcnQtbGluayIgaWQ9IkxfS0tfTExfMCIgZD0iTTczNS44ODU2MDkwNzIxOTE0LDUxMTAuNjUxOTEyMjkwMTEzTDgwOC42Nzk1NDM4NjcwMjg1LDUxODcuOTc2MDU4NTQ0MDgzUTgxNy45NzUwMTA4NzE4ODcyLDUxOTcuODUwMDEzNzMyOTEgODE3Ljk3NTAxMDg3MTg4NzIsNTIxMS40MTEwMTI4ODE1NDlMODE3Ljk3NTAxMDg3MTg4NzIsNTIyOS4zNTAwMTM3MzI5MSIvPjxwYXRoIG1hcmtlci1lbmQ9InVybCgjZXhwb3J0LXN2Z19mbG93Y2hhcnQtdjItcG9pbnRFbmQtbWFyZ2luKSIgZGF0YS1wb2ludHM9Ilczc2llQ0k2T0RFM0xqazNOVEF4TURnM01UZzROeklzSW5raU9qVXlPVGt1TXpVd01ERXpOek15T1RGOUxIc2llQ0k2T0RFM0xqazNOVEF4TURnM01UZzROeklzSW5raU9qVXpNalF1TXpVd01ERXpOek15T1RGOUxIc2llQ0k2T0RFNExqUTNOVEF4TURnM01UZzROeklzSW5raU9qVXpORGt1T0RVd01ERXpOek15T1RBNGZWMD0iIGRhdGEtaWQ9IkxfTExfTExMXzAiIGRhdGEtZXQ9ImVkZ2UiIGRhdGEtZWRnZT0idHJ1ZSIgc3R5bGU9InN0cm9rZS1kYXNoYXJyYXk6IDAgMCAzNy41MDM5NTU4NDEwNjQ0NSA5OyBzdHJva2UtZGFzaG9mZnNldDogMDs7IiBjbGFzcz0iZWRnZS10aGlja25lc3Mtbm9ybWFsIGVkZ2UtcGF0dGVybi1zb2xpZCBlZGdlLXRoaWNrbmVzcy1ub3JtYWwgZWRnZS1wYXR0ZXJuLXNvbGlkIGZsb3djaGFydC1saW5rIiBpZD0iTF9MTF9MTExfMCIgZD0iTTgxNy45NzUwMTA4NzE4ODcyLDUyOTkuMzUwMDEzNzMyOTFMODE3Ljk3NTAxMDg3MTg4NzIsNTMxMy41OTc1NjI5ODgwNTRRODE3Ljk3NTAxMDg3MTg4NzIsNTMyNC4zNTAwMTM3MzI5MSA4MTguMTg1ODAyNzIyMDE4Myw1MzM1LjEwMDM5ODA4OTU5Nkw4MTguMzk2NTk0NTcyMTQ5NCw1MzQ1Ljg1MDc4MjQ0NjI4MSIvPjxwYXRoIG1hcmtlci1lbmQ9InVybCgjZXhwb3J0LXN2Z19mbG93Y2hhcnQtdjItcG9pbnRFbmQtbWFyZ2luKSIgZGF0YS1wb2ludHM9Ilczc2llQ0k2TmpBMUxqQTRNemN5TnpBMk1EY3pORFFzSW5raU9qVXdPRFF1TWpRMk1qTXpNVFkwTWpVeGZTeDdJbmdpT2pJNU5TNDFNelF6T1RNek1UQTFORFk1TENKNUlqbzFNVGszTGpnMU1EQXhNemN6TWpreGZTeDdJbmdpT2pJNU5TNDFNelF6T1RNek1UQTFORFk1TENKNUlqbzFNalkyTGpNMU1EQXhNemN6TWpreGZTeDdJbmdpT2pJNU5TNDFNelF6T1RNek1UQTFORFk1TENKNUlqbzFNekkwTGpNMU1EQXhNemN6TWpreGZTeDdJbmdpT2pJNU5pNHdNelF6T1RNek1UQTFORFk1TENKNUlqbzFNelE1TGpnMU1EQXhNemN6TWpreGZWMD0iIGRhdGEtaWQ9IkxfS0tfTU1fMCIgZGF0YS1ldD0iZWRnZSIgZGF0YS1lZGdlPSJ0cnVlIiBzdHlsZT0ic3Ryb2tlLWRhc2hhcnJheTogMCAwIDQ2Ni42ODY0OTI5MTk5MjE5IDk7IHN0cm9rZS1kYXNob2Zmc2V0OiAwOzsiIGNsYXNzPSJlZGdlLXRoaWNrbmVzcy1ub3JtYWwgZWRnZS1wYXR0ZXJuLXNvbGlkIGVkZ2UtdGhpY2tuZXNzLW5vcm1hbCBlZGdlLXBhdHRlcm4tc29saWQgZmxvd2NoYXJ0LWxpbmsiIGlkPSJMX0tLX01NXzAiIGQ9Ik02MDUuMDgzNzI3MDYwNzM0NCw1MDg0LjI0NjIzMzE2NDI1MUwzMDMuNzMzNTY0ODIxODAxMTcsNTE5NC44NDA5Mzk2MzgyNDJRMjk1LjUzNDM5MzMxMDU0NjksNTE5Ny44NTAwMTM3MzI5MSAyOTUuNTM0MzkzMzEwNTQ2OSw1MjA2LjU4MzkwOTc5MjQxMUwyOTUuNTM0MzkzMzEwNTQ2OSw1MjY2LjM1MDAxMzczMjkxTDI5NS41MzQzOTMzMTA1NDY5LDUzMTMuNTk3NTYyOTg4MDUzUTI5NS41MzQzOTMzMTA1NDY5LDUzMjQuMzUwMDEzNzMyOTEgMjk1Ljc0NTE4NTE2MDY3OCw1MzM1LjEwMDM5ODA4OTU5N0wyOTUuOTU1OTc3MDEwODA5MSw1MzQ1Ljg1MDc4MjQ0NjI4MyIvPjxwYXRoIG1hcmtlci1lbmQ9InVybCgjZXhwb3J0LXN2Z19mbG93Y2hhcnQtdjItcG9pbnRFbmQtbWFyZ2luKSIgZGF0YS1wb2ludHM9Ilczc2llQ0k2T0RFNExqUTNOVEF4TURnM01UZzROeklzSW5raU9qVTBNVFV1T0RVd01ERXpOek15T1RBNGZTeDdJbmdpT2pneE55NDVOelV3TVRBNE56RTRPRGN5TENKNUlqbzFORFF3TGpNMU1EQXhNemN6TWpreGZTeDdJbmdpT2pjME55NDFNelF5TVRrMk9URTJNakE0TENKNUlqbzFORFkxTGpnMU1EQXhNemN6TWprd09YMWQiIGRhdGEtaWQ9IkxfTExMX05OXzAiIGRhdGEtZXQ9ImVkZ2UiIGRhdGEtZWRnZT0idHJ1ZSIgc3R5bGU9InN0cm9rZS1kYXNoYXJyYXk6IDAgMCA4NC4zOTIyMTE5MTQwNjI1IDk7IHN0cm9rZS1kYXNob2Zmc2V0OiAwOzsiIGNsYXNzPSJlZGdlLXRoaWNrbmVzcy1ub3JtYWwgZWRnZS1wYXR0ZXJuLXNvbGlkIGVkZ2UtdGhpY2tuZXNzLW5vcm1hbCBlZGdlLXBhdHRlcm4tc29saWQgZmxvd2NoYXJ0LWxpbmsiIGlkPSJMX0xMTF9OTl8wIiBkPSJNODE4LjQ3NTAxMDg3MTg4NzIsNTQxNS44NTAwMTM3MzI5MDhMODE4LjE1NTI4Nzc4NzM5NzcsNTQzMS41MTY0NDQ4NzI4OTdRODE3Ljk3NTAxMDg3MTg4NzIsNTQ0MC4zNTAwMTM3MzI5MSA4MDkuNjY3MjExMjIxNDI2NCw1NDQzLjM1NzQ4ODM0NDM4MzVMNzUxLjI5NTM1ODcwNjQ4Miw1NDY0LjQ4ODQ1ODI1ODEzNCIvPjxwYXRoIG1hcmtlci1lbmQ9InVybCgjZXhwb3J0LXN2Z19mbG93Y2hhcnQtdjItcG9pbnRFbmQtbWFyZ2luKSIgZGF0YS1wb2ludHM9Ilczc2llQ0k2TWprMkxqQXpORE01TXpNeE1EVTBOamtzSW5raU9qVTBNVFV1T0RVd01ERXpOek15T1RGOUxIc2llQ0k2TWprMUxqVXpORE01TXpNeE1EVTBOamtzSW5raU9qVTBOREF1TXpVd01ERXpOek15T1RGOUxIc2llQ0k2TlRneExqYzFNVFE0TURNNU5qUTJOakVzSW5raU9qVTBOelV1T0RVNU5UWTFNVFEzTURBNWZWMD0iIGRhdGEtaWQ9IkxfTU1fTk5fMCIgZGF0YS1ldD0iZWRnZSIgZGF0YS1lZGdlPSJ0cnVlIiBzdHlsZT0ic3Ryb2tlLWRhc2hhcnJheTogMCAwIDI5Ny40MzE3MzIxNzc3MzQ0IDk7IHN0cm9rZS1kYXNob2Zmc2V0OiAwOzsiIGNsYXNzPSJlZGdlLXRoaWNrbmVzcy1ub3JtYWwgZWRnZS1wYXR0ZXJuLXNvbGlkIGVkZ2UtdGhpY2tuZXNzLW5vcm1hbCBlZGdlLXBhdHRlcm4tc29saWQgZmxvd2NoYXJ0LWxpbmsiIGlkPSJMX01NX05OXzAiIGQ9Ik0yOTYuMDM0MzkzMzEwNTQ2OSw1NDE1Ljg1MDAxMzczMjkxTDI5NS42ODY3MTYyMTQ0MTE4LDU0MzIuODg2MTkxNDQzNTNRMjk1LjUzNDM5MzMxMDU0NjksNTQ0MC4zNTAwMTM3MzI5MSAzMDIuOTQyOTcwNTIyNDU3MSw1NDQxLjI2OTE1OTYwMjUzN0w1NzcuNzgxOTEzODE0NzYzNSw1NDc1LjM2NzA4MDQ3MzcxNSIvPjxwYXRoIG1hcmtlci1lbmQ9InVybCgjZXhwb3J0LXN2Z19mbG93Y2hhcnQtdjItcG9pbnRFbmQtbWFyZ2luKSIgZGF0YS1wb2ludHM9Ilczc2llQ0k2TnpneUxqQXhOREEyTURZeE1EYzRNU3dpZVNJNk5UVXdPQzR3TlRrME1UQTRNakU0T1RWOUxIc2llQ0k2T1RJd0xqRTFOakkyTVRRME5EQTVNVGdzSW5raU9qVTFNelV1TXpVd01ERXpOek15T1RGOUxIc2llQ0k2T1RJd0xqWTFOakkyTVRRME5EQTVNVGdzSW5raU9qVTFOakF1T0RVd01ERXpOek15T1RGOVhRPT0iIGRhdGEtaWQ9IkxfTk5fT09fMCIgZGF0YS1ldD0iZWRnZSIgZGF0YS1lZGdlPSJ0cnVlIiBzdHlsZT0ic3Ryb2tlLWRhc2hhcnJheTogMCAwIDE1MS4wMjU1NTg0NzE2Nzk3IDk7IHN0cm9rZS1kYXNob2Zmc2V0OiAwOzsiIGNsYXNzPSJlZGdlLXRoaWNrbmVzcy1ub3JtYWwgZWRnZS1wYXR0ZXJuLXNvbGlkIGVkZ2UtdGhpY2tuZXNzLW5vcm1hbCBlZGdlLXBhdHRlcm4tc29saWQgZmxvd2NoYXJ0LWxpbmsiIGlkPSJMX05OX09PXzAiIGQ9Ik03ODIuMDE0MDYwNjEwNzgxLDU1MDguMDU5NDEwODIxODk1TDkxMi4zMzY2NTExOTMyNzQ0LDU1MzMuODA1MjE1MTM0MTcyUTkyMC4xNTYyNjE0NDQwOTE4LDU1MzUuMzUwMDEzNzMyOTEgOTIwLjMxMjUyMDQ0MTkwODUsNTU0My4zMTkyMjI2MjE1NjE1TDkyMC41Nzc4NDUxNDQzNTQsNTU1Ni44NTA3ODI0NDYyODMiLz48cGF0aCBtYXJrZXItZW5kPSJ1cmwoI2V4cG9ydC1zdmdfZmxvd2NoYXJ0LXYyLXBvaW50RW5kLW1hcmdpbikiIGRhdGEtcG9pbnRzPSJXM3NpZUNJNk9USXdMalkxTmpJMk1UUTBOREE1TVRnc0lua2lPalUyTkRjdU9EVXdNREV6TnpNeU9URjlMSHNpZUNJNk9USXdMakUxTmpJMk1UUTBOREE1TVRnc0lua2lPalUyTnpJdU16VXdNREV6TnpNeU9URjlMSHNpZUNJNk9EY3dMalU1TXpBMU1URTNORGd3T1RNc0lua2lPalUzTXpFdU1EZzJPREEzTkRZNU1EVXlmVjA9IiBkYXRhLWlkPSJMX09PX1BQXzAiIGRhdGEtZXQ9ImVkZ2UiIGRhdGEtZWRnZT0idHJ1ZSIgc3R5bGU9InN0cm9rZS1kYXNoYXJyYXk6IDAgMCA4Ny40MjgyODM2OTE0MDYyNSA5OyBzdHJva2UtZGFzaG9mZnNldDogMDs7IiBjbGFzcz0iZWRnZS10aGlja25lc3Mtbm9ybWFsIGVkZ2UtcGF0dGVybi1zb2xpZCBlZGdlLXRoaWNrbmVzcy1ub3JtYWwgZWRnZS1wYXR0ZXJuLXNvbGlkIGZsb3djaGFydC1saW5rIiBpZD0iTF9PT19QUF8wIiBkPSJNOTIwLjY1NjI2MTQ0NDA5MTgsNTY0Ny44NTAwMTM3MzI5MUw5MjAuNDA2MjYxNDQ0MDkxOCw1NjYwLjEwMDAxMzczMjkxUTkyMC4xNTYyNjE0NDQwOTE4LDU2NzIuMzUwMDEzNzMyOTEgOTEyLjI1NDU3MTI1MDE3MTYsNTY4MS43MTQyMTY0MjYxMDlMODczLjE3MjY1Nzc3MzMxMTgsNTcyOC4wMjk3NDUxODY4OTgiLz48cGF0aCBtYXJrZXItZW5kPSJ1cmwoI2V4cG9ydC1zdmdfZmxvd2NoYXJ0LXYyLXBvaW50RW5kLW1hcmdpbikiIGRhdGEtcG9pbnRzPSJXM3NpZUNJNk56Z3lMamN3T0RjNE5EWXpNRGN5TURZc0lua2lPalUzTlRJdU5EazNORGcyTlRRd09EVTBmU3g3SW5naU9qVXlPUzQ1TWpVd01EYzRNakF4TWprMExDSjVJam8xTmpjeUxqTTFNREF4TXpjek1qa3hmU3g3SW5naU9qVXlPUzQ1TWpVd01EYzRNakF4TWprMExDSjVJam8xTmpBekxqZzFNREF4TXpjek1qa3hmU3g3SW5naU9qVXlPUzQ1TWpVd01EYzRNakF4TWprMExDSjVJam8xTlRNMUxqTTFNREF4TXpjek1qa3hmU3g3SW5naU9qWXhNUzR3T0RrME9ERTBNRE01TmpReExDSjVJam8xTlRFd0xqZzFNREF4TXpjek1qa3dPWDFkIiBkYXRhLWlkPSJMX1BQX05OXzAiIGRhdGEtZXQ9ImVkZ2UiIGRhdGEtZWRnZT0idHJ1ZSIgc3R5bGU9InN0cm9rZS1kYXNoYXJyYXk6IDAgMCA0NjkuNjc5ODcwNjA1NDY4NzUgOTsgc3Ryb2tlLWRhc2hvZmZzZXQ6IDA7OyIgY2xhc3M9ImVkZ2UtdGhpY2tuZXNzLW5vcm1hbCBlZGdlLXBhdHRlcm4tc29saWQgZWRnZS10aGlja25lc3Mtbm9ybWFsIGVkZ2UtcGF0dGVybi1zb2xpZCBmbG93Y2hhcnQtbGluayIgaWQ9IkxfUFBfTk5fMCIgZD0iTTc4Mi43MDg3ODQ2MzA3MjA2LDU3NTIuNDk3NDg2NTQwODU0TDUzNy45OTQxODM1MzMzNDI2LDU2NzQuOTA4NDIxNzQ5NTA1UTUyOS45MjUwMDc4MjAxMjk0LDU2NzIuMzUwMDEzNzMyOTEgNTI5LjkyNTAwNzgyMDEyOTQsNTY2My44ODQ5NjUxMDUxNjVMNTI5LjkyNTAwNzgyMDEyOTQsNTYwMy44NTAwMTM3MzI5MUw1MjkuOTI1MDA3ODIwMTI5NCw1NTQzLjczNTc5MjY0NDA2NDVRNTI5LjkyNTAwNzgyMDEyOTQsNTUzNS4zNTAwMTM3MzI5MSA1MzcuOTUzMDE0MjgzMDkwMyw1NTMyLjkyNjcxMDE2NTk5NEw2MDcuMjYwMTM4MTU2MDYwNCw1NTEyLjAwNTkyNDc1NDQ1NyIvPjxwYXRoIG1hcmtlci1lbmQ9InVybCgjZXhwb3J0LXN2Z19mbG93Y2hhcnQtdjItcG9pbnRFbmQtbWFyZ2luKSIgZGF0YS1wb2ludHM9Ilczc2llQ0k2TnpjMUxqSXdOelUyTXpFNE56UTBOellzSW5raU9qVTNOemt1TlRBeE16SXlOVE16TkRaOUxIc2llQ0k2TVRVeUxqTTFOakkxTkRVM056WXpOamN5TENKNUlqbzFPRGMyTGpZMU1EQXhOamM0TkRZMk9IMHNleUo0SWpveE1qRXVNREU0TkRNMU1qTTBOVGN4TURNc0lua2lPalU1TVRJdU1UVXdNREUyTnpnME5qWTRmVjA9IiBkYXRhLWlkPSJMX1BQX1FRXzAiIGRhdGEtZXQ9ImVkZ2UiIGRhdGEtZWRnZT0idHJ1ZSIgc3R5bGU9InN0cm9rZS1kYXNoYXJyYXk6IDAgMCA2NjMuNTc1OTg4NzY5NTMxMiA5OyBzdHJva2UtZGFzaG9mZnNldDogMDs7IiBjbGFzcz0iZWRnZS10aGlja25lc3Mtbm9ybWFsIGVkZ2UtcGF0dGVybi1zb2xpZCBlZGdlLXRoaWNrbmVzcy1ub3JtYWwgZWRnZS1wYXR0ZXJuLXNvbGlkIGZsb3djaGFydC1saW5rIiBpZD0iTF9QUF9RUV8wIiBkPSJNNzc1LjIwNzU2MzE4NzQ0NzYsNTc3OS41MDEzMjI1MzM0NkwxNjYuOTA1OTg1MTI2NjUyOTUsNTg3NC4zODA2MzUxNDQxMzFRMTUyLjM1NjI1NDU3NzYzNjcyLDU4NzYuNjUwMDE2Nzg0NjY4IDE0Mi42MTA5NDc5NTIzNjA3LDU4ODcuNjg5NjYxMjkyNDc0TDEyMy42NjU2MDA0MTQwNDU0Niw1OTA5LjE1MTI2NDI5MTk1MSIvPjxwYXRoIG1hcmtlci1lbmQ9InVybCgjZXhwb3J0LXN2Z19mbG93Y2hhcnQtdjItcG9pbnRFbmQtbWFyZ2luKSIgZGF0YS1wb2ludHM9Ilczc2llQ0k2T1RFdU9EZzNOVEEwTlRjM05qTTJOeklzSW5raU9qVTVNVEl1TVRVd01ERTJOemcwTmpZNGZTeDdJbmdpT2preExqZzROelV3TkRVM056WXpOamN5TENKNUlqbzFPRGMyTGpZMU1EQXhOamM0TkRZMk9IMHNleUo0SWpvNU1TNDRPRGMxTURRMU56YzJNelkzTWl3aWVTSTZOVGMyT1M0eU5UQXdNVFV5TlRnM09EbDlMSHNpZUNJNk9URXVPRGczTlRBME5UYzNOak0yTnpJc0lua2lPalUyTnpJdU16VXdNREV6TnpNeU9URjlMSHNpZUNJNk9URXVPRGczTlRBME5UYzNOak0yTnpJc0lua2lPalUyTURNdU9EVXdNREV6TnpNeU9URjlMSHNpZUNJNk9URXVPRGczTlRBME5UYzNOak0yTnpJc0lua2lPalUxTXpVdU16VXdNREV6TnpNeU9URjlMSHNpZUNJNk9URXVPRGczTlRBME5UYzNOak0yTnpJc0lua2lPalUwT0RjdU9EVXdNREV6TnpNeU9URjlMSHNpZUNJNk9URXVPRGczTlRBME5UYzNOak0yTnpJc0lua2lPalUwTkRBdU16VXdNREV6TnpNeU9URjlMSHNpZUNJNk9URXVPRGczTlRBME5UYzNOak0yTnpJc0lua2lPalV6T0RJdU16VXdNREV6TnpNeU9URjlMSHNpZUNJNk9URXVPRGczTlRBME5UYzNOak0yTnpJc0lua2lPalV6TWpRdU16VXdNREV6TnpNeU9URjlMSHNpZUNJNk9URXVPRGczTlRBME5UYzNOak0yTnpJc0lua2lPalV5TmpZdU16VXdNREV6TnpNeU9URjlMSHNpZUNJNk9URXVPRGczTlRBME5UYzNOak0yTnpJc0lua2lPalV4T1RjdU9EVXdNREV6TnpNeU9URjlMSHNpZUNJNk9URXVPRGczTlRBME5UYzNOak0yTnpJc0lua2lPalV3TlRRdU56STFNREV6TnpNeU9URjlMSHNpZUNJNk9URXVPRGczTlRBME5UYzNOak0yTnpJc0lua2lPalE1TWpJdU1UQXdNREV6TnpNeU9URjlMSHNpZUNJNk9URXVPRGczTlRBME5UYzNOak0yTnpJc0lua2lPalE0TmpRdU1UQXdNREV6TnpNeU9URjlMSHNpZUNJNk9URXVPRGczTlRBME5UYzNOak0yTnpJc0lua2lPalEzT1RVdU5qQXdNREV6TnpNeU9URjlMSHNpZUNJNk9URXVPRGczTlRBME5UYzNOak0yTnpJc0lua2lPalEyT0RFdU5EVXdNREV5TWpBM01ETXhmU3g3SW5naU9qa3hMamc0TnpVd05EVTNOell6TmpjeUxDSjVJam8wTlRZM0xqTXdNREF4TURZNE1URTFNbjBzZXlKNElqbzVNUzQ0T0RjMU1EUTFOemMyTXpZM01pd2llU0k2TkRRMU9DNDBPRGMxTVRBMk9ERXhOVEo5TEhzaWVDSTZPVEV1T0RnM05UQTBOVGMzTmpNMk56SXNJbmtpT2pRek5qQXVNVGMxTURFd05qZ3hNVFV5ZlN4N0luZ2lPamt4TGpnNE56VXdORFUzTnpZek5qY3lMQ0o1SWpvME16QXlMakUzTlRBeE1EWTRNVEUxTW4wc2V5SjRJam81TVM0NE9EYzFNRFExTnpjMk16WTNNaXdpZVNJNk5ESTBOQzR4TnpVd01UQTJPREV4TlRKOUxIc2llQ0k2T1RFdU9EZzNOVEEwTlRjM05qTTJOeklzSW5raU9qUXhPVFl1TmpjMU1ERXdOamd4TVRVeWZTeDdJbmdpT2preExqZzROelV3TkRVM056WXpOamN5TENKNUlqbzBNVFE1TGpFM05UQXhNRFk0TVRFMU1uMHNleUo0SWpvNU1TNDRPRGMxTURRMU56YzJNelkzTWl3aWVTSTZOREE1TVM0eE56VXdNVEEyT0RFeE5USXpmU3g3SW5naU9qa3hMamc0TnpVd05EVTNOell6TmpjeUxDSjVJam8wTURJeUxqWTNOVEF4TURZNE1URTFNak45TEhzaWVDSTZPVEV1T0RnM05UQTBOVGMzTmpNMk56SXNJbmtpT2pNNU5UUXVNVGMxTURFd05qZ3hNVFV5TTMwc2V5SjRJam81TVM0NE9EYzFNRFExTnpjMk16WTNNaXdpZVNJNk16ZzVOaTR4TnpVd01UQTJPREV4TlRJemZTeDdJbmdpT2preExqZzROelV3TkRVM056WXpOamN5TENKNUlqb3pPRE00TGpFM05UQXhNRFk0TVRFMU1qTjlMSHNpZUNJNk9URXVPRGczTlRBME5UYzNOak0yTnpJc0lua2lPak0zT0RBdU1UYzFNREV3TmpneE1UVXlNMzBzZXlKNElqbzVNUzQ0T0RjMU1EUTFOemMyTXpZM01pd2llU0k2TXpjeU1pNHhOelV3TVRBMk9ERXhOVEl6ZlN4N0luZ2lPamt4TGpnNE56VXdORFUzTnpZek5qY3lMQ0o1SWpvek5qVXpMalkzTlRBeE1EWTRNVEUxTWpOOUxIc2llQ0k2T1RFdU9EZzNOVEEwTlRjM05qTTJOeklzSW5raU9qTTFNVGd1TlRFNE56WXdOamd4TVRVeU0zMHNleUo0SWpvNU1TNDRPRGMxTURRMU56YzJNelkzTWl3aWVTSTZNek00TXk0ek5qSTFNVEEyT0RFeE5USXpmU3g3SW5naU9qa3hMamc0TnpVd05EVTNOell6TmpjeUxDSjVJam96TXpFMExqZzJNalV4TURZNE1URTFNak45TEhzaWVDSTZPVEV1T0RnM05UQTBOVGMzTmpNMk56SXNJbmtpT2pNeU5EWXVNell5TlRFd05qZ3hNVFV5TTMwc2V5SjRJam81TVM0NE9EYzFNRFExTnpjMk16WTNNaXdpZVNJNk16RXhOUzR3T1RNM05UYzJNamt6T1RRMWZTeDdJbmdpT2preExqZzROelV3TkRVM056WXpOamN5TENKNUlqb3lPVGd6TGpneU5UQXdORFUzTnpZek5qZDlMSHNpZUNJNk9URXVPRGczTlRBME5UYzNOak0yTnpJc0lua2lPakk0TlRndU1ERXlOVEEwTlRjM05qTTJOMzBzZXlKNElqbzVNUzQ0T0RjMU1EUTFOemMyTXpZM01pd2llU0k2TWpjME1pNDNNREF3TURRMU56YzJNelkzZlN4N0luZ2lPamt4TGpnNE56VXdORFUzTnpZek5qY3lMQ0o1SWpveU5qazFMakl3TURBd05EVTNOell6TmpkOUxIc2llQ0k2T1RFdU9EZzNOVEEwTlRjM05qTTJOeklzSW5raU9qSTJNemN1TWpBd01EQTBOVGMzTmpNMk4zMHNleUo0SWpvNU1TNDRPRGMxTURRMU56YzJNelkzTWl3aWVTSTZNalV4TUM0ek5UQXdNRFl4TURNMU1UVTJmU3g3SW5naU9qa3hMamc0TnpVd05EVTNOell6TmpjeUxDSjVJam95TXprMExqQXdNREF3TnpZeU9UTTVORFY5TEhzaWVDSTZPVEV1T0RnM05UQTBOVGMzTmpNMk56SXNJbmtpT2pJek5EWXVOVEF3TURBM05qSTVNemswTlgwc2V5SjRJam81TVM0NE9EYzFNRFExTnpjMk16WTNNaXdpZVNJNk1qSTRPQzQxTURBd01EYzJNamt6T1RRMWZTeDdJbmdpT2preExqZzROelV3TkRVM056WXpOamN5TENKNUlqb3lNVGcyTGpVME16YzFORFUzTnpZek5qZDlMSHNpZUNJNk9URXVPRGczTlRBME5UYzNOak0yTnpJc0lua2lPakl3T1RVdU1EZzNOVEF4TlRJMU9EYzVmU3g3SW5naU9qa3hMamc0TnpVd05EVTNOell6TmpjeUxDSjVJam95TURNM0xqQTROelV3TVRVeU5UZzNPWDBzZXlKNElqbzVNUzQ0T0RjMU1EUTFOemMyTXpZM01pd2llU0k2TVRrM09TNHdPRGMxTURFMU1qVTROemw5TEhzaWVDSTZPVEV1T0RnM05UQTBOVGMzTmpNMk56SXNJbmtpT2pFNU1qRXVNRGczTlRBeE5USTFPRGM1ZlN4N0luZ2lPamt4TGpnNE56VXdORFUzTnpZek5qY3lMQ0o1SWpveE9EWXpMakE0TnpVd01UVXlOVGczT1gwc2V5SjRJam81TVM0NE9EYzFNRFExTnpjMk16WTNNaXdpZVNJNk1UZ3dOUzR3T0RjMU1ERTFNalU0TnpsOUxIc2llQ0k2T1RFdU9EZzNOVEEwTlRjM05qTTJOeklzSW5raU9qRTNORGN1TURnM05UQXhOVEkxT0RjNWZTeDdJbmdpT2preExqZzROelV3TkRVM056WXpOamN5TENKNUlqb3hOamc1TGpBNE56VXdNVFV5TlRnM09YMHNleUo0SWpvNU1TNDRPRGMxTURRMU56YzJNelkzTWl3aWVTSTZNVFl6TVM0d09EYzFNREUxTWpVNE56bDlMSHNpZUNJNk9URXVPRGczTlRBME5UYzNOak0yTnpJc0lua2lPakUxTmpJdU5UZzNOVEF4TlRJMU9EYzVmU3g3SW5naU9qa3hMamc0TnpVd05EVTNOell6TmpjeUxDSjVJam94TkRnekxqVTROelV3TVRVeU5UZzNPWDBzZXlKNElqbzVNUzQ0T0RjMU1EUTFOemMyTXpZM01pd2llU0k2TVRNNE5DNHpOVFl5TlRBM05qSTVNemsxZlN4N0luZ2lPamt4TGpnNE56VXdORFUzTnpZek5qY3lMQ0o1SWpveE1qZzFMakV5Tlgwc2V5SjRJam81TVM0NE9EYzFNRFExTnpjMk16WTNNaXdpZVNJNk1USXhOaTQyTWpWOUxIc2llQ0k2T1RFdU9EZzNOVEEwTlRjM05qTTJOeklzSW5raU9qRXhOVGd1TmpJMWZTeDdJbmdpT2pFMk9TNHdNRFV5TXpBNU5USTVOVE0zT0N3aWVTSTZNVEV6TkM0eE1qVjlYUT09IiBkYXRhLWlkPSJMX1FRX0hfMCIgZGF0YS1ldD0iZWRnZSIgZGF0YS1lZGdlPSJ0cnVlIiBzdHlsZT0ic3Ryb2tlLWRhc2hhcnJheTogMCAwIDQ4MTkuMzEwNTQ2ODc1IDk7IHN0cm9rZS1kYXNob2Zmc2V0OiAwOzsiIGNsYXNzPSJlZGdlLXRoaWNrbmVzcy1ub3JtYWwgZWRnZS1wYXR0ZXJuLXNvbGlkIGVkZ2UtdGhpY2tuZXNzLW5vcm1hbCBlZGdlLXBhdHRlcm4tc29saWQgZmxvd2NoYXJ0LWxpbmsiIGlkPSJMX1FRX0hfMCIgZD0iTTkxLjg4NzUwNDU3NzYzNjcyLDU5MTIuMTUwMDE2Nzg0NjY4TDkxLjg4NzUwNDU3NzYzNjcyLDU4NzYuNjUwMDE2Nzg0NjY4TDkxLjg4NzUwNDU3NzYzNjcyLDU3NjkuMjUwMDE1MjU4Nzg5TDkxLjg4NzUwNDU3NzYzNjcyLDU2NzIuMzUwMDEzNzMyOTFMOTEuODg3NTA0NTc3NjM2NzIsNTYwMy44NTAwMTM3MzI5MUw5MS44ODc1MDQ1Nzc2MzY3Miw1NTM1LjM1MDAxMzczMjkxTDkxLjg4NzUwNDU3NzYzNjcyLDU0ODcuODUwMDEzNzMyOTFMOTEuODg3NTA0NTc3NjM2NzIsNTQ0MC4zNTAwMTM3MzI5MUw5MS44ODc1MDQ1Nzc2MzY3Miw1MzgyLjM1MDAxMzczMjkxTDkxLjg4NzUwNDU3NzYzNjcyLDUzMjQuMzUwMDEzNzMyOTFMOTEuODg3NTA0NTc3NjM2NzIsNTI2Ni4zNTAwMTM3MzI5MUw5MS44ODc1MDQ1Nzc2MzY3Miw1MTk3Ljg1MDAxMzczMjkxTDkxLjg4NzUwNDU3NzYzNjcyLDUwNTQuNzI1MDEzNzMyOTFMOTEuODg3NTA0NTc3NjM2NzIsNDkyMi4xMDAwMTM3MzI5MUw5MS44ODc1MDQ1Nzc2MzY3Miw0ODY0LjEwMDAxMzczMjkxTDkxLjg4NzUwNDU3NzYzNjcyLDQ3OTUuNjAwMDEzNzMyOTFMOTEuODg3NTA0NTc3NjM2NzIsNDY4MS40NTAwMTIyMDcwMzFMOTEuODg3NTA0NTc3NjM2NzIsNDU2Ny4zMDAwMTA2ODExNTJMOTEuODg3NTA0NTc3NjM2NzIsNDQ1OC40ODc1MTA2ODExNTJMOTEuODg3NTA0NTc3NjM2NzIsNDM2MC4xNzUwMTA2ODExNTJMOTEuODg3NTA0NTc3NjM2NzIsNDMwMi4xNzUwMTA2ODExNTJMOTEuODg3NTA0NTc3NjM2NzIsNDI0NC4xNzUwMTA2ODExNTJMOTEuODg3NTA0NTc3NjM2NzIsNDE5Ni42NzUwMTA2ODExNTJMOTEuODg3NTA0NTc3NjM2NzIsNDE0OS4xNzUwMTA2ODExNTJMOTEuODg3NTA0NTc3NjM2NzIsNDA5MS4xNzUwMTA2ODExNTIzTDkxLjg4NzUwNDU3NzYzNjcyLDQwMjIuNjc1MDEwNjgxMTUyM0w5MS44ODc1MDQ1Nzc2MzY3MiwzOTU0LjE3NTAxMDY4MTE1MjNMOTEuODg3NTA0NTc3NjM2NzIsMzg5Ni4xNzUwMTA2ODExNTIzTDkxLjg4NzUwNDU3NzYzNjcyLDM4MzguMTc1MDEwNjgxMTUyM0w5MS44ODc1MDQ1Nzc2MzY3MiwzNzgwLjE3NTAxMDY4MTE1MjNMOTEuODg3NTA0NTc3NjM2NzIsMzcyMi4xNzUwMTA2ODExNTIzTDkxLjg4NzUwNDU3NzYzNjcyLDM2NTMuNjc1MDEwNjgxMTUyM0w5MS44ODc1MDQ1Nzc2MzY3MiwzNTE4LjUxODc2MDY4MTE1MjNMOTEuODg3NTA0NTc3NjM2NzIsMzM4My4zNjI1MTA2ODExNTIzTDkxLjg4NzUwNDU3NzYzNjcyLDMzMTQuODYyNTEwNjgxMTUyM0w5MS44ODc1MDQ1Nzc2MzY3MiwzMjQ2LjM2MjUxMDY4MTE1MjNMOTEuODg3NTA0NTc3NjM2NzIsMzExNS4wOTM3NTc2MjkzOTQ1TDkxLjg4NzUwNDU3NzYzNjcyLDI5ODMuODI1MDA0NTc3NjM2N0w5MS44ODc1MDQ1Nzc2MzY3MiwyODU4LjAxMjUwNDU3NzYzNjdMOTEuODg3NTA0NTc3NjM2NzIsMjc0Mi43MDAwMDQ1Nzc2MzY3TDkxLjg4NzUwNDU3NzYzNjcyLDI2OTUuMjAwMDA0NTc3NjM2N0w5MS44ODc1MDQ1Nzc2MzY3MiwyNjM3LjIwMDAwNDU3NzYzNjdMOTEuODg3NTA0NTc3NjM2NzIsMjUxMC4zNTAwMDYxMDM1MTU2TDkxLjg4NzUwNDU3NzYzNjcyLDIzOTQuMDAwMDA3NjI5Mzk0NUw5MS44ODc1MDQ1Nzc2MzY3MiwyMzQ2LjUwMDAwNzYyOTM5NDVMOTEuODg3NTA0NTc3NjM2NzIsMjI4OC41MDAwMDc2MjkzOTQ1TDkxLjg4NzUwNDU3NzYzNjcyLDIxODYuNTQzNzU0NTc3NjM2N0w5MS44ODc1MDQ1Nzc2MzY3MiwyMDk1LjA4NzUwMTUyNTg3OUw5MS44ODc1MDQ1Nzc2MzY3MiwyMDM3LjA4NzUwMTUyNTg3OUw5MS44ODc1MDQ1Nzc2MzY3MiwxOTc5LjA4NzUwMTUyNTg3OUw5MS44ODc1MDQ1Nzc2MzY3MiwxOTIxLjA4NzUwMTUyNTg3OUw5MS44ODc1MDQ1Nzc2MzY3MiwxODYzLjA4NzUwMTUyNTg3OUw5MS44ODc1MDQ1Nzc2MzY3MiwxODA1LjA4NzUwMTUyNTg3OUw5MS44ODc1MDQ1Nzc2MzY3MiwxNzQ3LjA4NzUwMTUyNTg3OUw5MS44ODc1MDQ1Nzc2MzY3MiwxNjg5LjA4NzUwMTUyNTg3OUw5MS44ODc1MDQ1Nzc2MzY3MiwxNjMxLjA4NzUwMTUyNTg3OUw5MS44ODc1MDQ1Nzc2MzY3MiwxNTYyLjU4NzUwMTUyNTg3OUw5MS44ODc1MDQ1Nzc2MzY3MiwxNDgzLjU4NzUwMTUyNTg3OUw5MS44ODc1MDQ1Nzc2MzY3MiwxMzg0LjM1NjI1MDc2MjkzOTVMOTEuODg3NTA0NTc3NjM2NzIsMTI4NS4xMjVMOTEuODg3NTA0NTc3NjM2NzIsMTIxNi42MjVMOTEuODg3NTA0NTc3NjM2NzIsMTE2Ny4wOTMzOTQ4MjYwMDkyUTkxLjg4NzUwNDU3NzYzNjcyLDExNTguNjI1IDk5Ljk1ODM4ODIyMzQyNDQ2LDExNTYuMDYwOTExODM3NDQ4OUwxNjUuMTkyOTkzMTg1NzY4MjIsMTEzNS4zMzYxMzMwMjU5MDc0Ii8+PHBhdGggbWFya2VyLWVuZD0idXJsKCNleHBvcnQtc3ZnX2Zsb3djaGFydC12Mi1wb2ludEVuZC1tYXJnaW4pIiBkYXRhLXBvaW50cz0iVzNzaWVDSTZOemcyTGpVME1Ea3hPVEV3TkRjeE9EWXNJbmtpT2pVM09UQXVPRE0wTmpjNE5EVXdOek14ZlN4N0luZ2lPalUzT0M0d01UVTJNekUyTnpVM01qQXlMQ0o1SWpvMU9EYzJMalkxTURBeE5qYzRORFkyT0gwc2V5SjRJam8xTnpndU1ERTFOak14TmpjMU56SXdNaXdpZVNJNk5Ua3hNaTR4TlRBd01UWTNPRFEyTmpoOVhRPT0iIGRhdGEtaWQ9IkxfUFBfUlJfMCIgZGF0YS1ldD0iZWRnZSIgZGF0YS1lZGdlPSJ0cnVlIiBzdHlsZT0ic3Ryb2tlLWRhc2hhcnJheTogMCAwIDI0Ni4wMDQ0NTU1NjY0MDYyNSA5OyBzdHJva2UtZGFzaG9mZnNldDogMDs7IiBjbGFzcz0iZWRnZS10aGlja25lc3Mtbm9ybWFsIGVkZ2UtcGF0dGVybi1zb2xpZCBlZGdlLXRoaWNrbmVzcy1ub3JtYWwgZWRnZS1wYXR0ZXJuLXNvbGlkIGZsb3djaGFydC1saW5rIiBpZD0iTF9QUF9SUl8wIiBkPSJNNzg2LjU0MDkxOTEwNDcxODYsNTc5MC44MzQ2Nzg0NTA3MzFMNTg2LjMyMzk2NDAzNjIxOTMsNTg3My4yMzA4NTE4NDE2NjRRNTc4LjAxNTYzMTY3NTcyMDIsNTg3Ni42NTAwMTY3ODQ2NjggNTc4LjAxNTYzMTY3NTcyMDIsNTg4NS42MzQzOTYzMTM2MDVMNTc4LjAxNTYzMTY3NTcyMDIsNTkwOC4xNTAwMTY3ODQ2NjgiLz48cGF0aCBtYXJrZXItZW5kPSJ1cmwoI2V4cG9ydC1zdmdfZmxvd2NoYXJ0LXYyLXBvaW50RW5kLW1hcmdpbikiIGRhdGEtcG9pbnRzPSJXM3NpZUNJNk5UYzRMakF4TlRZek1UWTNOVGN5TURJc0lua2lPalU1TnpndU1UVXdNREUyTnpnME5qWTRmU3g3SW5naU9qVTNPQzR3TVRVMk16RTJOelUzTWpBeUxDSjVJam8yTURBekxqRTFNREF4TmpjNE5EWTJPSDBzZXlKNElqbzFOVEl1TWpZeU9UTTNOekV3TWpBek1pd2llU0k2TmpBeU9DNDJOVEF3TVRZM09EUTJOamg5WFE9PSIgZGF0YS1pZD0iTF9SUl9TU18wIiBkYXRhLWV0PSJlZGdlIiBkYXRhLWVkZ2U9InRydWUiIHN0eWxlPSJzdHJva2UtZGFzaGFycmF5OiAwIDAgNDYuOTY3NzM5MTA1MjI0NjEgOTsgc3Ryb2tlLWRhc2hvZmZzZXQ6IDA7OyIgY2xhc3M9ImVkZ2UtdGhpY2tuZXNzLW5vcm1hbCBlZGdlLXBhdHRlcm4tc29saWQgZWRnZS10aGlja25lc3Mtbm9ybWFsIGVkZ2UtcGF0dGVybi1zb2xpZCBmbG93Y2hhcnQtbGluayIgaWQ9IkxfUlJfU1NfMCIgZD0iTTU3OC4wMTU2MzE2NzU3MjAyLDU5NzguMTUwMDE2Nzg0NjY4TDU3OC4wMTU2MzE2NzU3MjAyLDU5OTAuNjUwMDE2Nzg0NjY4UTU3OC4wMTU2MzE2NzU3MjAyLDYwMDMuMTUwMDE2Nzg0NjY4IDU2OS4xMzMzMjYyNzYxNjUsNjAxMS45NDUxNjYwNjA3NzY1TDU1NS4xMDUyNzU0MzgwNjEsNjAyNS44MzU1NjkwMTYzMTM1Ii8+PHBhdGggbWFya2VyLWVuZD0idXJsKCNleHBvcnQtc3ZnX2Zsb3djaGFydC12Mi1wb2ludEVuZC1tYXJnaW4pIiBkYXRhLXBvaW50cz0iVzNzaWVDSTZOREkxTGpZMk5URTJPRFkyT1RVM01UUXNJbmtpT2pZd05ESXVNall6TkRNek5qUXhOamt5ZlN4N0luZ2lPakkwTWk0d016UXpPREU0TmpZME5UVXdPQ3dpZVNJNk5qQXdNeTR4TlRBd01UWTNPRFEyTmpoOUxIc2llQ0k2TWpReUxqQXpORE00TVRnMk5qUTFOVEE0TENKNUlqbzFPVFExTGpFMU1EQXhOamM0TkRZMk9IMHNleUo0SWpveU5ESXVNRE0wTXpneE9EWTJORFUxTURnc0lua2lPalU0TnpZdU5qVXdNREUyTnpnME5qWTRmU3g3SW5naU9qSTBNaTR3TXpRek9ERTROalkwTlRVd09Dd2llU0k2TlRjMk9TNHlOVEF3TVRVeU5UZzNPRGw5TEhzaWVDSTZNalF5TGpBek5ETTRNVGcyTmpRMU5UQTRMQ0o1SWpvMU5qY3lMak0xTURBeE16Y3pNamt4ZlN4N0luZ2lPakkwTWk0d016UXpPREU0TmpZME5UVXdPQ3dpZVNJNk5UWXdNeTQ0TlRBd01UTTNNekk1TVgwc2V5SjRJam95TkRJdU1ETTBNemd4T0RZMk5EVTFNRGdzSW5raU9qVTFNelV1TXpVd01ERXpOek15T1RGOUxIc2llQ0k2TlRZNUxqTTFNRGd3TkRVek9EUTFNaXdpZVNJNk5UVXdNQzQyTmpBNU1UWTROak13TXpjMWZWMD0iIGRhdGEtaWQ9IkxfU1NfTk5fMCIgZGF0YS1ldD0iZWRnZSIgZGF0YS1lZGdlPSJ0cnVlIiBzdHlsZT0ic3Ryb2tlLWRhc2hhcnJheTogMCAwIDk2Ni45MjAxNjYwMTU2MjUgOTsgc3Ryb2tlLWRhc2hvZmZzZXQ6IDA7OyIgY2xhc3M9ImVkZ2UtdGhpY2tuZXNzLW5vcm1hbCBlZGdlLXBhdHRlcm4tc29saWQgZWRnZS10aGlja25lc3Mtbm9ybWFsIGVkZ2UtcGF0dGVybi1zb2xpZCBmbG93Y2hhcnQtbGluayIgaWQ9IkxfU1NfTk5fMCIgZD0iTTQyNS42NjUxNjg2Njk1NzE0LDYwNDIuMjYzNDMzNjQxNjkyTDI0OS44MDcxNzcxNjQ4NDY3LDYwMDQuODA1NjI0NjkxOTQyUTI0Mi4wMzQzODE4NjY0NTUwOCw2MDAzLjE1MDAxNjc4NDY2OCAyNDIuMDM0MzgxODY2NDU1MDgsNTk5NS4yMDI4NTQ3NTcwNDNMMjQyLjAzNDM4MTg2NjQ1NTA4LDU5NDUuMTUwMDE2Nzg0NjY4TDI0Mi4wMzQzODE4NjY0NTUwOCw1ODc2LjY1MDAxNjc4NDY2OEwyNDIuMDM0MzgxODY2NDU1MDgsNTc2OS4yNTAwMTUyNTg3ODlMMjQyLjAzNDM4MTg2NjQ1NTA4LDU2NzIuMzUwMDEzNzMyOTFMMjQyLjAzNDM4MTg2NjQ1NTA4LDU2MDMuODUwMDEzNzMyOTFMMjQyLjAzNDM4MTg2NjQ1NTA4LDU1NDIuODI1OTk0MTE2Mzk2UTI0Mi4wMzQzODE4NjY0NTUwOCw1NTM1LjM1MDAxMzczMjkxIDI0OS40Njg3MjgxODUzODEzLDU1MzQuNTYyMTE5Mzg0MzI4TDU2NS4zNzMwODA3MTQ5MTI1LDU1MDEuMDgyNDc3Mjc4MjE2Ii8+PHBhdGggbWFya2VyLWVuZD0idXJsKCNleHBvcnQtc3ZnX2Zsb3djaGFydC12Mi1wb2ludEVuZC1tYXJnaW4pIiBkYXRhLXBvaW50cz0iVzNzaWVDSTZPRGMyTGpZMU9EWTRNamszTmpjeE9EUXNJbmtpT2pVNE1ESXVNelEzTlRreE1qUTJOakV6ZlN4N0luZ2lPamsyTmk0ek5EWTRPRFEzTWpjME56Z3NJbmtpT2pVNE56WXVOalV3TURFMk56ZzBOalk0ZlN4N0luZ2lPamsyTmk0NE5EWTRPRFEzTWpjME56Z3NJbmtpT2pVNU1qTXVNVFV3TURFMk56ZzBOalk0ZlYwPSIgZGF0YS1pZD0iTF9QUF9UVF8wIiBkYXRhLWV0PSJlZGdlIiBkYXRhLWVkZ2U9InRydWUiIHN0eWxlPSJzdHJva2UtZGFzaGFycmF5OiAwIDAgMTQ4LjUxNTM1MDM0MTc5Njg4IDk7IHN0cm9rZS1kYXNob2Zmc2V0OiAwOzsiIGNsYXNzPSJlZGdlLXRoaWNrbmVzcy1ub3JtYWwgZWRnZS1wYXR0ZXJuLXNvbGlkIGVkZ2UtdGhpY2tuZXNzLW5vcm1hbCBlZGdlLXBhdHRlcm4tc29saWQgZmxvd2NoYXJ0LWxpbmsiIGlkPSJMX1BQX1RUXzAiIGQ9Ik04NzYuNjU4NjgyOTc2NzE4NCw1ODAyLjM0NzU5MTI0NjYxM0w5NTcuMTkyMzA2NTIwNjQ2NCw1ODY5LjA2NTg4MjUwMzE1MlE5NjYuMzQ2ODg0NzI3NDc4LDU4NzYuNjUwMDE2Nzg0NjY4IDk2Ni40NzQ3MDU2ODAxNzEzLDU4ODguNTM3MzY1Mzg1MTM4TDk2Ni44MDM4NzY0NjEwMzI0LDU5MTkuMTUwMjQ4MDA1MjI0Ii8+PHBhdGggbWFya2VyLWVuZD0idXJsKCNleHBvcnQtc3ZnX2Zsb3djaGFydC12Mi1wb2ludEVuZC1tYXJnaW4pIiBkYXRhLXBvaW50cz0iVzNzaWVDSTZPVFkyTGpnME5qZzRORGN5TnpRM056a3NJbmtpT2pVNU5qZ3VNVFV3TURFMk56ZzBOalk0ZlN4N0luZ2lPamsyTmk0ek5EWTRPRFEzTWpjME56Z3NJbmtpT2pZd01ETXVNVFV3TURFMk56ZzBOalk0ZlN4N0luZ2lPamsyTmk0ek5EWTRPRFEzTWpjME56Z3NJbmtpT2pZd016Z3VOalV3TURFMk56ZzBOalk0ZlYwPSIgZGF0YS1pZD0iTF9UVF9VVV8wIiBkYXRhLWV0PSJlZGdlIiBkYXRhLWVkZ2U9InRydWUiIHN0eWxlPSJzdHJva2UtZGFzaGFycmF5OiAwIDAgNTcuNTAzMDUxNzU3ODEyNSA5OyBzdHJva2UtZGFzaG9mZnNldDogMDs7IiBjbGFzcz0iZWRnZS10aGlja25lc3Mtbm9ybWFsIGVkZ2UtcGF0dGVybi1zb2xpZCBlZGdlLXRoaWNrbmVzcy1ub3JtYWwgZWRnZS1wYXR0ZXJuLXNvbGlkIGZsb3djaGFydC1saW5rIiBpZD0iTF9UVF9VVV8wIiBkPSJNOTY2Ljg0Njg4NDcyNzQ3NzksNTk2OC4xNTAwMTY3ODQ2NjhMOTY2LjU3MTg2MTc3MTgwNzksNTk4Ny40MDE2MjM2ODE1NzZROTY2LjM0Njg4NDcyNzQ3OCw2MDAzLjE1MDAxNjc4NDY2OCA5NjYuMzQ2ODg0NzI3NDc4LDYwMTguOTAwMDE2Nzg0NjY4TDk2Ni4zNDY4ODQ3Mjc0NzgsNjAzNC42NTAwMTY3ODQ2NjgiLz48L2c+PGcgY2xhc3M9ImVkZ2VMYWJlbHMiPjxnIGNsYXNzPSJlZGdlTGFiZWwiPjxnIHRyYW5zZm9ybT0idHJhbnNsYXRlKDAsIDApIiBkYXRhLWlkPSJMX0FfQl8wIiBjbGFzcz0ibGFiZWwiPjxmb3JlaWduT2JqZWN0IGhlaWdodD0iMCIgd2lkdGg9IjAiPjxkaXYgeG1sbnM9Imh0dHA6Ly93d3cudzMub3JnLzE5OTkveGh0bWwiIGNsYXNzPSJsYWJlbEJrZyIgc3R5bGU9ImRpc3BsYXk6IHRhYmxlLWNlbGw7IHdoaXRlLXNwYWNlOiBub3JtYWw7IGxpbmUtaGVpZ2h0OiAxLjU7IG1heC13aWR0aDogMjAwcHg7IHRleHQtYWxpZ246IGNlbnRlcjsiPjxzcGFuIGNsYXNzPSJlZGdlTGFiZWwiPjwvc3Bhbj48L2Rpdj48L2ZvcmVpZ25PYmplY3Q+PC9nPjwvZz48ZyBjbGFzcz0iZWRnZUxhYmVsIj48ZyB0cmFuc2Zvcm09InRyYW5zbGF0ZSgwLCAwKSIgZGF0YS1pZD0iTF9CX0NfMCIgY2xhc3M9ImxhYmVsIj48Zm9yZWlnbk9iamVjdCBoZWlnaHQ9IjAiIHdpZHRoPSIwIj48ZGl2IHhtbG5zPSJodHRwOi8vd3d3LnczLm9yZy8xOTk5L3hodG1sIiBjbGFzcz0ibGFiZWxCa2ciIHN0eWxlPSJkaXNwbGF5OiB0YWJsZS1jZWxsOyB3aGl0ZS1zcGFjZTogbm9ybWFsOyBsaW5lLWhlaWdodDogMS41OyBtYXgtd2lkdGg6IDIwMHB4OyB0ZXh0LWFsaWduOiBjZW50ZXI7Ij48c3BhbiBjbGFzcz0iZWRnZUxhYmVsIj48L3NwYW4+PC9kaXY+PC9mb3JlaWduT2JqZWN0PjwvZz48L2c+PGcgY2xhc3M9ImVkZ2VMYWJlbCI+PGcgdHJhbnNmb3JtPSJ0cmFuc2xhdGUoMCwgMCkiIGRhdGEtaWQ9IkxfQ19EXzAiIGNsYXNzPSJsYWJlbCI+PGZvcmVpZ25PYmplY3QgaGVpZ2h0PSIwIiB3aWR0aD0iMCI+PGRpdiB4bWxucz0iaHR0cDovL3d3dy53My5vcmcvMTk5OS94aHRtbCIgY2xhc3M9ImxhYmVsQmtnIiBzdHlsZT0iZGlzcGxheTogdGFibGUtY2VsbDsgd2hpdGUtc3BhY2U6IG5vcm1hbDsgbGluZS1oZWlnaHQ6IDEuNTsgbWF4LXdpZHRoOiAyMDBweDsgdGV4dC1hbGlnbjogY2VudGVyOyI+PHNwYW4gY2xhc3M9ImVkZ2VMYWJlbCI+PC9zcGFuPjwvZGl2PjwvZm9yZWlnbk9iamVjdD48L2c+PC9nPjxnIHRyYW5zZm9ybT0idHJhbnNsYXRlKDI1MS4yMDkzNzkxOTYxNjcsIDI3OC41KSIgY2xhc3M9ImVkZ2VMYWJlbCI+PGcgdHJhbnNmb3JtPSJ0cmFuc2xhdGUoLTE2Ljg2MjUwMTE0NDQwOTE4LCAtMTAuNSkiIGRhdGEtaWQ9IkxfRF9DXzAiIGNsYXNzPSJsYWJlbCI+PGZvcmVpZ25PYmplY3QgaGVpZ2h0PSIyMSIgd2lkdGg9IjMzLjcyNTAwMjI4ODgxODM2Ij48ZGl2IHhtbG5zPSJodHRwOi8vd3d3LnczLm9yZy8xOTk5L3hodG1sIiBjbGFzcz0ibGFiZWxCa2ciIHN0eWxlPSJkaXNwbGF5OiB0YWJsZS1jZWxsOyB3aGl0ZS1zcGFjZTogbm9ybWFsOyBsaW5lLWhlaWdodDogMS41OyBtYXgtd2lkdGg6IDIwMHB4OyB0ZXh0LWFsaWduOiBjZW50ZXI7Ij48c3BhbiBjbGFzcz0iZWRnZUxhYmVsIj48cD5UaWRhazwvcD48L3NwYW4+PC9kaXY+PC9mb3JlaWduT2JqZWN0PjwvZz48L2c+PGcgdHJhbnNmb3JtPSJ0cmFuc2xhdGUoMjY5LjY0MDYyOTc2ODM3MTYsIDYwOS41KSIgY2xhc3M9ImVkZ2VMYWJlbCI+PGcgdHJhbnNmb3JtPSJ0cmFuc2xhdGUoLTguMDQzNzQ5ODA5MjY1MTM3LCAtMTAuNSkiIGRhdGEtaWQ9IkxfRF9FXzAiIGNsYXNzPSJsYWJlbCI+PGZvcmVpZ25PYmplY3QgaGVpZ2h0PSIyMSIgd2lkdGg9IjE2LjA4NzQ5OTYxODUzMDI3MyI+PGRpdiB4bWxucz0iaHR0cDovL3d3dy53My5vcmcvMTk5OS94aHRtbCIgY2xhc3M9ImxhYmVsQmtnIiBzdHlsZT0iZGlzcGxheTogdGFibGUtY2VsbDsgd2hpdGUtc3BhY2U6IG5vcm1hbDsgbGluZS1oZWlnaHQ6IDEuNTsgbWF4LXdpZHRoOiAyMDBweDsgdGV4dC1hbGlnbjogY2VudGVyOyI+PHNwYW4gY2xhc3M9ImVkZ2VMYWJlbCI+PHA+WWE8L3A+PC9zcGFuPjwvZGl2PjwvZm9yZWlnbk9iamVjdD48L2c+PC9nPjxnIHRyYW5zZm9ybT0idHJhbnNsYXRlKDM5Ny43NTkzODEyOTQyNTA1LCA5MTYuMTI1KSIgY2xhc3M9ImVkZ2VMYWJlbCI+PGcgdHJhbnNmb3JtPSJ0cmFuc2xhdGUoLTguMDQzNzQ5ODA5MjY1MTM3LCAtMTAuNSkiIGRhdGEtaWQ9IkxfRV9GXzAiIGNsYXNzPSJsYWJlbCI+PGZvcmVpZ25PYmplY3QgaGVpZ2h0PSIyMSIgd2lkdGg9IjE2LjA4NzQ5OTYxODUzMDI3MyI+PGRpdiB4bWxucz0iaHR0cDovL3d3dy53My5vcmcvMTk5OS94aHRtbCIgY2xhc3M9ImxhYmVsQmtnIiBzdHlsZT0iZGlzcGxheTogdGFibGUtY2VsbDsgd2hpdGUtc3BhY2U6IG5vcm1hbDsgbGluZS1oZWlnaHQ6IDEuNTsgbWF4LXdpZHRoOiAyMDBweDsgdGV4dC1hbGlnbjogY2VudGVyOyI+PHNwYW4gY2xhc3M9ImVkZ2VMYWJlbCI+PHA+WWE8L3A+PC9zcGFuPjwvZGl2PjwvZm9yZWlnbk9iamVjdD48L2c+PC9nPjxnIHRyYW5zZm9ybT0idHJhbnNsYXRlKDE0MS41MjE4NzgyNDI0OTI2OCwgOTE2LjEyNSkiIGNsYXNzPSJlZGdlTGFiZWwiPjxnIHRyYW5zZm9ybT0idHJhbnNsYXRlKC0xNi44NjI1MDExNDQ0MDkxOCwgLTEwLjUpIiBkYXRhLWlkPSJMX0VfR18wIiBjbGFzcz0ibGFiZWwiPjxmb3JlaWduT2JqZWN0IGhlaWdodD0iMjEiIHdpZHRoPSIzMy43MjUwMDIyODg4MTgzNiI+PGRpdiB4bWxucz0iaHR0cDovL3d3dy53My5vcmcvMTk5OS94aHRtbCIgY2xhc3M9ImxhYmVsQmtnIiBzdHlsZT0iZGlzcGxheTogdGFibGUtY2VsbDsgd2hpdGUtc3BhY2U6IG5vcm1hbDsgbGluZS1oZWlnaHQ6IDEuNTsgbWF4LXdpZHRoOiAyMDBweDsgdGV4dC1hbGlnbjogY2VudGVyOyI+PHNwYW4gY2xhc3M9ImVkZ2VMYWJlbCI+PHA+VGlkYWs8L3A+PC9zcGFuPjwvZGl2PjwvZm9yZWlnbk9iamVjdD48L2c+PC9nPjxnIGNsYXNzPSJlZGdlTGFiZWwiPjxnIHRyYW5zZm9ybT0idHJhbnNsYXRlKDAsIDApIiBkYXRhLWlkPSJMX0ZfSF8wIiBjbGFzcz0ibGFiZWwiPjxmb3JlaWduT2JqZWN0IGhlaWdodD0iMCIgd2lkdGg9IjAiPjxkaXYgeG1sbnM9Imh0dHA6Ly93d3cudzMub3JnLzE5OTkveGh0bWwiIGNsYXNzPSJsYWJlbEJrZyIgc3R5bGU9ImRpc3BsYXk6IHRhYmxlLWNlbGw7IHdoaXRlLXNwYWNlOiBub3JtYWw7IGxpbmUtaGVpZ2h0OiAxLjU7IG1heC13aWR0aDogMjAwcHg7IHRleHQtYWxpZ246IGNlbnRlcjsiPjxzcGFuIGNsYXNzPSJlZGdlTGFiZWwiPjwvc3Bhbj48L2Rpdj48L2ZvcmVpZ25PYmplY3Q+PC9nPjwvZz48ZyBjbGFzcz0iZWRnZUxhYmVsIj48ZyB0cmFuc2Zvcm09InRyYW5zbGF0ZSgwLCAwKSIgZGF0YS1pZD0iTF9HX0hfMCIgY2xhc3M9ImxhYmVsIj48Zm9yZWlnbk9iamVjdCBoZWlnaHQ9IjAiIHdpZHRoPSIwIj48ZGl2IHhtbG5zPSJodHRwOi8vd3d3LnczLm9yZy8xOTk5L3hodG1sIiBjbGFzcz0ibGFiZWxCa2ciIHN0eWxlPSJkaXNwbGF5OiB0YWJsZS1jZWxsOyB3aGl0ZS1zcGFjZTogbm9ybWFsOyBsaW5lLWhlaWdodDogMS41OyBtYXgtd2lkdGg6IDIwMHB4OyB0ZXh0LWFsaWduOiBjZW50ZXI7Ij48c3BhbiBjbGFzcz0iZWRnZUxhYmVsIj48L3NwYW4+PC9kaXY+PC9mb3JlaWduT2JqZWN0PjwvZz48L2c+PGcgY2xhc3M9ImVkZ2VMYWJlbCI+PGcgdHJhbnNmb3JtPSJ0cmFuc2xhdGUoMCwgMCkiIGRhdGEtaWQ9IkxfSF9JXzAiIGNsYXNzPSJsYWJlbCI+PGZvcmVpZ25PYmplY3QgaGVpZ2h0PSIwIiB3aWR0aD0iMCI+PGRpdiB4bWxucz0iaHR0cDovL3d3dy53My5vcmcvMTk5OS94aHRtbCIgY2xhc3M9ImxhYmVsQmtnIiBzdHlsZT0iZGlzcGxheTogdGFibGUtY2VsbDsgd2hpdGUtc3BhY2U6IG5vcm1hbDsgbGluZS1oZWlnaHQ6IDEuNTsgbWF4LXdpZHRoOiAyMDBweDsgdGV4dC1hbGlnbjogY2VudGVyOyI+PHNwYW4gY2xhc3M9ImVkZ2VMYWJlbCI+PC9zcGFuPjwvZGl2PjwvZm9yZWlnbk9iamVjdD48L2c+PC9nPjxnIGNsYXNzPSJlZGdlTGFiZWwiPjxnIHRyYW5zZm9ybT0idHJhbnNsYXRlKDAsIDApIiBkYXRhLWlkPSJMX0lfSl8wIiBjbGFzcz0ibGFiZWwiPjxmb3JlaWduT2JqZWN0IGhlaWdodD0iMCIgd2lkdGg9IjAiPjxkaXYgeG1sbnM9Imh0dHA6Ly93d3cudzMub3JnLzE5OTkveGh0bWwiIGNsYXNzPSJsYWJlbEJrZyIgc3R5bGU9ImRpc3BsYXk6IHRhYmxlLWNlbGw7IHdoaXRlLXNwYWNlOiBub3JtYWw7IGxpbmUtaGVpZ2h0OiAxLjU7IG1heC13aWR0aDogMjAwcHg7IHRleHQtYWxpZ246IGNlbnRlcjsiPjxzcGFuIGNsYXNzPSJlZGdlTGFiZWwiPjwvc3Bhbj48L2Rpdj48L2ZvcmVpZ25PYmplY3Q+PC9nPjwvZz48ZyB0cmFuc2Zvcm09InRyYW5zbGF0ZSgxODguNTA2MjU1MTQ5ODQxMywgMTI4NS4xMjUpIiBjbGFzcz0iZWRnZUxhYmVsIj48ZyB0cmFuc2Zvcm09InRyYW5zbGF0ZSgtMTYuODYyNTAxMTQ0NDA5MTgsIC0xMC41KSIgZGF0YS1pZD0iTF9KX0lfMCIgY2xhc3M9ImxhYmVsIj48Zm9yZWlnbk9iamVjdCBoZWlnaHQ9IjIxIiB3aWR0aD0iMzMuNzI1MDAyMjg4ODE4MzYiPjxkaXYgeG1sbnM9Imh0dHA6Ly93d3cudzMub3JnLzE5OTkveGh0bWwiIGNsYXNzPSJsYWJlbEJrZyIgc3R5bGU9ImRpc3BsYXk6IHRhYmxlLWNlbGw7IHdoaXRlLXNwYWNlOiBub3JtYWw7IGxpbmUtaGVpZ2h0OiAxLjU7IG1heC13aWR0aDogMjAwcHg7IHRleHQtYWxpZ246IGNlbnRlcjsiPjxzcGFuIGNsYXNzPSJlZGdlTGFiZWwiPjxwPlRpZGFrPC9wPjwvc3Bhbj48L2Rpdj48L2ZvcmVpZ25PYmplY3Q+PC9nPjwvZz48ZyB0cmFuc2Zvcm09InRyYW5zbGF0ZSgzOTEuMDE1NjI5NzY4MzcxNiwgMTQ4My41ODc1MDE1MjU4NzkpIiBjbGFzcz0iZWRnZUxhYmVsIj48ZyB0cmFuc2Zvcm09InRyYW5zbGF0ZSgtOC4wNDM3NDk4MDkyNjUxMzcsIC0xMC41KSIgZGF0YS1pZD0iTF9KX0tfMCIgY2xhc3M9ImxhYmVsIj48Zm9yZWlnbk9iamVjdCBoZWlnaHQ9IjIxIiB3aWR0aD0iMTYuMDg3NDk5NjE4NTMwMjczIj48ZGl2IHhtbG5zPSJodHRwOi8vd3d3LnczLm9yZy8xOTk5L3hodG1sIiBjbGFzcz0ibGFiZWxCa2ciIHN0eWxlPSJkaXNwbGF5OiB0YWJsZS1jZWxsOyB3aGl0ZS1zcGFjZTogbm9ybWFsOyBsaW5lLWhlaWdodDogMS41OyBtYXgtd2lkdGg6IDIwMHB4OyB0ZXh0LWFsaWduOiBjZW50ZXI7Ij48c3BhbiBjbGFzcz0iZWRnZUxhYmVsIj48cD5ZYTwvcD48L3NwYW4+PC9kaXY+PC9mb3JlaWduT2JqZWN0PjwvZz48L2c+PGcgY2xhc3M9ImVkZ2VMYWJlbCI+PGcgdHJhbnNmb3JtPSJ0cmFuc2xhdGUoMCwgMCkiIGRhdGEtaWQ9IkxfS19MXzAiIGNsYXNzPSJsYWJlbCI+PGZvcmVpZ25PYmplY3QgaGVpZ2h0PSIwIiB3aWR0aD0iMCI+PGRpdiB4bWxucz0iaHR0cDovL3d3dy53My5vcmcvMTk5OS94aHRtbCIgY2xhc3M9ImxhYmVsQmtnIiBzdHlsZT0iZGlzcGxheTogdGFibGUtY2VsbDsgd2hpdGUtc3BhY2U6IG5vcm1hbDsgbGluZS1oZWlnaHQ6IDEuNTsgbWF4LXdpZHRoOiAyMDBweDsgdGV4dC1hbGlnbjogY2VudGVyOyI+PHNwYW4gY2xhc3M9ImVkZ2VMYWJlbCI+PC9zcGFuPjwvZGl2PjwvZm9yZWlnbk9iamVjdD48L2c+PC9nPjxnIGNsYXNzPSJlZGdlTGFiZWwiPjxnIHRyYW5zZm9ybT0idHJhbnNsYXRlKDAsIDApIiBkYXRhLWlkPSJMX0xfTV8wIiBjbGFzcz0ibGFiZWwiPjxmb3JlaWduT2JqZWN0IGhlaWdodD0iMCIgd2lkdGg9IjAiPjxkaXYgeG1sbnM9Imh0dHA6Ly93d3cudzMub3JnLzE5OTkveGh0bWwiIGNsYXNzPSJsYWJlbEJrZyIgc3R5bGU9ImRpc3BsYXk6IHRhYmxlLWNlbGw7IHdoaXRlLXNwYWNlOiBub3JtYWw7IGxpbmUtaGVpZ2h0OiAxLjU7IG1heC13aWR0aDogMjAwcHg7IHRleHQtYWxpZ246IGNlbnRlcjsiPjxzcGFuIGNsYXNzPSJlZGdlTGFiZWwiPjwvc3Bhbj48L2Rpdj48L2ZvcmVpZ25PYmplY3Q+PC9nPjwvZz48ZyBjbGFzcz0iZWRnZUxhYmVsIj48ZyB0cmFuc2Zvcm09InRyYW5zbGF0ZSgwLCAwKSIgZGF0YS1pZD0iTF9NX05fMCIgY2xhc3M9ImxhYmVsIj48Zm9yZWlnbk9iamVjdCBoZWlnaHQ9IjAiIHdpZHRoPSIwIj48ZGl2IHhtbG5zPSJodHRwOi8vd3d3LnczLm9yZy8xOTk5L3hodG1sIiBjbGFzcz0ibGFiZWxCa2ciIHN0eWxlPSJkaXNwbGF5OiB0YWJsZS1jZWxsOyB3aGl0ZS1zcGFjZTogbm9ybWFsOyBsaW5lLWhlaWdodDogMS41OyBtYXgtd2lkdGg6IDIwMHB4OyB0ZXh0LWFsaWduOiBjZW50ZXI7Ij48c3BhbiBjbGFzcz0iZWRnZUxhYmVsIj48L3NwYW4+PC9kaXY+PC9mb3JlaWduT2JqZWN0PjwvZz48L2c+PGcgY2xhc3M9ImVkZ2VMYWJlbCI+PGcgdHJhbnNmb3JtPSJ0cmFuc2xhdGUoMCwgMCkiIGRhdGEtaWQ9IkxfTl9PXzAiIGNsYXNzPSJsYWJlbCI+PGZvcmVpZ25PYmplY3QgaGVpZ2h0PSIwIiB3aWR0aD0iMCI+PGRpdiB4bWxucz0iaHR0cDovL3d3dy53My5vcmcvMTk5OS94aHRtbCIgY2xhc3M9ImxhYmVsQmtnIiBzdHlsZT0iZGlzcGxheTogdGFibGUtY2VsbDsgd2hpdGUtc3BhY2U6IG5vcm1hbDsgbGluZS1oZWlnaHQ6IDEuNTsgbWF4LXdpZHRoOiAyMDBweDsgdGV4dC1hbGlnbjogY2VudGVyOyI+PHNwYW4gY2xhc3M9ImVkZ2VMYWJlbCI+PC9zcGFuPjwvZGl2PjwvZm9yZWlnbk9iamVjdD48L2c+PC9nPjxnIGNsYXNzPSJlZGdlTGFiZWwiPjxnIHRyYW5zZm9ybT0idHJhbnNsYXRlKDAsIDApIiBkYXRhLWlkPSJMX09fUF8wIiBjbGFzcz0ibGFiZWwiPjxmb3JlaWduT2JqZWN0IGhlaWdodD0iMCIgd2lkdGg9IjAiPjxkaXYgeG1sbnM9Imh0dHA6Ly93d3cudzMub3JnLzE5OTkveGh0bWwiIGNsYXNzPSJsYWJlbEJrZyIgc3R5bGU9ImRpc3BsYXk6IHRhYmxlLWNlbGw7IHdoaXRlLXNwYWNlOiBub3JtYWw7IGxpbmUtaGVpZ2h0OiAxLjU7IG1heC13aWR0aDogMjAwcHg7IHRleHQtYWxpZ246IGNlbnRlcjsiPjxzcGFuIGNsYXNzPSJlZGdlTGFiZWwiPjwvc3Bhbj48L2Rpdj48L2ZvcmVpZ25PYmplY3Q+PC9nPjwvZz48ZyB0cmFuc2Zvcm09InRyYW5zbGF0ZSg4MjAuODQzNzU3NjI5Mzk0NSwgMzM4My4zNjI1MTA2ODExNTIzKSIgY2xhc3M9ImVkZ2VMYWJlbCI+PGcgdHJhbnNmb3JtPSJ0cmFuc2xhdGUoLTE2Ljg2MjUwMTE0NDQwOTE4LCAtMTAuNSkiIGRhdGEtaWQ9IkxfUF9RXzAiIGNsYXNzPSJsYWJlbCI+PGZvcmVpZ25PYmplY3QgaGVpZ2h0PSIyMSIgd2lkdGg9IjMzLjcyNTAwMjI4ODgxODM2Ij48ZGl2IHhtbG5zPSJodHRwOi8vd3d3LnczLm9yZy8xOTk5L3hodG1sIiBjbGFzcz0ibGFiZWxCa2ciIHN0eWxlPSJkaXNwbGF5OiB0YWJsZS1jZWxsOyB3aGl0ZS1zcGFjZTogbm9ybWFsOyBsaW5lLWhlaWdodDogMS41OyBtYXgtd2lkdGg6IDIwMHB4OyB0ZXh0LWFsaWduOiBjZW50ZXI7Ij48c3BhbiBjbGFzcz0iZWRnZUxhYmVsIj48cD5UaWRhazwvcD48L3NwYW4+PC9kaXY+PC9mb3JlaWduT2JqZWN0PjwvZz48L2c+PGcgY2xhc3M9ImVkZ2VMYWJlbCI+PGcgdHJhbnNmb3JtPSJ0cmFuc2xhdGUoMCwgMCkiIGRhdGEtaWQ9IkxfUV9SXzAiIGNsYXNzPSJsYWJlbCI+PGZvcmVpZ25PYmplY3QgaGVpZ2h0PSIwIiB3aWR0aD0iMCI+PGRpdiB4bWxucz0iaHR0cDovL3d3dy53My5vcmcvMTk5OS94aHRtbCIgY2xhc3M9ImxhYmVsQmtnIiBzdHlsZT0iZGlzcGxheTogdGFibGUtY2VsbDsgd2hpdGUtc3BhY2U6IG5vcm1hbDsgbGluZS1oZWlnaHQ6IDEuNTsgbWF4LXdpZHRoOiAyMDBweDsgdGV4dC1hbGlnbjogY2VudGVyOyI+PHNwYW4gY2xhc3M9ImVkZ2VMYWJlbCI+PC9zcGFuPjwvZGl2PjwvZm9yZWlnbk9iamVjdD48L2c+PC9nPjxnIHRyYW5zZm9ybT0idHJhbnNsYXRlKDEyNDYuNDc1MDEzNzMyOTEwMiwgMzcyMi4xNzUwMTA2ODExNTIzKSIgY2xhc3M9ImVkZ2VMYWJlbCI+PGcgdHJhbnNmb3JtPSJ0cmFuc2xhdGUoLTMxLjg5OTk5OTYxODUzMDI3MywgLTEwLjUpIiBkYXRhLWlkPSJMX1BfU18wIiBjbGFzcz0ibGFiZWwiPjxmb3JlaWduT2JqZWN0IGhlaWdodD0iMjEiIHdpZHRoPSI2My43OTk5OTkyMzcwNjA1NSI+PGRpdiB4bWxucz0iaHR0cDovL3d3dy53My5vcmcvMTk5OS94aHRtbCIgY2xhc3M9ImxhYmVsQmtnIiBzdHlsZT0iZGlzcGxheTogdGFibGUtY2VsbDsgd2hpdGUtc3BhY2U6IG5vcm1hbDsgbGluZS1oZWlnaHQ6IDEuNTsgbWF4LXdpZHRoOiAyMDBweDsgdGV4dC1hbGlnbjogY2VudGVyOyI+PHNwYW4gY2xhc3M9ImVkZ2VMYWJlbCI+PHA+USAtIEtlbHVhcjwvcD48L3NwYW4+PC9kaXY+PC9mb3JlaWduT2JqZWN0PjwvZz48L2c+PGcgdHJhbnNmb3JtPSJ0cmFuc2xhdGUoOTY4LjY1NjI1NzYyOTM5NDUsIDIyODguNTAwMDA3NjI5Mzk0NSkiIGNsYXNzPSJlZGdlTGFiZWwiPjxnIHRyYW5zZm9ybT0idHJhbnNsYXRlKC00MS4xMTI0OTkyMzcwNjA1NSwgLTEwLjUpIiBkYXRhLWlkPSJMX1BfVF8wIiBjbGFzcz0ibGFiZWwiPjxmb3JlaWduT2JqZWN0IGhlaWdodD0iMjEiIHdpZHRoPSI4Mi4yMjQ5OTg0NzQxMjExIj48ZGl2IHhtbG5zPSJodHRwOi8vd3d3LnczLm9yZy8xOTk5L3hodG1sIiBjbGFzcz0ibGFiZWxCa2ciIHN0eWxlPSJkaXNwbGF5OiB0YWJsZS1jZWxsOyB3aGl0ZS1zcGFjZTogbm9ybWFsOyBsaW5lLWhlaWdodDogMS41OyBtYXgtd2lkdGg6IDIwMHB4OyB0ZXh0LWFsaWduOiBjZW50ZXI7Ij48c3BhbiBjbGFzcz0iZWRnZUxhYmVsIj48cD5ZYSAtIEdlcmFrYW48L3A+PC9zcGFuPjwvZGl2PjwvZm9yZWlnbk9iamVjdD48L2c+PC9nPjxnIGNsYXNzPSJlZGdlTGFiZWwiPjxnIHRyYW5zZm9ybT0idHJhbnNsYXRlKDAsIDApIiBkYXRhLWlkPSJMX1RfVV8wIiBjbGFzcz0ibGFiZWwiPjxmb3JlaWduT2JqZWN0IGhlaWdodD0iMCIgd2lkdGg9IjAiPjxkaXYgeG1sbnM9Imh0dHA6Ly93d3cudzMub3JnLzE5OTkveGh0bWwiIGNsYXNzPSJsYWJlbEJrZyIgc3R5bGU9ImRpc3BsYXk6IHRhYmxlLWNlbGw7IHdoaXRlLXNwYWNlOiBub3JtYWw7IGxpbmUtaGVpZ2h0OiAxLjU7IG1heC13aWR0aDogMjAwcHg7IHRleHQtYWxpZ246IGNlbnRlcjsiPjxzcGFuIGNsYXNzPSJlZGdlTGFiZWwiPjwvc3Bhbj48L2Rpdj48L2ZvcmVpZ25PYmplY3Q+PC9nPjwvZz48ZyB0cmFuc2Zvcm09InRyYW5zbGF0ZSg5NjguNjU2MjU3NjI5Mzk0NSwgMzgzOC4xNzUwMTA2ODExNTIzKSIgY2xhc3M9ImVkZ2VMYWJlbCI+PGcgdHJhbnNmb3JtPSJ0cmFuc2xhdGUoLTguMDQzNzQ5ODA5MjY1MTM3LCAtMTAuNSkiIGRhdGEtaWQ9IkxfVV9WXzAiIGNsYXNzPSJsYWJlbCI+PGZvcmVpZ25PYmplY3QgaGVpZ2h0PSIyMSIgd2lkdGg9IjE2LjA4NzQ5OTYxODUzMDI3MyI+PGRpdiB4bWxucz0iaHR0cDovL3d3dy53My5vcmcvMTk5OS94aHRtbCIgY2xhc3M9ImxhYmVsQmtnIiBzdHlsZT0iZGlzcGxheTogdGFibGUtY2VsbDsgd2hpdGUtc3BhY2U6IG5vcm1hbDsgbGluZS1oZWlnaHQ6IDEuNTsgbWF4LXdpZHRoOiAyMDBweDsgdGV4dC1hbGlnbjogY2VudGVyOyI+PHNwYW4gY2xhc3M9ImVkZ2VMYWJlbCI+PHA+WWE8L3A+PC9zcGFuPjwvZGl2PjwvZm9yZWlnbk9iamVjdD48L2c+PC9nPjxnIHRyYW5zZm9ybT0idHJhbnNsYXRlKDUzOC40NDA2MzE4NjY0NTUxLCAyNjM3LjIwMDAwNDU3NzYzNjcpIiBjbGFzcz0iZWRnZUxhYmVsIj48ZyB0cmFuc2Zvcm09InRyYW5zbGF0ZSgtMTYuODYyNTAxMTQ0NDA5MTgsIC0xMC41KSIgZGF0YS1pZD0iTF9VX1dfMCIgY2xhc3M9ImxhYmVsIj48Zm9yZWlnbk9iamVjdCBoZWlnaHQ9IjIxIiB3aWR0aD0iMzMuNzI1MDAyMjg4ODE4MzYiPjxkaXYgeG1sbnM9Imh0dHA6Ly93d3cudzMub3JnLzE5OTkveGh0bWwiIGNsYXNzPSJsYWJlbEJrZyIgc3R5bGU9ImRpc3BsYXk6IHRhYmxlLWNlbGw7IHdoaXRlLXNwYWNlOiBub3JtYWw7IGxpbmUtaGVpZ2h0OiAxLjU7IG1heC13aWR0aDogMjAwcHg7IHRleHQtYWxpZ246IGNlbnRlcjsiPjxzcGFuIGNsYXNzPSJlZGdlTGFiZWwiPjxwPlRpZGFrPC9wPjwvc3Bhbj48L2Rpdj48L2ZvcmVpZ25PYmplY3Q+PC9nPjwvZz48ZyBjbGFzcz0iZWRnZUxhYmVsIj48ZyB0cmFuc2Zvcm09InRyYW5zbGF0ZSgwLCAwKSIgZGF0YS1pZD0iTF9XX1hfMCIgY2xhc3M9ImxhYmVsIj48Zm9yZWlnbk9iamVjdCBoZWlnaHQ9IjAiIHdpZHRoPSIwIj48ZGl2IHhtbG5zPSJodHRwOi8vd3d3LnczLm9yZy8xOTk5L3hodG1sIiBjbGFzcz0ibGFiZWxCa2ciIHN0eWxlPSJkaXNwbGF5OiB0YWJsZS1jZWxsOyB3aGl0ZS1zcGFjZTogbm9ybWFsOyBsaW5lLWhlaWdodDogMS41OyBtYXgtd2lkdGg6IDIwMHB4OyB0ZXh0LWFsaWduOiBjZW50ZXI7Ij48c3BhbiBjbGFzcz0iZWRnZUxhYmVsIj48L3NwYW4+PC9kaXY+PC9mb3JlaWduT2JqZWN0PjwvZz48L2c+PGcgdHJhbnNmb3JtPSJ0cmFuc2xhdGUoNjgzLjYxMjUwNjg2NjQ1NTEsIDI5ODMuODI1MDA0NTc3NjM2NykiIGNsYXNzPSJlZGdlTGFiZWwiPjxnIHRyYW5zZm9ybT0idHJhbnNsYXRlKC04LjA0Mzc0OTgwOTI2NTEzNywgLTEwLjUpIiBkYXRhLWlkPSJMX1hfWV8wIiBjbGFzcz0ibGFiZWwiPjxmb3JlaWduT2JqZWN0IGhlaWdodD0iMjEiIHdpZHRoPSIxNi4wODc0OTk2MTg1MzAyNzMiPjxkaXYgeG1sbnM9Imh0dHA6Ly93d3cudzMub3JnLzE5OTkveGh0bWwiIGNsYXNzPSJsYWJlbEJrZyIgc3R5bGU9ImRpc3BsYXk6IHRhYmxlLWNlbGw7IHdoaXRlLXNwYWNlOiBub3JtYWw7IGxpbmUtaGVpZ2h0OiAxLjU7IG1heC13aWR0aDogMjAwcHg7IHRleHQtYWxpZ246IGNlbnRlcjsiPjxzcGFuIGNsYXNzPSJlZGdlTGFiZWwiPjxwPllhPC9wPjwvc3Bhbj48L2Rpdj48L2ZvcmVpZ25PYmplY3Q+PC9nPjwvZz48ZyB0cmFuc2Zvcm09InRyYW5zbGF0ZSgyOTMuMjAwMDAzNjIzOTYyNCwgMzI0Ni4zNjI1MTA2ODExNTIzKSIgY2xhc3M9ImVkZ2VMYWJlbCI+PGcgdHJhbnNmb3JtPSJ0cmFuc2xhdGUoLTguMDQzNzQ5ODA5MjY1MTM3LCAtMTAuNSkiIGRhdGEtaWQ9IkxfWV9aXzAiIGNsYXNzPSJsYWJlbCI+PGZvcmVpZ25PYmplY3QgaGVpZ2h0PSIyMSIgd2lkdGg9IjE2LjA4NzQ5OTYxODUzMDI3MyI+PGRpdiB4bWxucz0iaHR0cDovL3d3dy53My5vcmcvMTk5OS94aHRtbCIgY2xhc3M9ImxhYmVsQmtnIiBzdHlsZT0iZGlzcGxheTogdGFibGUtY2VsbDsgd2hpdGUtc3BhY2U6IG5vcm1hbDsgbGluZS1oZWlnaHQ6IDEuNTsgbWF4LXdpZHRoOiAyMDBweDsgdGV4dC1hbGlnbjogY2VudGVyOyI+PHNwYW4gY2xhc3M9ImVkZ2VMYWJlbCI+PHA+WWE8L3A+PC9zcGFuPjwvZGl2PjwvZm9yZWlnbk9iamVjdD48L2c+PC9nPjxnIHRyYW5zZm9ybT0idHJhbnNsYXRlKDY4My42MTI1MDY4NjY0NTUxLCAzMzE0Ljg2MjUxMDY4MTE1MjMpIiBjbGFzcz0iZWRnZUxhYmVsIj48ZyB0cmFuc2Zvcm09InRyYW5zbGF0ZSgtMTYuODYyNTAxMTQ0NDA5MTgsIC0xMC41KSIgZGF0YS1pZD0iTF9ZX0FBXzAiIGNsYXNzPSJsYWJlbCI+PGZvcmVpZ25PYmplY3QgaGVpZ2h0PSIyMSIgd2lkdGg9IjMzLjcyNTAwMjI4ODgxODM2Ij48ZGl2IHhtbG5zPSJodHRwOi8vd3d3LnczLm9yZy8xOTk5L3hodG1sIiBjbGFzcz0ibGFiZWxCa2ciIHN0eWxlPSJkaXNwbGF5OiB0YWJsZS1jZWxsOyB3aGl0ZS1zcGFjZTogbm9ybWFsOyBsaW5lLWhlaWdodDogMS41OyBtYXgtd2lkdGg6IDIwMHB4OyB0ZXh0LWFsaWduOiBjZW50ZXI7Ij48c3BhbiBjbGFzcz0iZWRnZUxhYmVsIj48cD5UaWRhazwvcD48L3NwYW4+PC9kaXY+PC9mb3JlaWduT2JqZWN0PjwvZz48L2c+PGcgdHJhbnNmb3JtPSJ0cmFuc2xhdGUoNDczLjA1NjI1NTM0MDU3NjIsIDMyNDYuMzYyNTEwNjgxMTUyMykiIGNsYXNzPSJlZGdlTGFiZWwiPjxnIHRyYW5zZm9ybT0idHJhbnNsYXRlKC0xNi44NjI1MDExNDQ0MDkxOCwgLTEwLjUpIiBkYXRhLWlkPSJMX1hfQUFfMCIgY2xhc3M9ImxhYmVsIj48Zm9yZWlnbk9iamVjdCBoZWlnaHQ9IjIxIiB3aWR0aD0iMzMuNzI1MDAyMjg4ODE4MzYiPjxkaXYgeG1sbnM9Imh0dHA6Ly93d3cudzMub3JnLzE5OTkveGh0bWwiIGNsYXNzPSJsYWJlbEJrZyIgc3R5bGU9ImRpc3BsYXk6IHRhYmxlLWNlbGw7IHdoaXRlLXNwYWNlOiBub3JtYWw7IGxpbmUtaGVpZ2h0OiAxLjU7IG1heC13aWR0aDogMjAwcHg7IHRleHQtYWxpZ246IGNlbnRlcjsiPjxzcGFuIGNsYXNzPSJlZGdlTGFiZWwiPjxwPlRpZGFrPC9wPjwvc3Bhbj48L2Rpdj48L2ZvcmVpZ25PYmplY3Q+PC9nPjwvZz48ZyBjbGFzcz0iZWRnZUxhYmVsIj48ZyB0cmFuc2Zvcm09InRyYW5zbGF0ZSgwLCAwKSIgZGF0YS1pZD0iTF9aX0FBXzAiIGNsYXNzPSJsYWJlbCI+PGZvcmVpZ25PYmplY3QgaGVpZ2h0PSIwIiB3aWR0aD0iMCI+PGRpdiB4bWxucz0iaHR0cDovL3d3dy53My5vcmcvMTk5OS94aHRtbCIgY2xhc3M9ImxhYmVsQmtnIiBzdHlsZT0iZGlzcGxheTogdGFibGUtY2VsbDsgd2hpdGUtc3BhY2U6IG5vcm1hbDsgbGluZS1oZWlnaHQ6IDEuNTsgbWF4LXdpZHRoOiAyMDBweDsgdGV4dC1hbGlnbjogY2VudGVyOyI+PHNwYW4gY2xhc3M9ImVkZ2VMYWJlbCI+PC9zcGFuPjwvZGl2PjwvZm9yZWlnbk9iamVjdD48L2c+PC9nPjxnIHRyYW5zZm9ybT0idHJhbnNsYXRlKDU0Ni4zODEyNTYxMDM1MTU2LCAzNjUzLjY3NTAxMDY4MTE1MjMpIiBjbGFzcz0iZWRnZUxhYmVsIj48ZyB0cmFuc2Zvcm09InRyYW5zbGF0ZSgtOC4wNDM3NDk4MDkyNjUxMzcsIC0xMC41KSIgZGF0YS1pZD0iTF9BQV9CQl8wIiBjbGFzcz0ibGFiZWwiPjxmb3JlaWduT2JqZWN0IGhlaWdodD0iMjEiIHdpZHRoPSIxNi4wODc0OTk2MTg1MzAyNzMiPjxkaXYgeG1sbnM9Imh0dHA6Ly93d3cudzMub3JnLzE5OTkveGh0bWwiIGNsYXNzPSJsYWJlbEJrZyIgc3R5bGU9ImRpc3BsYXk6IHRhYmxlLWNlbGw7IHdoaXRlLXNwYWNlOiBub3JtYWw7IGxpbmUtaGVpZ2h0OiAxLjU7IG1heC13aWR0aDogMjAwcHg7IHRleHQtYWxpZ246IGNlbnRlcjsiPjxzcGFuIGNsYXNzPSJlZGdlTGFiZWwiPjxwPllhPC9wPjwvc3Bhbj48L2Rpdj48L2ZvcmVpZ25PYmplY3Q+PC9nPjwvZz48ZyBjbGFzcz0iZWRnZUxhYmVsIj48ZyB0cmFuc2Zvcm09InRyYW5zbGF0ZSgwLCAwKSIgZGF0YS1pZD0iTF9CQl9DQ18wIiBjbGFzcz0ibGFiZWwiPjxmb3JlaWduT2JqZWN0IGhlaWdodD0iMCIgd2lkdGg9IjAiPjxkaXYgeG1sbnM9Imh0dHA6Ly93d3cudzMub3JnLzE5OTkveGh0bWwiIGNsYXNzPSJsYWJlbEJrZyIgc3R5bGU9ImRpc3BsYXk6IHRhYmxlLWNlbGw7IHdoaXRlLXNwYWNlOiBub3JtYWw7IGxpbmUtaGVpZ2h0OiAxLjU7IG1heC13aWR0aDogMjAwcHg7IHRleHQtYWxpZ246IGNlbnRlcjsiPjxzcGFuIGNsYXNzPSJlZGdlTGFiZWwiPjwvc3Bhbj48L2Rpdj48L2ZvcmVpZ25PYmplY3Q+PC9nPjwvZz48ZyBjbGFzcz0iZWRnZUxhYmVsIj48ZyB0cmFuc2Zvcm09InRyYW5zbGF0ZSgwLCAwKSIgZGF0YS1pZD0iTF9DQ19ERF8wIiBjbGFzcz0ibGFiZWwiPjxmb3JlaWduT2JqZWN0IGhlaWdodD0iMCIgd2lkdGg9IjAiPjxkaXYgeG1sbnM9Imh0dHA6Ly93d3cudzMub3JnLzE5OTkveGh0bWwiIGNsYXNzPSJsYWJlbEJrZyIgc3R5bGU9ImRpc3BsYXk6IHRhYmxlLWNlbGw7IHdoaXRlLXNwYWNlOiBub3JtYWw7IGxpbmUtaGVpZ2h0OiAxLjU7IG1heC13aWR0aDogMjAwcHg7IHRleHQtYWxpZ246IGNlbnRlcjsiPjxzcGFuIGNsYXNzPSJlZGdlTGFiZWwiPjwvc3Bhbj48L2Rpdj48L2ZvcmVpZ25PYmplY3Q+PC9nPjwvZz48ZyBjbGFzcz0iZWRnZUxhYmVsIj48ZyB0cmFuc2Zvcm09InRyYW5zbGF0ZSgwLCAwKSIgZGF0YS1pZD0iTF9ERF9FRV8wIiBjbGFzcz0ibGFiZWwiPjxmb3JlaWduT2JqZWN0IGhlaWdodD0iMCIgd2lkdGg9IjAiPjxkaXYgeG1sbnM9Imh0dHA6Ly93d3cudzMub3JnLzE5OTkveGh0bWwiIGNsYXNzPSJsYWJlbEJrZyIgc3R5bGU9ImRpc3BsYXk6IHRhYmxlLWNlbGw7IHdoaXRlLXNwYWNlOiBub3JtYWw7IGxpbmUtaGVpZ2h0OiAxLjU7IG1heC13aWR0aDogMjAwcHg7IHRleHQtYWxpZ246IGNlbnRlcjsiPjxzcGFuIGNsYXNzPSJlZGdlTGFiZWwiPjwvc3Bhbj48L2Rpdj48L2ZvcmVpZ25PYmplY3Q+PC9nPjwvZz48ZyBjbGFzcz0iZWRnZUxhYmVsIj48ZyB0cmFuc2Zvcm09InRyYW5zbGF0ZSgwLCAwKSIgZGF0YS1pZD0iTF9FRV9GRl8wIiBjbGFzcz0ibGFiZWwiPjxmb3JlaWduT2JqZWN0IGhlaWdodD0iMCIgd2lkdGg9IjAiPjxkaXYgeG1sbnM9Imh0dHA6Ly93d3cudzMub3JnLzE5OTkveGh0bWwiIGNsYXNzPSJsYWJlbEJrZyIgc3R5bGU9ImRpc3BsYXk6IHRhYmxlLWNlbGw7IHdoaXRlLXNwYWNlOiBub3JtYWw7IGxpbmUtaGVpZ2h0OiAxLjU7IG1heC13aWR0aDogMjAwcHg7IHRleHQtYWxpZ246IGNlbnRlcjsiPjxzcGFuIGNsYXNzPSJlZGdlTGFiZWwiPjwvc3Bhbj48L2Rpdj48L2ZvcmVpZ25PYmplY3Q+PC9nPjwvZz48ZyBjbGFzcz0iZWRnZUxhYmVsIj48ZyB0cmFuc2Zvcm09InRyYW5zbGF0ZSgwLCAwKSIgZGF0YS1pZD0iTF9GRl9HR18wIiBjbGFzcz0ibGFiZWwiPjxmb3JlaWduT2JqZWN0IGhlaWdodD0iMCIgd2lkdGg9IjAiPjxkaXYgeG1sbnM9Imh0dHA6Ly93d3cudzMub3JnLzE5OTkveGh0bWwiIGNsYXNzPSJsYWJlbEJrZyIgc3R5bGU9ImRpc3BsYXk6IHRhYmxlLWNlbGw7IHdoaXRlLXNwYWNlOiBub3JtYWw7IGxpbmUtaGVpZ2h0OiAxLjU7IG1heC13aWR0aDogMjAwcHg7IHRleHQtYWxpZ246IGNlbnRlcjsiPjxzcGFuIGNsYXNzPSJlZGdlTGFiZWwiPjwvc3Bhbj48L2Rpdj48L2ZvcmVpZ25PYmplY3Q+PC9nPjwvZz48ZyBjbGFzcz0iZWRnZUxhYmVsIj48ZyB0cmFuc2Zvcm09InRyYW5zbGF0ZSgwLCAwKSIgZGF0YS1pZD0iTF9HR19SXzAiIGNsYXNzPSJsYWJlbCI+PGZvcmVpZ25PYmplY3QgaGVpZ2h0PSIwIiB3aWR0aD0iMCI+PGRpdiB4bWxucz0iaHR0cDovL3d3dy53My5vcmcvMTk5OS94aHRtbCIgY2xhc3M9ImxhYmVsQmtnIiBzdHlsZT0iZGlzcGxheTogdGFibGUtY2VsbDsgd2hpdGUtc3BhY2U6IG5vcm1hbDsgbGluZS1oZWlnaHQ6IDEuNTsgbWF4LXdpZHRoOiAyMDBweDsgdGV4dC1hbGlnbjogY2VudGVyOyI+PHNwYW4gY2xhc3M9ImVkZ2VMYWJlbCI+PC9zcGFuPjwvZGl2PjwvZm9yZWlnbk9iamVjdD48L2c+PC9nPjxnIHRyYW5zZm9ybT0idHJhbnNsYXRlKDMxMS42MzEyNTQxOTYxNjcsIDQwMjIuNjc1MDEwNjgxMTUyMykiIGNsYXNzPSJlZGdlTGFiZWwiPjxnIHRyYW5zZm9ybT0idHJhbnNsYXRlKC0xNi44NjI1MDExNDQ0MDkxOCwgLTEwLjUpIiBkYXRhLWlkPSJMX0FBX1JfMCIgY2xhc3M9ImxhYmVsIj48Zm9yZWlnbk9iamVjdCBoZWlnaHQ9IjIxIiB3aWR0aD0iMzMuNzI1MDAyMjg4ODE4MzYiPjxkaXYgeG1sbnM9Imh0dHA6Ly93d3cudzMub3JnLzE5OTkveGh0bWwiIGNsYXNzPSJsYWJlbEJrZyIgc3R5bGU9ImRpc3BsYXk6IHRhYmxlLWNlbGw7IHdoaXRlLXNwYWNlOiBub3JtYWw7IGxpbmUtaGVpZ2h0OiAxLjU7IG1heC13aWR0aDogMjAwcHg7IHRleHQtYWxpZ246IGNlbnRlcjsiPjxzcGFuIGNsYXNzPSJlZGdlTGFiZWwiPjxwPlRpZGFrPC9wPjwvc3Bhbj48L2Rpdj48L2ZvcmVpZ25PYmplY3Q+PC9nPjwvZz48ZyB0cmFuc2Zvcm09InRyYW5zbGF0ZSg1NjQuODEyNTA2Njc1NzIwMiwgNDY4MS40NTAwMTIyMDcwMzEpIiBjbGFzcz0iZWRnZUxhYmVsIj48ZyB0cmFuc2Zvcm09InRyYW5zbGF0ZSgtOC4wNDM3NDk4MDkyNjUxMzcsIC0xMC41KSIgZGF0YS1pZD0iTF9SX0hIXzAiIGNsYXNzPSJsYWJlbCI+PGZvcmVpZ25PYmplY3QgaGVpZ2h0PSIyMSIgd2lkdGg9IjE2LjA4NzQ5OTYxODUzMDI3MyI+PGRpdiB4bWxucz0iaHR0cDovL3d3dy53My5vcmcvMTk5OS94aHRtbCIgY2xhc3M9ImxhYmVsQmtnIiBzdHlsZT0iZGlzcGxheTogdGFibGUtY2VsbDsgd2hpdGUtc3BhY2U6IG5vcm1hbDsgbGluZS1oZWlnaHQ6IDEuNTsgbWF4LXdpZHRoOiAyMDBweDsgdGV4dC1hbGlnbjogY2VudGVyOyI+PHNwYW4gY2xhc3M9ImVkZ2VMYWJlbCI+PHA+WWE8L3A+PC9zcGFuPjwvZGl2PjwvZm9yZWlnbk9iamVjdD48L2c+PC9nPjxnIHRyYW5zZm9ybT0idHJhbnNsYXRlKDM0OC4wNzUwMDQ1Nzc2MzY3LCA0NTY3LjMwMDAxMDY4MTE1MikiIGNsYXNzPSJlZGdlTGFiZWwiPjxnIHRyYW5zZm9ybT0idHJhbnNsYXRlKC0xNi44NjI1MDExNDQ0MDkxOCwgLTEwLjUpIiBkYXRhLWlkPSJMX1JfSUlfMCIgY2xhc3M9ImxhYmVsIj48Zm9yZWlnbk9iamVjdCBoZWlnaHQ9IjIxIiB3aWR0aD0iMzMuNzI1MDAyMjg4ODE4MzYiPjxkaXYgeG1sbnM9Imh0dHA6Ly93d3cudzMub3JnLzE5OTkveGh0bWwiIGNsYXNzPSJsYWJlbEJrZyIgc3R5bGU9ImRpc3BsYXk6IHRhYmxlLWNlbGw7IHdoaXRlLXNwYWNlOiBub3JtYWw7IGxpbmUtaGVpZ2h0OiAxLjU7IG1heC13aWR0aDogMjAwcHg7IHRleHQtYWxpZ246IGNlbnRlcjsiPjxzcGFuIGNsYXNzPSJlZGdlTGFiZWwiPjxwPlRpZGFrPC9wPjwvc3Bhbj48L2Rpdj48L2ZvcmVpZ25PYmplY3Q+PC9nPjwvZz48ZyB0cmFuc2Zvcm09InRyYW5zbGF0ZSgyMzcuNTU5Mzc5NTc3NjM2NzIsIDQ3OTUuNjAwMDEzNzMyOTEpIiBjbGFzcz0iZWRnZUxhYmVsIj48ZyB0cmFuc2Zvcm09InRyYW5zbGF0ZSgtOC4wNDM3NDk4MDkyNjUxMzcsIC0xMC41KSIgZGF0YS1pZD0iTF9JSV9KSl8wIiBjbGFzcz0ibGFiZWwiPjxmb3JlaWduT2JqZWN0IGhlaWdodD0iMjEiIHdpZHRoPSIxNi4wODc0OTk2MTg1MzAyNzMiPjxkaXYgeG1sbnM9Imh0dHA6Ly93d3cudzMub3JnLzE5OTkveGh0bWwiIGNsYXNzPSJsYWJlbEJrZyIgc3R5bGU9ImRpc3BsYXk6IHRhYmxlLWNlbGw7IHdoaXRlLXNwYWNlOiBub3JtYWw7IGxpbmUtaGVpZ2h0OiAxLjU7IG1heC13aWR0aDogMjAwcHg7IHRleHQtYWxpZ246IGNlbnRlcjsiPjxzcGFuIGNsYXNzPSJlZGdlTGFiZWwiPjxwPllhPC9wPjwvc3Bhbj48L2Rpdj48L2ZvcmVpZ25PYmplY3Q+PC9nPjwvZz48ZyB0cmFuc2Zvcm09InRyYW5zbGF0ZSgxODguNTA2MjU1MTQ5ODQxMywgMzM4My4zNjI1MTA2ODExNTIzKSIgY2xhc3M9ImVkZ2VMYWJlbCI+PGcgdHJhbnNmb3JtPSJ0cmFuc2xhdGUoLTE2Ljg2MjUwMTE0NDQwOTE4LCAtMTAuNSkiIGRhdGEtaWQ9IkxfSUlfTl8wIiBjbGFzcz0ibGFiZWwiPjxmb3JlaWduT2JqZWN0IGhlaWdodD0iMjEiIHdpZHRoPSIzMy43MjUwMDIyODg4MTgzNiI+PGRpdiB4bWxucz0iaHR0cDovL3d3dy53My5vcmcvMTk5OS94aHRtbCIgY2xhc3M9ImxhYmVsQmtnIiBzdHlsZT0iZGlzcGxheTogdGFibGUtY2VsbDsgd2hpdGUtc3BhY2U6IG5vcm1hbDsgbGluZS1oZWlnaHQ6IDEuNTsgbWF4LXdpZHRoOiAyMDBweDsgdGV4dC1hbGlnbjogY2VudGVyOyI+PHNwYW4gY2xhc3M9ImVkZ2VMYWJlbCI+PHA+VGlkYWs8L3A+PC9zcGFuPjwvZGl2PjwvZm9yZWlnbk9iamVjdD48L2c+PC9nPjxnIGNsYXNzPSJlZGdlTGFiZWwiPjxnIHRyYW5zZm9ybT0idHJhbnNsYXRlKDAsIDApIiBkYXRhLWlkPSJMX1NfS0tfMCIgY2xhc3M9ImxhYmVsIj48Zm9yZWlnbk9iamVjdCBoZWlnaHQ9IjAiIHdpZHRoPSIwIj48ZGl2IHhtbG5zPSJodHRwOi8vd3d3LnczLm9yZy8xOTk5L3hodG1sIiBjbGFzcz0ibGFiZWxCa2ciIHN0eWxlPSJkaXNwbGF5OiB0YWJsZS1jZWxsOyB3aGl0ZS1zcGFjZTogbm9ybWFsOyBsaW5lLWhlaWdodDogMS41OyBtYXgtd2lkdGg6IDIwMHB4OyB0ZXh0LWFsaWduOiBjZW50ZXI7Ij48c3BhbiBjbGFzcz0iZWRnZUxhYmVsIj48L3NwYW4+PC9kaXY+PC9mb3JlaWduT2JqZWN0PjwvZz48L2c+PGcgY2xhc3M9ImVkZ2VMYWJlbCI+PGcgdHJhbnNmb3JtPSJ0cmFuc2xhdGUoMCwgMCkiIGRhdGEtaWQ9IkxfVl9LS18wIiBjbGFzcz0ibGFiZWwiPjxmb3JlaWduT2JqZWN0IGhlaWdodD0iMCIgd2lkdGg9IjAiPjxkaXYgeG1sbnM9Imh0dHA6Ly93d3cudzMub3JnLzE5OTkveGh0bWwiIGNsYXNzPSJsYWJlbEJrZyIgc3R5bGU9ImRpc3BsYXk6IHRhYmxlLWNlbGw7IHdoaXRlLXNwYWNlOiBub3JtYWw7IGxpbmUtaGVpZ2h0OiAxLjU7IG1heC13aWR0aDogMjAwcHg7IHRleHQtYWxpZ246IGNlbnRlcjsiPjxzcGFuIGNsYXNzPSJlZGdlTGFiZWwiPjwvc3Bhbj48L2Rpdj48L2ZvcmVpZ25PYmplY3Q+PC9nPjwvZz48ZyBjbGFzcz0iZWRnZUxhYmVsIj48ZyB0cmFuc2Zvcm09InRyYW5zbGF0ZSgwLCAwKSIgZGF0YS1pZD0iTF9ISF9LS18wIiBjbGFzcz0ibGFiZWwiPjxmb3JlaWduT2JqZWN0IGhlaWdodD0iMCIgd2lkdGg9IjAiPjxkaXYgeG1sbnM9Imh0dHA6Ly93d3cudzMub3JnLzE5OTkveGh0bWwiIGNsYXNzPSJsYWJlbEJrZyIgc3R5bGU9ImRpc3BsYXk6IHRhYmxlLWNlbGw7IHdoaXRlLXNwYWNlOiBub3JtYWw7IGxpbmUtaGVpZ2h0OiAxLjU7IG1heC13aWR0aDogMjAwcHg7IHRleHQtYWxpZ246IGNlbnRlcjsiPjxzcGFuIGNsYXNzPSJlZGdlTGFiZWwiPjwvc3Bhbj48L2Rpdj48L2ZvcmVpZ25PYmplY3Q+PC9nPjwvZz48ZyBjbGFzcz0iZWRnZUxhYmVsIj48ZyB0cmFuc2Zvcm09InRyYW5zbGF0ZSgwLCAwKSIgZGF0YS1pZD0iTF9KSl9LS18wIiBjbGFzcz0ibGFiZWwiPjxmb3JlaWduT2JqZWN0IGhlaWdodD0iMCIgd2lkdGg9IjAiPjxkaXYgeG1sbnM9Imh0dHA6Ly93d3cudzMub3JnLzE5OTkveGh0bWwiIGNsYXNzPSJsYWJlbEJrZyIgc3R5bGU9ImRpc3BsYXk6IHRhYmxlLWNlbGw7IHdoaXRlLXNwYWNlOiBub3JtYWw7IGxpbmUtaGVpZ2h0OiAxLjU7IG1heC13aWR0aDogMjAwcHg7IHRleHQtYWxpZ246IGNlbnRlcjsiPjxzcGFuIGNsYXNzPSJlZGdlTGFiZWwiPjwvc3Bhbj48L2Rpdj48L2ZvcmVpZ25PYmplY3Q+PC9nPjwvZz48ZyB0cmFuc2Zvcm09InRyYW5zbGF0ZSg4MTcuOTc1MDEwODcxODg3MiwgNTE5Ny44NTAwMTM3MzI5MSkiIGNsYXNzPSJlZGdlTGFiZWwiPjxnIHRyYW5zZm9ybT0idHJhbnNsYXRlKC04LjA0Mzc0OTgwOTI2NTEzNywgLTEwLjUpIiBkYXRhLWlkPSJMX0tLX0xMXzAiIGNsYXNzPSJsYWJlbCI+PGZvcmVpZ25PYmplY3QgaGVpZ2h0PSIyMSIgd2lkdGg9IjE2LjA4NzQ5OTYxODUzMDI3MyI+PGRpdiB4bWxucz0iaHR0cDovL3d3dy53My5vcmcvMTk5OS94aHRtbCIgY2xhc3M9ImxhYmVsQmtnIiBzdHlsZT0iZGlzcGxheTogdGFibGUtY2VsbDsgd2hpdGUtc3BhY2U6IG5vcm1hbDsgbGluZS1oZWlnaHQ6IDEuNTsgbWF4LXdpZHRoOiAyMDBweDsgdGV4dC1hbGlnbjogY2VudGVyOyI+PHNwYW4gY2xhc3M9ImVkZ2VMYWJlbCI+PHA+WWE8L3A+PC9zcGFuPjwvZGl2PjwvZm9yZWlnbk9iamVjdD48L2c+PC9nPjxnIGNsYXNzPSJlZGdlTGFiZWwiPjxnIHRyYW5zZm9ybT0idHJhbnNsYXRlKDAsIDApIiBkYXRhLWlkPSJMX0xMX0xMTF8wIiBjbGFzcz0ibGFiZWwiPjxmb3JlaWduT2JqZWN0IGhlaWdodD0iMCIgd2lkdGg9IjAiPjxkaXYgeG1sbnM9Imh0dHA6Ly93d3cudzMub3JnLzE5OTkveGh0bWwiIGNsYXNzPSJsYWJlbEJrZyIgc3R5bGU9ImRpc3BsYXk6IHRhYmxlLWNlbGw7IHdoaXRlLXNwYWNlOiBub3JtYWw7IGxpbmUtaGVpZ2h0OiAxLjU7IG1heC13aWR0aDogMjAwcHg7IHRleHQtYWxpZ246IGNlbnRlcjsiPjxzcGFuIGNsYXNzPSJlZGdlTGFiZWwiPjwvc3Bhbj48L2Rpdj48L2ZvcmVpZ25PYmplY3Q+PC9nPjwvZz48ZyB0cmFuc2Zvcm09InRyYW5zbGF0ZSgyOTUuNTM0MzkzMzEwNTQ2OSwgNTI2Ni4zNTAwMTM3MzI5MSkiIGNsYXNzPSJlZGdlTGFiZWwiPjxnIHRyYW5zZm9ybT0idHJhbnNsYXRlKC0xNi44NjI1MDExNDQ0MDkxOCwgLTEwLjUpIiBkYXRhLWlkPSJMX0tLX01NXzAiIGNsYXNzPSJsYWJlbCI+PGZvcmVpZ25PYmplY3QgaGVpZ2h0PSIyMSIgd2lkdGg9IjMzLjcyNTAwMjI4ODgxODM2Ij48ZGl2IHhtbG5zPSJodHRwOi8vd3d3LnczLm9yZy8xOTk5L3hodG1sIiBjbGFzcz0ibGFiZWxCa2ciIHN0eWxlPSJkaXNwbGF5OiB0YWJsZS1jZWxsOyB3aGl0ZS1zcGFjZTogbm9ybWFsOyBsaW5lLWhlaWdodDogMS41OyBtYXgtd2lkdGg6IDIwMHB4OyB0ZXh0LWFsaWduOiBjZW50ZXI7Ij48c3BhbiBjbGFzcz0iZWRnZUxhYmVsIj48cD5UaWRhazwvcD48L3NwYW4+PC9kaXY+PC9mb3JlaWduT2JqZWN0PjwvZz48L2c+PGcgY2xhc3M9ImVkZ2VMYWJlbCI+PGcgdHJhbnNmb3JtPSJ0cmFuc2xhdGUoMCwgMCkiIGRhdGEtaWQ9IkxfTExMX05OXzAiIGNsYXNzPSJsYWJlbCI+PGZvcmVpZ25PYmplY3QgaGVpZ2h0PSIwIiB3aWR0aD0iMCI+PGRpdiB4bWxucz0iaHR0cDovL3d3dy53My5vcmcvMTk5OS94aHRtbCIgY2xhc3M9ImxhYmVsQmtnIiBzdHlsZT0iZGlzcGxheTogdGFibGUtY2VsbDsgd2hpdGUtc3BhY2U6IG5vcm1hbDsgbGluZS1oZWlnaHQ6IDEuNTsgbWF4LXdpZHRoOiAyMDBweDsgdGV4dC1hbGlnbjogY2VudGVyOyI+PHNwYW4gY2xhc3M9ImVkZ2VMYWJlbCI+PC9zcGFuPjwvZGl2PjwvZm9yZWlnbk9iamVjdD48L2c+PC9nPjxnIGNsYXNzPSJlZGdlTGFiZWwiPjxnIHRyYW5zZm9ybT0idHJhbnNsYXRlKDAsIDApIiBkYXRhLWlkPSJMX01NX05OXzAiIGNsYXNzPSJsYWJlbCI+PGZvcmVpZ25PYmplY3QgaGVpZ2h0PSIwIiB3aWR0aD0iMCI+PGRpdiB4bWxucz0iaHR0cDovL3d3dy53My5vcmcvMTk5OS94aHRtbCIgY2xhc3M9ImxhYmVsQmtnIiBzdHlsZT0iZGlzcGxheTogdGFibGUtY2VsbDsgd2hpdGUtc3BhY2U6IG5vcm1hbDsgbGluZS1oZWlnaHQ6IDEuNTsgbWF4LXdpZHRoOiAyMDBweDsgdGV4dC1hbGlnbjogY2VudGVyOyI+PHNwYW4gY2xhc3M9ImVkZ2VMYWJlbCI+PC9zcGFuPjwvZGl2PjwvZm9yZWlnbk9iamVjdD48L2c+PC9nPjxnIGNsYXNzPSJlZGdlTGFiZWwiPjxnIHRyYW5zZm9ybT0idHJhbnNsYXRlKDAsIDApIiBkYXRhLWlkPSJMX05OX09PXzAiIGNsYXNzPSJsYWJlbCI+PGZvcmVpZ25PYmplY3QgaGVpZ2h0PSIwIiB3aWR0aD0iMCI+PGRpdiB4bWxucz0iaHR0cDovL3d3dy53My5vcmcvMTk5OS94aHRtbCIgY2xhc3M9ImxhYmVsQmtnIiBzdHlsZT0iZGlzcGxheTogdGFibGUtY2VsbDsgd2hpdGUtc3BhY2U6IG5vcm1hbDsgbGluZS1oZWlnaHQ6IDEuNTsgbWF4LXdpZHRoOiAyMDBweDsgdGV4dC1hbGlnbjogY2VudGVyOyI+PHNwYW4gY2xhc3M9ImVkZ2VMYWJlbCI+PC9zcGFuPjwvZGl2PjwvZm9yZWlnbk9iamVjdD48L2c+PC9nPjxnIGNsYXNzPSJlZGdlTGFiZWwiPjxnIHRyYW5zZm9ybT0idHJhbnNsYXRlKDAsIDApIiBkYXRhLWlkPSJMX09PX1BQXzAiIGNsYXNzPSJsYWJlbCI+PGZvcmVpZ25PYmplY3QgaGVpZ2h0PSIwIiB3aWR0aD0iMCI+PGRpdiB4bWxucz0iaHR0cDovL3d3dy53My5vcmcvMTk5OS94aHRtbCIgY2xhc3M9ImxhYmVsQmtnIiBzdHlsZT0iZGlzcGxheTogdGFibGUtY2VsbDsgd2hpdGUtc3BhY2U6IG5vcm1hbDsgbGluZS1oZWlnaHQ6IDEuNTsgbWF4LXdpZHRoOiAyMDBweDsgdGV4dC1hbGlnbjogY2VudGVyOyI+PHNwYW4gY2xhc3M9ImVkZ2VMYWJlbCI+PC9zcGFuPjwvZGl2PjwvZm9yZWlnbk9iamVjdD48L2c+PC9nPjxnIHRyYW5zZm9ybT0idHJhbnNsYXRlKDUyOS45MjUwMDc4MjAxMjk0LCA1NjAzLjg1MDAxMzczMjkxKSIgY2xhc3M9ImVkZ2VMYWJlbCI+PGcgdHJhbnNmb3JtPSJ0cmFuc2xhdGUoLTE2Ljg2MjUwMTE0NDQwOTE4LCAtMTAuNSkiIGRhdGEtaWQ9IkxfUFBfTk5fMCIgY2xhc3M9ImxhYmVsIj48Zm9yZWlnbk9iamVjdCBoZWlnaHQ9IjIxIiB3aWR0aD0iMzMuNzI1MDAyMjg4ODE4MzYiPjxkaXYgeG1sbnM9Imh0dHA6Ly93d3cudzMub3JnLzE5OTkveGh0bWwiIGNsYXNzPSJsYWJlbEJrZyIgc3R5bGU9ImRpc3BsYXk6IHRhYmxlLWNlbGw7IHdoaXRlLXNwYWNlOiBub3JtYWw7IGxpbmUtaGVpZ2h0OiAxLjU7IG1heC13aWR0aDogMjAwcHg7IHRleHQtYWxpZ246IGNlbnRlcjsiPjxzcGFuIGNsYXNzPSJlZGdlTGFiZWwiPjxwPlRpZGFrPC9wPjwvc3Bhbj48L2Rpdj48L2ZvcmVpZ25PYmplY3Q+PC9nPjwvZz48ZyB0cmFuc2Zvcm09InRyYW5zbGF0ZSgxNTIuMzU2MjU0NTc3NjM2NzIsIDU4NzYuNjUwMDE2Nzg0NjY4KSIgY2xhc3M9ImVkZ2VMYWJlbCI+PGcgdHJhbnNmb3JtPSJ0cmFuc2xhdGUoLTQwLjQ2ODc1LCAtMTAuNSkiIGRhdGEtaWQ9IkxfUFBfUVFfMCIgY2xhc3M9ImxhYmVsIj48Zm9yZWlnbk9iamVjdCBoZWlnaHQ9IjIxIiB3aWR0aD0iODAuOTM3NSI+PGRpdiB4bWxucz0iaHR0cDovL3d3dy53My5vcmcvMTk5OS94aHRtbCIgY2xhc3M9ImxhYmVsQmtnIiBzdHlsZT0iZGlzcGxheTogdGFibGUtY2VsbDsgd2hpdGUtc3BhY2U6IG5vcm1hbDsgbGluZS1oZWlnaHQ6IDEuNTsgbWF4LXdpZHRoOiAyMDBweDsgdGV4dC1hbGlnbjogY2VudGVyOyI+PHNwYW4gY2xhc3M9ImVkZ2VMYWJlbCI+PHA+MSAtIE1haW4gTGFnaTwvcD48L3NwYW4+PC9kaXY+PC9mb3JlaWduT2JqZWN0PjwvZz48L2c+PGcgY2xhc3M9ImVkZ2VMYWJlbCI+PGcgdHJhbnNmb3JtPSJ0cmFuc2xhdGUoMCwgMCkiIGRhdGEtaWQ9IkxfUVFfSF8wIiBjbGFzcz0ibGFiZWwiPjxmb3JlaWduT2JqZWN0IGhlaWdodD0iMCIgd2lkdGg9IjAiPjxkaXYgeG1sbnM9Imh0dHA6Ly93d3cudzMub3JnLzE5OTkveGh0bWwiIGNsYXNzPSJsYWJlbEJrZyIgc3R5bGU9ImRpc3BsYXk6IHRhYmxlLWNlbGw7IHdoaXRlLXNwYWNlOiBub3JtYWw7IGxpbmUtaGVpZ2h0OiAxLjU7IG1heC13aWR0aDogMjAwcHg7IHRleHQtYWxpZ246IGNlbnRlcjsiPjxzcGFuIGNsYXNzPSJlZGdlTGFiZWwiPjwvc3Bhbj48L2Rpdj48L2ZvcmVpZ25PYmplY3Q+PC9nPjwvZz48ZyB0cmFuc2Zvcm09InRyYW5zbGF0ZSg1NzguMDE1NjMxNjc1NzIwMiwgNTg3Ni42NTAwMTY3ODQ2NjgpIiBjbGFzcz0iZWRnZUxhYmVsIj48ZyB0cmFuc2Zvcm09InRyYW5zbGF0ZSgtNjYuOTM3NSwgLTEwLjUpIiBkYXRhLWlkPSJMX1BQX1JSXzAiIGNsYXNzPSJsYWJlbCI+PGZvcmVpZ25PYmplY3QgaGVpZ2h0PSIyMSIgd2lkdGg9IjEzMy44NzUiPjxkaXYgeG1sbnM9Imh0dHA6Ly93d3cudzMub3JnLzE5OTkveGh0bWwiIGNsYXNzPSJsYWJlbEJrZyIgc3R5bGU9ImRpc3BsYXk6IHRhYmxlLWNlbGw7IHdoaXRlLXNwYWNlOiBub3JtYWw7IGxpbmUtaGVpZ2h0OiAxLjU7IG1heC13aWR0aDogMjAwcHg7IHRleHQtYWxpZ246IGNlbnRlcjsiPjxzcGFuIGNsYXNzPSJlZGdlTGFiZWwiPjxwPjIgLSBMaWhhdCBMZWFkZXJib2FyZDwvcD48L3NwYW4+PC9kaXY+PC9mb3JlaWduT2JqZWN0PjwvZz48L2c+PGcgY2xhc3M9ImVkZ2VMYWJlbCI+PGcgdHJhbnNmb3JtPSJ0cmFuc2xhdGUoMCwgMCkiIGRhdGEtaWQ9IkxfUlJfU1NfMCIgY2xhc3M9ImxhYmVsIj48Zm9yZWlnbk9iamVjdCBoZWlnaHQ9IjAiIHdpZHRoPSIwIj48ZGl2IHhtbG5zPSJodHRwOi8vd3d3LnczLm9yZy8xOTk5L3hodG1sIiBjbGFzcz0ibGFiZWxCa2ciIHN0eWxlPSJkaXNwbGF5OiB0YWJsZS1jZWxsOyB3aGl0ZS1zcGFjZTogbm9ybWFsOyBsaW5lLWhlaWdodDogMS41OyBtYXgtd2lkdGg6IDIwMHB4OyB0ZXh0LWFsaWduOiBjZW50ZXI7Ij48c3BhbiBjbGFzcz0iZWRnZUxhYmVsIj48L3NwYW4+PC9kaXY+PC9mb3JlaWduT2JqZWN0PjwvZz48L2c+PGcgY2xhc3M9ImVkZ2VMYWJlbCI+PGcgdHJhbnNmb3JtPSJ0cmFuc2xhdGUoMCwgMCkiIGRhdGEtaWQ9IkxfU1NfTk5fMCIgY2xhc3M9ImxhYmVsIj48Zm9yZWlnbk9iamVjdCBoZWlnaHQ9IjAiIHdpZHRoPSIwIj48ZGl2IHhtbG5zPSJodHRwOi8vd3d3LnczLm9yZy8xOTk5L3hodG1sIiBjbGFzcz0ibGFiZWxCa2ciIHN0eWxlPSJkaXNwbGF5OiB0YWJsZS1jZWxsOyB3aGl0ZS1zcGFjZTogbm9ybWFsOyBsaW5lLWhlaWdodDogMS41OyBtYXgtd2lkdGg6IDIwMHB4OyB0ZXh0LWFsaWduOiBjZW50ZXI7Ij48c3BhbiBjbGFzcz0iZWRnZUxhYmVsIj48L3NwYW4+PC9kaXY+PC9mb3JlaWduT2JqZWN0PjwvZz48L2c+PGcgdHJhbnNmb3JtPSJ0cmFuc2xhdGUoOTY2LjM0Njg4NDcyNzQ3OCwgNTg3Ni42NTAwMTY3ODQ2NjgpIiBjbGFzcz0iZWRnZUxhYmVsIj48ZyB0cmFuc2Zvcm09InRyYW5zbGF0ZSgtMzAuMzUwMDAwMzgxNDY5NzI3LCAtMTAuNSkiIGRhdGEtaWQ9IkxfUFBfVFRfMCIgY2xhc3M9ImxhYmVsIj48Zm9yZWlnbk9iamVjdCBoZWlnaHQ9IjIxIiB3aWR0aD0iNjAuNzAwMDAwNzYyOTM5NDUiPjxkaXYgeG1sbnM9Imh0dHA6Ly93d3cudzMub3JnLzE5OTkveGh0bWwiIGNsYXNzPSJsYWJlbEJrZyIgc3R5bGU9ImRpc3BsYXk6IHRhYmxlLWNlbGw7IHdoaXRlLXNwYWNlOiBub3JtYWw7IGxpbmUtaGVpZ2h0OiAxLjU7IG1heC13aWR0aDogMjAwcHg7IHRleHQtYWxpZ246IGNlbnRlcjsiPjxzcGFuIGNsYXNzPSJlZGdlTGFiZWwiPjxwPjMgLSBLZWx1YXI8L3A+PC9zcGFuPjwvZGl2PjwvZm9yZWlnbk9iamVjdD48L2c+PC9nPjxnIGNsYXNzPSJlZGdlTGFiZWwiPjxnIHRyYW5zZm9ybT0idHJhbnNsYXRlKDAsIDApIiBkYXRhLWlkPSJMX1RUX1VVXzAiIGNsYXNzPSJsYWJlbCI+PGZvcmVpZ25PYmplY3QgaGVpZ2h0PSIwIiB3aWR0aD0iMCI+PGRpdiB4bWxucz0iaHR0cDovL3d3dy53My5vcmcvMTk5OS94aHRtbCIgY2xhc3M9ImxhYmVsQmtnIiBzdHlsZT0iZGlzcGxheTogdGFibGUtY2VsbDsgd2hpdGUtc3BhY2U6IG5vcm1hbDsgbGluZS1oZWlnaHQ6IDEuNTsgbWF4LXdpZHRoOiAyMDBweDsgdGV4dC1hbGlnbjogY2VudGVyOyI+PHNwYW4gY2xhc3M9ImVkZ2VMYWJlbCI+PC9zcGFuPjwvZGl2PjwvZm9yZWlnbk9iamVjdD48L2c+PC9nPjwvZz48ZyBjbGFzcz0ibm9kZXMiPjxnIHRyYW5zZm9ybT0idHJhbnNsYXRlKDI2OS42NDA2Mjk3NjgzNzE2LCAzMC41KSIgZGF0YS1sb29rPSJuZW8iIGRhdGEtZXQ9Im5vZGUiIGRhdGEtbm9kZT0idHJ1ZSIgZGF0YS1pZD0iQSIgaWQ9ImZsb3djaGFydC1BLTAiIGNsYXNzPSJub2RlIGRlZmF1bHQiPjxyZWN0IHN0cm9rZT0idXJsKCNncmFkaWVudCkiIGhlaWdodD0iNDUiIHdpZHRoPSIxMDcuNDc0OTk4NDc0MTIxMSIgeT0iLTIyLjUiIHg9Ii01My43Mzc0OTkyMzcwNjA1NSIgZGF0YS1pZD0iQSIgc3R5bGU9ImZpbGw6I2UxZjVmZSAhaW1wb3J0YW50IiBjbGFzcz0iYmFzaWMgbGFiZWwtY29udGFpbmVyIi8+PGcgdHJhbnNmb3JtPSJ0cmFuc2xhdGUoLTM3LjczNzQ5OTIzNzA2MDU1LCAtMTAuNSkiIHN0eWxlPSIiIGNsYXNzPSJsYWJlbCI+PHJlY3QvPjxmb3JlaWduT2JqZWN0IGhlaWdodD0iMjEiIHdpZHRoPSI3NS40NzQ5OTg0NzQxMjExIj48ZGl2IHhtbG5zPSJodHRwOi8vd3d3LnczLm9yZy8xOTk5L3hodG1sIiBzdHlsZT0iZGlzcGxheTogdGFibGUtY2VsbDsgd2hpdGUtc3BhY2U6IG5vcm1hbDsgbGluZS1oZWlnaHQ6IDEuNTsgbWF4LXdpZHRoOiAyMDBweDsgdGV4dC1hbGlnbjogY2VudGVyOyI+PHNwYW4gY2xhc3M9Im5vZGVMYWJlbCI+PHA+TXVsYWkgR2FtZTwvcD48L3NwYW4+PC9kaXY+PC9mb3JlaWduT2JqZWN0PjwvZz48L2c+PGcgdHJhbnNmb3JtPSJ0cmFuc2xhdGUoMjY5LjY0MDYyOTc2ODM3MTYsIDEyNS41KSIgZGF0YS1sb29rPSJuZW8iIGRhdGEtZXQ9Im5vZGUiIGRhdGEtbm9kZT0idHJ1ZSIgZGF0YS1pZD0iQiIgaWQ9ImZsb3djaGFydC1CLTEiIGNsYXNzPSJub2RlIGRlZmF1bHQiPjxyZWN0IHN0cm9rZT0idXJsKCNncmFkaWVudCkiIGhlaWdodD0iNDUiIHdpZHRoPSIyMDIuMTYyNTA2MTAzNTE1NjIiIHk9Ii0yMi41IiB4PSItMTAxLjA4MTI1MzA1MTc1NzgxIiBkYXRhLWlkPSJCIiBzdHlsZT0iIiBjbGFzcz0iYmFzaWMgbGFiZWwtY29udGFpbmVyIi8+PGcgdHJhbnNmb3JtPSJ0cmFuc2xhdGUoLTg1LjA4MTI1MzA1MTc1NzgxLCAtMTAuNSkiIHN0eWxlPSIiIGNsYXNzPSJsYWJlbCI+PHJlY3QvPjxmb3JlaWduT2JqZWN0IGhlaWdodD0iMjEiIHdpZHRoPSIxNzAuMTYyNTA2MTAzNTE1NjIiPjxkaXYgeG1sbnM9Imh0dHA6Ly93d3cudzMub3JnLzE5OTkveGh0bWwiIHN0eWxlPSJkaXNwbGF5OiB0YWJsZS1jZWxsOyB3aGl0ZS1zcGFjZTogbm9ybWFsOyBsaW5lLWhlaWdodDogMS41OyBtYXgtd2lkdGg6IDIwMHB4OyB0ZXh0LWFsaWduOiBjZW50ZXI7Ij48c3BhbiBjbGFzcz0ibm9kZUxhYmVsIj48cD5TZXR1cCBUZXJtaW5hbCB1bnR1ayBFbW9qaTwvcD48L3NwYW4+PC9kaXY+PC9mb3JlaWduT2JqZWN0PjwvZz48L2c+PGcgdHJhbnNmb3JtPSJ0cmFuc2xhdGUoMjY5LjY0MDYyOTc2ODM3MTYsIDIyMC41KSIgZGF0YS1sb29rPSJuZW8iIGRhdGEtZXQ9Im5vZGUiIGRhdGEtbm9kZT0idHJ1ZSIgZGF0YS1pZD0iQyIgaWQ9ImZsb3djaGFydC1DLTMiIGNsYXNzPSJub2RlIGRlZmF1bHQiPjxwb2x5Z29uIHN0eWxlPSJmaWxsOiNlOGY1ZTggIWltcG9ydGFudCIgdHJhbnNmb3JtPSJ0cmFuc2xhdGUoLTc1LjUzMTI1LDIyLjUpIiBjbGFzcz0ibGFiZWwtY29udGFpbmVyIiBwb2ludHM9Ii0yMi41LDAgMTUxLjA2MjUsMCAxNzMuNTYyNSwtNDUgMCwtNDUiLz48ZyB0cmFuc2Zvcm09InRyYW5zbGF0ZSgtNjYuNTMxMjUsIC0xMC41KSIgc3R5bGU9IiIgY2xhc3M9ImxhYmVsIj48cmVjdC8+PGZvcmVpZ25PYmplY3QgaGVpZ2h0PSIyMSIgd2lkdGg9IjEzMy4wNjI1Ij48ZGl2IHhtbG5zPSJodHRwOi8vd3d3LnczLm9yZy8xOTk5L3hodG1sIiBzdHlsZT0iZGlzcGxheTogdGFibGUtY2VsbDsgd2hpdGUtc3BhY2U6IG5vcm1hbDsgbGluZS1oZWlnaHQ6IDEuNTsgbWF4LXdpZHRoOiAyMDBweDsgdGV4dC1hbGlnbjogY2VudGVyOyI+PHNwYW4gY2xhc3M9Im5vZGVMYWJlbCI+PHA+VXNlciBJbnB1dCBVc2VybmFtZTwvcD48L3NwYW4+PC9kaXY+PC9mb3JlaWduT2JqZWN0PjwvZz48L2c+PGcgdHJhbnNmb3JtPSJ0cmFuc2xhdGUoMjY5LjY0MDYyOTc2ODM3MTYsIDQ0NCkiIGRhdGEtbG9vaz0ibmVvIiBkYXRhLWV0PSJub2RlIiBkYXRhLW5vZGU9InRydWUiIGRhdGEtaWQ9IkQiIGlkPSJmbG93Y2hhcnQtRC01IiBjbGFzcz0ibm9kZSBkZWZhdWx0Ij48cG9seWdvbiB0cmFuc2Zvcm09InRyYW5zbGF0ZSgtMTMwLDEzMCkiIGNsYXNzPSJsYWJlbC1jb250YWluZXIiIHBvaW50cz0iMTMwLDAgMjYwLC0xMzAgMTMwLC0yNjAgMCwtMTMwIi8+PGcgdHJhbnNmb3JtPSJ0cmFuc2xhdGUoLTEwMCwgLTMxLjUpIiBzdHlsZT0iIiBjbGFzcz0ibGFiZWwiPjxyZWN0Lz48Zm9yZWlnbk9iamVjdCBoZWlnaHQ9IjYzIiB3aWR0aD0iMjAwIj48ZGl2IHhtbG5zPSJodHRwOi8vd3d3LnczLm9yZy8xOTk5L3hodG1sIiBzdHlsZT0iZGlzcGxheTogdGFibGU7IHdoaXRlLXNwYWNlOiBicmVhay1zcGFjZXM7IGxpbmUtaGVpZ2h0OiAxLjU7IG1heC13aWR0aDogMjAwcHg7IHRleHQtYWxpZ246IGNlbnRlcjsgd2lkdGg6IDIwMHB4OyI+PHNwYW4gY2xhc3M9Im5vZGVMYWJlbCI+PHA+VXNlcm5hbWUgVmFsaWQ/PGJyIC8+TWluIDMga2FyYWt0ZXIsIGh1cnVmL2FuZ2thL3VuZGVyc2NvcmU8L3A+PC9zcGFuPjwvZGl2PjwvZm9yZWlnbk9iamVjdD48L2c+PC9nPjxnIHRyYW5zZm9ybT0idHJhbnNsYXRlKDI2OS42NDA2Mjk3NjgzNzE2LCA3NjIuODEyNSkiIGRhdGEtbG9vaz0ibmVvIiBkYXRhLWV0PSJub2RlIiBkYXRhLW5vZGU9InRydWUiIGRhdGEtaWQ9IkUiIGlkPSJmbG93Y2hhcnQtRS05IiBjbGFzcz0ibm9kZSBkZWZhdWx0Ij48cG9seWdvbiB0cmFuc2Zvcm09InRyYW5zbGF0ZSgtMTE3LjgxMjUsMTE3LjgxMjUpIiBjbGFzcz0ibGFiZWwtY29udGFpbmVyIiBwb2ludHM9IjExNy44MTI1LDAgMjM1LjYyNSwtMTE3LjgxMjUgMTE3LjgxMjUsLTIzNS42MjUgMCwtMTE3LjgxMjUiLz48ZyB0cmFuc2Zvcm09InRyYW5zbGF0ZSgtODcuODEyNSwgLTEwLjUpIiBzdHlsZT0iIiBjbGFzcz0ibGFiZWwiPjxyZWN0Lz48Zm9yZWlnbk9iamVjdCBoZWlnaHQ9IjIxIiB3aWR0aD0iMTc1LjYyNSI+PGRpdiB4bWxucz0iaHR0cDovL3d3dy53My5vcmcvMTk5OS94aHRtbCIgc3R5bGU9ImRpc3BsYXk6IHRhYmxlLWNlbGw7IHdoaXRlLXNwYWNlOiBub3JtYWw7IGxpbmUtaGVpZ2h0OiAxLjU7IG1heC13aWR0aDogMjAwcHg7IHRleHQtYWxpZ246IGNlbnRlcjsiPjxzcGFuIGNsYXNzPSJub2RlTGFiZWwiPjxwPlVzZXJuYW1lIFN1ZGFoIFRlcmRhZnRhcj88L3A+PC9zcGFuPjwvZGl2PjwvZm9yZWlnbk9iamVjdD48L2c+PC9nPjxnIHRyYW5zZm9ybT0idHJhbnNsYXRlKDM5Ny43NTkzODEyOTQyNTA1LCA5ODQuNjI1KSIgZGF0YS1sb29rPSJuZW8iIGRhdGEtZXQ9Im5vZGUiIGRhdGEtbm9kZT0idHJ1ZSIgZGF0YS1pZD0iRiIgaWQ9ImZsb3djaGFydC1GLTExIiBjbGFzcz0ibm9kZSBkZWZhdWx0Ij48cG9seWdvbiBzdHlsZT0iZmlsbDojZTNmMmZkICFpbXBvcnRhbnQiIHRyYW5zZm9ybT0idHJhbnNsYXRlKC05Mi42NTYyNSwzMykiIGNsYXNzPSJsYWJlbC1jb250YWluZXIiIHBvaW50cz0iLTMzLDAgMTg1LjMxMjUsMCAyMTguMzEyNSwtNjYgMCwtNjYiLz48ZyB0cmFuc2Zvcm09InRyYW5zbGF0ZSgtODMuNjU2MjUsIC0yMSkiIHN0eWxlPSIiIGNsYXNzPSJsYWJlbCI+PHJlY3QvPjxmb3JlaWduT2JqZWN0IGhlaWdodD0iNDIiIHdpZHRoPSIxNjcuMzEyNSI+PGRpdiB4bWxucz0iaHR0cDovL3d3dy53My5vcmcvMTk5OS94aHRtbCIgc3R5bGU9ImRpc3BsYXk6IHRhYmxlLWNlbGw7IHdoaXRlLXNwYWNlOiBub3JtYWw7IGxpbmUtaGVpZ2h0OiAxLjU7IG1heC13aWR0aDogMjAwcHg7IHRleHQtYWxpZ246IGNlbnRlcjsiPjxzcGFuIGNsYXNzPSJub2RlTGFiZWwiPjxwPlRhbXBpbGthbiBTZWxhbWF0IERhdGFuZzxiciAvPmRlbmdhbiBIaWdoIFNjb3JlIExhbWE8L3A+PC9zcGFuPjwvZGl2PjwvZm9yZWlnbk9iamVjdD48L2c+PC9nPjxnIHRyYW5zZm9ybT0idHJhbnNsYXRlKDE0MS41MjE4NzgyNDI0OTI2OCwgOTg0LjYyNSkiIGRhdGEtbG9vaz0ibmVvIiBkYXRhLWV0PSJub2RlIiBkYXRhLW5vZGU9InRydWUiIGRhdGEtaWQ9IkciIGlkPSJmbG93Y2hhcnQtRy0xMyIgY2xhc3M9Im5vZGUgZGVmYXVsdCI+PHJlY3Qgc3Ryb2tlPSJ1cmwoI2dyYWRpZW50KSIgaGVpZ2h0PSI2NiIgd2lkdGg9IjE2MS4xNjI1MDYxMDM1MTU2MiIgeT0iLTMzIiB4PSItODAuNTgxMjUzMDUxNzU3ODEiIGRhdGEtaWQ9IkciIHN0eWxlPSIiIGNsYXNzPSJiYXNpYyBsYWJlbC1jb250YWluZXIiLz48ZyB0cmFuc2Zvcm09InRyYW5zbGF0ZSgtNjQuNTgxMjUzMDUxNzU3ODEsIC0yMSkiIHN0eWxlPSIiIGNsYXNzPSJsYWJlbCI+PHJlY3QvPjxmb3JlaWduT2JqZWN0IGhlaWdodD0iNDIiIHdpZHRoPSIxMjkuMTYyNTA2MTAzNTE1NjIiPjxkaXYgeG1sbnM9Imh0dHA6Ly93d3cudzMub3JnLzE5OTkveGh0bWwiIHN0eWxlPSJkaXNwbGF5OiB0YWJsZS1jZWxsOyB3aGl0ZS1zcGFjZTogbm9ybWFsOyBsaW5lLWhlaWdodDogMS41OyBtYXgtd2lkdGg6IDIwMHB4OyB0ZXh0LWFsaWduOiBjZW50ZXI7Ij48c3BhbiBjbGFzcz0ibm9kZUxhYmVsIj48cD5SZWdpc3RyYXNpIFVzZXIgQmFydTxiciAvPlNldCBIaWdoIFNjb3JlID0gMDwvcD48L3NwYW4+PC9kaXY+PC9mb3JlaWduT2JqZWN0PjwvZz48L2c+PGcgdHJhbnNmb3JtPSJ0cmFuc2xhdGUoMjY5LjY0MDYyOTc2ODM3MTYsIDExMDAuNjI1KSIgZGF0YS1sb29rPSJuZW8iIGRhdGEtZXQ9Im5vZGUiIGRhdGEtbm9kZT0idHJ1ZSIgZGF0YS1pZD0iSCIgaWQ9ImZsb3djaGFydC1ILTE1IiBjbGFzcz0ibm9kZSBkZWZhdWx0Ij48cG9seWdvbiBzdHlsZT0iZmlsbDojZTNmMmZkICFpbXBvcnRhbnQiIHRyYW5zZm9ybT0idHJhbnNsYXRlKC03Ny44ODEyNDg0NzQxMjExLDMzKSIgY2xhc3M9ImxhYmVsLWNvbnRhaW5lciIgcG9pbnRzPSItMzMsMCAxNTUuNzYyNDk2OTQ4MjQyMiwwIDE4OC43NjI0OTY5NDgyNDIyLC02NiAwLC02NiIvPjxnIHRyYW5zZm9ybT0idHJhbnNsYXRlKC02OC44ODEyNDg0NzQxMjExLCAtMjEpIiBzdHlsZT0iIiBjbGFzcz0ibGFiZWwiPjxyZWN0Lz48Zm9yZWlnbk9iamVjdCBoZWlnaHQ9IjQyIiB3aWR0aD0iMTM3Ljc2MjQ5Njk0ODI0MjIiPjxkaXYgeG1sbnM9Imh0dHA6Ly93d3cudzMub3JnLzE5OTkveGh0bWwiIHN0eWxlPSJkaXNwbGF5OiB0YWJsZS1jZWxsOyB3aGl0ZS1zcGFjZTogbm9ybWFsOyBsaW5lLWhlaWdodDogMS41OyBtYXgtd2lkdGg6IDIwMHB4OyB0ZXh0LWFsaWduOiBjZW50ZXI7Ij48c3BhbiBjbGFzcz0ibm9kZUxhYmVsIj48cD5UYW1waWxrYW4gSW50cm8gR2FtZTxiciAvPmRhbiBQZXR1bmp1ayBCZXJtYWluPC9wPjwvc3Bhbj48L2Rpdj48L2ZvcmVpZ25PYmplY3Q+PC9nPjwvZz48ZyB0cmFuc2Zvcm09InRyYW5zbGF0ZSgzOTEuMDE1NjI5NzY4MzcxNiwgMTIxNi42MjUpIiBkYXRhLWxvb2s9Im5lbyIgZGF0YS1ldD0ibm9kZSIgZGF0YS1ub2RlPSJ0cnVlIiBkYXRhLWlkPSJJIiBpZD0iZmxvd2NoYXJ0LUktMTkiIGNsYXNzPSJub2RlIGRlZmF1bHQiPjxwb2x5Z29uIHN0eWxlPSJmaWxsOiNlOGY1ZTggIWltcG9ydGFudCIgdHJhbnNmb3JtPSJ0cmFuc2xhdGUoLTg4LjM3NSwzMykiIGNsYXNzPSJsYWJlbC1jb250YWluZXIiIHBvaW50cz0iLTMzLDAgMTc2Ljc1LDAgMjA5Ljc1LC02NiAwLC02NiIvPjxnIHRyYW5zZm9ybT0idHJhbnNsYXRlKC03OS4zNzUsIC0yMSkiIHN0eWxlPSIiIGNsYXNzPSJsYWJlbCI+PHJlY3QvPjxmb3JlaWduT2JqZWN0IGhlaWdodD0iNDIiIHdpZHRoPSIxNTguNzUiPjxkaXYgeG1sbnM9Imh0dHA6Ly93d3cudzMub3JnLzE5OTkveGh0bWwiIHN0eWxlPSJkaXNwbGF5OiB0YWJsZS1jZWxsOyB3aGl0ZS1zcGFjZTogbm9ybWFsOyBsaW5lLWhlaWdodDogMS41OyBtYXgtd2lkdGg6IDIwMHB4OyB0ZXh0LWFsaWduOiBjZW50ZXI7Ij48c3BhbiBjbGFzcz0ibm9kZUxhYmVsIj48cD5Vc2VyIFBpbGloIExldmVsIEtlc3VsaXRhbjxiciAvPjEtNSBydW1haDwvcD48L3NwYW4+PC9kaXY+PC9mb3JlaWduT2JqZWN0PjwvZz48L2c+PGcgdHJhbnNmb3JtPSJ0cmFuc2xhdGUoMzkxLjAxNTYyOTc2ODM3MTYsIDEzODQuMzU2MjUwNzYyOTM5NSkiIGRhdGEtbG9vaz0ibmVvIiBkYXRhLWV0PSJub2RlIiBkYXRhLW5vZGU9InRydWUiIGRhdGEtaWQ9IkoiIGlkPSJmbG93Y2hhcnQtSi0yMSIgY2xhc3M9Im5vZGUgZGVmYXVsdCI+PHBvbHlnb24gdHJhbnNmb3JtPSJ0cmFuc2xhdGUoLTYzLjczMTI1MDc2MjkzOTQ1LDYzLjczMTI1MDc2MjkzOTQ1KSIgY2xhc3M9ImxhYmVsLWNvbnRhaW5lciIgcG9pbnRzPSI2My43MzEyNTA3NjI5Mzk0NSwwIDEyNy40NjI1MDE1MjU4Nzg5LC02My43MzEyNTA3NjI5Mzk0NSA2My43MzEyNTA3NjI5Mzk0NSwtMTI3LjQ2MjUwMTUyNTg3ODkgMCwtNjMuNzMxMjUwNzYyOTM5NDUiLz48ZyB0cmFuc2Zvcm09InRyYW5zbGF0ZSgtMzMuNzMxMjUwNzYyOTM5NDUsIC0yMSkiIHN0eWxlPSIiIGNsYXNzPSJsYWJlbCI+PHJlY3QvPjxmb3JlaWduT2JqZWN0IGhlaWdodD0iNDIiIHdpZHRoPSI2Ny40NjI1MDE1MjU4Nzg5Ij48ZGl2IHhtbG5zPSJodHRwOi8vd3d3LnczLm9yZy8xOTk5L3hodG1sIiBzdHlsZT0iZGlzcGxheTogdGFibGUtY2VsbDsgd2hpdGUtc3BhY2U6IG5vcm1hbDsgbGluZS1oZWlnaHQ6IDEuNTsgbWF4LXdpZHRoOiAyMDBweDsgdGV4dC1hbGlnbjogY2VudGVyOyI+PHNwYW4gY2xhc3M9Im5vZGVMYWJlbCI+PHA+TGV2ZWwgVmFsaWQ8YnIgLz4xLTU/PC9wPjwvc3Bhbj48L2Rpdj48L2ZvcmVpZ25PYmplY3Q+PC9nPjwvZz48ZyB0cmFuc2Zvcm09InRyYW5zbGF0ZSgzOTEuMDE1NjI5NzY4MzcxNiwgMTU2Mi41ODc1MDE1MjU4NzkpIiBkYXRhLWxvb2s9Im5lbyIgZGF0YS1ldD0ibm9kZSIgZGF0YS1ub2RlPSJ0cnVlIiBkYXRhLWlkPSJLIiBpZD0iZmxvd2NoYXJ0LUstMjUiIGNsYXNzPSJub2RlIGRlZmF1bHQiPjxyZWN0IHN0cm9rZT0idXJsKCNncmFkaWVudCkiIGhlaWdodD0iODciIHdpZHRoPSIyMzIiIHk9Ii00My41IiB4PSItMTE2IiBkYXRhLWlkPSJLIiBzdHlsZT0iIiBjbGFzcz0iYmFzaWMgbGFiZWwtY29udGFpbmVyIi8+PGcgdHJhbnNmb3JtPSJ0cmFuc2xhdGUoLTEwMCwgLTMxLjUpIiBzdHlsZT0iIiBjbGFzcz0ibGFiZWwiPjxyZWN0Lz48Zm9yZWlnbk9iamVjdCBoZWlnaHQ9IjYzIiB3aWR0aD0iMjAwIj48ZGl2IHhtbG5zPSJodHRwOi8vd3d3LnczLm9yZy8xOTk5L3hodG1sIiBzdHlsZT0iZGlzcGxheTogdGFibGU7IHdoaXRlLXNwYWNlOiBicmVhay1zcGFjZXM7IGxpbmUtaGVpZ2h0OiAxLjU7IG1heC13aWR0aDogMjAwcHg7IHRleHQtYWxpZ246IGNlbnRlcjsgd2lkdGg6IDIwMHB4OyI+PHNwYW4gY2xhc3M9Im5vZGVMYWJlbCI+PHA+R2VuZXJhdGUgUGV0YSBHYW1lPGJyIC8+VGVtcGF0a2FuIHJ1bWFoLCBwYWtldCwgdGVtYm9rPC9wPjwvc3Bhbj48L2Rpdj48L2ZvcmVpZ25PYmplY3Q+PC9nPjwvZz48ZyB0cmFuc2Zvcm09InRyYW5zbGF0ZSgzOTEuMDE1NjI5NzY4MzcxNiwgMTY4OS4wODc1MDE1MjU4NzkpIiBkYXRhLWxvb2s9Im5lbyIgZGF0YS1ldD0ibm9kZSIgZGF0YS1ub2RlPSJ0cnVlIiBkYXRhLWlkPSJMIiBpZD0iZmxvd2NoYXJ0LUwtMjciIGNsYXNzPSJub2RlIGRlZmF1bHQiPjxyZWN0IHN0cm9rZT0idXJsKCNncmFkaWVudCkiIGhlaWdodD0iNjYiIHdpZHRoPSIxNjguOTc1MDA2MTAzNTE1NjIiIHk9Ii0zMyIgeD0iLTg0LjQ4NzUwMzA1MTc1NzgxIiBkYXRhLWlkPSJMIiBzdHlsZT0iIiBjbGFzcz0iYmFzaWMgbGFiZWwtY29udGFpbmVyIi8+PGcgdHJhbnNmb3JtPSJ0cmFuc2xhdGUoLTY4LjQ4NzUwMzA1MTc1NzgxLCAtMjEpIiBzdHlsZT0iIiBjbGFzcz0ibGFiZWwiPjxyZWN0Lz48Zm9yZWlnbk9iamVjdCBoZWlnaHQ9IjQyIiB3aWR0aD0iMTM2Ljk3NTAwNjEwMzUxNTYyIj48ZGl2IHhtbG5zPSJodHRwOi8vd3d3LnczLm9yZy8xOTk5L3hodG1sIiBzdHlsZT0iZGlzcGxheTogdGFibGUtY2VsbDsgd2hpdGUtc3BhY2U6IG5vcm1hbDsgbGluZS1oZWlnaHQ6IDEuNTsgbWF4LXdpZHRoOiAyMDBweDsgdGV4dC1hbGlnbjogY2VudGVyOyI+PHNwYW4gY2xhc3M9Im5vZGVMYWJlbCI+PHA+QmFuZ3VuIEdyYWYgTmF2aWdhc2k8YnIgLz51bnR1ayBQYXRoZmluZGluZzwvcD48L3NwYW4+PC9kaXY+PC9mb3JlaWduT2JqZWN0PjwvZz48L2c+PGcgdHJhbnNmb3JtPSJ0cmFuc2xhdGUoMzkxLjAxNTYyOTc2ODM3MTYsIDE4MDUuMDg3NTAxNTI1ODc5KSIgZGF0YS1sb29rPSJuZW8iIGRhdGEtZXQ9Im5vZGUiIGRhdGEtbm9kZT0idHJ1ZSIgZGF0YS1pZD0iTSIgaWQ9ImZsb3djaGFydC1NLTI5IiBjbGFzcz0ibm9kZSBkZWZhdWx0Ij48cmVjdCBzdHJva2U9InVybCgjZ3JhZGllbnQpIiBoZWlnaHQ9IjY2IiB3aWR0aD0iMTUyLjg2MjUwMzA1MTc1NzgiIHk9Ii0zMyIgeD0iLTc2LjQzMTI1MTUyNTg3ODkiIGRhdGEtaWQ9Ik0iIHN0eWxlPSIiIGNsYXNzPSJiYXNpYyBsYWJlbC1jb250YWluZXIiLz48ZyB0cmFuc2Zvcm09InRyYW5zbGF0ZSgtNjAuNDMxMjUxNTI1ODc4OTA2LCAtMjEpIiBzdHlsZT0iIiBjbGFzcz0ibGFiZWwiPjxyZWN0Lz48Zm9yZWlnbk9iamVjdCBoZWlnaHQ9IjQyIiB3aWR0aD0iMTIwLjg2MjUwMzA1MTc1NzgxIj48ZGl2IHhtbG5zPSJodHRwOi8vd3d3LnczLm9yZy8xOTk5L3hodG1sIiBzdHlsZT0iZGlzcGxheTogdGFibGUtY2VsbDsgd2hpdGUtc3BhY2U6IG5vcm1hbDsgbGluZS1oZWlnaHQ6IDEuNTsgbWF4LXdpZHRoOiAyMDBweDsgdGV4dC1hbGlnbjogY2VudGVyOyI+PHNwYW4gY2xhc3M9Im5vZGVMYWJlbCI+PHA+U2V0IFRpbWVyIEdhbWU8YnIgLz5NdWxhaSBIaXR1bmcgV2FrdHU8L3A+PC9zcGFuPjwvZGl2PjwvZm9yZWlnbk9iamVjdD48L2c+PC9nPjxnIHRyYW5zZm9ybT0idHJhbnNsYXRlKDM5MS4wMTU2Mjk3NjgzNzE2LCAxOTIxLjA4NzUwMTUyNTg3OSkiIGRhdGEtbG9vaz0ibmVvIiBkYXRhLWV0PSJub2RlIiBkYXRhLW5vZGU9InRydWUiIGRhdGEtaWQ9Ik4iIGlkPSJmbG93Y2hhcnQtTi0zMSIgY2xhc3M9Im5vZGUgZGVmYXVsdCI+PHBvbHlnb24gc3R5bGU9ImZpbGw6I2UzZjJmZCAhaW1wb3J0YW50IiB0cmFuc2Zvcm09InRyYW5zbGF0ZSgtNzcuODY4NzUxNTI1ODc4OSwzMykiIGNsYXNzPSJsYWJlbC1jb250YWluZXIiIHBvaW50cz0iLTMzLDAgMTU1LjczNzUwMzA1MTc1NzgsMCAxODguNzM3NTAzMDUxNzU3OCwtNjYgMCwtNjYiLz48ZyB0cmFuc2Zvcm09InRyYW5zbGF0ZSgtNjguODY4NzUxNTI1ODc4OSwgLTIxKSIgc3R5bGU9IiIgY2xhc3M9ImxhYmVsIj48cmVjdC8+PGZvcmVpZ25PYmplY3QgaGVpZ2h0PSI0MiIgd2lkdGg9IjEzNy43Mzc1MDMwNTE3NTc4Ij48ZGl2IHhtbG5zPSJodHRwOi8vd3d3LnczLm9yZy8xOTk5L3hodG1sIiBzdHlsZT0iZGlzcGxheTogdGFibGUtY2VsbDsgd2hpdGUtc3BhY2U6IG5vcm1hbDsgbGluZS1oZWlnaHQ6IDEuNTsgbWF4LXdpZHRoOiAyMDBweDsgdGV4dC1hbGlnbjogY2VudGVyOyI+PHNwYW4gY2xhc3M9Im5vZGVMYWJlbCI+PHA+VGFtcGlsa2FuIFBldGEgR2FtZTxiciAvPmRlbmdhbiBQb3Npc2kgS3VyaXI8L3A+PC9zcGFuPjwvZGl2PjwvZm9yZWlnbk9iamVjdD48L2c+PC9nPjxnIHRyYW5zZm9ybT0idHJhbnNsYXRlKDk1OC40OTA2MzExMDM1MTU2LCAyMDM3LjA4NzUwMTUyNTg3OSkiIGRhdGEtbG9vaz0ibmVvIiBkYXRhLWV0PSJub2RlIiBkYXRhLW5vZGU9InRydWUiIGRhdGEtaWQ9Ik8iIGlkPSJmbG93Y2hhcnQtTy0zMyIgY2xhc3M9Im5vZGUgZGVmYXVsdCI+PHBvbHlnb24gc3R5bGU9ImZpbGw6I2U4ZjVlOCAhaW1wb3J0YW50IiB0cmFuc2Zvcm09InRyYW5zbGF0ZSgtNzAuMDg3NTAxNTI1ODc4OSwzMykiIGNsYXNzPSJsYWJlbC1jb250YWluZXIiIHBvaW50cz0iLTMzLDAgMTQwLjE3NTAwMzA1MTc1NzgsMCAxNzMuMTc1MDAzMDUxNzU3OCwtNjYgMCwtNjYiLz48ZyB0cmFuc2Zvcm09InRyYW5zbGF0ZSgtNjEuMDg3NTAxNTI1ODc4OTA2LCAtMjEpIiBzdHlsZT0iIiBjbGFzcz0ibGFiZWwiPjxyZWN0Lz48Zm9yZWlnbk9iamVjdCBoZWlnaHQ9IjQyIiB3aWR0aD0iMTIyLjE3NTAwMzA1MTc1NzgxIj48ZGl2IHhtbG5zPSJodHRwOi8vd3d3LnczLm9yZy8xOTk5L3hodG1sIiBzdHlsZT0iZGlzcGxheTogdGFibGUtY2VsbDsgd2hpdGUtc3BhY2U6IG5vcm1hbDsgbGluZS1oZWlnaHQ6IDEuNTsgbWF4LXdpZHRoOiAyMDBweDsgdGV4dC1hbGlnbjogY2VudGVyOyI+PHNwYW4gY2xhc3M9Im5vZGVMYWJlbCI+PHA+VXNlciBJbnB1dCBHZXJha2FuPGJyIC8+Vy9BL1MvRCBhdGF1IFE8L3A+PC9zcGFuPjwvZGl2PjwvZm9yZWlnbk9iamVjdD48L2c+PC9nPjxnIHRyYW5zZm9ybT0idHJhbnNsYXRlKDk1OC40OTA2MzExMDM1MTU2LCAyMTg2LjU0Mzc1NDU3NzYzNjcpIiBkYXRhLWxvb2s9Im5lbyIgZGF0YS1ldD0ibm9kZSIgZGF0YS1ub2RlPSJ0cnVlIiBkYXRhLWlkPSJQIiBpZD0iZmxvd2NoYXJ0LVAtMzUiIGNsYXNzPSJub2RlIGRlZmF1bHQiPjxwb2x5Z29uIHRyYW5zZm9ybT0idHJhbnNsYXRlKC02Ni40NTYyNDkyMzcwNjA1NSw2Ni40NTYyNDkyMzcwNjA1NSkiIGNsYXNzPSJsYWJlbC1jb250YWluZXIiIHBvaW50cz0iNjYuNDU2MjQ5MjM3MDYwNTUsMCAxMzIuOTEyNDk4NDc0MTIxMSwtNjYuNDU2MjQ5MjM3MDYwNTUgNjYuNDU2MjQ5MjM3MDYwNTUsLTEzMi45MTI0OTg0NzQxMjExIDAsLTY2LjQ1NjI0OTIzNzA2MDU1Ii8+PGcgdHJhbnNmb3JtPSJ0cmFuc2xhdGUoLTM2LjQ1NjI0OTIzNzA2MDU1LCAtMTAuNSkiIHN0eWxlPSIiIGNsYXNzPSJsYWJlbCI+PHJlY3QvPjxmb3JlaWduT2JqZWN0IGhlaWdodD0iMjEiIHdpZHRoPSI3Mi45MTI0OTg0NzQxMjExIj48ZGl2IHhtbG5zPSJodHRwOi8vd3d3LnczLm9yZy8xOTk5L3hodG1sIiBzdHlsZT0iZGlzcGxheTogdGFibGUtY2VsbDsgd2hpdGUtc3BhY2U6IG5vcm1hbDsgbGluZS1oZWlnaHQ6IDEuNTsgbWF4LXdpZHRoOiAyMDBweDsgdGV4dC1hbGlnbjogY2VudGVyOyI+PHNwYW4gY2xhc3M9Im5vZGVMYWJlbCI+PHA+SW5wdXQgVmFsaWQ/PC9wPjwvc3Bhbj48L2Rpdj48L2ZvcmVpZ25PYmplY3Q+PC9nPjwvZz48ZyB0cmFuc2Zvcm09InRyYW5zbGF0ZSg4MjAuODQzNzU3NjI5Mzk0NSwgNDMwMi4xNzUwMTA2ODExNTIpIiBkYXRhLWxvb2s9Im5lbyIgZGF0YS1ldD0ibm9kZSIgZGF0YS1ub2RlPSJ0cnVlIiBkYXRhLWlkPSJRIiBpZD0iZmxvd2NoYXJ0LVEtMzciIGNsYXNzPSJub2RlIGRlZmF1bHQiPjxwb2x5Z29uIHN0eWxlPSJmaWxsOiNlM2YyZmQgIWltcG9ydGFudCIgdHJhbnNmb3JtPSJ0cmFuc2xhdGUoLTc5LjgxMjUsMzMpIiBjbGFzcz0ibGFiZWwtY29udGFpbmVyIiBwb2ludHM9Ii0zMywwIDE1OS42MjUsMCAxOTIuNjI1LC02NiAwLC02NiIvPjxnIHRyYW5zZm9ybT0idHJhbnNsYXRlKC03MC44MTI1LCAtMjEpIiBzdHlsZT0iIiBjbGFzcz0ibGFiZWwiPjxyZWN0Lz48Zm9yZWlnbk9iamVjdCBoZWlnaHQ9IjQyIiB3aWR0aD0iMTQxLjYyNSI+PGRpdiB4bWxucz0iaHR0cDovL3d3dy53My5vcmcvMTk5OS94aHRtbCIgc3R5bGU9ImRpc3BsYXk6IHRhYmxlLWNlbGw7IHdoaXRlLXNwYWNlOiBub3JtYWw7IGxpbmUtaGVpZ2h0OiAxLjU7IG1heC13aWR0aDogMjAwcHg7IHRleHQtYWxpZ246IGNlbnRlcjsiPjxzcGFuIGNsYXNzPSJub2RlTGFiZWwiPjxwPlRhbXBpbGthbiBQZXNhbiBFcnJvcjxiciAvPklucHV0IFRpZGFrIFZhbGlkPC9wPjwvc3Bhbj48L2Rpdj48L2ZvcmVpZ25PYmplY3Q+PC9nPjwvZz48ZyB0cmFuc2Zvcm09InRyYW5zbGF0ZSg0NzguODc4MTMxODY2NDU1MSwgNDQ1OC40ODc1MTA2ODExNTIpIiBkYXRhLWxvb2s9Im5lbyIgZGF0YS1ldD0ibm9kZSIgZGF0YS1ub2RlPSJ0cnVlIiBkYXRhLWlkPSJSIiBpZD0iZmxvd2NoYXJ0LVItMzkiIGNsYXNzPSJub2RlIGRlZmF1bHQiPjxwb2x5Z29uIHRyYW5zZm9ybT0idHJhbnNsYXRlKC03My4zMTI1LDczLjMxMjUpIiBjbGFzcz0ibGFiZWwtY29udGFpbmVyIiBwb2ludHM9IjczLjMxMjUsMCAxNDYuNjI1LC03My4zMTI1IDczLjMxMjUsLTE0Ni42MjUgMCwtNzMuMzEyNSIvPjxnIHRyYW5zZm9ybT0idHJhbnNsYXRlKC00My4zMTI1LCAtMTAuNSkiIHN0eWxlPSIiIGNsYXNzPSJsYWJlbCI+PHJlY3QvPjxmb3JlaWduT2JqZWN0IGhlaWdodD0iMjEiIHdpZHRoPSI4Ni42MjUiPjxkaXYgeG1sbnM9Imh0dHA6Ly93d3cudzMub3JnLzE5OTkveGh0bWwiIHN0eWxlPSJkaXNwbGF5OiB0YWJsZS1jZWxsOyB3aGl0ZS1zcGFjZTogbm9ybWFsOyBsaW5lLWhlaWdodDogMS41OyBtYXgtd2lkdGg6IDIwMHB4OyB0ZXh0LWFsaWduOiBjZW50ZXI7Ij48c3BhbiBjbGFzcz0ibm9kZUxhYmVsIj48cD5XYWt0dSBIYWJpcz88L3A+PC9zcGFuPjwvZGl2PjwvZm9yZWlnbk9iamVjdD48L2c+PC9nPjxnIHRyYW5zZm9ybT0idHJhbnNsYXRlKDEyNDYuNDc1MDEzNzMyOTEwMiwgNDg2NC4xMDAwMTM3MzI5MSkiIGRhdGEtbG9vaz0ibmVvIiBkYXRhLWV0PSJub2RlIiBkYXRhLW5vZGU9InRydWUiIGRhdGEtaWQ9IlMiIGlkPSJmbG93Y2hhcnQtUy00MSIgY2xhc3M9Im5vZGUgZGVmYXVsdCI+PHBvbHlnb24gc3R5bGU9ImZpbGw6I2UzZjJmZCAhaW1wb3J0YW50IiB0cmFuc2Zvcm09InRyYW5zbGF0ZSgtNzguNjM3NTA0NTc3NjM2NzIsMzMpIiBjbGFzcz0ibGFiZWwtY29udGFpbmVyIiBwb2ludHM9Ii0zMywwIDE1Ny4yNzUwMDkxNTUyNzM0NCwwIDE5MC4yNzUwMDkxNTUyNzM0NCwtNjYgMCwtNjYiLz48ZyB0cmFuc2Zvcm09InRyYW5zbGF0ZSgtNjkuNjM3NTA0NTc3NjM2NzIsIC0yMSkiIHN0eWxlPSIiIGNsYXNzPSJsYWJlbCI+PHJlY3QvPjxmb3JlaWduT2JqZWN0IGhlaWdodD0iNDIiIHdpZHRoPSIxMzkuMjc1MDA5MTU1MjczNDQiPjxkaXYgeG1sbnM9Imh0dHA6Ly93d3cudzMub3JnLzE5OTkveGh0bWwiIHN0eWxlPSJkaXNwbGF5OiB0YWJsZS1jZWxsOyB3aGl0ZS1zcGFjZTogbm9ybWFsOyBsaW5lLWhlaWdodDogMS41OyBtYXgtd2lkdGg6IDIwMHB4OyB0ZXh0LWFsaWduOiBjZW50ZXI7Ij48c3BhbiBjbGFzcz0ibm9kZUxhYmVsIj48cD5UYW1waWxrYW4gR2FtZSBPdmVyPGJyIC8+ZGFuIFNrb3IgQWtoaXI8L3A+PC9zcGFuPjwvZGl2PjwvZm9yZWlnbk9iamVjdD48L2c+PC9nPjxnIHRyYW5zZm9ybT0idHJhbnNsYXRlKDk2OC42NTYyNTc2MjkzOTQ1LCAyMzQ2LjUwMDAwNzYyOTM5NDUpIiBkYXRhLWxvb2s9Im5lbyIgZGF0YS1ldD0ibm9kZSIgZGF0YS1ub2RlPSJ0cnVlIiBkYXRhLWlkPSJUIiBpZD0iZmxvd2NoYXJ0LVQtNDMiIGNsYXNzPSJub2RlIGRlZmF1bHQiPjxyZWN0IHN0cm9rZT0idXJsKCNncmFkaWVudCkiIGhlaWdodD0iNDUiIHdpZHRoPSIxODAuNjI1IiB5PSItMjIuNSIgeD0iLTkwLjMxMjUiIGRhdGEtaWQ9IlQiIHN0eWxlPSIiIGNsYXNzPSJiYXNpYyBsYWJlbC1jb250YWluZXIiLz48ZyB0cmFuc2Zvcm09InRyYW5zbGF0ZSgtNzQuMzEyNSwgLTEwLjUpIiBzdHlsZT0iIiBjbGFzcz0ibGFiZWwiPjxyZWN0Lz48Zm9yZWlnbk9iamVjdCBoZWlnaHQ9IjIxIiB3aWR0aD0iMTQ4LjYyNSI+PGRpdiB4bWxucz0iaHR0cDovL3d3dy53My5vcmcvMTk5OS94aHRtbCIgc3R5bGU9ImRpc3BsYXk6IHRhYmxlLWNlbGw7IHdoaXRlLXNwYWNlOiBub3JtYWw7IGxpbmUtaGVpZ2h0OiAxLjU7IG1heC13aWR0aDogMjAwcHg7IHRleHQtYWxpZ246IGNlbnRlcjsiPjxzcGFuIGNsYXNzPSJub2RlTGFiZWwiPjxwPkhpdHVuZyBQb3Npc2kgQmFydSBLdXJpcjwvcD48L3NwYW4+PC9kaXY+PC9mb3JlaWduT2JqZWN0PjwvZz48L2c+PGcgdHJhbnNmb3JtPSJ0cmFuc2xhdGUoOTY4LjY1NjI1NzYyOTM5NDUsIDI1MTAuMzUwMDA2MTAzNTE1NikiIGRhdGEtbG9vaz0ibmVvIiBkYXRhLWV0PSJub2RlIiBkYXRhLW5vZGU9InRydWUiIGRhdGEtaWQ9IlUiIGlkPSJmbG93Y2hhcnQtVS00NSIgY2xhc3M9Im5vZGUgZGVmYXVsdCI+PHBvbHlnb24gc3R5bGU9ImZpbGw6I2ZmY2RkMiAhaW1wb3J0YW50IiB0cmFuc2Zvcm09InRyYW5zbGF0ZSgtOTEuMzUwMDAyMjg4ODE4MzYsOTEuMzUwMDAyMjg4ODE4MzYpIiBjbGFzcz0ibGFiZWwtY29udGFpbmVyIiBwb2ludHM9IjkxLjM1MDAwMjI4ODgxODM2LDAgMTgyLjcwMDAwNDU3NzYzNjcyLC05MS4zNTAwMDIyODg4MTgzNiA5MS4zNTAwMDIyODg4MTgzNiwtMTgyLjcwMDAwNDU3NzYzNjcyIDAsLTkxLjM1MDAwMjI4ODgxODM2Ii8+PGcgdHJhbnNmb3JtPSJ0cmFuc2xhdGUoLTYxLjM1MDAwMjI4ODgxODM2LCAtMTAuNSkiIHN0eWxlPSIiIGNsYXNzPSJsYWJlbCI+PHJlY3QvPjxmb3JlaWduT2JqZWN0IGhlaWdodD0iMjEiIHdpZHRoPSIxMjIuNzAwMDA0NTc3NjM2NzIiPjxkaXYgeG1sbnM9Imh0dHA6Ly93d3cudzMub3JnLzE5OTkveGh0bWwiIHN0eWxlPSJkaXNwbGF5OiB0YWJsZS1jZWxsOyB3aGl0ZS1zcGFjZTogbm9ybWFsOyBsaW5lLWhlaWdodDogMS41OyBtYXgtd2lkdGg6IDIwMHB4OyB0ZXh0LWFsaWduOiBjZW50ZXI7Ij48c3BhbiBjbGFzcz0ibm9kZUxhYmVsIj48cD5NZW5hYnJhayBUZW1ib2s/PC9wPjwvc3Bhbj48L2Rpdj48L2ZvcmVpZ25PYmplY3Q+PC9nPjwvZz48ZyB0cmFuc2Zvcm09InRyYW5zbGF0ZSg5NjguNjU2MjU3NjI5Mzk0NSwgNDg2NC4xMDAwMTM3MzI5MSkiIGRhdGEtbG9vaz0ibmVvIiBkYXRhLWV0PSJub2RlIiBkYXRhLW5vZGU9InRydWUiIGRhdGEtaWQ9IlYiIGlkPSJmbG93Y2hhcnQtVi00NyIgY2xhc3M9Im5vZGUgZGVmYXVsdCI+PHBvbHlnb24gc3R5bGU9ImZpbGw6I2UzZjJmZCAhaW1wb3J0YW50IiB0cmFuc2Zvcm09InRyYW5zbGF0ZSgtODMuMTgxMjUxNTI1ODc4OSwzMykiIGNsYXNzPSJsYWJlbC1jb250YWluZXIiIHBvaW50cz0iLTMzLDAgMTY2LjM2MjUwMzA1MTc1NzgsMCAxOTkuMzYyNTAzMDUxNzU3OCwtNjYgMCwtNjYiLz48ZyB0cmFuc2Zvcm09InRyYW5zbGF0ZSgtNzQuMTgxMjUxNTI1ODc4OSwgLTIxKSIgc3R5bGU9IiIgY2xhc3M9ImxhYmVsIj48cmVjdC8+PGZvcmVpZ25PYmplY3QgaGVpZ2h0PSI0MiIgd2lkdGg9IjE0OC4zNjI1MDMwNTE3NTc4Ij48ZGl2IHhtbG5zPSJodHRwOi8vd3d3LnczLm9yZy8xOTk5L3hodG1sIiBzdHlsZT0iZGlzcGxheTogdGFibGUtY2VsbDsgd2hpdGUtc3BhY2U6IG5vcm1hbDsgbGluZS1oZWlnaHQ6IDEuNTsgbWF4LXdpZHRoOiAyMDBweDsgdGV4dC1hbGlnbjogY2VudGVyOyI+PHNwYW4gY2xhc3M9Im5vZGVMYWJlbCI+PHA+VGFtcGlsa2FuIEdhbWUgT3ZlcjxiciAvPkt1cmlyIE1lbmFicmFrIFRlbWJvazwvcD48L3NwYW4+PC9kaXY+PC9mb3JlaWduT2JqZWN0PjwvZz48L2c+PGcgdHJhbnNmb3JtPSJ0cmFuc2xhdGUoNTM4LjQ0MDYzMTg2NjQ1NTEsIDI2OTUuMjAwMDA0NTc3NjM2NykiIGRhdGEtbG9vaz0ibmVvIiBkYXRhLWV0PSJub2RlIiBkYXRhLW5vZGU9InRydWUiIGRhdGEtaWQ9IlciIGlkPSJmbG93Y2hhcnQtVy00OSIgY2xhc3M9Im5vZGUgZGVmYXVsdCI+PHJlY3Qgc3Ryb2tlPSJ1cmwoI2dyYWRpZW50KSIgaGVpZ2h0PSI0NSIgd2lkdGg9IjE1MS44Mzc1MDE1MjU4Nzg5IiB5PSItMjIuNSIgeD0iLTc1LjkxODc1MDc2MjkzOTQ1IiBkYXRhLWlkPSJXIiBzdHlsZT0iIiBjbGFzcz0iYmFzaWMgbGFiZWwtY29udGFpbmVyIi8+PGcgdHJhbnNmb3JtPSJ0cmFuc2xhdGUoLTU5LjkxODc1MDc2MjkzOTQ1LCAtMTAuNSkiIHN0eWxlPSIiIGNsYXNzPSJsYWJlbCI+PHJlY3QvPjxmb3JlaWduT2JqZWN0IGhlaWdodD0iMjEiIHdpZHRoPSIxMTkuODM3NTAxNTI1ODc4OSI+PGRpdiB4bWxucz0iaHR0cDovL3d3dy53My5vcmcvMTk5OS94aHRtbCIgc3R5bGU9ImRpc3BsYXk6IHRhYmxlLWNlbGw7IHdoaXRlLXNwYWNlOiBub3JtYWw7IGxpbmUtaGVpZ2h0OiAxLjU7IG1heC13aWR0aDogMjAwcHg7IHRleHQtYWxpZ246IGNlbnRlcjsiPjxzcGFuIGNsYXNzPSJub2RlTGFiZWwiPjxwPlVwZGF0ZSBQb3Npc2kgS3VyaXI8L3A+PC9zcGFuPjwvZGl2PjwvZm9yZWlnbk9iamVjdD48L2c+PC9nPjxnIHRyYW5zZm9ybT0idHJhbnNsYXRlKDUzOC40NDA2MzE4NjY0NTUxLCAyODU4LjAxMjUwNDU3NzYzNjcpIiBkYXRhLWxvb2s9Im5lbyIgZGF0YS1ldD0ibm9kZSIgZGF0YS1ub2RlPSJ0cnVlIiBkYXRhLWlkPSJYIiBpZD0iZmxvd2NoYXJ0LVgtNTEiIGNsYXNzPSJub2RlIGRlZmF1bHQiPjxwb2x5Z29uIHRyYW5zZm9ybT0idHJhbnNsYXRlKC05MC4zMTI1LDkwLjMxMjUpIiBjbGFzcz0ibGFiZWwtY29udGFpbmVyIiBwb2ludHM9IjkwLjMxMjUsMCAxODAuNjI1LC05MC4zMTI1IDkwLjMxMjUsLTE4MC42MjUgMCwtOTAuMzEyNSIvPjxnIHRyYW5zZm9ybT0idHJhbnNsYXRlKC02MC4zMTI1LCAtMjEpIiBzdHlsZT0iIiBjbGFzcz0ibGFiZWwiPjxyZWN0Lz48Zm9yZWlnbk9iamVjdCBoZWlnaHQ9IjQyIiB3aWR0aD0iMTIwLjYyNSI+PGRpdiB4bWxucz0iaHR0cDovL3d3dy53My5vcmcvMTk5OS94aHRtbCIgc3R5bGU9ImRpc3BsYXk6IHRhYmxlLWNlbGw7IHdoaXRlLXNwYWNlOiBub3JtYWw7IGxpbmUtaGVpZ2h0OiAxLjU7IG1heC13aWR0aDogMjAwcHg7IHRleHQtYWxpZ246IGNlbnRlcjsiPjxzcGFuIGNsYXNzPSJub2RlTGFiZWwiPjxwPkFkYSBQYWtldCBkaSBQb3Npc2k8YnIgLz5LdXJpciBTZWthcmFuZz88L3A+PC9zcGFuPjwvZGl2PjwvZm9yZWlnbk9iamVjdD48L2c+PC9nPjxnIHRyYW5zZm9ybT0idHJhbnNsYXRlKDY4My42MTI1MDY4NjY0NTUxLCAzMTE1LjA5Mzc1NzYyOTM5NDUpIiBkYXRhLWxvb2s9Im5lbyIgZGF0YS1ldD0ibm9kZSIgZGF0YS1ub2RlPSJ0cnVlIiBkYXRhLWlkPSJZIiBpZD0iZmxvd2NoYXJ0LVktNTMiIGNsYXNzPSJub2RlIGRlZmF1bHQiPjxwb2x5Z29uIHRyYW5zZm9ybT0idHJhbnNsYXRlKC05NS43Njg3NTMwNTE3NTc4MSw5NS43Njg3NTMwNTE3NTc4MSkiIGNsYXNzPSJsYWJlbC1jb250YWluZXIiIHBvaW50cz0iOTUuNzY4NzUzMDUxNzU3ODEsMCAxOTEuNTM3NTA2MTAzNTE1NjIsLTk1Ljc2ODc1MzA1MTc1NzgxIDk1Ljc2ODc1MzA1MTc1NzgxLC0xOTEuNTM3NTA2MTAzNTE1NjIgMCwtOTUuNzY4NzUzMDUxNzU3ODEiLz48ZyB0cmFuc2Zvcm09InRyYW5zbGF0ZSgtNjUuNzY4NzUzMDUxNzU3ODEsIC0yMSkiIHN0eWxlPSIiIGNsYXNzPSJsYWJlbCI+PHJlY3QvPjxmb3JlaWduT2JqZWN0IGhlaWdodD0iNDIiIHdpZHRoPSIxMzEuNTM3NTA2MTAzNTE1NjIiPjxkaXYgeG1sbnM9Imh0dHA6Ly93d3cudzMub3JnLzE5OTkveGh0bWwiIHN0eWxlPSJkaXNwbGF5OiB0YWJsZS1jZWxsOyB3aGl0ZS1zcGFjZTogbm9ybWFsOyBsaW5lLWhlaWdodDogMS41OyBtYXgtd2lkdGg6IDIwMHB4OyB0ZXh0LWFsaWduOiBjZW50ZXI7Ij48c3BhbiBjbGFzcz0ibm9kZUxhYmVsIj48cD5LdXJpciBNZW1iYXdhPGJyIC8+S3VyYW5nIGRhcmkgMyBQYWtldD88L3A+PC9zcGFuPjwvZGl2PjwvZm9yZWlnbk9iamVjdD48L2c+PC9nPjxnIHRyYW5zZm9ybT0idHJhbnNsYXRlKDI5My4yMDAwMDM2MjM5NjI0LCAzMzE0Ljg2MjUxMDY4MTE1MjMpIiBkYXRhLWxvb2s9Im5lbyIgZGF0YS1ldD0ibm9kZSIgZGF0YS1ub2RlPSJ0cnVlIiBkYXRhLWlkPSJaIiBpZD0iZmxvd2NoYXJ0LVotNTUiIGNsYXNzPSJub2RlIGRlZmF1bHQiPjxyZWN0IHN0cm9rZT0idXJsKCNncmFkaWVudCkiIGhlaWdodD0iNjYiIHdpZHRoPSIxMzkuMzg3NTA0NTc3NjM2NzIiIHk9Ii0zMyIgeD0iLTY5LjY5Mzc1MjI4ODgxODM2IiBkYXRhLWlkPSJaIiBzdHlsZT0iIiBjbGFzcz0iYmFzaWMgbGFiZWwtY29udGFpbmVyIi8+PGcgdHJhbnNmb3JtPSJ0cmFuc2xhdGUoLTUzLjY5Mzc1MjI4ODgxODM2LCAtMjEpIiBzdHlsZT0iIiBjbGFzcz0ibGFiZWwiPjxyZWN0Lz48Zm9yZWlnbk9iamVjdCBoZWlnaHQ9IjQyIiB3aWR0aD0iMTA3LjM4NzUwNDU3NzYzNjcyIj48ZGl2IHhtbG5zPSJodHRwOi8vd3d3LnczLm9yZy8xOTk5L3hodG1sIiBzdHlsZT0iZGlzcGxheTogdGFibGUtY2VsbDsgd2hpdGUtc3BhY2U6IG5vcm1hbDsgbGluZS1oZWlnaHQ6IDEuNTsgbWF4LXdpZHRoOiAyMDBweDsgdGV4dC1hbGlnbjogY2VudGVyOyI+PHNwYW4gY2xhc3M9Im5vZGVMYWJlbCI+PHA+QW1iaWwgUGFrZXQ8YnIgLz5UYW1iYWgga2UgU3RhY2s8L3A+PC9zcGFuPjwvZGl2PjwvZm9yZWlnbk9iamVjdD48L2c+PC9nPjxnIHRyYW5zZm9ybT0idHJhbnNsYXRlKDQ2My40NzE4NzgwNTE3NTc4LCAzNTE4LjUxODc2MDY4MTE1MjMpIiBkYXRhLWxvb2s9Im5lbyIgZGF0YS1ldD0ibm9kZSIgZGF0YS1ub2RlPSJ0cnVlIiBkYXRhLWlkPSJBQSIgaWQ9ImZsb3djaGFydC1BQS01NyIgY2xhc3M9Im5vZGUgZGVmYXVsdCI+PHBvbHlnb24gdHJhbnNmb3JtPSJ0cmFuc2xhdGUoLTk5LjY1NjI1LDk5LjY1NjI1KSIgY2xhc3M9ImxhYmVsLWNvbnRhaW5lciIgcG9pbnRzPSI5OS42NTYyNSwwIDE5OS4zMTI1LC05OS42NTYyNSA5OS42NTYyNSwtMTk5LjMxMjUgMCwtOTkuNjU2MjUiLz48ZyB0cmFuc2Zvcm09InRyYW5zbGF0ZSgtNjkuNjU2MjUsIC0yMSkiIHN0eWxlPSIiIGNsYXNzPSJsYWJlbCI+PHJlY3QvPjxmb3JlaWduT2JqZWN0IGhlaWdodD0iNDIiIHdpZHRoPSIxMzkuMzEyNSI+PGRpdiB4bWxucz0iaHR0cDovL3d3dy53My5vcmcvMTk5OS94aHRtbCIgc3R5bGU9ImRpc3BsYXk6IHRhYmxlLWNlbGw7IHdoaXRlLXNwYWNlOiBub3JtYWw7IGxpbmUtaGVpZ2h0OiAxLjU7IG1heC13aWR0aDogMjAwcHg7IHRleHQtYWxpZ246IGNlbnRlcjsiPjxzcGFuIGNsYXNzPSJub2RlTGFiZWwiPjxwPkt1cmlyIGRpIFBvc2lzaSBSdW1haDxiciAvPmRhbiBNZW1iYXdhIFBha2V0PzwvcD48L3NwYW4+PC9kaXY+PC9mb3JlaWduT2JqZWN0PjwvZz48L2c+PGcgdHJhbnNmb3JtPSJ0cmFuc2xhdGUoNTQ2LjM4MTI1NjEwMzUxNTYsIDM3MjIuMTc1MDEwNjgxMTUyMykiIGRhdGEtbG9vaz0ibmVvIiBkYXRhLWV0PSJub2RlIiBkYXRhLW5vZGU9InRydWUiIGRhdGEtaWQ9IkJCIiBpZD0iZmxvd2NoYXJ0LUJCLTYzIiBjbGFzcz0ibm9kZSBkZWZhdWx0Ij48cmVjdCBzdHJva2U9InVybCgjZ3JhZGllbnQpIiBoZWlnaHQ9IjY2IiB3aWR0aD0iMTIzLjA1MDAwMzA1MTc1NzgxIiB5PSItMzMiIHg9Ii02MS41MjUwMDE1MjU4Nzg5MDYiIGRhdGEtaWQ9IkJCIiBzdHlsZT0iIiBjbGFzcz0iYmFzaWMgbGFiZWwtY29udGFpbmVyIi8+PGcgdHJhbnNmb3JtPSJ0cmFuc2xhdGUoLTQ1LjUyNTAwMTUyNTg3ODkwNiwgLTIxKSIgc3R5bGU9IiIgY2xhc3M9ImxhYmVsIj48cmVjdC8+PGZvcmVpZ25PYmplY3QgaGVpZ2h0PSI0MiIgd2lkdGg9IjkxLjA1MDAwMzA1MTc1NzgxIj48ZGl2IHhtbG5zPSJodHRwOi8vd3d3LnczLm9yZy8xOTk5L3hodG1sIiBzdHlsZT0iZGlzcGxheTogdGFibGUtY2VsbDsgd2hpdGUtc3BhY2U6IG5vcm1hbDsgbGluZS1oZWlnaHQ6IDEuNTsgbWF4LXdpZHRoOiAyMDBweDsgdGV4dC1hbGlnbjogY2VudGVyOyI+PHNwYW4gY2xhc3M9Im5vZGVMYWJlbCI+PHA+QW50YXIgUGFrZXQ8YnIgLz5Qb3AgZGFyaSBTdGFjazwvcD48L3NwYW4+PC9kaXY+PC9mb3JlaWduT2JqZWN0PjwvZz48L2c+PGcgdHJhbnNmb3JtPSJ0cmFuc2xhdGUoNTQ2LjM4MTI1NjEwMzUxNTYsIDM4MzguMTc1MDEwNjgxMTUyMykiIGRhdGEtbG9vaz0ibmVvIiBkYXRhLWV0PSJub2RlIiBkYXRhLW5vZGU9InRydWUiIGRhdGEtaWQ9IkNDIiBpZD0iZmxvd2NoYXJ0LUNDLTY1IiBjbGFzcz0ibm9kZSBkZWZhdWx0Ij48cmVjdCBzdHJva2U9InVybCgjZ3JhZGllbnQpIiBoZWlnaHQ9IjY2IiB3aWR0aD0iMTE0LjQ4NzUwMzA1MTc1NzgxIiB5PSItMzMiIHg9Ii01Ny4yNDM3NTE1MjU4Nzg5MDYiIGRhdGEtaWQ9IkNDIiBzdHlsZT0iIiBjbGFzcz0iYmFzaWMgbGFiZWwtY29udGFpbmVyIi8+PGcgdHJhbnNmb3JtPSJ0cmFuc2xhdGUoLTQxLjI0Mzc1MTUyNTg3ODkwNiwgLTIxKSIgc3R5bGU9IiIgY2xhc3M9ImxhYmVsIj48cmVjdC8+PGZvcmVpZ25PYmplY3QgaGVpZ2h0PSI0MiIgd2lkdGg9IjgyLjQ4NzUwMzA1MTc1NzgxIj48ZGl2IHhtbG5zPSJodHRwOi8vd3d3LnczLm9yZy8xOTk5L3hodG1sIiBzdHlsZT0iZGlzcGxheTogdGFibGUtY2VsbDsgd2hpdGUtc3BhY2U6IG5vcm1hbDsgbGluZS1oZWlnaHQ6IDEuNTsgbWF4LXdpZHRoOiAyMDBweDsgdGV4dC1hbGlnbjogY2VudGVyOyI+PHNwYW4gY2xhc3M9Im5vZGVMYWJlbCI+PHA+VGFtYmFoIFNrb3I8YnIgLz5TZXN1YWkgTGV2ZWw8L3A+PC9zcGFuPjwvZGl2PjwvZm9yZWlnbk9iamVjdD48L2c+PC9nPjxnIHRyYW5zZm9ybT0idHJhbnNsYXRlKDU0Ni4zODEyNTYxMDM1MTU2LCAzOTU0LjE3NTAxMDY4MTE1MjMpIiBkYXRhLWxvb2s9Im5lbyIgZGF0YS1ldD0ibm9kZSIgZGF0YS1ub2RlPSJ0cnVlIiBkYXRhLWlkPSJERCIgaWQ9ImZsb3djaGFydC1ERC02NyIgY2xhc3M9Im5vZGUgZGVmYXVsdCI+PHJlY3Qgc3Ryb2tlPSJ1cmwoI2dyYWRpZW50KSIgaGVpZ2h0PSI2NiIgd2lkdGg9IjE2NC4zMDAwMDMwNTE3NTc4IiB5PSItMzMiIHg9Ii04Mi4xNTAwMDE1MjU4Nzg5IiBkYXRhLWlkPSJERCIgc3R5bGU9IiIgY2xhc3M9ImJhc2ljIGxhYmVsLWNvbnRhaW5lciIvPjxnIHRyYW5zZm9ybT0idHJhbnNsYXRlKC02Ni4xNTAwMDE1MjU4Nzg5LCAtMjEpIiBzdHlsZT0iIiBjbGFzcz0ibGFiZWwiPjxyZWN0Lz48Zm9yZWlnbk9iamVjdCBoZWlnaHQ9IjQyIiB3aWR0aD0iMTMyLjMwMDAwMzA1MTc1NzgiPjxkaXYgeG1sbnM9Imh0dHA6Ly93d3cudzMub3JnLzE5OTkveGh0bWwiIHN0eWxlPSJkaXNwbGF5OiB0YWJsZS1jZWxsOyB3aGl0ZS1zcGFjZTogbm9ybWFsOyBsaW5lLWhlaWdodDogMS41OyBtYXgtd2lkdGg6IDIwMHB4OyB0ZXh0LWFsaWduOiBjZW50ZXI7Ij48c3BhbiBjbGFzcz0ibm9kZUxhYmVsIj48cD5IYXB1cyBSdW1haCBMYW1hPGJyIC8+VGFtYmFoIFJ1bWFoIEJhcnU8L3A+PC9zcGFuPjwvZGl2PjwvZm9yZWlnbk9iamVjdD48L2c+PC9nPjxnIHRyYW5zZm9ybT0idHJhbnNsYXRlKDU0Ni4zODEyNTYxMDM1MTU2LCA0MDkxLjE3NTAxMDY4MTE1MjMpIiBkYXRhLWxvb2s9Im5lbyIgZGF0YS1ldD0ibm9kZSIgZGF0YS1ub2RlPSJ0cnVlIiBkYXRhLWlkPSJFRSIgaWQ9ImZsb3djaGFydC1FRS02OSIgY2xhc3M9Im5vZGUgZGVmYXVsdCI+PHJlY3Qgc3Ryb2tlPSJ1cmwoI2dyYWRpZW50KSIgaGVpZ2h0PSI2NiIgd2lkdGg9IjE3OC4xNzUwMDMwNTE3NTc4IiB5PSItMzMiIHg9Ii04OS4wODc1MDE1MjU4Nzg5IiBkYXRhLWlkPSJFRSIgc3R5bGU9IiIgY2xhc3M9ImJhc2ljIGxhYmVsLWNvbnRhaW5lciIvPjxnIHRyYW5zZm9ybT0idHJhbnNsYXRlKC03My4wODc1MDE1MjU4Nzg5LCAtMjEpIiBzdHlsZT0iIiBjbGFzcz0ibGFiZWwiPjxyZWN0Lz48Zm9yZWlnbk9iamVjdCBoZWlnaHQ9IjQyIiB3aWR0aD0iMTQ2LjE3NTAwMzA1MTc1NzgiPjxkaXYgeG1sbnM9Imh0dHA6Ly93d3cudzMub3JnLzE5OTkveGh0bWwiIHN0eWxlPSJkaXNwbGF5OiB0YWJsZS1jZWxsOyB3aGl0ZS1zcGFjZTogbm9ybWFsOyBsaW5lLWhlaWdodDogMS41OyBtYXgtd2lkdGg6IDIwMHB4OyB0ZXh0LWFsaWduOiBjZW50ZXI7Ij48c3BhbiBjbGFzcz0ibm9kZUxhYmVsIj48cD5UYW1iYWggUGFrZXQgQmFydTxiciAvPlRhbWJhaCBXYWt0dSArNSBkZXRpazwvcD48L3NwYW4+PC9kaXY+PC9mb3JlaWduT2JqZWN0PjwvZz48L2c+PGcgdHJhbnNmb3JtPSJ0cmFuc2xhdGUoNTQ2LjM4MTI1NjEwMzUxNTYsIDQxOTYuNjc1MDEwNjgxMTUyKSIgZGF0YS1sb29rPSJuZW8iIGRhdGEtZXQ9Im5vZGUiIGRhdGEtbm9kZT0idHJ1ZSIgZGF0YS1pZD0iRkYiIGlkPSJmbG93Y2hhcnQtRkYtNzEiIGNsYXNzPSJub2RlIGRlZmF1bHQiPjxyZWN0IHN0cm9rZT0idXJsKCNncmFkaWVudCkiIGhlaWdodD0iNDUiIHdpZHRoPSIxNjUuODUwMDA2MTAzNTE1NjIiIHk9Ii0yMi41IiB4PSItODIuOTI1MDAzMDUxNzU3ODEiIGRhdGEtaWQ9IkZGIiBzdHlsZT0iIiBjbGFzcz0iYmFzaWMgbGFiZWwtY29udGFpbmVyIi8+PGcgdHJhbnNmb3JtPSJ0cmFuc2xhdGUoLTY2LjkyNTAwMzA1MTc1NzgxLCAtMTAuNSkiIHN0eWxlPSIiIGNsYXNzPSJsYWJlbCI+PHJlY3QvPjxmb3JlaWduT2JqZWN0IGhlaWdodD0iMjEiIHdpZHRoPSIxMzMuODUwMDA2MTAzNTE1NjIiPjxkaXYgeG1sbnM9Imh0dHA6Ly93d3cudzMub3JnLzE5OTkveGh0bWwiIHN0eWxlPSJkaXNwbGF5OiB0YWJsZS1jZWxsOyB3aGl0ZS1zcGFjZTogbm9ybWFsOyBsaW5lLWhlaWdodDogMS41OyBtYXgtd2lkdGg6IDIwMHB4OyB0ZXh0LWFsaWduOiBjZW50ZXI7Ij48c3BhbiBjbGFzcz0ibm9kZUxhYmVsIj48cD5VcGRhdGUgR3JhZiBOYXZpZ2FzaTwvcD48L3NwYW4+PC9kaXY+PC9mb3JlaWduT2JqZWN0PjwvZz48L2c+PGcgdHJhbnNmb3JtPSJ0cmFuc2xhdGUoNTQ2LjM4MTI1NjEwMzUxNTYsIDQzMDIuMTc1MDEwNjgxMTUyKSIgZGF0YS1sb29rPSJuZW8iIGRhdGEtZXQ9Im5vZGUiIGRhdGEtbm9kZT0idHJ1ZSIgZGF0YS1pZD0iR0ciIGlkPSJmbG93Y2hhcnQtR0ctNzMiIGNsYXNzPSJub2RlIGRlZmF1bHQiPjxwb2x5Z29uIHN0eWxlPSJmaWxsOiNlM2YyZmQgIWltcG9ydGFudCIgdHJhbnNmb3JtPSJ0cmFuc2xhdGUoLTc4LjY1MDAwMTUyNTg3ODksMzMpIiBjbGFzcz0ibGFiZWwtY29udGFpbmVyIiBwb2ludHM9Ii0zMywwIDE1Ny4zMDAwMDMwNTE3NTc4LDAgMTkwLjMwMDAwMzA1MTc1NzgsLTY2IDAsLTY2Ii8+PGcgdHJhbnNmb3JtPSJ0cmFuc2xhdGUoLTY5LjY1MDAwMTUyNTg3ODksIC0yMSkiIHN0eWxlPSIiIGNsYXNzPSJsYWJlbCI+PHJlY3QvPjxmb3JlaWduT2JqZWN0IGhlaWdodD0iNDIiIHdpZHRoPSIxMzkuMzAwMDAzMDUxNzU3OCI+PGRpdiB4bWxucz0iaHR0cDovL3d3dy53My5vcmcvMTk5OS94aHRtbCIgc3R5bGU9ImRpc3BsYXk6IHRhYmxlLWNlbGw7IHdoaXRlLXNwYWNlOiBub3JtYWw7IGxpbmUtaGVpZ2h0OiAxLjU7IG1heC13aWR0aDogMjAwcHg7IHRleHQtYWxpZ246IGNlbnRlcjsiPjxzcGFuIGNsYXNzPSJub2RlTGFiZWwiPjxwPlRhbXBpbGthbiBBbmltYXNpPGJyIC8+UGFrZXQgQmVyaGFzaWwgRGlhbnRhcjwvcD48L3NwYW4+PC9kaXY+PC9mb3JlaWduT2JqZWN0PjwvZz48L2c+PGcgdHJhbnNmb3JtPSJ0cmFuc2xhdGUoNTY0LjgxMjUwNjY3NTcyMDIsIDQ4NjQuMTAwMDEzNzMyOTEpIiBkYXRhLWxvb2s9Im5lbyIgZGF0YS1ldD0ibm9kZSIgZGF0YS1ub2RlPSJ0cnVlIiBkYXRhLWlkPSJISCIgaWQ9ImZsb3djaGFydC1ISC03OSIgY2xhc3M9Im5vZGUgZGVmYXVsdCI+PHBvbHlnb24gc3R5bGU9ImZpbGw6I2UzZjJmZCAhaW1wb3J0YW50IiB0cmFuc2Zvcm09InRyYW5zbGF0ZSgtNzguNjM3NTA0NTc3NjM2NzIsMzMpIiBjbGFzcz0ibGFiZWwtY29udGFpbmVyIiBwb2ludHM9Ii0zMywwIDE1Ny4yNzUwMDkxNTUyNzM0NCwwIDE5MC4yNzUwMDkxNTUyNzM0NCwtNjYgMCwtNjYiLz48ZyB0cmFuc2Zvcm09InRyYW5zbGF0ZSgtNjkuNjM3NTA0NTc3NjM2NzIsIC0yMSkiIHN0eWxlPSIiIGNsYXNzPSJsYWJlbCI+PHJlY3QvPjxmb3JlaWduT2JqZWN0IGhlaWdodD0iNDIiIHdpZHRoPSIxMzkuMjc1MDA5MTU1MjczNDQiPjxkaXYgeG1sbnM9Imh0dHA6Ly93d3cudzMub3JnLzE5OTkveGh0bWwiIHN0eWxlPSJkaXNwbGF5OiB0YWJsZS1jZWxsOyB3aGl0ZS1zcGFjZTogbm9ybWFsOyBsaW5lLWhlaWdodDogMS41OyBtYXgtd2lkdGg6IDIwMHB4OyB0ZXh0LWFsaWduOiBjZW50ZXI7Ij48c3BhbiBjbGFzcz0ibm9kZUxhYmVsIj48cD5UYW1waWxrYW4gR2FtZSBPdmVyPGJyIC8+V2FrdHUgSGFiaXM8L3A+PC9zcGFuPjwvZGl2PjwvZm9yZWlnbk9iamVjdD48L2c+PC9nPjxnIHRyYW5zZm9ybT0idHJhbnNsYXRlKDIzNy41NTkzNzk1Nzc2MzY3MiwgNDY4MS40NTAwMTIyMDcwMzEpIiBkYXRhLWxvb2s9Im5lbyIgZGF0YS1ldD0ibm9kZSIgZGF0YS1ub2RlPSJ0cnVlIiBkYXRhLWlkPSJJSSIgaWQ9ImZsb3djaGFydC1JSS04MSIgY2xhc3M9Im5vZGUgZGVmYXVsdCI+PHBvbHlnb24gc3R5bGU9ImZpbGw6I2YzZTVmNSAhaW1wb3J0YW50IiB0cmFuc2Zvcm09InRyYW5zbGF0ZSgtNzguNjUwMDAxNTI1ODc4OSw3OC42NTAwMDE1MjU4Nzg5KSIgY2xhc3M9ImxhYmVsLWNvbnRhaW5lciIgcG9pbnRzPSI3OC42NTAwMDE1MjU4Nzg5LDAgMTU3LjMwMDAwMzA1MTc1NzgsLTc4LjY1MDAwMTUyNTg3ODkgNzguNjUwMDAxNTI1ODc4OSwtMTU3LjMwMDAwMzA1MTc1NzggMCwtNzguNjUwMDAxNTI1ODc4OSIvPjxnIHRyYW5zZm9ybT0idHJhbnNsYXRlKC00OC42NTAwMDE1MjU4Nzg5MDYsIC0yMSkiIHN0eWxlPSIiIGNsYXNzPSJsYWJlbCI+PHJlY3QvPjxmb3JlaWduT2JqZWN0IGhlaWdodD0iNDIiIHdpZHRoPSI5Ny4zMDAwMDMwNTE3NTc4MSI+PGRpdiB4bWxucz0iaHR0cDovL3d3dy53My5vcmcvMTk5OS94aHRtbCIgc3R5bGU9ImRpc3BsYXk6IHRhYmxlLWNlbGw7IHdoaXRlLXNwYWNlOiBub3JtYWw7IGxpbmUtaGVpZ2h0OiAxLjU7IG1heC13aWR0aDogMjAwcHg7IHRleHQtYWxpZ246IGNlbnRlcjsiPjxzcGFuIGNsYXNzPSJub2RlTGFiZWwiPjxwPlNlbXVhIFBha2V0PGJyIC8+U3VkYWggRGlhbnRhcj88L3A+PC9zcGFuPjwvZGl2PjwvZm9yZWlnbk9iamVjdD48L2c+PC9nPjxnIHRyYW5zZm9ybT0idHJhbnNsYXRlKDIzNy41NTkzNzk1Nzc2MzY3MiwgNDg2NC4xMDAwMTM3MzI5MSkiIGRhdGEtbG9vaz0ibmVvIiBkYXRhLWV0PSJub2RlIiBkYXRhLW5vZGU9InRydWUiIGRhdGEtaWQ9IkpKIiBpZD0iZmxvd2NoYXJ0LUpKLTgzIiBjbGFzcz0ibm9kZSBkZWZhdWx0Ij48cG9seWdvbiBzdHlsZT0iZmlsbDojZTNmMmZkICFpbXBvcnRhbnQiIHRyYW5zZm9ybT0idHJhbnNsYXRlKC02Ni45Njg3NSwzMykiIGNsYXNzPSJsYWJlbC1jb250YWluZXIiIHBvaW50cz0iLTMzLDAgMTMzLjkzNzUsMCAxNjYuOTM3NSwtNjYgMCwtNjYiLz48ZyB0cmFuc2Zvcm09InRyYW5zbGF0ZSgtNTcuOTY4NzUsIC0yMSkiIHN0eWxlPSIiIGNsYXNzPSJsYWJlbCI+PHJlY3QvPjxmb3JlaWduT2JqZWN0IGhlaWdodD0iNDIiIHdpZHRoPSIxMTUuOTM3NSI+PGRpdiB4bWxucz0iaHR0cDovL3d3dy53My5vcmcvMTk5OS94aHRtbCIgc3R5bGU9ImRpc3BsYXk6IHRhYmxlLWNlbGw7IHdoaXRlLXNwYWNlOiBub3JtYWw7IGxpbmUtaGVpZ2h0OiAxLjU7IG1heC13aWR0aDogMjAwcHg7IHRleHQtYWxpZ246IGNlbnRlcjsiPjxzcGFuIGNsYXNzPSJub2RlTGFiZWwiPjxwPlRhbXBpbGthbiBBbmltYXNpPGJyIC8+TWVuYW5nPC9wPjwvc3Bhbj48L2Rpdj48L2ZvcmVpZ25PYmplY3Q+PC9nPjwvZz48ZyB0cmFuc2Zvcm09InRyYW5zbGF0ZSg2ODMuMTg3NTA3NjI5Mzk0NSwgNTA1NC43MjUwMTM3MzI5MSkiIGRhdGEtbG9vaz0ibmVvIiBkYXRhLWV0PSJub2RlIiBkYXRhLW5vZGU9InRydWUiIGRhdGEtaWQ9IktLIiBpZD0iZmxvd2NoYXJ0LUtLLTg3IiBjbGFzcz0ibm9kZSBkZWZhdWx0Ij48cG9seWdvbiBzdHlsZT0iZmlsbDojZmZmM2UwICFpbXBvcnRhbnQiIHRyYW5zZm9ybT0idHJhbnNsYXRlKC0xMDcuNjI1LDEwNy42MjUpIiBjbGFzcz0ibGFiZWwtY29udGFpbmVyIiBwb2ludHM9IjEwNy42MjUsMCAyMTUuMjUsLTEwNy42MjUgMTA3LjYyNSwtMjE1LjI1IDAsLTEwNy42MjUiLz48ZyB0cmFuc2Zvcm09InRyYW5zbGF0ZSgtNzcuNjI1LCAtMTAuNSkiIHN0eWxlPSIiIGNsYXNzPSJsYWJlbCI+PHJlY3QvPjxmb3JlaWduT2JqZWN0IGhlaWdodD0iMjEiIHdpZHRoPSIxNTUuMjUiPjxkaXYgeG1sbnM9Imh0dHA6Ly93d3cudzMub3JnLzE5OTkveGh0bWwiIHN0eWxlPSJkaXNwbGF5OiB0YWJsZS1jZWxsOyB3aGl0ZS1zcGFjZTogbm9ybWFsOyBsaW5lLWhlaWdodDogMS41OyBtYXgtd2lkdGg6IDIwMHB4OyB0ZXh0LWFsaWduOiBjZW50ZXI7Ij48c3BhbiBjbGFzcz0ibm9kZUxhYmVsIj48cD5Ta29yIEJhcnUgJmd0OyBIaWdoIFNjb3JlPzwvcD48L3NwYW4+PC9kaXY+PC9mb3JlaWduT2JqZWN0PjwvZz48L2c+PGcgdHJhbnNmb3JtPSJ0cmFuc2xhdGUoODE3Ljk3NTAxMDg3MTg4NzIsIDUyNjYuMzUwMDEzNzMyOTEpIiBkYXRhLWxvb2s9Im5lbyIgZGF0YS1ldD0ibm9kZSIgZGF0YS1ub2RlPSJ0cnVlIiBkYXRhLWlkPSJMTCIgaWQ9ImZsb3djaGFydC1MTC05NSIgY2xhc3M9Im5vZGUgZGVmYXVsdCI+PHJlY3Qgc3Ryb2tlPSJ1cmwoI2dyYWRpZW50KSIgaGVpZ2h0PSI2NiIgd2lkdGg9IjE4Ni4wODc1MDkxNTUyNzM0NCIgeT0iLTMzIiB4PSItOTMuMDQzNzU0NTc3NjM2NzIiIGRhdGEtaWQ9IkxMIiBzdHlsZT0iIiBjbGFzcz0iYmFzaWMgbGFiZWwtY29udGFpbmVyIi8+PGcgdHJhbnNmb3JtPSJ0cmFuc2xhdGUoLTc3LjA0Mzc1NDU3NzYzNjcyLCAtMjEpIiBzdHlsZT0iIiBjbGFzcz0ibGFiZWwiPjxyZWN0Lz48Zm9yZWlnbk9iamVjdCBoZWlnaHQ9IjQyIiB3aWR0aD0iMTU0LjA4NzUwOTE1NTI3MzQ0Ij48ZGl2IHhtbG5zPSJodHRwOi8vd3d3LnczLm9yZy8xOTk5L3hodG1sIiBzdHlsZT0iZGlzcGxheTogdGFibGUtY2VsbDsgd2hpdGUtc3BhY2U6IG5vcm1hbDsgbGluZS1oZWlnaHQ6IDEuNTsgbWF4LXdpZHRoOiAyMDBweDsgdGV4dC1hbGlnbjogY2VudGVyOyI+PHNwYW4gY2xhc3M9Im5vZGVMYWJlbCI+PHA+U2ltcGFuIEhpZ2ggU2NvcmUgQmFydTxiciAvPmtlIEZpbGU8L3A+PC9zcGFuPjwvZGl2PjwvZm9yZWlnbk9iamVjdD48L2c+PC9nPjxnIHRyYW5zZm9ybT0idHJhbnNsYXRlKDgxNy45NzUwMTA4NzE4ODcyLCA1MzgyLjM1MDAxMzczMjkxKSIgZGF0YS1sb29rPSJuZW8iIGRhdGEtZXQ9Im5vZGUiIGRhdGEtbm9kZT0idHJ1ZSIgZGF0YS1pZD0iTExMIiBpZD0iZmxvd2NoYXJ0LUxMTC05NyIgY2xhc3M9Im5vZGUgZGVmYXVsdCI+PHBvbHlnb24gc3R5bGU9ImZpbGw6I2UzZjJmZCAhaW1wb3J0YW50IiB0cmFuc2Zvcm09InRyYW5zbGF0ZSgtNjguMTQzNzQ5MjM3MDYwNTUsMzMpIiBjbGFzcz0ibGFiZWwtY29udGFpbmVyIiBwb2ludHM9Ii0zMywwIDEzNi4yODc0OTg0NzQxMjExLDAgMTY5LjI4NzQ5ODQ3NDEyMTEsLTY2IDAsLTY2Ii8+PGcgdHJhbnNmb3JtPSJ0cmFuc2xhdGUoLTU5LjE0Mzc0OTIzNzA2MDU1LCAtMjEpIiBzdHlsZT0iIiBjbGFzcz0ibGFiZWwiPjxyZWN0Lz48Zm9yZWlnbk9iamVjdCBoZWlnaHQ9IjQyIiB3aWR0aD0iMTE4LjI4NzQ5ODQ3NDEyMTEiPjxkaXYgeG1sbnM9Imh0dHA6Ly93d3cudzMub3JnLzE5OTkveGh0bWwiIHN0eWxlPSJkaXNwbGF5OiB0YWJsZS1jZWxsOyB3aGl0ZS1zcGFjZTogbm9ybWFsOyBsaW5lLWhlaWdodDogMS41OyBtYXgtd2lkdGg6IDIwMHB4OyB0ZXh0LWFsaWduOiBjZW50ZXI7Ij48c3BhbiBjbGFzcz0ibm9kZUxhYmVsIj48cD5UYW1waWxrYW4gU2VsYW1hdDxiciAvPkhpZ2ggU2NvcmUgQmFydTwvcD48L3NwYW4+PC9kaXY+PC9mb3JlaWduT2JqZWN0PjwvZz48L2c+PGcgdHJhbnNmb3JtPSJ0cmFuc2xhdGUoMjk1LjUzNDM5MzMxMDU0NjksIDUzODIuMzUwMDEzNzMyOTEpIiBkYXRhLWxvb2s9Im5lbyIgZGF0YS1ldD0ibm9kZSIgZGF0YS1ub2RlPSJ0cnVlIiBkYXRhLWlkPSJNTSIgaWQ9ImZsb3djaGFydC1NTS05OSIgY2xhc3M9Im5vZGUgZGVmYXVsdCI+PHBvbHlnb24gc3R5bGU9ImZpbGw6I2UzZjJmZCAhaW1wb3J0YW50IiB0cmFuc2Zvcm09InRyYW5zbGF0ZSgtOTYuNTQzNzU0NTc3NjM2NzIsMzMpIiBjbGFzcz0ibGFiZWwtY29udGFpbmVyIiBwb2ludHM9Ii0zMywwIDE5My4wODc1MDkxNTUyNzM0NCwwIDIyNi4wODc1MDkxNTUyNzM0NCwtNjYgMCwtNjYiLz48ZyB0cmFuc2Zvcm09InRyYW5zbGF0ZSgtODcuNTQzNzU0NTc3NjM2NzIsIC0yMSkiIHN0eWxlPSIiIGNsYXNzPSJsYWJlbCI+PHJlY3QvPjxmb3JlaWduT2JqZWN0IGhlaWdodD0iNDIiIHdpZHRoPSIxNzUuMDg3NTA5MTU1MjczNDQiPjxkaXYgeG1sbnM9Imh0dHA6Ly93d3cudzMub3JnLzE5OTkveGh0bWwiIHN0eWxlPSJkaXNwbGF5OiB0YWJsZS1jZWxsOyB3aGl0ZS1zcGFjZTogbm9ybWFsOyBsaW5lLWhlaWdodDogMS41OyBtYXgtd2lkdGg6IDIwMHB4OyB0ZXh0LWFsaWduOiBjZW50ZXI7Ij48c3BhbiBjbGFzcz0ibm9kZUxhYmVsIj48cD5UYW1waWxrYW4gSGlnaCBTY29yZSBMYW1hPGJyIC8+VGV0YXAgU2FtYTwvcD48L3NwYW4+PC9kaXY+PC9mb3JlaWduT2JqZWN0PjwvZz48L2c+PGcgdHJhbnNmb3JtPSJ0cmFuc2xhdGUoNjgzLjE4NzUwNzYyOTM5NDUsIDU0ODcuODUwMDEzNzMyOTEpIiBkYXRhLWxvb2s9Im5lbyIgZGF0YS1ldD0ibm9kZSIgZGF0YS1ub2RlPSJ0cnVlIiBkYXRhLWlkPSJOTiIgaWQ9ImZsb3djaGFydC1OTi0xMDEiIGNsYXNzPSJub2RlIGRlZmF1bHQiPjxwb2x5Z29uIHN0eWxlPSJmaWxsOiNlM2YyZmQgIWltcG9ydGFudCIgdHJhbnNmb3JtPSJ0cmFuc2xhdGUoLTk2LjkzMTI1MTUyNTg3ODksMjIuNSkiIGNsYXNzPSJsYWJlbC1jb250YWluZXIiIHBvaW50cz0iLTIyLjUsMCAxOTMuODYyNTAzMDUxNzU3OCwwIDIxNi4zNjI1MDMwNTE3NTc4LC00NSAwLC00NSIvPjxnIHRyYW5zZm9ybT0idHJhbnNsYXRlKC04Ny45MzEyNTE1MjU4Nzg5LCAtMTAuNSkiIHN0eWxlPSIiIGNsYXNzPSJsYWJlbCI+PHJlY3QvPjxmb3JlaWduT2JqZWN0IGhlaWdodD0iMjEiIHdpZHRoPSIxNzUuODYyNTAzMDUxNzU3OCI+PGRpdiB4bWxucz0iaHR0cDovL3d3dy53My5vcmcvMTk5OS94aHRtbCIgc3R5bGU9ImRpc3BsYXk6IHRhYmxlLWNlbGw7IHdoaXRlLXNwYWNlOiBub3JtYWw7IGxpbmUtaGVpZ2h0OiAxLjU7IG1heC13aWR0aDogMjAwcHg7IHRleHQtYWxpZ246IGNlbnRlcjsiPjxzcGFuIGNsYXNzPSJub2RlTGFiZWwiPjxwPlRhbXBpbGthbiBNZW51IFBvc3QgR2FtZTwvcD48L3NwYW4+PC9kaXY+PC9mb3JlaWduT2JqZWN0PjwvZz48L2c+PGcgdHJhbnNmb3JtPSJ0cmFuc2xhdGUoOTIwLjE1NjI2MTQ0NDA5MTgsIDU2MDMuODUwMDEzNzMyOTEpIiBkYXRhLWxvb2s9Im5lbyIgZGF0YS1ldD0ibm9kZSIgZGF0YS1ub2RlPSJ0cnVlIiBkYXRhLWlkPSJPTyIgaWQ9ImZsb3djaGFydC1PTy0xMDUiIGNsYXNzPSJub2RlIGRlZmF1bHQiPjxwb2x5Z29uIHN0eWxlPSJmaWxsOiNlOGY1ZTggIWltcG9ydGFudCIgdHJhbnNmb3JtPSJ0cmFuc2xhdGUoLTEwOSw0My41KSIgY2xhc3M9ImxhYmVsLWNvbnRhaW5lciIgcG9pbnRzPSItNDMuNSwwIDIxOCwwIDI2MS41LC04NyAwLC04NyIvPjxnIHRyYW5zZm9ybT0idHJhbnNsYXRlKC0xMDAsIC0zMS41KSIgc3R5bGU9IiIgY2xhc3M9ImxhYmVsIj48cmVjdC8+PGZvcmVpZ25PYmplY3QgaGVpZ2h0PSI2MyIgd2lkdGg9IjIwMCI+PGRpdiB4bWxucz0iaHR0cDovL3d3dy53My5vcmcvMTk5OS94aHRtbCIgc3R5bGU9ImRpc3BsYXk6IHRhYmxlOyB3aGl0ZS1zcGFjZTogYnJlYWstc3BhY2VzOyBsaW5lLWhlaWdodDogMS41OyBtYXgtd2lkdGg6IDIwMHB4OyB0ZXh0LWFsaWduOiBjZW50ZXI7IHdpZHRoOiAyMDBweDsiPjxzcGFuIGNsYXNzPSJub2RlTGFiZWwiPjxwPlVzZXIgUGlsaWggTWVudTxiciAvPjEtTWFpbiBMYWdpLCAyLUxlYWRlcmJvYXJkLCAzLUtlbHVhcjwvcD48L3NwYW4+PC9kaXY+PC9mb3JlaWduT2JqZWN0PjwvZz48L2c+PGcgdHJhbnNmb3JtPSJ0cmFuc2xhdGUoODM2Ljg1NjI1NzQzODY1OTcsIDU3NjkuMjUwMDE1MjU4Nzg5KSIgZGF0YS1sb29rPSJuZW8iIGRhdGEtZXQ9Im5vZGUiIGRhdGEtbm9kZT0idHJ1ZSIgZGF0YS1pZD0iUFAiIGlkPSJmbG93Y2hhcnQtUFAtMTA3IiBjbGFzcz0ibm9kZSBkZWZhdWx0Ij48cG9seWdvbiB0cmFuc2Zvcm09InRyYW5zbGF0ZSgtNzEuOTAwMDAxNTI1ODc4OSw3MS45MDAwMDE1MjU4Nzg5KSIgY2xhc3M9ImxhYmVsLWNvbnRhaW5lciIgcG9pbnRzPSI3MS45MDAwMDE1MjU4Nzg5LDAgMTQzLjgwMDAwMzA1MTc1NzgsLTcxLjkwMDAwMTUyNTg3ODkgNzEuOTAwMDAxNTI1ODc4OSwtMTQzLjgwMDAwMzA1MTc1NzggMCwtNzEuOTAwMDAxNTI1ODc4OSIvPjxnIHRyYW5zZm9ybT0idHJhbnNsYXRlKC00MS45MDAwMDE1MjU4Nzg5MDYsIC0xMC41KSIgc3R5bGU9IiIgY2xhc3M9ImxhYmVsIj48cmVjdC8+PGZvcmVpZ25PYmplY3QgaGVpZ2h0PSIyMSIgd2lkdGg9IjgzLjgwMDAwMzA1MTc1NzgxIj48ZGl2IHhtbG5zPSJodHRwOi8vd3d3LnczLm9yZy8xOTk5L3hodG1sIiBzdHlsZT0iZGlzcGxheTogdGFibGUtY2VsbDsgd2hpdGUtc3BhY2U6IG5vcm1hbDsgbGluZS1oZWlnaHQ6IDEuNTsgbWF4LXdpZHRoOiAyMDBweDsgdGV4dC1hbGlnbjogY2VudGVyOyI+PHNwYW4gY2xhc3M9Im5vZGVMYWJlbCI+PHA+UGlsaWhhbiBWYWxpZD88L3A+PC9zcGFuPjwvZGl2PjwvZm9yZWlnbk9iamVjdD48L2c+PC9nPjxnIHRyYW5zZm9ybT0idHJhbnNsYXRlKDkxLjg4NzUwNDU3NzYzNjcyLCA1OTQ1LjE1MDAxNjc4NDY2OCkiIGRhdGEtbG9vaz0ibmVvIiBkYXRhLWV0PSJub2RlIiBkYXRhLW5vZGU9InRydWUiIGRhdGEtaWQ9IlFRIiBpZD0iZmxvd2NoYXJ0LVFRLTExMSIgY2xhc3M9Im5vZGUgZGVmYXVsdCI+PHJlY3Qgc3Ryb2tlPSJ1cmwoI2dyYWRpZW50KSIgaGVpZ2h0PSI2NiIgd2lkdGg9IjE2Ny43NzUwMDkxNTUyNzM0NCIgeT0iLTMzIiB4PSItODMuODg3NTA0NTc3NjM2NzIiIGRhdGEtaWQ9IlFRIiBzdHlsZT0iIiBjbGFzcz0iYmFzaWMgbGFiZWwtY29udGFpbmVyIi8+PGcgdHJhbnNmb3JtPSJ0cmFuc2xhdGUoLTY3Ljg4NzUwNDU3NzYzNjcyLCAtMjEpIiBzdHlsZT0iIiBjbGFzcz0ibGFiZWwiPjxyZWN0Lz48Zm9yZWlnbk9iamVjdCBoZWlnaHQ9IjQyIiB3aWR0aD0iMTM1Ljc3NTAwOTE1NTI3MzQ0Ij48ZGl2IHhtbG5zPSJodHRwOi8vd3d3LnczLm9yZy8xOTk5L3hodG1sIiBzdHlsZT0iZGlzcGxheTogdGFibGUtY2VsbDsgd2hpdGUtc3BhY2U6IG5vcm1hbDsgbGluZS1oZWlnaHQ6IDEuNTsgbWF4LXdpZHRoOiAyMDBweDsgdGV4dC1hbGlnbjogY2VudGVyOyI+PHNwYW4gY2xhc3M9Im5vZGVMYWJlbCI+PHA+UmVzZXQgR2FtZTxiciAvPlNrb3IgPSAwLCBUaW1lciBSZXNldDwvcD48L3NwYW4+PC9kaXY+PC9mb3JlaWduT2JqZWN0PjwvZz48L2c+PGcgdHJhbnNmb3JtPSJ0cmFuc2xhdGUoNTc4LjAxNTYzMTY3NTcyMDIsIDU5NDUuMTUwMDE2Nzg0NjY4KSIgZGF0YS1sb29rPSJuZW8iIGRhdGEtZXQ9Im5vZGUiIGRhdGEtbm9kZT0idHJ1ZSIgZGF0YS1pZD0iUlIiIGlkPSJmbG93Y2hhcnQtUlItMTE1IiBjbGFzcz0ibm9kZSBkZWZhdWx0Ij48cmVjdCBzdHJva2U9InVybCgjZ3JhZGllbnQpIiBoZWlnaHQ9IjY2IiB3aWR0aD0iMTczLjYyNSIgeT0iLTMzIiB4PSItODYuODEyNSIgZGF0YS1pZD0iUlIiIHN0eWxlPSIiIGNsYXNzPSJiYXNpYyBsYWJlbC1jb250YWluZXIiLz48ZyB0cmFuc2Zvcm09InRyYW5zbGF0ZSgtNzAuODEyNSwgLTIxKSIgc3R5bGU9IiIgY2xhc3M9ImxhYmVsIj48cmVjdC8+PGZvcmVpZ25PYmplY3QgaGVpZ2h0PSI0MiIgd2lkdGg9IjE0MS42MjUiPjxkaXYgeG1sbnM9Imh0dHA6Ly93d3cudzMub3JnLzE5OTkveGh0bWwiIHN0eWxlPSJkaXNwbGF5OiB0YWJsZS1jZWxsOyB3aGl0ZS1zcGFjZTogbm9ybWFsOyBsaW5lLWhlaWdodDogMS41OyBtYXgtd2lkdGg6IDIwMHB4OyB0ZXh0LWFsaWduOiBjZW50ZXI7Ij48c3BhbiBjbGFzcz0ibm9kZUxhYmVsIj48cD5CYWNhIEZpbGUgdXNlcnMudHh0PGJyIC8+U29ydCBCZXJkYXNhcmthbiBTa29yPC9wPjwvc3Bhbj48L2Rpdj48L2ZvcmVpZ25PYmplY3Q+PC9nPjwvZz48ZyB0cmFuc2Zvcm09InRyYW5zbGF0ZSg1MTcuMTA5MzgxNjc1NzIwMiwgNjA2MS4xNTAwMTY3ODQ2NjgpIiBkYXRhLWxvb2s9Im5lbyIgZGF0YS1ldD0ibm9kZSIgZGF0YS1ub2RlPSJ0cnVlIiBkYXRhLWlkPSJTUyIgaWQ9ImZsb3djaGFydC1TUy0xMTciIGNsYXNzPSJub2RlIGRlZmF1bHQiPjxwb2x5Z29uIHN0eWxlPSJmaWxsOiNlM2YyZmQgIWltcG9ydGFudCIgdHJhbnNmb3JtPSJ0cmFuc2xhdGUoLTg1LjEzNzUwNDU3NzYzNjcyLDMzKSIgY2xhc3M9ImxhYmVsLWNvbnRhaW5lciIgcG9pbnRzPSItMzMsMCAxNzAuMjc1MDA5MTU1MjczNDQsMCAyMDMuMjc1MDA5MTU1MjczNDQsLTY2IDAsLTY2Ii8+PGcgdHJhbnNmb3JtPSJ0cmFuc2xhdGUoLTc2LjEzNzUwNDU3NzYzNjcyLCAtMjEpIiBzdHlsZT0iIiBjbGFzcz0ibGFiZWwiPjxyZWN0Lz48Zm9yZWlnbk9iamVjdCBoZWlnaHQ9IjQyIiB3aWR0aD0iMTUyLjI3NTAwOTE1NTI3MzQ0Ij48ZGl2IHhtbG5zPSJodHRwOi8vd3d3LnczLm9yZy8xOTk5L3hodG1sIiBzdHlsZT0iZGlzcGxheTogdGFibGUtY2VsbDsgd2hpdGUtc3BhY2U6IG5vcm1hbDsgbGluZS1oZWlnaHQ6IDEuNTsgbWF4LXdpZHRoOiAyMDBweDsgdGV4dC1hbGlnbjogY2VudGVyOyI+PHNwYW4gY2xhc3M9Im5vZGVMYWJlbCI+PHA+VGFtcGlsa2FuIFRvcCAxMCBQbGF5ZXI8YnIgLz5kYW4gUG9zaXNpIFVzZXI8L3A+PC9zcGFuPjwvZGl2PjwvZm9yZWlnbk9iamVjdD48L2c+PC9nPjxnIHRyYW5zZm9ybT0idHJhbnNsYXRlKDk2Ni4zNDY4ODQ3Mjc0NzgsIDU5NDUuMTUwMDE2Nzg0NjY4KSIgZGF0YS1sb29rPSJuZW8iIGRhdGEtZXQ9Im5vZGUiIGRhdGEtbm9kZT0idHJ1ZSIgZGF0YS1pZD0iVFQiIGlkPSJmbG93Y2hhcnQtVFQtMTIxIiBjbGFzcz0ibm9kZSBkZWZhdWx0Ij48cG9seWdvbiBzdHlsZT0iZmlsbDojZTNmMmZkICFpbXBvcnRhbnQiIHRyYW5zZm9ybT0idHJhbnNsYXRlKC05OS42Njg3NTQ1Nzc2MzY3MiwyMi41KSIgY2xhc3M9ImxhYmVsLWNvbnRhaW5lciIgcG9pbnRzPSItMjIuNSwwIDE5OS4zMzc1MDkxNTUyNzM0NCwwIDIyMS44Mzc1MDkxNTUyNzM0NCwtNDUgMCwtNDUiLz48ZyB0cmFuc2Zvcm09InRyYW5zbGF0ZSgtOTAuNjY4NzU0NTc3NjM2NzIsIC0xMC41KSIgc3R5bGU9IiIgY2xhc3M9ImxhYmVsIj48cmVjdC8+PGZvcmVpZ25PYmplY3QgaGVpZ2h0PSIyMSIgd2lkdGg9IjE4MS4zMzc1MDkxNTUyNzM0NCI+PGRpdiB4bWxucz0iaHR0cDovL3d3dy53My5vcmcvMTk5OS94aHRtbCIgc3R5bGU9ImRpc3BsYXk6IHRhYmxlLWNlbGw7IHdoaXRlLXNwYWNlOiBub3JtYWw7IGxpbmUtaGVpZ2h0OiAxLjU7IG1heC13aWR0aDogMjAwcHg7IHRleHQtYWxpZ246IGNlbnRlcjsiPjxzcGFuIGNsYXNzPSJub2RlTGFiZWwiPjxwPlRhbXBpbGthbiBQZXNhbiBQZXJwaXNhaGFuPC9wPjwvc3Bhbj48L2Rpdj48L2ZvcmVpZ25PYmplY3Q+PC9nPjwvZz48ZyB0cmFuc2Zvcm09InRyYW5zbGF0ZSg5NjYuMzQ2ODg0NzI3NDc4LCA2MDYxLjE1MDAxNjc4NDY2OCkiIGRhdGEtbG9vaz0ibmVvIiBkYXRhLWV0PSJub2RlIiBkYXRhLW5vZGU9InRydWUiIGRhdGEtaWQ9IlVVIiBpZD0iZmxvd2NoYXJ0LVVVLTEyMyIgY2xhc3M9Im5vZGUgZGVmYXVsdCI+PHJlY3Qgc3Ryb2tlPSJ1cmwoI2dyYWRpZW50KSIgaGVpZ2h0PSI0NSIgd2lkdGg9Ijc3LjkyNDk5OTIzNzA2MDU1IiB5PSItMjIuNSIgeD0iLTM4Ljk2MjQ5OTYxODUzMDI3IiBkYXRhLWlkPSJVVSIgc3R5bGU9ImZpbGw6I2ZmZWJlZSAhaW1wb3J0YW50IiBjbGFzcz0iYmFzaWMgbGFiZWwtY29udGFpbmVyIi8+PGcgdHJhbnNmb3JtPSJ0cmFuc2xhdGUoLTIyLjk2MjQ5OTYxODUzMDI3MywgLTEwLjUpIiBzdHlsZT0iIiBjbGFzcz0ibGFiZWwiPjxyZWN0Lz48Zm9yZWlnbk9iamVjdCBoZWlnaHQ9IjIxIiB3aWR0aD0iNDUuOTI0OTk5MjM3MDYwNTUiPjxkaXYgeG1sbnM9Imh0dHA6Ly93d3cudzMub3JnLzE5OTkveGh0bWwiIHN0eWxlPSJkaXNwbGF5OiB0YWJsZS1jZWxsOyB3aGl0ZS1zcGFjZTogbm9ybWFsOyBsaW5lLWhlaWdodDogMS41OyBtYXgtd2lkdGg6IDIwMHB4OyB0ZXh0LWFsaWduOiBjZW50ZXI7Ij48c3BhbiBjbGFzcz0ibm9kZUxhYmVsIj48cD5TZWxlc2FpPC9wPjwvc3Bhbj48L2Rpdj48L2ZvcmVpZ25PYmplY3Q+PC9nPjwvZz48L2c+PC9nPjwvZz48ZGVmcz48ZmlsdGVyIHdpZHRoPSIxMzAlIiBoZWlnaHQ9IjEzMCUiIGlkPSJkcm9wLXNoYWRvdyI+PGZlRHJvcFNoYWRvdyBmbG9vZC1jb2xvcj0iIzAwMDAwMCIgZmxvb2Qtb3BhY2l0eT0iMC4wNiIgc3RkRGV2aWF0aW9uPSIwIiBkeT0iNCIgZHg9IjQiLz48L2ZpbHRlcj48L2RlZnM+PGRlZnM+PGZpbHRlciB3aWR0aD0iMTUwJSIgaGVpZ2h0PSIxNTAlIiBpZD0iZHJvcC1zaGFkb3ctc21hbGwiPjxmZURyb3BTaGFkb3cgZmxvb2QtY29sb3I9IiMwMDAwMDAiIGZsb29kLW9wYWNpdHk9IjAuMDYiIHN0ZERldmlhdGlvbj0iMCIgZHk9IjIiIGR4PSIyIi8+PC9maWx0ZXI+PC9kZWZzPjxsaW5lYXJHcmFkaWVudCB5Mj0iMCUiIHgyPSIxMDAlIiB5MT0iMCUiIHgxPSIwJSIgZ3JhZGllbnRVbml0cz0ib2JqZWN0Qm91bmRpbmdCb3giIGlkPSJleHBvcnQtc3ZnLWdyYWRpZW50Ij48c3RvcCBzdG9wLW9wYWNpdHk9IjEiIHN0b3AtY29sb3I9IiMwMDQyZWIiIG9mZnNldD0iMCUiLz48c3RvcCBzdG9wLW9wYWNpdHk9IjEiIHN0b3AtY29sb3I9IiNlYjAwNDIiIG9mZnNldD0iMTAwJSIvPjwvbGluZWFyR3JhZGllbnQ+PC9zdmc+;movable=1;resizable=1;rotatable=1;deletable=1;editable=1;locked=0;connectable=1;" vertex="1" parent="1">
          <mxGeometry x="694" y="170" width="266" height="1200" as="geometry" />
        </mxCell>
      </root>
    </mxGraphModel>
  </diagram>
  <diagram id="Ug9ZBchI0JFnPifT6nTc" name="Halaman-2">
    <mxGraphModel dx="902" dy="464" grid="1" gridSize="10" guides="1" tooltips="1" connect="1" arrows="1" fold="1" page="1" pageScale="1" pageWidth="1654" pageHeight="1169" math="0" shadow="0">
      <root>
        <mxCell id="0" />
        <mxCell id="1" parent="0" />
      </root>
    </mxGraphModel>
  </diagram>
</mxfile>
